<?xml version="1.0" encoding="UTF-8" standalone="no"?>
<!DOCTYPE svg PUBLIC "-//W3C//DTD SVG 1.1//EN" "http://www.w3.org/Graphics/SVG/1.1/DTD/svg11.dtd">
<svg width="100%" height="100%" viewBox="0 0 374 104" version="1.1" xmlns="http://www.w3.org/2000/svg" xmlns:xlink="http://www.w3.org/1999/xlink" xml:space="preserve" xmlns:serif="http://www.serif.com/" style="fill-rule:evenodd;clip-rule:evenodd;stroke-linecap:round;stroke-linejoin:round;stroke-miterlimit:1.5;">
    <g transform="matrix(1,0,0,1,0,-510)">
        <g transform="matrix(0.409929,0,0,0.252317,-472.565,-145.596)">
            <rect id="physics-icon4" x="1152.8" y="2601.51" width="912.353" height="408.217" style="fill:none;"/>
            <g id="physics-icon41" serif:id="physics-icon4">
                <g transform="matrix(1.94649,0,0,3.31814,1123.79,2460.46)">
                    <ellipse cx="90.978" cy="101.87" rx="56.481" ry="53.83" style="fill:rgb(251,234,190);stroke:rgb(18,48,74);stroke-width:4.89px;"/>
                </g>
                <g transform="matrix(2.43945,0,0,3.96327,973.305,2155.8)">
                    <text x="203.736px" y="136.96px" style="font-family:'Cabin-Regular', 'Cabin', sans-serif;font-size:24px;">Each l<tspan x="263.4px " y="136.96px ">e</tspan>sson has no<tspan x="393.888px " y="136.96px ">t</tspan>es</text>
                    <text x="205.32px" y="160.96px" style="font-family:'Cabin-Regular', 'Cabin', sans-serif;font-size:24px;">with c<tspan x="265.032px 278.232px " y="160.96px 160.96px ">om</tspan>ics and fill in</text>
                    <text x="238.296px" y="184.96px" style="font-family:'Cabin-Regular', 'Cabin', sans-serif;font-size:24px;">the blank<tspan x="331.392px 341.568px " y="184.96px 184.96px ">-s</tspan>tyl<tspan x="377.256px " y="184.96px ">e</tspan></text>
                    <g transform="matrix(24,0,0,24,373.608,208.96)">
                    </g>
                    <text x="254.232px" y="208.96px" style="font-family:'Cabin-Regular', 'Cabin', sans-serif;font-size:24px;">w<tspan x="271.512px 284.712px " y="208.96px 208.96px ">or</tspan>ksheets.</text>
                </g>
                <g transform="matrix(0.785007,0,0,1.50681,1002.16,-872.165)">
                    <g>
                        <g transform="matrix(1,0,0,1,22.2708,-9.59939)">
                            <path d="M414.424,2460.31L444.651,2465.45L434.296,2504.29L439.737,2509.02L433.785,2508.69L435.793,2514.43L421.438,2503.97L424.574,2481.72L400.871,2481.09" style="fill:rgb(130,166,218);stroke:black;stroke-width:4.73px;"/>
                        </g>
                        <g transform="matrix(1,0,0,1,22.2708,-9.59939)">
                            <path d="M434.745,2415.43C426.253,2444.58 409.837,2469.8 390.612,2493.62L367.87,2507.54L349.571,2514.38L352.851,2520.75L348.269,2518.05L345.36,2523.86L336.938,2503.86L362.73,2489.09L367.991,2479.3C327.942,2475.51 293.084,2448.82 284.388,2414.91C312.778,2434.23 346.933,2443.75 367.15,2438.06C385.925,2431.01 402.284,2407.89 418.683,2385.03C420.639,2382.3 422.859,2378.91 425.556,2377.89C428.253,2376.86 434.864,2378.88 434.864,2378.88L464.15,2384.53C464.15,2384.53 467.081,2385.15 467.419,2386.35C467.85,2387.89 466.738,2393.74 466.738,2393.74L462.645,2414.16C462.645,2414.16 461.773,2416.95 460.757,2417.59C459.741,2418.22 456.549,2417.98 456.549,2417.98L434.745,2415.43Z" style="fill:rgb(130,166,218);stroke:black;stroke-width:4.73px;"/>
                        </g>
                        <g transform="matrix(0.905787,0.423734,-0.423734,0.905787,1093.65,41.6305)">
                            <path d="M411.971,2433.56L422.816,2447.02L444.467,2436.88L453.555,2435.64L449.86,2432.11L453.09,2427.07L441.762,2429.87L425.468,2439.24L421.438,2431.07" style="fill:rgb(130,166,218);stroke:black;stroke-width:4.46px;"/>
                        </g>
                        <g transform="matrix(0.901403,0.0776013,-0.0753508,0.875262,252.084,252.442)">
                            <path d="M423.886,2446.59L444.67,2439.12L453.95,2439.3L450.144,2435.52L452.273,2430.57L442.885,2431.39L425.986,2439.25" style="fill:rgb(130,166,218);stroke:black;stroke-width:5.25px;"/>
                        </g>
                    </g>
                    <g transform="matrix(0.90822,0,0,0.917672,57.767,186.084)">
                        <ellipse cx="439.726" cy="2387.85" rx="10.776" ry="10.964" style="fill:white;stroke:black;stroke-width:5.18px;"/>
                    </g>
                    <g transform="matrix(1,0,0,1,22.2708,-9.59939)">
                        <path d="M464.15,2406.26L459.213,2408.8L456.94,2403.87L450.502,2409.01L450.502,2400.8L444.651,2406.26L442.879,2400.84" style="fill:none;stroke:black;stroke-width:4.73px;"/>
                    </g>
                    <g transform="matrix(1,0,0,1,19.8755,-9.2908)">
                        <ellipse cx="438.872" cy="2386.64" rx="4.008" ry="4.768" style="stroke:black;stroke-width:4.73px;"/>
                    </g>
                    <g transform="matrix(1.30891,0,0,1.50103,-8.63201,-1194.8)">
                        <ellipse cx="359.567" cy="2378.52" rx="1.651" ry="1.629" style="fill:white;"/>
                    </g>
                    <g transform="matrix(-4.62967e-17,-0.756083,-0.82087,5.02638e-17,2310.97,2634.16)">
                        <path d="M227.116,2494.24L227.716,2409.58" style="fill:none;"/>
                        <path d="M225.575,2494.23C225.568,2495.16 226.254,2495.91 227.105,2495.92C227.956,2495.93 228.652,2495.18 228.658,2494.26C228.658,2494.26 228.762,2487.28 229.031,2477.33C229.697,2452.61 231.195,2409.61 231.195,2409.61C231.21,2407.52 229.663,2405.81 227.743,2405.8C225.823,2405.78 224.253,2407.46 224.238,2409.55C224.238,2409.55 225.126,2452.57 225.442,2477.3C225.57,2487.25 225.575,2494.23 225.575,2494.23Z" style="fill:rgb(128,128,128);"/>
                    </g>
                    <g transform="matrix(-4.62967e-17,-0.756083,-0.82087,5.02638e-17,2301.06,2625.73)">
                        <path d="M227.116,2494.24L227.716,2409.58" style="fill:none;"/>
                        <path d="M225.575,2494.23C225.568,2495.16 226.254,2495.91 227.105,2495.92C227.956,2495.93 228.652,2495.18 228.658,2494.26C228.658,2494.26 228.762,2487.28 229.031,2477.33C229.697,2452.61 231.195,2409.61 231.195,2409.61C231.21,2407.52 229.663,2405.81 227.743,2405.8C225.823,2405.78 224.253,2407.46 224.238,2409.55C224.238,2409.55 225.126,2452.57 225.442,2477.3C225.57,2487.25 225.575,2494.23 225.575,2494.23Z" style="fill:rgb(128,128,128);"/>
                    </g>
                    <g transform="matrix(-4.62967e-17,-0.756083,-0.82087,5.02638e-17,2287.92,2613.76)">
                        <path d="M227.116,2494.24L227.716,2409.58" style="fill:none;"/>
                        <path d="M225.575,2494.23C225.568,2495.16 226.254,2495.91 227.105,2495.92C227.956,2495.93 228.652,2495.18 228.658,2494.26C228.658,2494.26 228.762,2487.28 229.031,2477.33C229.697,2452.61 231.195,2409.61 231.195,2409.61C231.21,2407.52 229.663,2405.81 227.743,2405.8C225.823,2405.78 224.253,2407.46 224.238,2409.55C224.238,2409.55 225.126,2452.57 225.442,2477.3C225.57,2487.25 225.575,2494.23 225.575,2494.23Z" style="fill:rgb(128,128,128);"/>
                    </g>
                </g>
            </g>
        </g>
    </g>
</svg>
