<?xml version="1.0" encoding="UTF-8" standalone="no"?>
<!DOCTYPE svg PUBLIC "-//W3C//DTD SVG 1.1//EN" "http://www.w3.org/Graphics/SVG/1.1/DTD/svg11.dtd">
<svg width="100%" height="100%" viewBox="0 0 481 690" version="1.1" xmlns="http://www.w3.org/2000/svg" xmlns:xlink="http://www.w3.org/1999/xlink" xml:space="preserve" xmlns:serif="http://www.serif.com/" style="fill-rule:evenodd;clip-rule:evenodd;stroke-linecap:round;stroke-linejoin:round;stroke-miterlimit:1.5;">
    <g transform="matrix(1,0,0,1,-606,-1793)">
        <g transform="matrix(0.6,0,0,1.14853,606.923,1793.88)">
            <rect id="Physics1Topics" x="0" y="0" width="800" height="600" style="fill:none;"/>
            <g id="Physics1Topics1" serif:id="Physics1Topics">
                <g transform="matrix(1.62295,0,0,0.8896,-13.071,-21.8858)">
                    <ellipse cx="90.978" cy="101.87" rx="56.481" ry="53.83" style="fill:white;"/>
                </g>
                <g transform="matrix(1.62295,0,0,0.8896,518.286,136.409)">
                    <ellipse cx="90.978" cy="101.87" rx="56.481" ry="53.83" style="fill:white;"/>
                </g>
                <g transform="matrix(1.62295,0,0,0.8896,-12.848,293.409)">
                    <ellipse cx="90.978" cy="101.87" rx="56.481" ry="53.83" style="fill:white;"/>
                </g>
                <g transform="matrix(1.62295,0,0,0.8896,518.527,447.03)">
                    <ellipse cx="90.978" cy="101.87" rx="56.481" ry="53.83" style="fill:white;"/>
                </g>
                <g transform="matrix(1.66667,0,0,0.870678,-160.031,81.6268)">
                    <g transform="matrix(24,0,0,24,412.8,172.96)">
                    </g>
                    <text x="215.04px" y="172.96px" style="font-family:'Cabin-Regular', 'Cabin', sans-serif;font-size:24px;">T<tspan x="227.688px 240.696px " y="172.96px 172.96px ">he</tspan> La<tspan x="281.616px 299.016px " y="172.96px 172.96px ">ws</tspan> o<tspan x="327.432px 335.376px 340.776px 359.976px 373.008px 381.096px " y="172.96px 172.96px 172.96px 172.96px 172.96px 172.96px ">f Moti</tspan>on</text>
                </g>
                <g transform="matrix(1.66667,0,0,0.870678,-52.0481,-58.9716)">
                    <text x="209.489px" y="158.252px" style="font-family:'Cabin-Regular', 'Cabin', sans-serif;font-size:24px;">P<tspan x="222.905px 236.105px " y="158.252px 158.252px ">os</tspan>ition, V<tspan x="315.521px 327.809px 333.353px 346.553px " y="158.252px 158.252px 158.252px 158.252px ">eloc</tspan>ity<tspan x="382.001px " y="158.252px ">,</tspan></text>
                    <g transform="matrix(24,0,0,24,363.497,182.252)">
                    </g>
                    <text x="233.177px" y="182.252px" style="font-family:'Cabin-Regular', 'Cabin', sans-serif;font-size:24px;">A<tspan x="247.697px 258.425px 269.153px 281.441px 286.985px 299.273px 306.809px 318.089px 326.177px " y="182.252px 182.252px 182.252px 182.252px 182.252px 182.252px 182.252px 182.252px 182.252px ">ccelerati</tspan>on<tspan x="357.689px " y="182.252px ">!</tspan></text>
                </g>
                <g transform="matrix(1.66667,0,0,0.870678,-136.586,387.702)">
                    <text x="209.027px" y="169.224px" style="font-family:'Cabin-Regular', 'Cabin', sans-serif;font-size:24px;">E<tspan x="222.107px 235.523px 247.811px 255.371px 267.323px 278.699px 283.883px 289.283px 302.699px 315.779px " y="169.224px 169.224px 169.224px 169.224px 169.224px 169.224px 169.224px 169.224px 169.224px 169.224px ">nergy, Pow</tspan>er<tspan x="352.355px 357.539px " y="169.224px 169.224px ">, </tspan>and</text>
                    <g transform="matrix(24,0,0,24,365.447,193.224)">
                    </g>
                    <text x="244.775px" y="193.224px" style="font-family:'Cabin-Regular', 'Cabin', sans-serif;font-size:24px;">M<tspan x="263.975px 277.175px " y="193.224px 193.224px ">om</tspan>en<tspan x="323.735px 331.823px " y="193.224px 193.224px ">tu</tspan>m</text>
                </g>
                <g transform="matrix(1.66667,0,0,0.870678,-93.5282,241.276)">
                    <g transform="matrix(24,0,0,24,418.716,172.96)">
                    </g>
                    <text x="209.124px" y="172.96px" style="font-family:'Cabin-Regular', 'Cabin', sans-serif;font-size:24px;">F<tspan x="220.62px 233.82px 241.212px 251.94px " y="172.96px 172.96px 172.96px 172.96px ">orce</tspan>s and M<tspan x="342.564px 354.084px " y="172.96px 172.96px ">ac</tspan>hines</text>
                </g>
                <g transform="matrix(1.22222,0,0,0.638497,-78.8889,-119.218)">
                    <path d="M175,370C133.606,370 100,336.394 100,295C100,253.606 133.606,220 175,220C216.394,220 250,253.606 250,295C250,336.394 216.394,370 175,370L175,417.727L610,417.727L610,461.364" style="fill:none;stroke:rgb(226,208,168);stroke-width:11.59px;"/>
                </g>
                <g transform="matrix(1.22222,0,0,0.638497,-78.8889,194.185)">
                    <path d="M175,370C133.606,370 100,336.394 100,295C100,253.606 133.606,220 175,220C216.394,220 250,253.606 250,295C250,336.394 216.394,370 175,370L175,417.727L610,417.727L610,461.364" style="fill:none;stroke:rgb(226,208,168);stroke-width:11.59px;"/>
                </g>
                <g transform="matrix(-1.22222,0,0,0.638497,880.556,37.5043)">
                    <path d="M175,370C133.606,370 100,336.394 100,295C100,253.606 133.606,220 175,220C216.394,220 250,253.606 250,295C250,336.394 216.394,370 175,370L175,417.727L610,417.727L610,461.364" style="fill:none;stroke:rgb(226,208,168);stroke-width:11.59px;"/>
                </g>
                <g transform="matrix(-1.22222,0,0,0.638497,880.556,349.971)">
                    <path d="M175,370C133.606,370 100,336.394 100,295C100,253.606 133.606,220 175,220C216.394,220 250,253.606 250,295C250,336.394 216.394,370 175,370" style="fill:none;stroke:rgb(226,208,168);stroke-width:11.59px;"/>
                </g>
                <g transform="matrix(0.236705,0,0,0.123656,50.5835,19.333)">
                    <path d="M179.111,534.6C144.018,569.749 127.424,618.601 135,664.467C180.867,671.981 229.692,655.36 264.811,620.278C299.904,585.129 316.498,536.277 308.922,490.411C263.056,482.897 214.23,499.518 179.111,534.6Z" style="fill:rgb(252,234,43);fill-rule:nonzero;"/>
                    <path d="M355.256,509.322C353.123,520.056 347.859,529.918 340.127,537.663C336.361,541.411 332.076,544.598 327.402,547.126C351.431,580.143 369.157,616.956 379.571,655.466C387.451,648.559 395.022,641.259 402.257,633.593C423.519,610.99 441.691,585.398 456.163,557.676C470.06,530.786 480.331,502.207 486.654,472.838C445.227,494.553 400.3,507.028 355.254,509.323L355.256,509.322Z" style="fill:rgb(97,178,228);fill-rule:nonzero;"/>
                    <path d="M165.811,397.211C158.144,404.433 150.842,411.992 143.932,419.859C182.468,430.207 219.317,447.87 252.381,471.841C254.897,467.241 258.052,463.02 261.753,459.307C269.474,451.601 279.299,446.346 289.994,444.198C292.334,399.19 304.843,354.31 326.583,312.931C326.604,312.89 326.624,312.849 326.646,312.807C297.257,319.126 268.659,329.393 241.751,343.289C214.018,357.767 188.419,375.943 165.811,397.211Z" style="fill:rgb(146,211,245);fill-rule:nonzero;"/>
                    <path d="M386.9,230.522C328.773,288.863 293.939,365.672 289.98,444.222C308.176,440.536 327.009,446.201 340.147,459.316C353.324,472.502 358.987,491.43 355.213,509.684C433.829,505.674 510.679,470.769 569.013,412.576C643.588,337.877 678.839,234.053 662.721,136.587C643.479,133.446 623.783,132.277 603.927,133.097C524.214,136.348 446.041,171.439 386.904,230.516L386.9,230.522ZM500.778,224.643C521.236,204.184 554.41,204.179 574.874,224.63C574.879,224.634 574.883,224.639 574.888,224.643C595.352,245.096 595.359,278.26 574.901,298.718C574.897,298.722 574.892,298.727 574.888,298.731C554.422,319.18 521.25,319.173 500.793,298.716C480.33,278.264 480.322,245.102 500.778,224.643Z" style="fill:rgb(234,90,71);fill-rule:nonzero;"/>
                    <path d="M294.867,578.189C285.138,589.112 273.873,598.708 261.453,606.652C222.668,631.35 175.627,638.147 134.331,625.019C132.67,638.312 132.894,651.592 134.998,664.459C180.864,671.973 229.69,655.353 264.809,620.271C277.084,607.903 287.263,593.653 294.87,578.189L294.867,578.189Z" style="fill:rgb(241,179,28);fill-rule:nonzero;"/>
                    <path d="M291.156,429.856C290.789,434.612 290.534,439.364 290.396,444.111C308.474,440.6 327.118,446.297 340.143,459.313C353.321,472.5 358.983,491.428 355.21,509.682C433.821,505.662 510.662,470.751 568.988,412.558C585.579,395.817 600.394,377.426 613.15,357.737C598.181,371.367 581.982,383.674 564.783,394.486C480.812,446.829 379.297,459.95 291.15,429.854L291.156,429.856Z" style="fill:rgb(210,47,39);fill-rule:nonzero;"/>
                    <path d="M267.1,539.456C276.77,534.598 286.218,529.258 295.434,523.478C322.582,506.452 347.408,485.649 369.094,461.753L369.126,461.722C390.018,438.488 407.731,412.626 421.713,384.92C422.391,383.582 422.788,382.12 422.877,380.623C385.116,372.253 257.921,494.523 267.1,539.456Z" style="fill:rgb(97,178,228);fill-rule:nonzero;"/>
                    <path d="M537.833,327.667C501.432,327.667 471.822,298.066 471.822,261.676C471.822,225.286 501.432,195.684 537.833,195.684C574.234,195.684 603.844,225.286 603.844,261.676C603.844,298.066 574.234,327.667 537.833,327.667ZM537.833,217.681C513.568,217.681 493.826,237.411 493.826,261.676C493.826,285.939 513.568,305.67 537.833,305.67C562.098,305.67 581.841,285.939 581.841,261.676C581.841,237.411 562.098,217.681 537.833,217.681Z" style="fill-rule:nonzero;"/>
                    <path d="M229.478,500.7C210.833,508.57 193.676,520.117 179.11,534.598C144.02,569.743 127.424,618.591 134.996,664.453C180.862,671.967 229.686,655.347 264.807,620.266C279.299,605.706 290.858,588.553 298.737,569.912" style="fill:none;fill-rule:nonzero;stroke:black;stroke-width:21.66px;stroke-miterlimit:10;"/>
                    <path d="M165.811,397.211C158.144,404.433 150.842,411.992 143.932,419.859C182.468,430.207 219.317,447.87 252.381,471.841C254.897,467.241 258.052,463.02 261.753,459.307C269.474,451.601 279.299,446.346 289.994,444.198C292.334,399.19 304.843,354.31 326.583,312.931C326.604,312.89 326.624,312.849 326.646,312.807C297.257,319.126 268.659,329.393 241.751,343.289C214.018,357.767 188.419,375.943 165.811,397.211Z" style="fill:none;fill-rule:nonzero;stroke:black;stroke-width:21.66px;stroke-miterlimit:10;"/>
                    <path d="M355.256,509.322C353.123,520.056 347.859,529.918 340.127,537.663C336.361,541.411 332.076,544.598 327.402,547.126C351.431,580.143 369.157,616.956 379.571,655.466C387.451,648.559 395.022,641.259 402.257,633.593C423.519,610.99 441.691,585.398 456.163,557.676C470.06,530.786 480.331,502.207 486.654,472.838C445.227,494.553 400.3,507.028 355.254,509.323L355.256,509.322Z" style="fill:none;fill-rule:nonzero;stroke:black;stroke-width:21.66px;stroke-miterlimit:10;"/>
                    <path d="M353.667,481.611C356.662,491.459 356.451,500.41 355.19,509.661C433.811,505.649 510.668,470.738 569.001,412.537C643.563,337.853 678.819,234.059 662.724,136.603C565.267,120.642 461.524,155.959 386.913,230.501C328.778,288.844 293.937,365.657 289.978,444.212C300.437,442.093 311.071,443.166 320.748,446.864" style="fill:none;fill-rule:nonzero;stroke:black;stroke-width:21.66px;stroke-miterlimit:10;"/>
                    <path d="M411.911,379.956L411.909,379.956C385.069,393.492 359.993,410.651 337.469,430.893C314.303,451.906 294.136,475.956 277.642,502.239C272.043,511.162 266.882,520.32 262.179,529.677" style="fill:none;fill-rule:nonzero;stroke:black;stroke-width:21.66px;stroke-miterlimit:10;"/>
                </g>
                <g transform="matrix(0.532738,0,0,0.278306,592.844,186.008)">
                    <g transform="matrix(3.25988,0,0,3.25988,-1159.56,-6554.88)">
                        <path d="M395.364,2054.59L371.892,2082.03L373.493,2086.23L376.827,2086.4L381.551,2081.49L397.529,2064.27" style="fill:rgb(212,212,212);"/>
                    </g>
                    <g transform="matrix(3.25988,0,0,3.25988,-1159.56,-6554.88)">
                        <path d="M439.107,2055.35L430.275,2055.35L427.805,2039.29C429.396,2040.35 431.304,2040.96 433.355,2040.96C438.906,2040.96 443.421,2036.45 443.421,2030.9C443.421,2025.35 438.906,2020.83 433.355,2020.83C427.805,2020.83 423.289,2025.35 423.289,2030.9C423.289,2032.06 423.499,2033.18 423.866,2034.22L418.365,2029.51C417.246,2028.55 415.821,2028.03 414.35,2028.03L394.531,2028.03C392.152,2028.03 390.217,2029.97 390.217,2032.35C390.217,2034.72 392.152,2036.66 394.531,2036.66L412.334,2036.66L397.369,2048.41C394.652,2050.55 393.093,2053.75 393.093,2057.21C393.093,2061.03 395.014,2064.55 398.233,2066.62L411.577,2075.2L400.328,2079.89C399.198,2080.36 398.31,2081.29 397.89,2082.43C397.47,2083.58 397.549,2084.87 398.11,2085.96C398.886,2087.47 400.425,2088.34 402.025,2088.34C402.619,2088.34 403.221,2088.22 403.795,2087.97L419.302,2081.12C421.723,2079.99 423.289,2077.54 423.289,2074.86C423.289,2073.04 422.551,2071.26 421.265,2069.98L412.451,2061.16L420.76,2053.89L421.401,2059.02C421.753,2061.85 424.165,2063.98 427.01,2063.98L439.106,2063.98C441.485,2063.98 443.42,2062.05 443.42,2059.67C443.421,2057.29 441.485,2055.35 439.107,2055.35Z" style="fill:rgb(51,51,51);fill-rule:nonzero;"/>
                    </g>
                    <g transform="matrix(3.25988,0,0,3.25988,-1159.56,-6554.88)">
                        <path d="M433.355,2023.71C437.319,2023.71 440.545,2026.93 440.545,2030.9C440.545,2034.86 437.32,2038.09 433.355,2038.09C429.391,2038.09 426.165,2034.86 426.165,2030.9C426.165,2026.93 429.391,2023.71 433.355,2023.71Z" style="fill:rgb(212,212,212);fill-rule:nonzero;"/>
                    </g>
                    <g transform="matrix(3.25988,0,0,3.25988,-1159.56,-6554.88)">
                        <path d="M439.107,2061.1L427.011,2061.1C425.613,2061.1 424.428,2060.05 424.254,2058.66L422.942,2048.16L408.243,2061.02L419.232,2072.01C419.984,2072.76 420.414,2073.8 420.414,2074.86C420.414,2076.42 419.499,2077.86 418.113,2078.51L402.632,2085.34C401.896,2085.67 401.033,2085.36 400.665,2084.64C400.468,2084.26 400.442,2083.83 400.589,2083.42C400.737,2083.02 401.036,2082.71 401.433,2082.54L413.654,2077.45C414.455,2077.12 415,2076.38 415.076,2075.51C415.152,2074.65 414.747,2073.82 414.018,2073.35L399.788,2064.2C397.397,2062.66 395.969,2060.05 395.969,2057.2C395.969,2054.64 397.128,2052.25 399.146,2050.67L416.824,2036.78L413.819,2033.78L394.531,2033.78C393.738,2033.78 393.093,2033.14 393.093,2032.35C393.093,2031.55 393.738,2030.91 394.531,2030.91L414.35,2030.91C415.135,2030.91 415.896,2031.18 416.492,2031.69L424.825,2038.84L427.807,2058.23L439.107,2058.23C439.899,2058.23 440.545,2058.87 440.545,2059.67C440.545,2060.46 439.899,2061.1 439.107,2061.1Z" style="fill:rgb(212,212,212);fill-rule:nonzero;"/>
                    </g>
                    <path d="M68.991,241.4C66.638,244.077 62.677,244.536 59.785,242.473C58.201,241.343 57.188,239.656 56.94,237.729C56.692,235.798 57.24,233.918 58.487,232.423L130.075,148.831L122.875,142.826L51.282,226.422C48.39,229.891 47.063,234.452 47.64,238.933C48.217,243.414 50.659,247.488 54.338,250.113C57.207,252.157 60.511,253.15 63.797,253.15C68.335,253.15 72.83,251.247 76.041,247.581L139.37,177.049L132.315,170.871L68.991,241.4Z" style="fill:rgb(51,51,51);fill-rule:nonzero;"/>
                    <rect x="37.5" y="93.758" width="103.125" height="9.375" style="fill:rgb(51,51,51);"/>
                    <rect x="9.375" y="93.758" width="18.75" height="9.375" style="fill:rgb(51,51,51);"/>
                    <rect x="46.875" y="112.508" width="70.313" height="9.375" style="fill:rgb(51,51,51);"/>
                    <rect x="18.75" y="112.508" width="18.75" height="9.375" style="fill:rgb(51,51,51);"/>
                    <rect x="51.563" y="131.258" width="60.938" height="9.375" style="fill:rgb(51,51,51);"/>
                    <rect x="28.125" y="131.258" width="14.063" height="9.375" style="fill:rgb(51,51,51);"/>
                    <rect x="28.125" y="75.008" width="79.688" height="9.375" style="fill:rgb(51,51,51);"/>
                    <rect x="0" y="75.008" width="18.75" height="9.375" style="fill:rgb(51,51,51);"/>
                    <rect x="9.375" y="84.383" width="98.438" height="9.375" style="fill:rgb(249,186,72);"/>
                    <rect x="18.75" y="103.133" width="121.875" height="9.375" style="fill:rgb(249,186,72);"/>
                    <rect x="28.125" y="121.883" width="89.063" height="9.375" style="fill:rgb(249,186,72);"/>
                    <rect x="37.5" y="140.633" width="75" height="9.375" style="fill:rgb(249,186,72);"/>
                </g>
                <g transform="matrix(0.167122,0,0,0.0873059,599.331,502.731)">
                    <path d="M634.042,12.766L165.958,12.766C81.488,12.766 12.766,81.488 12.766,165.958L12.766,761.703C12.766,775.803 24.197,787.234 38.297,787.234C52.397,787.234 63.828,775.803 63.828,761.703L63.828,165.958C63.828,109.787 109.786,63.83 165.956,63.83L634.041,63.83C690.211,63.83 736.169,109.787 736.169,165.958L736.169,761.703C736.169,775.803 747.6,787.234 761.7,787.234C775.8,787.234 787.231,775.803 787.231,761.703L787.231,165.958C787.234,81.488 718.513,12.766 634.042,12.766Z" style="fill:rgb(216,209,208);fill-rule:nonzero;"/>
                    <path d="M198.936,500L198.936,634.042C235.953,634.042 265.958,604.039 265.958,567.02C265.958,530.003 235.955,500 198.936,500Z" style="fill:rgb(104,174,244);fill-rule:nonzero;"/>
                    <path d="M198.936,500C211.267,500 221.277,530.003 221.277,567.022C221.277,604.039 211.269,634.044 198.936,634.044C161.919,634.044 131.914,604.041 131.914,567.022C131.916,530.003 161.919,500 198.936,500Z" style="fill:rgb(143,225,234);fill-rule:nonzero;"/>
                    <path d="M332.978,500L332.978,634.042C369.995,634.042 400,604.039 400,567.02C400,530.003 369.997,500 332.978,500Z" style="fill:rgb(104,174,244);fill-rule:nonzero;"/>
                    <path d="M332.978,500C345.309,500 355.319,530.003 355.319,567.022C355.319,604.039 345.311,634.044 332.978,634.044C295.961,634.044 265.956,604.041 265.956,567.022C265.958,530.003 295.961,500 332.978,500Z" style="fill:rgb(143,225,234);fill-rule:nonzero;"/>
                    <path d="M467.022,500L467.022,634.042C504.039,634.042 534.044,604.039 534.044,567.02C534.042,530.003 504.039,500 467.022,500Z" style="fill:rgb(104,174,244);fill-rule:nonzero;"/>
                    <path d="M467.022,500C479.353,500 489.363,530.003 489.363,567.022C489.363,604.039 479.355,634.044 467.022,634.044C430.005,634.044 400,604.041 400,567.022C400,530.003 430.003,500 467.022,500Z" style="fill:rgb(143,225,234);fill-rule:nonzero;"/>
                    <path d="M601.064,500L601.064,634.042C638.081,634.042 668.086,604.039 668.086,567.02C668.084,530.003 638.081,500 601.064,500Z" style="fill:rgb(104,174,244);fill-rule:nonzero;"/>
                    <path d="M601.064,500C613.395,500 623.405,530.003 623.405,567.022C623.405,604.039 613.397,634.044 601.064,634.044C564.047,634.044 534.042,604.041 534.042,567.022C534.042,530.003 564.045,500 601.064,500Z" style="fill:rgb(143,225,234);fill-rule:nonzero;"/>
                    <path d="M634.042,0L165.958,0C74.447,0 0,74.447 0,165.958L0,761.703C0,782.82 17.18,800 38.298,800C59.417,800 76.597,782.82 76.597,761.702L76.597,165.958C76.597,116.683 116.684,76.597 165.958,76.597L634.042,76.597C683.317,76.597 723.403,116.684 723.403,165.958L723.403,761.703C723.403,782.822 740.583,800.002 761.702,800.002C782.82,800.002 800,782.82 800,761.702L800,165.958C800,74.447 725.552,0 634.042,0ZM774.469,761.702C774.469,768.742 768.742,774.467 761.703,774.467C754.664,774.467 748.938,768.741 748.938,761.702L748.938,165.958C748.938,102.605 697.397,51.064 634.044,51.064L165.958,51.064C102.605,51.064 51.064,102.605 51.064,165.958L51.064,761.703C51.064,768.744 45.338,774.469 38.298,774.469C31.259,774.469 25.533,768.742 25.533,761.703L25.533,165.958C25.533,88.527 88.527,25.533 165.958,25.533L634.042,25.533C711.473,25.533 774.467,88.527 774.467,165.958L774.467,761.702L774.469,761.702Z" style="fill-rule:nonzero;"/>
                    <path d="M613.83,488.267L613.83,114.894C613.83,107.844 608.114,102.128 601.064,102.128C594.014,102.128 588.298,107.844 588.298,114.894L588.298,488.267C565.586,491.937 546.066,505.227 534.044,523.811C522.022,505.227 502.502,491.937 479.789,488.267L479.789,114.894C479.789,107.844 474.073,102.128 467.023,102.128C459.973,102.128 454.258,107.844 454.258,114.894L454.258,488.267C431.545,491.937 412.025,505.227 400.003,523.811C387.981,505.227 368.461,491.937 345.748,488.267L345.748,114.894C345.748,107.844 340.033,102.128 332.983,102.128C325.933,102.128 320.217,107.844 320.217,114.894L320.217,488.267C297.505,491.937 277.984,505.227 265.962,523.811C253.941,505.227 234.42,491.937 211.708,488.267L211.708,114.894C211.708,107.844 205.992,102.128 198.942,102.128C191.892,102.128 186.177,107.844 186.177,114.894L186.177,488.267C148.23,494.398 119.155,527.372 119.155,567.022C119.155,611.017 154.947,646.809 198.942,646.809C227.02,646.809 251.739,632.217 265.964,610.231C280.189,632.217 304.908,646.809 332.986,646.809C361.064,646.809 385.783,632.217 400.008,610.231C414.233,632.217 438.952,646.809 467.03,646.809C495.108,646.809 519.827,632.217 534.052,610.231C548.277,632.217 572.994,646.809 601.073,646.809C645.069,646.809 680.861,611.017 680.861,567.022C680.852,527.372 651.777,494.398 613.83,488.267ZM198.936,621.277C169.019,621.277 144.681,596.938 144.681,567.022C144.681,537.106 169.02,512.767 198.936,512.767C228.852,512.767 253.191,537.106 253.191,567.022C253.191,596.938 228.853,621.277 198.936,621.277ZM332.978,621.277C303.061,621.277 278.723,596.938 278.723,567.022C278.723,537.106 303.062,512.767 332.978,512.767C362.894,512.767 387.233,537.106 387.233,567.022C387.233,596.938 362.895,621.277 332.978,621.277ZM467.022,621.277C437.105,621.277 412.767,596.938 412.767,567.022C412.767,537.106 437.106,512.767 467.022,512.767C496.938,512.767 521.277,537.106 521.277,567.022C521.277,596.938 496.938,621.277 467.022,621.277ZM601.064,621.277C571.147,621.277 546.809,596.938 546.809,567.022C546.809,537.106 571.148,512.767 601.064,512.767C630.98,512.767 655.319,537.106 655.319,567.022C655.319,596.938 630.98,621.277 601.064,621.277Z" style="fill-rule:nonzero;"/>
                </g>
                <g transform="matrix(0.176898,0,0,0.092413,67.9562,347.068)">
                    <circle cx="304.811" cy="222.019" r="160.516" style="fill:rgb(93,172,216);"/>
                    <circle cx="625.844" cy="543.05" r="160.516" style="fill:rgb(93,172,216);"/>
                    <path d="M185.363,222.022C185.363,140.333 246.4,72.945 325.347,62.859C318.62,62.002 311.778,61.506 304.816,61.506C216.166,61.506 144.3,133.37 144.3,222.022C144.3,310.672 216.164,382.538 304.816,382.538C311.778,382.538 318.62,382.045 325.347,381.186C246.4,371.097 185.363,303.709 185.363,222.022Z" style="fill:rgb(76,156,191);fill-rule:nonzero;"/>
                    <path d="M506.394,543.053C506.394,461.364 567.431,393.977 646.378,383.891C639.652,383.033 632.809,382.537 625.847,382.537C537.197,382.537 465.333,454.402 465.333,543.053C465.333,631.705 537.197,703.567 625.847,703.567C632.809,703.567 639.652,703.075 646.378,702.216C567.43,692.127 506.394,624.741 506.394,543.053Z" style="fill:rgb(76,156,191);fill-rule:nonzero;"/>
                    <path d="M242.081,517.567L46.52,517.567L14.358,739.231L274.241,739.231L242.081,517.567Z" style="fill:rgb(232,129,88);fill-rule:nonzero;"/>
                    <path d="M46.52,517.567L14.358,739.231L50.442,739.231L82.605,517.567L46.52,517.567Z" style="fill:rgb(211,114,80);fill-rule:nonzero;"/>
                    <circle cx="304.811" cy="222.019" r="65.383" style="fill:rgb(102,102,102);"/>
                    <circle cx="625.844" cy="543.05" r="65.383" style="fill:rgb(102,102,102);"/>
                    <path d="M304.453,142.275C296.722,142.275 290.455,148.542 290.455,156.273C290.455,164.005 296.722,170.272 304.453,170.272C332.786,170.272 355.837,193.323 355.837,221.653C355.837,249.986 332.786,273.038 304.453,273.038C276.12,273.038 253.069,249.986 253.069,221.653C253.069,207.927 258.414,195.025 268.119,185.32C273.586,179.853 273.586,170.989 268.119,165.523C262.652,160.058 253.788,160.056 248.322,165.523C233.328,180.517 225.072,200.45 225.072,221.653C225.072,265.423 260.683,301.034 304.453,301.034C348.223,301.034 383.834,265.423 383.834,221.653C383.833,177.886 348.223,142.275 304.453,142.275Z" style="fill-rule:nonzero;"/>
                    <path d="M625.483,463.306C581.713,463.306 546.103,498.917 546.103,542.686C546.103,586.456 581.711,622.067 625.483,622.067C669.253,622.067 704.863,586.456 704.863,542.686C704.864,498.916 669.253,463.306 625.483,463.306ZM625.483,594.069C597.15,594.069 574.102,571.017 574.102,542.684C574.102,514.352 597.153,491.303 625.483,491.303C653.813,491.303 676.864,514.355 676.864,542.684C676.867,571.02 653.816,594.069 625.483,594.069Z" style="fill-rule:nonzero;"/>
                    <path d="M786,78.491C778.267,78.491 772.002,84.758 772.002,92.489L772.002,447.928C766.736,439.8 760.805,432.047 754.164,424.8C748.938,419.098 740.083,418.714 734.384,423.939C728.684,429.161 728.298,438.016 733.522,443.716C758.334,470.787 771.998,505.936 771.998,542.684C771.998,623.475 706.27,689.202 625.481,689.202C544.694,689.202 478.966,623.473 478.966,542.684C478.966,461.895 544.694,396.169 625.481,396.169C649.452,396.169 672.292,401.769 693.369,412.808C700.216,416.394 708.678,413.755 712.266,406.905C715.853,400.056 713.209,391.595 706.362,388.008C681.591,375.03 653.622,368.17 625.483,368.17C564.139,368.17 510.094,399.991 478.967,447.984L478.967,221.655C478.967,125.427 400.68,47.141 304.453,47.141C208.227,47.141 129.936,125.427 129.936,221.655L129.936,461.112C109.286,466.267 93,482.553 87.845,503.203L46.158,503.203C39.203,503.203 33.303,508.308 32.305,515.192L0.145,736.853C-0.439,740.873 0.756,744.95 3.414,748.022C6.073,751.094 9.936,752.859 13.998,752.859L273.88,752.859C277.944,752.859 281.806,751.094 284.464,748.022C287.122,744.95 288.314,740.873 287.733,736.852L278.152,670.816C277.041,663.166 269.941,657.872 262.286,658.973C254.636,660.084 249.333,667.186 250.444,674.839L257.703,724.866L30.173,724.866L58.272,531.202L229.605,531.202L242.431,619.603C243.542,627.253 250.655,632.552 258.294,631.448C265.947,630.338 271.247,623.236 270.139,615.586L255.573,515.195C254.575,508.313 248.675,503.206 241.72,503.206L200.03,503.206C194.875,482.556 178.589,466.27 157.939,461.116L157.939,316.356C189.069,364.35 243.114,396.17 304.456,396.17C365.798,396.17 419.845,364.35 450.973,316.356L450.973,542.688C450.973,638.916 529.259,717.202 625.486,717.202C721.713,717.202 800,638.914 800,542.688L800,92.489C799.998,84.758 793.733,78.491 786,78.491ZM170.245,503.203L117.628,503.203C122.652,493.802 132.555,487.386 143.938,487.386C155.32,487.388 165.223,493.802 170.245,503.203ZM304.453,368.172C223.663,368.172 157.936,302.444 157.936,221.655C157.936,140.866 223.664,75.137 304.453,75.137C385.242,75.137 450.97,140.866 450.97,221.655C450.97,302.444 385.242,368.172 304.453,368.172Z" style="fill-rule:nonzero;"/>
                    <path d="M178.031,585.08L109.844,585.08C102.113,585.08 95.845,591.347 95.845,599.078C95.845,606.809 102.112,613.077 109.844,613.077L178.033,613.077C185.764,613.077 192.031,606.809 192.031,599.078C192.031,591.347 185.763,585.08 178.031,585.08Z" style="fill-rule:nonzero;"/>
                    <path d="M178.031,642.989L109.844,642.989C102.113,642.989 95.845,649.256 95.845,656.987C95.845,664.719 102.112,670.986 109.844,670.986L178.033,670.986C185.764,670.986 192.031,664.719 192.031,656.987C192.031,649.256 185.763,642.989 178.031,642.989Z" style="fill-rule:nonzero;"/>
                </g>
            </g>
        </g>
    </g>
</svg>
