<?xml version="1.0" encoding="UTF-8" standalone="no"?>
<!DOCTYPE svg PUBLIC "-//W3C//DTD SVG 1.1//EN" "http://www.w3.org/Graphics/SVG/1.1/DTD/svg11.dtd">
<svg width="100%" height="100%" viewBox="0 0 1920 1080" version="1.1" xmlns="http://www.w3.org/2000/svg" xmlns:xlink="http://www.w3.org/1999/xlink" xml:space="preserve" xmlns:serif="http://www.serif.com/" style="fill-rule:evenodd;clip-rule:evenodd;stroke-linecap:round;stroke-linejoin:round;stroke-miterlimit:1.5;">
    <g transform="matrix(1,0,0,1,-13666.9,-23686)">
        <g transform="matrix(1.93879,0,0,0.76906,3618.89,23686)">
            <rect id="Physics1" x="5182.64" y="0" width="990.311" height="1404.31" style="fill:rgb(251,234,190);"/>
            <clipPath id="_clip1">
                <rect id="Physics11" serif:id="Physics1" x="5182.64" y="0" width="990.311" height="1404.31"/>
            </clipPath>
            <g clip-path="url(#_clip1)">
                <g transform="matrix(0.880089,0,0,2.21869,299.765,-1107.72)">
                    <g transform="matrix(188.18,0,0,188.18,5622.14,712.469)">
                        <path d="M0.191,-0L0.073,-0L0.103,-0.729L0.32,-0.729C0.484,-0.729 0.568,-0.654 0.568,-0.511C0.568,-0.367 0.484,-0.283 0.32,-0.283L0.201,-0.283L0.191,-0ZM0.206,-0.687L0.196,-0.413L0.33,-0.413C0.428,-0.413 0.484,-0.462 0.484,-0.55C0.484,-0.638 0.428,-0.687 0.33,-0.687L0.206,-0.687Z" style="fill-rule:nonzero;"/>
                    </g>
                    <g transform="matrix(188.18,0,0,188.18,5737.31,712.469)">
                        <path d="M0.187,-0L0.073,-0L0.083,-0.729L0.187,-0.729L0.187,-0.381L0.525,-0.381L0.525,-0.729L0.629,-0.729L0.639,-0L0.525,-0L0.525,-0.245L0.187,-0.245L0.187,-0Z" style="fill-rule:nonzero;"/>
                    </g>
                    <g transform="matrix(188.18,0,0,188.18,5865.65,712.469)">
                        <path d="M0.312,-0L0.312,-0.25L0.073,-0.729L0.179,-0.729L0.381,-0.356L0.582,-0.729L0.688,-0.729L0.445,-0.25L0.445,-0L0.312,-0Z" style="fill-rule:nonzero;"/>
                    </g>
                    <g transform="matrix(188.18,0,0,188.18,5995.31,712.469)">
                        <path d="M0.542,-0.609C0.468,-0.645 0.402,-0.662 0.34,-0.662C0.233,-0.662 0.172,-0.619 0.172,-0.542C0.172,-0.478 0.204,-0.449 0.312,-0.429L0.371,-0.417C0.518,-0.389 0.586,-0.32 0.586,-0.201C0.586,-0.06 0.49,0.014 0.307,0.014C0.238,0.014 0.16,-0.001 0.076,-0.032L0.076,-0.188C0.156,-0.143 0.233,-0.12 0.307,-0.12C0.42,-0.12 0.483,-0.175 0.483,-0.218C0.483,-0.257 0.442,-0.303 0.342,-0.323L0.282,-0.335C0.135,-0.364 0.073,-0.423 0.073,-0.534C0.073,-0.663 0.169,-0.742 0.329,-0.742C0.397,-0.742 0.468,-0.73 0.542,-0.705L0.542,-0.609Z" style="fill-rule:nonzero;"/>
                    </g>
                    <g transform="matrix(188.18,0,0,188.18,6113.86,712.469)">
                        <path d="M0.073,-0C0.088,-0.243 0.088,-0.486 0.093,-0.729L0.177,-0.729C0.18,-0.486 0.178,-0.243 0.191,-0L0.073,-0Z" style="fill-rule:nonzero;"/>
                    </g>
                    <g transform="matrix(188.18,0,0,188.18,6158.08,712.469)">
                        <path d="M0.661,-0.569C0.595,-0.631 0.52,-0.661 0.435,-0.661C0.269,-0.661 0.177,-0.557 0.177,-0.364C0.18,-0.193 0.269,-0.135 0.435,-0.135C0.52,-0.135 0.595,-0.166 0.661,-0.228L0.661,-0.056C0.592,-0.009 0.515,0.014 0.429,0.014C0.208,0.014 0.073,-0.13 0.073,-0.364C0.073,-0.598 0.208,-0.742 0.429,-0.742C0.517,-0.742 0.593,-0.719 0.661,-0.673L0.661,-0.569Z" style="fill-rule:nonzero;"/>
                    </g>
                    <g transform="matrix(188.18,0,0,188.18,6290.56,712.469)">
                        <path d="M0.542,-0.609C0.468,-0.645 0.402,-0.662 0.34,-0.662C0.233,-0.662 0.172,-0.619 0.172,-0.542C0.172,-0.478 0.204,-0.449 0.312,-0.429L0.371,-0.417C0.518,-0.389 0.586,-0.32 0.586,-0.201C0.586,-0.06 0.49,0.014 0.307,0.014C0.238,0.014 0.16,-0.001 0.076,-0.032L0.076,-0.188C0.156,-0.143 0.233,-0.12 0.307,-0.12C0.42,-0.12 0.483,-0.175 0.483,-0.218C0.483,-0.257 0.442,-0.303 0.342,-0.323L0.282,-0.335C0.135,-0.364 0.073,-0.423 0.073,-0.534C0.073,-0.663 0.169,-0.742 0.329,-0.742C0.397,-0.742 0.468,-0.73 0.542,-0.705L0.542,-0.609Z" style="fill-rule:nonzero;"/>
                    </g>
                    <g transform="matrix(188.18,0,0,188.18,6477.05,712.469)">
                        <path d="M0.507,-0L0.087,-0L0.087,-0.137L0.249,-0.137L0.249,-0.639L0.073,-0.604L0.073,-0.694L0.248,-0.729L0.346,-0.729L0.346,-0.137L0.507,-0.137L0.507,-0Z" style="fill-rule:nonzero;"/>
                    </g>
                </g>
                <g>
                    <g transform="matrix(1.72748,0,0,4.35494,63.1787,-7565.94)">
                        <g>
                            <g transform="matrix(0.815934,0,0,1,596.705,-81.9944)">
                                <path d="M3168.23,1970.87C3128.96,1968.67 3089.44,1968.11 3049.41,1970.87C3046.45,2007.81 3046.54,2044.36 3049.41,2080.57C3057.97,2085.64 3088.31,2098.77 3088.31,2098.77C3088.31,2098.77 3139.29,2082.58 3168.23,2080.57C3169.84,2050.35 3206.33,1988.78 3206.33,1988.78C3206.33,1988.78 3178.22,1975.41 3168.23,1970.87Z" style="fill:rgb(56,112,189);"/>
                                <path d="M3168.46,1970.53C3171.98,1972.12 3177.76,1974.82 3183.75,1977.63C3194.79,1982.81 3206.59,1988.42 3206.59,1988.42C3206.82,1988.53 3206.91,1988.76 3206.79,1988.96C3206.79,1988.96 3190.84,2015.92 3179.59,2042.91C3173.85,2056.66 3169.34,2070.41 3168.8,2080.6C3168.79,2080.83 3168.56,2081.02 3168.28,2081.04C3158.93,2081.69 3147.29,2083.83 3135.82,2086.42C3111.8,2091.83 3088.53,2099.23 3088.53,2099.23C3088.36,2099.28 3088.18,2099.27 3088.02,2099.2C3088.02,2099.2 3075.61,2093.83 3064.42,2088.64C3058.09,2085.7 3052.15,2082.81 3049.06,2080.98C3048.91,2080.89 3048.82,2080.75 3048.81,2080.61C3047.37,2062.4 3046.63,2044.11 3046.64,2025.72C3046.64,2007.52 3047.37,1989.23 3048.86,1970.84C3048.88,1970.62 3049.09,1970.44 3049.37,1970.42C3069.3,1969.05 3089.11,1968.51 3108.82,1968.58C3128.72,1968.66 3148.52,1969.36 3168.26,1970.48C3168.33,1970.48 3168.4,1970.5 3168.46,1970.53ZM3168.09,1971.26C3148.4,1970.17 3128.66,1969.49 3108.81,1969.44C3089.29,1969.38 3069.68,1969.93 3049.94,1971.29C3048.5,1989.53 3047.8,2007.67 3047.82,2025.72C3047.83,2044.01 3048.57,2062.2 3050,2080.31C3053.13,2082.13 3058.89,2084.92 3065.02,2087.77C3075.27,2092.54 3086.56,2097.45 3088.35,2098.23C3090.96,2097.4 3112.91,2090.57 3135.5,2085.49C3146.85,2082.94 3158.36,2080.83 3167.68,2080.14C3168.33,2069.93 3172.83,2056.27 3178.54,2042.62C3189.1,2017.38 3203.77,1992.17 3205.67,1988.94C3203.51,1987.91 3193.08,1982.95 3183.26,1978.33C3177.33,1975.53 3171.61,1972.86 3168.09,1971.26Z"/>
                            </g>
                            <g transform="matrix(0.815934,0,0,1,596.705,-81.9944)">
                                <path d="M3168.23,1970.87C3128.96,1968.67 3089.44,1968.11 3049.41,1970.87C3087.1,1989.19 3087.57,1988.81 3087.57,1988.81C3087.57,1988.81 3139.29,2082.58 3168.23,2080.57C3169.84,2050.35 3206.33,1988.78 3206.33,1988.78C3206.33,1988.78 3178.22,1975.41 3168.23,1970.87Z" style="fill:rgb(51,101,171);"/>
                                <path d="M3168.46,1970.53C3171.98,1972.12 3177.76,1974.81 3183.76,1977.63C3194.79,1982.81 3206.59,1988.41 3206.59,1988.41C3206.83,1988.52 3206.91,1988.76 3206.8,1988.96C3206.8,1988.96 3190.84,2015.92 3179.59,2042.91C3173.86,2056.66 3169.35,2070.41 3168.82,2080.6C3168.8,2080.84 3168.57,2081.03 3168.28,2081.05C3164.53,2081.31 3160.4,2080.04 3156.06,2077.58C3149.56,2073.88 3142.55,2067.5 3135.59,2059.79C3112.02,2033.69 3088.87,1992.32 3087.14,1989.19C3086.98,1989.14 3086.78,1989.07 3086.5,1988.95C3085.59,1988.59 3083.64,1987.75 3079.52,1985.83C3074.08,1983.31 3064.84,1978.92 3049.12,1971.27C3048.91,1971.17 3048.8,1970.96 3048.86,1970.77C3048.92,1970.57 3049.12,1970.43 3049.37,1970.41C3069.3,1969.05 3089.11,1968.5 3108.82,1968.58C3128.72,1968.66 3148.52,1969.36 3168.26,1970.48C3168.33,1970.48 3168.4,1970.5 3168.46,1970.53ZM3168.09,1971.26C3148.4,1970.17 3128.66,1969.49 3108.81,1969.44C3089.72,1969.39 3070.53,1969.92 3051.23,1971.21C3070.46,1980.54 3079.6,1984.81 3083.93,1986.75C3085.99,1987.67 3086.95,1988.07 3087.41,1988.24C3087.57,1988.3 3087.69,1988.34 3087.69,1988.34C3087.69,1988.34 3087.57,1988.32 3087.56,1988.32C3086.59,1988.34 3087.57,1989.29 3087.57,1989.29L3088.11,1988.61C3088.11,1988.61 3112.13,2032.13 3136.56,2059.2C3143.43,2066.82 3150.33,2073.13 3156.74,2076.78C3160.61,2078.98 3164.29,2080.22 3167.66,2080.12C3168.32,2069.91 3172.82,2056.26 3178.53,2042.61C3189.09,2017.38 3203.76,1992.18 3205.66,1988.94C3203.49,1987.91 3193.07,1982.95 3183.26,1978.33C3177.33,1975.53 3171.61,1972.86 3168.09,1971.26Z"/>
                            </g>
                            <g transform="matrix(0.815934,0,0,1,627.838,-64.0607)">
                                <path d="M3168.23,1970.87C3128.96,1968.67 3089.44,1968.11 3049.41,1970.87C3046.45,2007.81 3046.54,2044.36 3049.41,2080.57C3089.2,2083.34 3128.81,2083.31 3168.23,2080.57C3170.23,2042.89 3170.34,2006.27 3168.23,1970.87Z" style="fill:rgb(46,91,155);"/>
                                <path d="M3168.71,1970.85C3169.8,1988.83 3170.31,2007.13 3170.3,2025.72C3170.28,2043.74 3169.77,2062.04 3168.79,2080.6C3168.78,2080.83 3168.56,2081.01 3168.28,2081.03C3148.5,2082.41 3128.68,2083.12 3108.82,2083.12C3089.05,2083.13 3069.23,2082.45 3049.36,2081.07C3049.06,2081.05 3048.83,2080.85 3048.8,2080.61C3047.37,2062.4 3046.63,2044.11 3046.63,2025.72C3046.63,2007.52 3047.37,1989.23 3048.85,1970.84C3048.87,1970.62 3049.09,1970.43 3049.37,1970.41C3069.3,1969.05 3089.11,1968.51 3108.82,1968.58C3128.72,1968.66 3148.52,1969.36 3168.26,1970.48C3168.5,1970.49 3168.7,1970.65 3168.71,1970.85ZM3167.77,1971.24C3148.19,1970.16 3128.55,1969.49 3108.81,1969.44C3089.29,1969.39 3069.68,1969.94 3049.95,1971.3C3048.5,1989.53 3047.81,2007.67 3047.82,2025.72C3047.83,2043.94 3048.56,2062.07 3049.99,2080.12C3069.64,2081.47 3089.26,2082.15 3108.82,2082.15C3128.49,2082.16 3148.11,2081.49 3167.68,2080.15C3168.67,2061.75 3169.2,2043.6 3169.24,2025.72C3169.29,2007.26 3168.81,1989.1 3167.77,1971.24Z"/>
                            </g>
                            <g transform="matrix(0.894676,0,0,0.905822,360.19,122.177)">
                                <path d="M3012.39,1970.87C3022.45,1970.87 3029.25,1978.73 3029.25,1988.4C3029.25,1998.08 3020.16,2005.94 3010.1,2005.94C3000.04,2005.94 2992.78,1998.08 2992.78,1988.4C2992.78,1978.73 3002.32,1970.87 3012.39,1970.87Z" style="fill:white;"/>
                                <path d="M3012.39,1969.83C3017.76,1969.79 3022.27,1971.88 3025.45,1975.25C3028.61,1978.61 3030.45,1983.26 3030.48,1988.4C3030.51,1993.68 3028.03,1998.47 3024.16,2001.9C3020.43,2005.21 3015.39,2007.24 3010.1,2007.25C3004.7,2007.24 3000.04,2005.13 2996.75,2001.71C2993.46,1998.3 2991.52,1993.59 2991.55,1988.4C2991.58,1983.14 2994.21,1978.37 2998.25,1974.98C3002.08,1971.77 3007.17,1969.8 3012.39,1969.83ZM3012.39,1971.91C3007.7,1971.94 3003.16,1973.78 2999.75,1976.71C2996.28,1979.69 2993.99,1983.83 2994.02,1988.4C2994.04,1992.91 2995.75,1996.99 2998.63,1999.93C3001.47,2002.84 3005.47,2004.63 3010.1,2004.62C3014.73,2004.63 3019.14,2002.85 3022.43,1999.97C3025.78,1997.04 3027.99,1992.95 3028.01,1988.4C3028.04,1983.88 3026.49,1979.78 3023.75,1976.79C3021.01,1973.81 3017.09,1971.95 3012.39,1971.91Z"/>
                            </g>
                            <g transform="matrix(1,0,0,1,43.9705,-65.7377)">
                                <path d="M3005.69,2005.89C3005.72,2005.37 3006.16,2004.97 3006.68,2005C3007.2,2005.02 3007.6,2005.46 3007.57,2005.98C3007.1,2016.63 3004.39,2027.83 3000.06,2037.93C2997.83,2043.13 2995.17,2048.05 2992.17,2052.44C2988.86,2057.29 2985.12,2061.5 2981.14,2064.81C2978.1,2067.32 2974.83,2068.23 2971.05,2068.31C2965.01,2068.45 2957.57,2066.43 2947.43,2066.2C2946.91,2066.19 2946.49,2065.76 2946.5,2065.24C2946.51,2064.72 2946.94,2064.31 2947.46,2064.32C2957.55,2064.41 2964.98,2066.32 2970.99,2066.12C2974.25,2066.01 2977.07,2065.24 2979.66,2063.05C2983.48,2059.84 2987.01,2055.75 2990.2,2051.09C2993.12,2046.82 2995.73,2042.06 2997.95,2037.02C3002.28,2027.19 3005.1,2016.29 3005.69,2005.89Z"/>
                            </g>
                            <g transform="matrix(1,0,0,1,43.9705,-65.7377)">
                                <path d="M2947.44,2065.26C2947.44,2065.26 2950.05,2079.52 2951.84,2082.23C2953.01,2084.01 2958.5,2083.66 2958.2,2081.55C2957.8,2078.72 2949.44,2065.26 2949.44,2065.26" style="fill:rgb(35,31,32);"/>
                                <path d="M2947.06,2065.33C2947.02,2065.12 2947.16,2064.91 2947.37,2064.87C2947.59,2064.83 2947.79,2064.97 2947.83,2065.19C2947.83,2065.19 2949.14,2072.06 2950.53,2077.16C2951.12,2079.32 2951.72,2081.16 2952.25,2081.96C2952.45,2082.26 2952.81,2082.47 2953.23,2082.61C2953.84,2082.82 2954.58,2082.91 2955.29,2082.87C2956.04,2082.84 2956.75,2082.68 2957.24,2082.38C2957.54,2082.19 2957.76,2081.95 2957.71,2081.62C2957.59,2080.76 2956.7,2078.88 2955.55,2076.7C2952.98,2071.8 2949.11,2065.47 2949.11,2065.47C2948.99,2065.28 2949.05,2065.04 2949.24,2064.93C2949.42,2064.81 2949.66,2064.87 2949.78,2065.05C2949.78,2065.05 2953.75,2071.37 2956.38,2076.25C2957.62,2078.56 2958.55,2080.57 2958.68,2081.48C2958.77,2082.09 2958.53,2082.6 2958.06,2083C2957.62,2083.38 2956.93,2083.65 2956.15,2083.78C2955.03,2083.97 2953.72,2083.87 2952.75,2083.49C2952.17,2083.26 2951.71,2082.92 2951.43,2082.5C2950.87,2081.65 2950.23,2079.7 2949.62,2077.4C2948.27,2072.26 2947.06,2065.33 2947.06,2065.33Z"/>
                            </g>
                            <g transform="matrix(1,0,0,1,43.9705,-65.7377)">
                                <path d="M2993.94,2049.26C2993.43,2049.35 2992.94,2049 2992.86,2048.48C2992.78,2047.97 2993.12,2047.49 2993.64,2047.4C2993.64,2047.4 3006.83,2045.12 3016.2,2045.09C3019.64,2045.08 3022.59,2045.4 3024.29,2046.16C3025.39,2046.64 3026.06,2047.34 3026.32,2048.13C3026.56,2048.84 3026.51,2049.85 3026.08,2051.08C3025.37,2053.11 3023.63,2055.96 3021.39,2059.05C3014.96,2067.91 3004.45,2078.98 3004.45,2078.98C3004.1,2079.37 3003.5,2079.39 3003.12,2079.03C3002.74,2078.68 3002.71,2078.08 3003.07,2077.7C3003.07,2077.7 3013.24,2066.54 3019.5,2057.69C3021.22,2055.26 3022.64,2053.01 3023.45,2051.23C3023.72,2050.62 3023.93,2050.07 3024.03,2049.59C3024.09,2049.31 3024.12,2049.07 3024.06,2048.88C3024,2048.69 3023.81,2048.58 3023.58,2048.45C3023.11,2048.19 3022.48,2048 3021.73,2047.84C3019.53,2047.39 3016.39,2047.32 3013.03,2047.42C3004.25,2047.7 2993.94,2049.26 2993.94,2049.26Z"/>
                            </g>
                            <g transform="matrix(1,0,0,1,43.9705,-65.7377)">
                                <path d="M3003.76,2078.34C3003.76,2078.34 3018.48,2083.39 3021.87,2083.38C3023.74,2083.37 3025.85,2078.96 3024.12,2078.26C3021.38,2077.15 3005.46,2076.71 3005.46,2076.71" style="fill:rgb(35,31,32);"/>
                                <path d="M3003.63,2078.71C3003.43,2078.64 3003.32,2078.42 3003.39,2078.21C3003.46,2078.01 3003.68,2077.9 3003.89,2077.97C3003.89,2077.97 3011,2080.35 3016.47,2081.81C3018.82,2082.43 3020.86,2082.89 3021.87,2082.88C3022.17,2082.88 3022.46,2082.71 3022.74,2082.47C3023.16,2082.11 3023.54,2081.59 3023.81,2081.03C3024.1,2080.46 3024.28,2079.85 3024.26,2079.36C3024.25,2079.07 3024.18,2078.82 3023.93,2078.72C3023.1,2078.38 3021.01,2078.11 3018.53,2077.88C3012.95,2077.36 3005.45,2077.1 3005.45,2077.1C3005.23,2077.1 3005.06,2076.91 3005.07,2076.7C3005.07,2076.48 3005.25,2076.31 3005.47,2076.32C3005.47,2076.32 3013.01,2076.48 3018.61,2076.94C3021.22,2077.16 3023.43,2077.45 3024.31,2077.8C3024.82,2078.01 3025.12,2078.43 3025.22,2078.99C3025.31,2079.5 3025.22,2080.15 3024.99,2080.81C3024.64,2081.77 3023.99,2082.75 3023.27,2083.32C3022.82,2083.67 3022.34,2083.87 3021.88,2083.87C3020.82,2083.87 3018.68,2083.4 3016.22,2082.72C3010.74,2081.2 3003.63,2078.71 3003.63,2078.71Z"/>
                            </g>
                            <g transform="matrix(1,0,0,1,43.9705,-65.7377)">
                                <path d="M3006.74,2010.5C3006.22,2010.56 3005.75,2010.19 3005.69,2009.67C3005.64,2009.15 3006.01,2008.69 3006.52,2008.63C3006.52,2008.63 3010.61,2008.07 3016.12,2007.38C3019.05,2007.01 3022.38,2006.59 3025.72,2006.2C3028.34,2005.9 3030.97,2005.62 3033.41,2005.37C3039.88,2004.7 3044.96,2004.23 3044.96,2004.23L3047.31,2004C3047.83,2003.94 3048.29,2004.31 3048.35,2004.83C3048.41,2005.35 3048.04,2005.82 3047.52,2005.87L3045.18,2006.18C3045.18,2006.18 3040.12,2006.86 3033.67,2007.65C3031.24,2007.95 3028.61,2008.27 3025.98,2008.57C3022.64,2008.94 3019.3,2009.27 3016.36,2009.57C3010.84,2010.12 3006.74,2010.5 3006.74,2010.5Z"/>
                            </g>
                            <g transform="matrix(1,0,0,0.607684,43.9705,720.832)">
                                <path d="M3047.41,2004.94C3047.41,2004.94 3046.64,1992.7 3047.41,1990.12C3047.87,1988.61 3051.86,1987.85 3052.07,1989.4C3052.41,1991.86 3049.41,2004.86 3049.41,2004.86L3047.41,2004.94Z"/>
                                <path d="M3047.02,2005C3047.02,2005 3046.6,1999.03 3046.61,1994.52C3046.62,1992.41 3046.73,1990.61 3046.98,1989.76C3047.09,1989.41 3047.31,1989.05 3047.64,1988.76C3048.24,1988.21 3049.27,1987.83 3050.2,1987.75C3050.97,1987.68 3051.67,1987.84 3052.06,1988.2C3052.34,1988.46 3052.5,1988.82 3052.56,1989.23C3052.6,1989.52 3052.61,1989.93 3052.57,1990.44C3052.52,1991.42 3052.32,1992.81 3052.05,1994.36C3051.25,1999.01 3049.8,2005.1 3049.8,2005.1C3049.74,2005.36 3049.59,2005.54 3049.43,2005.54L3047.42,2005.58C3047.22,2005.59 3047.05,2005.34 3047.02,2005ZM3051.6,1989.65C3051.56,1989.62 3051.45,1989.53 3051.36,1989.5C3050.95,1989.33 3050.36,1989.33 3049.78,1989.44C3049.2,1989.55 3048.62,1989.77 3048.21,1990.08C3048.04,1990.21 3047.9,1990.3 3047.85,1990.47C3047.57,1991.38 3047.52,1993.6 3047.53,1996C3047.54,1999.28 3047.7,2002.87 3047.77,2004.27C3047.77,2004.27 3049.12,2004.19 3049.12,2004.19C3049.4,2002.92 3050.24,1999.03 3050.87,1995.48C3051.15,1993.88 3051.39,1992.36 3051.52,1991.18C3051.59,1990.52 3051.63,1989.99 3051.6,1989.65Z"/>
                            </g>
                            <g transform="matrix(0.99311,0.117186,-0.117186,0.99311,308.173,-400.546)">
                                <path d="M2997.8,2010.18L3045.99,2005.09" style="fill:none;"/>
                                <path d="M2997.9,2011.12C2997.38,2011.17 2996.92,2010.8 2996.87,2010.28C2996.81,2009.76 2997.19,2009.3 2997.7,2009.24C2997.7,2009.24 3002.82,2008.61 3009.73,2007.8C3013.41,2007.38 3017.59,2006.89 3021.77,2006.45C3024.21,2006.19 3026.66,2005.95 3029,2005.72C3038.22,2004.83 3045.89,2004.15 3045.89,2004.15C3046.41,2004.1 3046.87,2004.47 3046.93,2004.99C3046.98,2005.51 3046.61,2005.97 3046.09,2006.03C3046.09,2006.03 3038.45,2006.96 3029.24,2008.02C3026.91,2008.29 3024.46,2008.57 3022.02,2008.82C3017.84,2009.26 3013.65,2009.66 3009.97,2010.01C3003.04,2010.67 2997.9,2011.12 2997.9,2011.12Z"/>
                            </g>
                            <g transform="matrix(0.99311,0.117186,-0.0717704,0.608228,217.11,371.175)">
                                <path d="M3047.24,2004.03C3047.24,2004.03 3046.61,1992.55 3047.41,1990.12C3047.91,1988.62 3051.93,1987.84 3052.07,1989.4C3052.3,1991.85 3048.76,2004.79 3048.76,2004.79L3045.99,2005.09"/>
                                <path d="M3046.9,2004.33C3046.87,2004.26 3046.86,2004.17 3046.85,2004.09C3046.85,2004.09 3046.5,1998.46 3046.57,1994.22C3046.59,1992.24 3046.74,1990.55 3046.99,1989.75C3047.14,1989.31 3047.48,1988.87 3047.97,1988.54C3048.58,1988.12 3049.43,1987.84 3050.2,1987.76C3050.98,1987.68 3051.69,1987.84 3052.08,1988.2C3052.37,1988.47 3052.53,1988.85 3052.56,1989.28C3052.6,1989.67 3052.57,1990.28 3052.47,1991.04C3052.34,1991.95 3052.12,1993.13 3051.84,1994.42C3050.84,1999.04 3049.14,2005.07 3049.14,2005.07C3049.08,2005.31 3048.94,2005.46 3048.78,2005.48L3046.01,2005.73C3045.8,2005.75 3045.61,2005.48 3045.6,2005.13C3045.58,2004.78 3045.75,2004.47 3045.96,2004.45C3045.96,2004.45 3046.39,2004.39 3046.9,2004.33ZM3047.62,2004.24C3048.08,2004.18 3048.47,2004.13 3048.47,2004.13C3048.83,2002.75 3050.11,1997.81 3050.92,1993.9C3051.18,1992.68 3051.39,1991.56 3051.5,1990.69C3051.56,1990.2 3051.6,1989.8 3051.58,1989.55C3051.59,1989.59 3051.6,1989.67 3051.61,1989.64C3051.63,1989.6 3051.62,1989.57 3051.58,1989.55C3051.51,1989.5 3051.36,1989.47 3051.26,1989.44C3050.74,1989.28 3050,1989.35 3049.32,1989.56C3048.85,1989.7 3048.41,1989.9 3048.1,1990.17C3047.98,1990.27 3047.88,1990.36 3047.84,1990.49C3047.55,1991.34 3047.47,1993.41 3047.46,1995.64C3047.43,1999.56 3047.64,2003.97 3047.64,2003.97C3047.64,2004.07 3047.63,2004.16 3047.62,2004.24ZM3051.58,1989.53C3051.58,1989.53 3051.58,1989.53 3051.58,1989.52C3051.58,1989.53 3051.58,1989.53 3051.58,1989.53Z"/>
                            </g>
                            <g transform="matrix(1,0,0,1,-60.333,-65.3)">
                                <path d="M3177.09,1972.18C3177.27,1972.29 3177.34,1972.53 3177.23,1972.71C3177.13,1972.9 3176.89,1972.97 3176.7,1972.86C3176.7,1972.86 3173.38,1971.03 3168.91,1968.53C3166.54,1967.2 3163.84,1965.69 3161.14,1964.17C3159.57,1963.28 3158.01,1962.38 3156.5,1961.52C3150.59,1958.13 3145.69,1955.29 3145.69,1955.29C3145.51,1955.18 3145.44,1954.95 3145.55,1954.76C3145.65,1954.57 3145.89,1954.5 3146.08,1954.61C3146.08,1954.61 3151.03,1957.35 3156.98,1960.68C3158.49,1961.53 3160.06,1962.41 3161.64,1963.3C3164.33,1964.83 3167.01,1966.37 3169.37,1967.73C3173.8,1970.27 3177.09,1972.18 3177.09,1972.18Z"/>
                            </g>
                            <g transform="matrix(0.513342,-0.12703,0.201593,0.711335,1094.22,884.971)">
                                <path d="M2995.93,1973.17C2995.76,1965.39 2982.88,1962.22 2980.8,1966.49C2978.07,1972.13 2991.92,1970.29 2995.93,1973.17Z" style="fill:white;"/>
                                <path d="M2995.4,1973.55C2994.11,1972.64 2991.73,1972.29 2989.28,1971.97C2986.73,1971.63 2984.09,1971.33 2982.26,1970.68C2981.05,1970.25 2980.17,1969.66 2979.77,1968.86C2979.43,1968.19 2979.42,1967.35 2979.93,1966.3C2980.49,1965.13 2981.7,1964.4 2983.25,1964.09C2984.97,1963.74 2987.17,1963.94 2989.29,1964.67C2993.08,1965.96 2996.64,1968.93 2996.67,1973.15C2996.67,1973.36 2996.49,1973.57 2996.21,1973.65C2995.93,1973.74 2995.61,1973.7 2995.4,1973.55ZM2995.05,1972.04C2994.51,1969.6 2992.6,1967.75 2990.34,1966.6C2988.41,1965.61 2986.24,1965.12 2984.46,1965.26C2983.17,1965.36 2982.11,1965.8 2981.68,1966.69C2981.34,1967.39 2981.28,1967.94 2981.49,1968.39C2981.74,1968.9 2982.34,1969.26 2983.11,1969.54C2985.14,1970.3 2988.28,1970.57 2991.05,1971.04C2992.54,1971.29 2993.94,1971.6 2995.05,1972.04Z"/>
                            </g>
                            <g transform="matrix(0.253315,-0.440041,0.593732,0.29844,1099,2640.77)">
                                <path d="M2995.93,1973.17C2992.77,1965.17 2982,1963.34 2980.8,1966.49C2979.2,1970.73 2987.54,1966.92 2995.93,1973.17Z" style="fill:white;"/>
                                <path d="M2995.38,1973.61C2992.21,1971.3 2989.07,1970.47 2986.51,1970.05C2984.62,1969.75 2983.04,1969.66 2981.93,1969.43C2980.87,1969.22 2980.18,1968.84 2979.85,1968.27C2979.59,1967.82 2979.55,1967.2 2979.87,1966.33C2980.22,1965.41 2981.12,1964.77 2982.4,1964.48C2984.04,1964.1 2986.42,1964.32 2988.81,1965.27C2991.97,1966.53 2995.19,1969.06 2996.67,1972.98C2996.77,1973.23 2996.62,1973.51 2996.32,1973.66C2996.01,1973.81 2995.63,1973.79 2995.38,1973.61ZM2993.91,1971.06C2992.72,1969.43 2991.18,1968.18 2989.56,1967.31C2987.36,1966.12 2985.03,1965.61 2983.36,1965.81C2982.56,1965.9 2981.93,1966.15 2981.73,1966.66C2981.57,1967.09 2981.5,1967.4 2981.62,1967.62C2981.75,1967.86 2982.1,1967.94 2982.54,1968.04C2984.83,1968.54 2989.22,1968.5 2993.91,1971.06Z"/>
                            </g>
                            <g transform="matrix(0.380397,0.259697,-0.488675,0.625013,2858.31,-104.375)">
                                <path d="M2995.93,1973.17C2992.77,1965.17 2982,1963.34 2980.8,1966.49C2979.2,1970.73 2987.54,1966.92 2995.93,1973.17Z" style="fill:white;"/>
                                <path d="M2995.28,1973.46C2991.38,1970.62 2987.54,1970.02 2984.77,1969.69C2983.32,1969.51 2982.14,1969.39 2981.31,1969.14C2979.93,1968.73 2979.14,1968.02 2979.76,1966.32C2980.58,1964.21 2984.87,1963.71 2989.22,1965.56C2992.28,1966.85 2995.35,1969.32 2996.76,1973.09C2996.85,1973.32 2996.66,1973.54 2996.31,1973.63C2995.95,1973.72 2995.53,1973.65 2995.28,1973.46ZM2993.99,1971.2C2992.87,1969.55 2991.38,1968.27 2989.81,1967.36C2987.9,1966.24 2985.88,1965.67 2984.25,1965.65C2983.05,1965.64 2982.11,1965.97 2981.85,1966.66C2981.72,1966.98 2981.66,1967.24 2981.66,1967.46C2981.66,1967.78 2981.82,1967.97 2982.19,1968.08C2982.87,1968.3 2983.87,1968.38 2985.08,1968.54C2987.51,1968.86 2990.68,1969.39 2993.99,1971.2Z"/>
                            </g>
                            <g transform="matrix(0.35531,0,0,1,1752.25,-64.5001)">
                                <path d="M3563.25,1944.17L3563.25,1934.93L3667.15,1934.93L3667.15,1926.36L3704.29,1939.55L3667.15,1952.75L3667.15,1944.17L3563.25,1944.17Z" style="fill:rgb(46,91,155);"/>
                                <path d="M3562.15,1944.17L3562.1,1934.93C3562.1,1934.71 3562.61,1934.53 3563.25,1934.53L3665.81,1934.46L3665.78,1926.36C3665.78,1926.16 3666.12,1925.98 3666.63,1925.91C3667.14,1925.83 3667.72,1925.88 3668.11,1926.01L3705.26,1939.21C3705.8,1939.4 3705.8,1939.71 3705.26,1939.9L3668.09,1953.08C3667.71,1953.22 3667.14,1953.26 3666.64,1953.18C3666.14,1953.11 3665.82,1952.94 3665.82,1952.75L3665.86,1944.63L3563.25,1944.56C3562.64,1944.56 3562.15,1944.39 3562.15,1944.17ZM3564.34,1943.78L3667.15,1943.71C3667.86,1943.71 3668.44,1943.92 3668.44,1944.17L3668.47,1951.61C3668.47,1951.61 3702.34,1939.55 3702.34,1939.55L3668.51,1927.53L3668.49,1934.93C3668.49,1935.2 3667.89,1935.41 3667.15,1935.41L3564.4,1935.34L3564.34,1943.78Z"/>
                            </g>
                        </g>
                        <g>
                            <g transform="matrix(0.815934,0,0,1,596.705,-81.9944)">
                                <path d="M3168.23,1970.87C3128.96,1968.67 3089.44,1968.11 3049.41,1970.87C3046.45,2007.81 3046.54,2044.36 3049.41,2080.57C3057.97,2085.64 3088.31,2098.77 3088.31,2098.77C3088.31,2098.77 3139.29,2082.58 3168.23,2080.57C3169.84,2050.35 3206.33,1988.78 3206.33,1988.78C3206.33,1988.78 3178.22,1975.41 3168.23,1970.87Z" style="fill:rgb(56,112,189);"/>
                                <path d="M3168.46,1970.53C3171.98,1972.12 3177.76,1974.82 3183.75,1977.63C3194.79,1982.81 3206.59,1988.42 3206.59,1988.42C3206.82,1988.53 3206.91,1988.76 3206.79,1988.96C3206.79,1988.96 3190.84,2015.92 3179.59,2042.91C3173.85,2056.66 3169.34,2070.41 3168.8,2080.6C3168.79,2080.83 3168.56,2081.02 3168.28,2081.04C3158.93,2081.69 3147.29,2083.83 3135.82,2086.42C3111.8,2091.83 3088.53,2099.23 3088.53,2099.23C3088.36,2099.28 3088.18,2099.27 3088.02,2099.2C3088.02,2099.2 3075.61,2093.83 3064.42,2088.64C3058.09,2085.7 3052.15,2082.81 3049.06,2080.98C3048.91,2080.89 3048.82,2080.75 3048.81,2080.61C3047.37,2062.4 3046.63,2044.11 3046.64,2025.72C3046.64,2007.52 3047.37,1989.23 3048.86,1970.84C3048.88,1970.62 3049.09,1970.44 3049.37,1970.42C3069.3,1969.05 3089.11,1968.51 3108.82,1968.58C3128.72,1968.66 3148.52,1969.36 3168.26,1970.48C3168.33,1970.48 3168.4,1970.5 3168.46,1970.53ZM3168.09,1971.26C3148.4,1970.17 3128.66,1969.49 3108.81,1969.44C3089.29,1969.38 3069.68,1969.93 3049.94,1971.29C3048.5,1989.53 3047.8,2007.67 3047.82,2025.72C3047.83,2044.01 3048.57,2062.2 3050,2080.31C3053.13,2082.13 3058.89,2084.92 3065.02,2087.77C3075.27,2092.54 3086.56,2097.45 3088.35,2098.23C3090.96,2097.4 3112.91,2090.57 3135.5,2085.49C3146.85,2082.94 3158.36,2080.83 3167.68,2080.14C3168.33,2069.93 3172.83,2056.27 3178.54,2042.62C3189.1,2017.38 3203.77,1992.17 3205.67,1988.94C3203.51,1987.91 3193.08,1982.95 3183.26,1978.33C3177.33,1975.53 3171.61,1972.86 3168.09,1971.26Z"/>
                            </g>
                            <g transform="matrix(0.815934,0,0,1,596.705,-81.9944)">
                                <path d="M3168.23,1970.87C3128.96,1968.67 3089.44,1968.11 3049.41,1970.87C3087.1,1989.19 3087.57,1988.81 3087.57,1988.81C3087.57,1988.81 3139.29,2082.58 3168.23,2080.57C3169.84,2050.35 3206.33,1988.78 3206.33,1988.78C3206.33,1988.78 3178.22,1975.41 3168.23,1970.87Z" style="fill:rgb(51,101,171);"/>
                                <path d="M3168.46,1970.53C3171.98,1972.12 3177.76,1974.81 3183.76,1977.63C3194.79,1982.81 3206.59,1988.41 3206.59,1988.41C3206.83,1988.52 3206.91,1988.76 3206.8,1988.96C3206.8,1988.96 3190.84,2015.92 3179.59,2042.91C3173.86,2056.66 3169.35,2070.41 3168.82,2080.6C3168.8,2080.84 3168.57,2081.03 3168.28,2081.05C3164.53,2081.31 3160.4,2080.04 3156.06,2077.58C3149.56,2073.88 3142.55,2067.5 3135.59,2059.79C3112.02,2033.69 3088.87,1992.32 3087.14,1989.19C3086.98,1989.14 3086.78,1989.07 3086.5,1988.95C3085.59,1988.59 3083.64,1987.75 3079.52,1985.83C3074.08,1983.31 3064.84,1978.92 3049.12,1971.27C3048.91,1971.17 3048.8,1970.96 3048.86,1970.77C3048.92,1970.57 3049.12,1970.43 3049.37,1970.41C3069.3,1969.05 3089.11,1968.5 3108.82,1968.58C3128.72,1968.66 3148.52,1969.36 3168.26,1970.48C3168.33,1970.48 3168.4,1970.5 3168.46,1970.53ZM3168.09,1971.26C3148.4,1970.17 3128.66,1969.49 3108.81,1969.44C3089.72,1969.39 3070.53,1969.92 3051.23,1971.21C3070.46,1980.54 3079.6,1984.81 3083.93,1986.75C3085.99,1987.67 3086.95,1988.07 3087.41,1988.24C3087.57,1988.3 3087.69,1988.34 3087.69,1988.34C3087.69,1988.34 3087.57,1988.32 3087.56,1988.32C3086.59,1988.34 3087.57,1989.29 3087.57,1989.29L3088.11,1988.61C3088.11,1988.61 3112.13,2032.13 3136.56,2059.2C3143.43,2066.82 3150.33,2073.13 3156.74,2076.78C3160.61,2078.98 3164.29,2080.22 3167.66,2080.12C3168.32,2069.91 3172.82,2056.26 3178.53,2042.61C3189.09,2017.38 3203.76,1992.18 3205.66,1988.94C3203.49,1987.91 3193.07,1982.95 3183.26,1978.33C3177.33,1975.53 3171.61,1972.86 3168.09,1971.26Z"/>
                            </g>
                            <g transform="matrix(0.815934,0,0,1,627.838,-64.0607)">
                                <path d="M3168.23,1970.87C3128.96,1968.67 3089.44,1968.11 3049.41,1970.87C3046.45,2007.81 3046.54,2044.36 3049.41,2080.57C3089.2,2083.34 3128.81,2083.31 3168.23,2080.57C3170.23,2042.89 3170.34,2006.27 3168.23,1970.87Z" style="fill:rgb(46,91,155);"/>
                                <path d="M3168.71,1970.85C3169.8,1988.83 3170.31,2007.13 3170.3,2025.72C3170.28,2043.74 3169.77,2062.04 3168.79,2080.6C3168.78,2080.83 3168.56,2081.01 3168.28,2081.03C3148.5,2082.41 3128.68,2083.12 3108.82,2083.12C3089.05,2083.13 3069.23,2082.45 3049.36,2081.07C3049.06,2081.05 3048.83,2080.85 3048.8,2080.61C3047.37,2062.4 3046.63,2044.11 3046.63,2025.72C3046.63,2007.52 3047.37,1989.23 3048.85,1970.84C3048.87,1970.62 3049.09,1970.43 3049.37,1970.41C3069.3,1969.05 3089.11,1968.51 3108.82,1968.58C3128.72,1968.66 3148.52,1969.36 3168.26,1970.48C3168.5,1970.49 3168.7,1970.65 3168.71,1970.85ZM3167.77,1971.24C3148.19,1970.16 3128.55,1969.49 3108.81,1969.44C3089.29,1969.39 3069.68,1969.94 3049.95,1971.3C3048.5,1989.53 3047.81,2007.67 3047.82,2025.72C3047.83,2043.94 3048.56,2062.07 3049.99,2080.12C3069.64,2081.47 3089.26,2082.15 3108.82,2082.15C3128.49,2082.16 3148.11,2081.49 3167.68,2080.15C3168.67,2061.75 3169.2,2043.6 3169.24,2025.72C3169.29,2007.26 3168.81,1989.1 3167.77,1971.24Z"/>
                            </g>
                            <g transform="matrix(0.894676,0,0,0.905822,360.19,122.177)">
                                <path d="M3012.39,1970.87C3022.45,1970.87 3029.25,1978.73 3029.25,1988.4C3029.25,1998.08 3020.16,2005.94 3010.1,2005.94C3000.04,2005.94 2992.78,1998.08 2992.78,1988.4C2992.78,1978.73 3002.32,1970.87 3012.39,1970.87Z" style="fill:white;"/>
                                <path d="M3012.39,1969.83C3017.76,1969.79 3022.27,1971.88 3025.45,1975.25C3028.61,1978.61 3030.45,1983.26 3030.48,1988.4C3030.51,1993.68 3028.03,1998.47 3024.16,2001.9C3020.43,2005.21 3015.39,2007.24 3010.1,2007.25C3004.7,2007.24 3000.04,2005.13 2996.75,2001.71C2993.46,1998.3 2991.52,1993.59 2991.55,1988.4C2991.58,1983.14 2994.21,1978.37 2998.25,1974.98C3002.08,1971.77 3007.17,1969.8 3012.39,1969.83ZM3012.39,1971.91C3007.7,1971.94 3003.16,1973.78 2999.75,1976.71C2996.28,1979.69 2993.99,1983.83 2994.02,1988.4C2994.04,1992.91 2995.75,1996.99 2998.63,1999.93C3001.47,2002.84 3005.47,2004.63 3010.1,2004.62C3014.73,2004.63 3019.14,2002.85 3022.43,1999.97C3025.78,1997.04 3027.99,1992.95 3028.01,1988.4C3028.04,1983.88 3026.49,1979.78 3023.75,1976.79C3021.01,1973.81 3017.09,1971.95 3012.39,1971.91Z"/>
                            </g>
                            <g transform="matrix(1,0,0,1,43.9705,-65.7377)">
                                <path d="M3005.69,2005.89C3005.72,2005.37 3006.16,2004.97 3006.68,2005C3007.2,2005.02 3007.6,2005.46 3007.57,2005.98C3007.1,2016.63 3004.39,2027.83 3000.06,2037.93C2997.83,2043.13 2995.17,2048.05 2992.17,2052.44C2988.86,2057.29 2985.12,2061.5 2981.14,2064.81C2978.1,2067.32 2974.83,2068.23 2971.05,2068.31C2965.01,2068.45 2957.57,2066.43 2947.43,2066.2C2946.91,2066.19 2946.49,2065.76 2946.5,2065.24C2946.51,2064.72 2946.94,2064.31 2947.46,2064.32C2957.55,2064.41 2964.98,2066.32 2970.99,2066.12C2974.25,2066.01 2977.07,2065.24 2979.66,2063.05C2983.48,2059.84 2987.01,2055.75 2990.2,2051.09C2993.12,2046.82 2995.73,2042.06 2997.95,2037.02C3002.28,2027.19 3005.1,2016.29 3005.69,2005.89Z"/>
                            </g>
                            <g transform="matrix(1,0,0,1,43.9705,-65.7377)">
                                <path d="M2947.44,2065.26C2947.44,2065.26 2950.05,2079.52 2951.84,2082.23C2953.01,2084.01 2958.5,2083.66 2958.2,2081.55C2957.8,2078.72 2949.44,2065.26 2949.44,2065.26" style="fill:rgb(35,31,32);"/>
                                <path d="M2947.06,2065.33C2947.02,2065.12 2947.16,2064.91 2947.37,2064.87C2947.59,2064.83 2947.79,2064.97 2947.83,2065.19C2947.83,2065.19 2949.14,2072.06 2950.53,2077.16C2951.12,2079.32 2951.72,2081.16 2952.25,2081.96C2952.45,2082.26 2952.81,2082.47 2953.23,2082.61C2953.84,2082.82 2954.58,2082.91 2955.29,2082.87C2956.04,2082.84 2956.75,2082.68 2957.24,2082.38C2957.54,2082.19 2957.76,2081.95 2957.71,2081.62C2957.59,2080.76 2956.7,2078.88 2955.55,2076.7C2952.98,2071.8 2949.11,2065.47 2949.11,2065.47C2948.99,2065.28 2949.05,2065.04 2949.24,2064.93C2949.42,2064.81 2949.66,2064.87 2949.78,2065.05C2949.78,2065.05 2953.75,2071.37 2956.38,2076.25C2957.62,2078.56 2958.55,2080.57 2958.68,2081.48C2958.77,2082.09 2958.53,2082.6 2958.06,2083C2957.62,2083.38 2956.93,2083.65 2956.15,2083.78C2955.03,2083.97 2953.72,2083.87 2952.75,2083.49C2952.17,2083.26 2951.71,2082.92 2951.43,2082.5C2950.87,2081.65 2950.23,2079.7 2949.62,2077.4C2948.27,2072.26 2947.06,2065.33 2947.06,2065.33Z"/>
                            </g>
                            <g transform="matrix(1,0,0,1,43.9705,-65.7377)">
                                <path d="M2993.94,2049.26C2993.43,2049.35 2992.94,2049 2992.86,2048.48C2992.78,2047.97 2993.12,2047.49 2993.64,2047.4C2993.64,2047.4 3006.83,2045.12 3016.2,2045.09C3019.64,2045.08 3022.59,2045.4 3024.29,2046.16C3025.39,2046.64 3026.06,2047.34 3026.32,2048.13C3026.56,2048.84 3026.51,2049.85 3026.08,2051.08C3025.37,2053.11 3023.63,2055.96 3021.39,2059.05C3014.96,2067.91 3004.45,2078.98 3004.45,2078.98C3004.1,2079.37 3003.5,2079.39 3003.12,2079.03C3002.74,2078.68 3002.71,2078.08 3003.07,2077.7C3003.07,2077.7 3013.24,2066.54 3019.5,2057.69C3021.22,2055.26 3022.64,2053.01 3023.45,2051.23C3023.72,2050.62 3023.93,2050.07 3024.03,2049.59C3024.09,2049.31 3024.12,2049.07 3024.06,2048.88C3024,2048.69 3023.81,2048.58 3023.58,2048.45C3023.11,2048.19 3022.48,2048 3021.73,2047.84C3019.53,2047.39 3016.39,2047.32 3013.03,2047.42C3004.25,2047.7 2993.94,2049.26 2993.94,2049.26Z"/>
                            </g>
                            <g transform="matrix(1,0,0,1,43.9705,-65.7377)">
                                <path d="M3003.76,2078.34C3003.76,2078.34 3018.48,2083.39 3021.87,2083.38C3023.74,2083.37 3025.85,2078.96 3024.12,2078.26C3021.38,2077.15 3005.46,2076.71 3005.46,2076.71" style="fill:rgb(35,31,32);"/>
                                <path d="M3003.63,2078.71C3003.43,2078.64 3003.32,2078.42 3003.39,2078.21C3003.46,2078.01 3003.68,2077.9 3003.89,2077.97C3003.89,2077.97 3011,2080.35 3016.47,2081.81C3018.82,2082.43 3020.86,2082.89 3021.87,2082.88C3022.17,2082.88 3022.46,2082.71 3022.74,2082.47C3023.16,2082.11 3023.54,2081.59 3023.81,2081.03C3024.1,2080.46 3024.28,2079.85 3024.26,2079.36C3024.25,2079.07 3024.18,2078.82 3023.93,2078.72C3023.1,2078.38 3021.01,2078.11 3018.53,2077.88C3012.95,2077.36 3005.45,2077.1 3005.45,2077.1C3005.23,2077.1 3005.06,2076.91 3005.07,2076.7C3005.07,2076.48 3005.25,2076.31 3005.47,2076.32C3005.47,2076.32 3013.01,2076.48 3018.61,2076.94C3021.22,2077.16 3023.43,2077.45 3024.31,2077.8C3024.82,2078.01 3025.12,2078.43 3025.22,2078.99C3025.31,2079.5 3025.22,2080.15 3024.99,2080.81C3024.64,2081.77 3023.99,2082.75 3023.27,2083.32C3022.82,2083.67 3022.34,2083.87 3021.88,2083.87C3020.82,2083.87 3018.68,2083.4 3016.22,2082.72C3010.74,2081.2 3003.63,2078.71 3003.63,2078.71Z"/>
                            </g>
                            <g transform="matrix(1,0,0,1,43.9705,-65.7377)">
                                <path d="M3006.74,2010.5C3006.22,2010.56 3005.75,2010.19 3005.69,2009.67C3005.64,2009.15 3006.01,2008.69 3006.52,2008.63C3006.52,2008.63 3010.61,2008.07 3016.12,2007.38C3019.05,2007.01 3022.38,2006.59 3025.72,2006.2C3028.34,2005.9 3030.97,2005.62 3033.41,2005.37C3039.88,2004.7 3044.96,2004.23 3044.96,2004.23L3047.31,2004C3047.83,2003.94 3048.29,2004.31 3048.35,2004.83C3048.41,2005.35 3048.04,2005.82 3047.52,2005.87L3045.18,2006.18C3045.18,2006.18 3040.12,2006.86 3033.67,2007.65C3031.24,2007.95 3028.61,2008.27 3025.98,2008.57C3022.64,2008.94 3019.3,2009.27 3016.36,2009.57C3010.84,2010.12 3006.74,2010.5 3006.74,2010.5Z"/>
                            </g>
                            <g transform="matrix(1,0,0,0.607684,43.9705,720.832)">
                                <path d="M3047.41,2004.94C3047.41,2004.94 3046.64,1992.7 3047.41,1990.12C3047.87,1988.61 3051.86,1987.85 3052.07,1989.4C3052.41,1991.86 3049.41,2004.86 3049.41,2004.86L3047.41,2004.94Z"/>
                                <path d="M3047.02,2005C3047.02,2005 3046.6,1999.03 3046.61,1994.52C3046.62,1992.41 3046.73,1990.61 3046.98,1989.76C3047.09,1989.41 3047.31,1989.05 3047.64,1988.76C3048.24,1988.21 3049.27,1987.83 3050.2,1987.75C3050.97,1987.68 3051.67,1987.84 3052.06,1988.2C3052.34,1988.46 3052.5,1988.82 3052.56,1989.23C3052.6,1989.52 3052.61,1989.93 3052.57,1990.44C3052.52,1991.42 3052.32,1992.81 3052.05,1994.36C3051.25,1999.01 3049.8,2005.1 3049.8,2005.1C3049.74,2005.36 3049.59,2005.54 3049.43,2005.54L3047.42,2005.58C3047.22,2005.59 3047.05,2005.34 3047.02,2005ZM3051.6,1989.65C3051.56,1989.62 3051.45,1989.53 3051.36,1989.5C3050.95,1989.33 3050.36,1989.33 3049.78,1989.44C3049.2,1989.55 3048.62,1989.77 3048.21,1990.08C3048.04,1990.21 3047.9,1990.3 3047.85,1990.47C3047.57,1991.38 3047.52,1993.6 3047.53,1996C3047.54,1999.28 3047.7,2002.87 3047.77,2004.27C3047.77,2004.27 3049.12,2004.19 3049.12,2004.19C3049.4,2002.92 3050.24,1999.03 3050.87,1995.48C3051.15,1993.88 3051.39,1992.36 3051.52,1991.18C3051.59,1990.52 3051.63,1989.99 3051.6,1989.65Z"/>
                            </g>
                            <g transform="matrix(0.99311,0.117186,-0.117186,0.99311,308.173,-400.546)">
                                <path d="M2997.8,2010.18L3045.99,2005.09" style="fill:none;"/>
                                <path d="M2997.9,2011.12C2997.38,2011.17 2996.92,2010.8 2996.87,2010.28C2996.81,2009.76 2997.19,2009.3 2997.7,2009.24C2997.7,2009.24 3002.82,2008.61 3009.73,2007.8C3013.41,2007.38 3017.59,2006.89 3021.77,2006.45C3024.21,2006.19 3026.66,2005.95 3029,2005.72C3038.22,2004.83 3045.89,2004.15 3045.89,2004.15C3046.41,2004.1 3046.87,2004.47 3046.93,2004.99C3046.98,2005.51 3046.61,2005.97 3046.09,2006.03C3046.09,2006.03 3038.45,2006.96 3029.24,2008.02C3026.91,2008.29 3024.46,2008.57 3022.02,2008.82C3017.84,2009.26 3013.65,2009.66 3009.97,2010.01C3003.04,2010.67 2997.9,2011.12 2997.9,2011.12Z"/>
                            </g>
                            <g transform="matrix(0.99311,0.117186,-0.0717704,0.608228,217.11,371.175)">
                                <path d="M3047.24,2004.03C3047.24,2004.03 3046.61,1992.55 3047.41,1990.12C3047.91,1988.62 3051.93,1987.84 3052.07,1989.4C3052.3,1991.85 3048.76,2004.79 3048.76,2004.79L3045.99,2005.09"/>
                                <path d="M3046.9,2004.33C3046.87,2004.26 3046.86,2004.17 3046.85,2004.09C3046.85,2004.09 3046.5,1998.46 3046.57,1994.22C3046.59,1992.24 3046.74,1990.55 3046.99,1989.75C3047.14,1989.31 3047.48,1988.87 3047.97,1988.54C3048.58,1988.12 3049.43,1987.84 3050.2,1987.76C3050.98,1987.68 3051.69,1987.84 3052.08,1988.2C3052.37,1988.47 3052.53,1988.85 3052.56,1989.28C3052.6,1989.67 3052.57,1990.28 3052.47,1991.04C3052.34,1991.95 3052.12,1993.13 3051.84,1994.42C3050.84,1999.04 3049.14,2005.07 3049.14,2005.07C3049.08,2005.31 3048.94,2005.46 3048.78,2005.48L3046.01,2005.73C3045.8,2005.75 3045.61,2005.48 3045.6,2005.13C3045.58,2004.78 3045.75,2004.47 3045.96,2004.45C3045.96,2004.45 3046.39,2004.39 3046.9,2004.33ZM3047.62,2004.24C3048.08,2004.18 3048.47,2004.13 3048.47,2004.13C3048.83,2002.75 3050.11,1997.81 3050.92,1993.9C3051.18,1992.68 3051.39,1991.56 3051.5,1990.69C3051.56,1990.2 3051.6,1989.8 3051.58,1989.55C3051.59,1989.59 3051.6,1989.67 3051.61,1989.64C3051.63,1989.6 3051.62,1989.57 3051.58,1989.55C3051.51,1989.5 3051.36,1989.47 3051.26,1989.44C3050.74,1989.28 3050,1989.35 3049.32,1989.56C3048.85,1989.7 3048.41,1989.9 3048.1,1990.17C3047.98,1990.27 3047.88,1990.36 3047.84,1990.49C3047.55,1991.34 3047.47,1993.41 3047.46,1995.64C3047.43,1999.56 3047.64,2003.97 3047.64,2003.97C3047.64,2004.07 3047.63,2004.16 3047.62,2004.24ZM3051.58,1989.53C3051.58,1989.53 3051.58,1989.53 3051.58,1989.52C3051.58,1989.53 3051.58,1989.53 3051.58,1989.53Z"/>
                            </g>
                            <g transform="matrix(1,0,0,1,-60.333,-65.3)">
                                <path d="M3177.09,1972.18C3177.27,1972.29 3177.34,1972.53 3177.23,1972.71C3177.13,1972.9 3176.89,1972.97 3176.7,1972.86C3176.7,1972.86 3173.38,1971.03 3168.91,1968.53C3166.54,1967.2 3163.84,1965.69 3161.14,1964.17C3159.57,1963.28 3158.01,1962.38 3156.5,1961.52C3150.59,1958.13 3145.69,1955.29 3145.69,1955.29C3145.51,1955.18 3145.44,1954.95 3145.55,1954.76C3145.65,1954.57 3145.89,1954.5 3146.08,1954.61C3146.08,1954.61 3151.03,1957.35 3156.98,1960.68C3158.49,1961.53 3160.06,1962.41 3161.64,1963.3C3164.33,1964.83 3167.01,1966.37 3169.37,1967.73C3173.8,1970.27 3177.09,1972.18 3177.09,1972.18Z"/>
                            </g>
                            <g transform="matrix(0.513342,-0.12703,0.201593,0.711335,1094.22,884.971)">
                                <path d="M2995.93,1973.17C2995.76,1965.39 2982.88,1962.22 2980.8,1966.49C2978.07,1972.13 2991.92,1970.29 2995.93,1973.17Z" style="fill:white;"/>
                                <path d="M2995.4,1973.55C2994.11,1972.64 2991.73,1972.29 2989.28,1971.97C2986.73,1971.63 2984.09,1971.33 2982.26,1970.68C2981.05,1970.25 2980.17,1969.66 2979.77,1968.86C2979.43,1968.19 2979.42,1967.35 2979.93,1966.3C2980.49,1965.13 2981.7,1964.4 2983.25,1964.09C2984.97,1963.74 2987.17,1963.94 2989.29,1964.67C2993.08,1965.96 2996.64,1968.93 2996.67,1973.15C2996.67,1973.36 2996.49,1973.57 2996.21,1973.65C2995.93,1973.74 2995.61,1973.7 2995.4,1973.55ZM2995.05,1972.04C2994.51,1969.6 2992.6,1967.75 2990.34,1966.6C2988.41,1965.61 2986.24,1965.12 2984.46,1965.26C2983.17,1965.36 2982.11,1965.8 2981.68,1966.69C2981.34,1967.39 2981.28,1967.94 2981.49,1968.39C2981.74,1968.9 2982.34,1969.26 2983.11,1969.54C2985.14,1970.3 2988.28,1970.57 2991.05,1971.04C2992.54,1971.29 2993.94,1971.6 2995.05,1972.04Z"/>
                            </g>
                            <g transform="matrix(0.253315,-0.440041,0.593732,0.29844,1099,2640.77)">
                                <path d="M2995.93,1973.17C2992.77,1965.17 2982,1963.34 2980.8,1966.49C2979.2,1970.73 2987.54,1966.92 2995.93,1973.17Z" style="fill:white;"/>
                                <path d="M2995.38,1973.61C2992.21,1971.3 2989.07,1970.47 2986.51,1970.05C2984.62,1969.75 2983.04,1969.66 2981.93,1969.43C2980.87,1969.22 2980.18,1968.84 2979.85,1968.27C2979.59,1967.82 2979.55,1967.2 2979.87,1966.33C2980.22,1965.41 2981.12,1964.77 2982.4,1964.48C2984.04,1964.1 2986.42,1964.32 2988.81,1965.27C2991.97,1966.53 2995.19,1969.06 2996.67,1972.98C2996.77,1973.23 2996.62,1973.51 2996.32,1973.66C2996.01,1973.81 2995.63,1973.79 2995.38,1973.61ZM2993.91,1971.06C2992.72,1969.43 2991.18,1968.18 2989.56,1967.31C2987.36,1966.12 2985.03,1965.61 2983.36,1965.81C2982.56,1965.9 2981.93,1966.15 2981.73,1966.66C2981.57,1967.09 2981.5,1967.4 2981.62,1967.62C2981.75,1967.86 2982.1,1967.94 2982.54,1968.04C2984.83,1968.54 2989.22,1968.5 2993.91,1971.06Z"/>
                            </g>
                            <g transform="matrix(0.380397,0.259697,-0.488675,0.625013,2858.31,-104.375)">
                                <path d="M2995.93,1973.17C2992.77,1965.17 2982,1963.34 2980.8,1966.49C2979.2,1970.73 2987.54,1966.92 2995.93,1973.17Z" style="fill:white;"/>
                                <path d="M2995.28,1973.46C2991.38,1970.62 2987.54,1970.02 2984.77,1969.69C2983.32,1969.51 2982.14,1969.39 2981.31,1969.14C2979.93,1968.73 2979.14,1968.02 2979.76,1966.32C2980.58,1964.21 2984.87,1963.71 2989.22,1965.56C2992.28,1966.85 2995.35,1969.32 2996.76,1973.09C2996.85,1973.32 2996.66,1973.54 2996.31,1973.63C2995.95,1973.72 2995.53,1973.65 2995.28,1973.46ZM2993.99,1971.2C2992.87,1969.55 2991.38,1968.27 2989.81,1967.36C2987.9,1966.24 2985.88,1965.67 2984.25,1965.65C2983.05,1965.64 2982.11,1965.97 2981.85,1966.66C2981.72,1966.98 2981.66,1967.24 2981.66,1967.46C2981.66,1967.78 2981.82,1967.97 2982.19,1968.08C2982.87,1968.3 2983.87,1968.38 2985.08,1968.54C2987.51,1968.86 2990.68,1969.39 2993.99,1971.2Z"/>
                            </g>
                            <g transform="matrix(0.35531,0,0,1,1752.25,-64.5001)">
                                <path d="M3563.25,1944.17L3563.25,1934.93L3667.15,1934.93L3667.15,1926.36L3704.29,1939.55L3667.15,1952.75L3667.15,1944.17L3563.25,1944.17Z" style="fill:rgb(46,91,155);"/>
                                <path d="M3562.15,1944.17L3562.1,1934.93C3562.1,1934.71 3562.61,1934.53 3563.25,1934.53L3665.81,1934.46L3665.78,1926.36C3665.78,1926.16 3666.12,1925.98 3666.63,1925.91C3667.14,1925.83 3667.72,1925.88 3668.11,1926.01L3705.26,1939.21C3705.8,1939.4 3705.8,1939.71 3705.26,1939.9L3668.09,1953.08C3667.71,1953.22 3667.14,1953.26 3666.64,1953.18C3666.14,1953.11 3665.82,1952.94 3665.82,1952.75L3665.86,1944.63L3563.25,1944.56C3562.64,1944.56 3562.15,1944.39 3562.15,1944.17ZM3564.34,1943.78L3667.15,1943.71C3667.86,1943.71 3668.44,1943.92 3668.44,1944.17L3668.47,1951.61C3668.47,1951.61 3702.34,1939.55 3702.34,1939.55L3668.51,1927.53L3668.49,1934.93C3668.49,1935.2 3667.89,1935.41 3667.15,1935.41L3564.4,1935.34L3564.34,1943.78Z"/>
                            </g>
                        </g>
                    </g>
                </g>
                <g>
                    <g transform="matrix(1.99049,0,0,5.01798,-152.022,-11039.4)">
                        <g>
                            <g transform="matrix(0.888662,-0.103566,0.104856,0.899733,138.362,858.014)">
                                <path d="M3011.81,1970.96C3021.87,1970.96 3029.25,1978.73 3029.25,1988.4C3029.25,1998.08 3020.29,2005.85 3010.22,2005.85C3000.16,2005.85 2992.78,1998.08 2992.78,1988.4C2992.78,1978.73 3001.74,1970.96 3011.81,1970.96Z" style="fill:white;"/>
                                <path d="M3011.81,1970.06C3017.1,1970.03 3021.69,1972.05 3024.98,1975.33C3028.3,1978.65 3030.29,1983.27 3030.32,1988.4C3030.34,1993.63 3027.92,1998.35 3024.11,2001.73C3020.43,2004.98 3015.47,2006.98 3010.22,2006.99C3004.88,2006.98 3000.25,2004.91 2996.96,2001.57C2993.65,1998.21 2991.69,1993.56 2991.71,1988.4C2991.74,1983.2 2994.19,1978.52 2998.01,1975.18C3001.68,1971.98 3006.61,1970.03 3011.81,1970.06ZM3011.81,1971.87C3007.09,1971.89 3002.64,1973.72 2999.34,1976.65C2995.99,1979.64 2993.83,1983.79 2993.85,1988.4C2993.87,1992.96 2995.63,1997.06 2998.57,2000.01C3001.48,2002.92 3005.54,2004.71 3010.22,2004.7C3014.89,2004.71 3019.31,2002.94 3022.6,2000.05C3025.96,1997.11 3028.15,1993 3028.17,1988.4C3028.2,1983.83 3026.48,1979.7 3023.55,1976.71C3020.64,1973.74 3016.54,1971.89 3011.81,1971.87Z"/>
                            </g>
                            <g transform="matrix(1,0,0,1,16.5287,347.154)">
                                <path d="M3004.54,2049.45C3004.99,2049.28 3005.51,2049.07 3006.01,2048.9C3009.86,2047.62 3016.2,2045.03 3021.43,2043.69C3023.88,2043.06 3026.11,2042.71 3027.75,2042.84C3029.13,2042.96 3030.16,2043.42 3030.76,2044.2C3032.23,2046.14 3033.07,2048.07 3033.59,2050.02C3034.75,2054.46 3034.12,2059 3036.03,2064.04C3036.19,2064.46 3035.98,2064.94 3035.56,2065.1C3035.14,2065.26 3034.66,2065.05 3034.5,2064.63C3032.51,2059.56 3033.07,2054.96 3031.83,2050.49C3031.36,2048.76 3030.6,2047.06 3029.26,2045.35C3029.01,2045.02 3028.58,2044.88 3028.04,2044.79C3027.26,2044.67 3026.3,2044.73 3025.22,2044.88C3019.26,2045.76 3009.88,2049.91 3005.54,2051.23C3004.66,2051.5 3003.95,2051.65 3003.49,2051.67C3002.99,2051.7 3002.63,2051.57 3002.41,2051.43C3002.1,2051.23 3001.92,2050.94 3001.87,2050.58C3001.83,2050.33 3001.86,2049.96 3002.13,2049.52C3004.35,2045.83 3005.45,2041.63 3005.96,2037.18C3007.12,2027.09 3005.26,2015.74 3005.81,2005.89C3005.84,2005.44 3006.22,2005.1 3006.67,2005.12C3007.12,2005.14 3007.47,2005.53 3007.45,2005.98C3007.01,2015.87 3009.03,2027.26 3007.95,2037.4C3007.49,2041.7 3006.47,2045.78 3004.54,2049.45ZM3003.63,2049.73C3003.5,2049.57 3003.33,2049.43 3003.32,2049.61C3003.3,2049.74 3003.42,2049.77 3003.63,2049.73Z"/>
                            </g>
                            <g transform="matrix(0.110867,-0.993835,0.993835,0.110867,672.493,5112.9)">
                                <path d="M2947.44,2065.26C2947.44,2065.26 2950.05,2079.52 2951.84,2082.23C2953.01,2084.01 2958.5,2083.66 2958.2,2081.55C2957.8,2078.72 2949.44,2065.26 2949.44,2065.26" style="fill:rgb(35,31,32);"/>
                                <path d="M2947.11,2065.32C2947.07,2065.14 2947.2,2064.96 2947.38,2064.92C2947.57,2064.89 2947.74,2065.01 2947.78,2065.2C2947.78,2065.2 2949.08,2072.08 2950.47,2077.17C2951.06,2079.35 2951.66,2081.2 2952.2,2082C2952.4,2082.31 2952.77,2082.52 2953.21,2082.68C2953.83,2082.89 2954.58,2082.97 2955.3,2082.94C2956.05,2082.9 2956.78,2082.74 2957.27,2082.43C2957.6,2082.23 2957.82,2081.97 2957.78,2081.61C2957.66,2080.74 2956.76,2078.86 2955.61,2076.66C2953.03,2071.77 2949.15,2065.44 2949.15,2065.44C2949.05,2065.28 2949.1,2065.07 2949.26,2064.97C2949.42,2064.87 2949.63,2064.92 2949.73,2065.08C2949.73,2065.08 2953.7,2071.39 2956.33,2076.28C2957.56,2078.58 2958.49,2080.58 2958.62,2081.49C2958.7,2082.07 2958.47,2082.57 2958.02,2082.95C2957.58,2083.32 2956.91,2083.58 2956.14,2083.71C2955.03,2083.9 2953.73,2083.81 2952.77,2083.43C2952.21,2083.2 2951.75,2082.88 2951.49,2082.47C2950.93,2081.62 2950.29,2079.68 2949.68,2077.38C2948.33,2072.25 2947.11,2065.32 2947.11,2065.32Z"/>
                            </g>
                            <g transform="matrix(1,0,0,1,16.5287,347.154)">
                                <path d="M2994.12,2049.08C2993.71,2049.26 2993.23,2049.08 2993.04,2048.67C2992.86,2048.25 2993.04,2047.77 2993.46,2047.59C2993.46,2047.59 3007.59,2041.09 3018.49,2037.83C3021.53,2036.92 3024.33,2036.27 3026.5,2036.05C3028.17,2035.88 3029.51,2035.98 3030.39,2036.35C3031.33,2036.73 3032.06,2037.47 3032.58,2038.52C3033.3,2039.98 3033.63,2042.08 3033.66,2044.48C3033.75,2052.27 3030.8,2063.31 3030.8,2063.31C3030.69,2063.74 3030.24,2064.01 3029.8,2063.89C3029.37,2063.78 3029.1,2063.33 3029.22,2062.9C3029.22,2062.9 3031.34,2054.37 3031.68,2047.13C3031.81,2044.39 3031.69,2041.83 3031.05,2040.06C3030.73,2039.18 3030.3,2038.51 3029.62,2038.24C3028.96,2037.97 3027.95,2037.97 3026.71,2038.1C3024.64,2038.31 3021.98,2038.95 3019.07,2039.79C3008.25,2042.93 2994.12,2049.08 2994.12,2049.08Z"/>
                            </g>
                            <g transform="matrix(1,0,0,1,42.7792,331.448)">
                                <path d="M3003.76,2078.34C3003.76,2078.34 3018.48,2083.39 3021.87,2083.38C3023.74,2083.37 3025.85,2078.96 3024.12,2078.26C3021.38,2077.15 3005.46,2076.71 3005.46,2076.71" style="fill:rgb(35,31,32);"/>
                                <path d="M3003.65,2078.66C3003.47,2078.6 3003.38,2078.41 3003.44,2078.23C3003.5,2078.05 3003.69,2077.96 3003.87,2078.02C3003.87,2078.02 3010.98,2080.41 3016.45,2081.87C3018.81,2082.49 3020.86,2082.95 3021.87,2082.95C3022.18,2082.95 3022.49,2082.77 3022.79,2082.52C3023.21,2082.15 3023.59,2081.62 3023.87,2081.06C3024.16,2080.48 3024.35,2079.86 3024.33,2079.36C3024.32,2079.04 3024.23,2078.77 3023.96,2078.66C3023.12,2078.31 3021.02,2078.04 3018.53,2077.81C3012.95,2077.3 3005.45,2077.05 3005.45,2077.05C3005.26,2077.04 3005.11,2076.89 3005.12,2076.7C3005.12,2076.51 3005.28,2076.36 3005.47,2076.37C3005.47,2076.37 3013,2076.53 3018.61,2077C3021.21,2077.22 3023.41,2077.51 3024.28,2077.87C3024.77,2078.06 3025.05,2078.47 3025.15,2079C3025.24,2079.5 3025.16,2080.14 3024.93,2080.79C3024.59,2081.74 3023.95,2082.7 3023.23,2083.27C3022.79,2083.61 3022.33,2083.8 3021.88,2083.8C3020.82,2083.8 3018.69,2083.33 3016.24,2082.66C3010.76,2081.15 3003.65,2078.66 3003.65,2078.66Z"/>
                            </g>
                            <g transform="matrix(0.979091,0.203422,-0.203422,0.979091,445.216,-226.804)">
                                <path d="M3065.27,2018.25C3065.72,2018.29 3066.05,2018.68 3066.02,2019.14C3065.98,2019.59 3065.59,2019.92 3065.14,2019.88C3065.14,2019.88 3058.87,2019.5 3053.45,2019.11C3049.31,2018.81 3045.67,2018.51 3045.67,2018.51C3045.38,2018.49 3045.12,2018.34 3044.94,2018.12C3044.76,2017.89 3044.69,2017.6 3044.74,2017.32L3047.52,2001.52C3047.6,2001.07 3048.02,2000.77 3048.46,2000.84C3048.91,2000.91 3049.21,2001.34 3049.14,2001.78C3049.14,2001.78 3046.93,2016.54 3046.93,2016.54C3048.32,2016.66 3050.86,2016.87 3053.61,2017.12C3059.03,2017.62 3065.27,2018.25 3065.27,2018.25Z"/>
                            </g>
                            <g transform="matrix(0.99311,0.117186,-0.117186,0.99311,381.946,16.6272)">
                                <path d="M2919.89,2026.97C2919.99,2026.85 2920.15,2026.76 2920.37,2026.74C2920.54,2026.72 2920.78,2026.73 2921.07,2026.8C2921.57,2026.92 2922.29,2027.2 2923.18,2027.62C2927.75,2029.79 2937.12,2035.78 2946.22,2042.44C2956.37,2049.87 2966.18,2058.15 2968.71,2062.88C2968.8,2063.04 2968.74,2063.25 2968.58,2063.34C2968.41,2063.42 2968.21,2063.36 2968.12,2063.2C2966.01,2059.29 2958.81,2052.97 2950.62,2046.71C2940.55,2039.01 2928.96,2031.43 2923.36,2028.65C2922.21,2028.08 2921.32,2027.72 2920.77,2027.61C2920.67,2027.59 2920.56,2027.59 2920.5,2027.59C2920.47,2027.63 2920.41,2027.67 2920.33,2027.71C2920.27,2027.75 2920.13,2027.8 2919.93,2027.86C2919.23,2028.09 2917.7,2028.55 2916.5,2029.05C2916.05,2029.24 2915.66,2029.44 2915.38,2029.63C2915.31,2029.69 2915.23,2029.77 2915.18,2029.82C2915.22,2029.84 2915.27,2029.88 2915.32,2029.9C2922.76,2033.41 2938.51,2043.32 2949.79,2051.16C2955.89,2055.41 2960.68,2059.06 2962.17,2060.77C2962.46,2061.1 2962.64,2061.38 2962.7,2061.58C2962.75,2061.76 2962.74,2061.91 2962.69,2062.02C2962.62,2062.16 2962.51,2062.27 2962.3,2062.33C2962.16,2062.37 2961.96,2062.37 2961.68,2062.33C2961.5,2062.3 2961.37,2062.13 2961.4,2061.94C2961.43,2061.76 2961.6,2061.63 2961.78,2061.66C2961.86,2061.68 2961.93,2061.66 2961.99,2061.66C2961.88,2061.44 2961.63,2061.16 2961.28,2060.81C2958.96,2058.5 2952.32,2053.7 2944.59,2048.53C2934,2041.45 2921.38,2033.68 2914.96,2030.67C2914.4,2030.41 2914.26,2030.06 2914.3,2029.76C2914.33,2029.51 2914.52,2029.21 2914.89,2028.94C2915.9,2028.21 2918.44,2027.45 2919.54,2027.09C2919.67,2027.05 2919.81,2027 2919.89,2026.97Z"/>
                            </g>
                            <g transform="matrix(6.36079,2.05133,3.17207,2.22739,-23298.6,-8446.55)">
                                <path d="M3177.3,1971.81C3177.35,1971.84 3177.21,1972.18 3176.98,1972.57C3176.76,1972.97 3176.54,1973.26 3176.49,1973.23C3176.49,1973.23 3173.14,1971.43 3168.67,1968.97C3166.28,1967.65 3163.57,1966.16 3160.88,1964.64C3159.31,1963.75 3157.74,1962.84 3156.24,1961.97C3150.36,1958.55 3145.48,1955.66 3145.48,1955.66C3145.43,1955.63 3145.57,1955.29 3145.8,1954.9C3146.02,1954.51 3146.24,1954.21 3146.29,1954.24C3146.29,1954.24 3151.27,1956.93 3157.23,1960.23C3158.75,1961.07 3160.33,1961.94 3161.9,1962.83C3164.59,1964.36 3167.26,1965.92 3169.62,1967.29C3174.03,1969.87 3177.3,1971.81 3177.3,1971.81Z"/>
                            </g>
                            <g transform="matrix(-0.332348,-0.125657,0.353656,-0.935375,3548.46,4702.18)">
                                <path d="M3563.25,1944.17L3563.25,1934.93L3667.15,1934.93L3667.15,1926.36L3704.29,1939.55L3667.15,1952.75L3667.15,1944.17L3563.25,1944.17Z" style="fill:rgb(46,91,155);"/>
                                <path d="M3562.3,1944.17L3562.25,1934.93C3562.25,1934.74 3562.7,1934.58 3563.25,1934.58C3563.25,1934.58 3665.99,1934.52 3665.99,1934.52L3665.96,1926.36C3665.96,1926.19 3666.25,1926.03 3666.7,1925.97C3667.14,1925.9 3667.65,1925.94 3667.99,1926.06L3705.13,1939.25C3705.6,1939.42 3705.6,1939.69 3705.13,1939.85L3667.96,1953.04C3667.63,1953.15 3667.14,1953.19 3666.71,1953.13C3666.28,1953.06 3665.99,1952.91 3665.99,1952.75L3666.03,1944.57L3563.25,1944.51C3562.72,1944.51 3562.3,1944.36 3562.3,1944.17ZM3564.2,1943.83L3667.15,1943.77C3667.77,1943.77 3668.27,1943.95 3668.27,1944.17L3668.3,1951.76L3702.59,1939.55L3668.33,1927.37L3668.31,1934.93C3668.31,1935.16 3667.79,1935.35 3667.15,1935.35L3564.24,1935.29L3564.2,1943.83Z"/>
                            </g>
                            <g transform="matrix(0.921971,0.387258,-0.387258,0.921971,1013.8,-986.741)">
                                <path d="M3228.86,2331.89C3209.34,2332.93 3128.78,2332.91 3108.86,2331.89C3107.27,2331.81 3109.34,2333.91 3110.25,2336.45C3111.72,2340.58 3114.34,2346.09 3117.86,2346.56C3136.19,2349.01 3200.36,2349.01 3218.86,2346.56C3222.32,2346.11 3225.18,2341.08 3226.94,2337.03C3228.17,2334.23 3230.68,2331.8 3228.86,2331.89Z" style="fill:rgb(46,91,155);"/>
                                <path d="M3228.84,2331.56C3229.32,2331.53 3229.58,2331.67 3229.72,2331.86C3229.86,2332.06 3229.88,2332.37 3229.72,2332.78C3229.37,2333.7 3228.04,2335.36 3227.26,2337.17C3226.27,2339.45 3224.93,2342.04 3223.34,2343.97C3222.02,2345.56 3220.52,2346.7 3218.91,2346.92C3209.66,2348.15 3189,2348.78 3168.36,2348.8C3147.67,2348.81 3126.99,2348.21 3117.8,2346.99C3116.14,2346.76 3114.64,2345.51 3113.38,2343.77C3111.87,2341.69 3110.68,2338.93 3109.84,2336.6C3109.25,2334.95 3108.18,2333.48 3107.92,2332.68C3107.79,2332.26 3107.85,2331.95 3108.02,2331.75C3108.16,2331.58 3108.43,2331.45 3108.88,2331.47C3118.82,2331.98 3143.85,2332.25 3168.86,2332.27C3193.97,2332.29 3219.07,2332.07 3228.84,2331.56ZM3108.71,2332.32C3108.72,2332.34 3108.72,2332.36 3108.72,2332.38C3108.76,2332.49 3108.81,2332.62 3108.88,2332.77C3109.28,2333.62 3110.14,2334.9 3110.65,2336.31C3111.46,2338.57 3112.61,2341.26 3114.07,2343.27C3115.18,2344.8 3116.45,2345.95 3117.91,2346.14C3127.08,2347.37 3147.71,2347.99 3168.36,2348C3188.96,2348.01 3209.58,2347.42 3218.81,2346.21C3220.27,2346.02 3221.6,2344.96 3222.8,2343.52C3224.35,2341.64 3225.66,2339.12 3226.63,2336.89C3227.41,2335.1 3228.74,2333.45 3229.1,2332.53C3229.13,2332.43 3229.16,2332.3 3229.16,2332.26C3229.14,2332.25 3229.12,2332.24 3229.1,2332.24C3229.04,2332.23 3228.97,2332.23 3228.88,2332.23C3219.1,2332.76 3193.99,2333.04 3168.86,2333.06C3143.83,2333.07 3118.78,2332.82 3108.83,2332.32C3108.8,2332.32 3108.75,2332.32 3108.71,2332.32Z"/>
                                <path d="M3109.97,2336.2C3109.86,2336.2 3109.77,2336.11 3109.77,2335.99C3109.78,2335.88 3109.87,2335.79 3109.99,2335.8C3119.46,2336.2 3129.35,2336.5 3139.43,2336.69C3149.13,2336.88 3159.01,2336.96 3168.88,2336.94C3174.79,2336.93 3180.69,2336.88 3186.55,2336.79C3200.76,2336.58 3214.69,2336.13 3227.76,2335.41C3227.87,2335.41 3227.97,2335.49 3227.97,2335.61C3227.98,2335.72 3227.89,2335.82 3227.78,2335.82C3214.71,2336.57 3200.77,2337.05 3186.56,2337.29C3180.7,2337.39 3174.79,2337.45 3168.88,2337.46C3159.01,2337.48 3149.12,2337.38 3139.42,2337.18C3129.34,2336.96 3119.45,2336.64 3109.97,2336.2Z"/>
                            </g>
                            <g transform="matrix(-0.294587,0.955625,-0.25139,-0.0774951,4438.29,-383.715)">
                                <path d="M3047.41,2004.94C3046.36,2000.79 3046.25,1990.63 3047.41,1990.12C3048.81,1989.5 3050.75,1991.44 3051.02,1992.94C3051.47,1995.49 3050.75,2003.38 3050.15,2005.38C3049.89,2006.26 3047.64,2005.83 3047.41,2004.94Z"/>
                                <path d="M3047.17,2005.84C3046.53,2003.42 3046.18,1999.07 3046.2,1995.45C3046.21,1993.61 3046.31,1991.96 3046.5,1990.78C3046.7,1989.52 3047,1988.74 3047.37,1988.56C3048.11,1988.21 3049.01,1988.52 3049.75,1989.15C3050.27,1989.6 3050.72,1990.22 3051,1990.82C3051.18,1991.21 3051.3,1991.65 3051.37,1992.03C3051.47,1992.61 3051.55,1993.37 3051.57,1994.27C3051.61,1995.48 3051.57,1997 3051.47,1998.55C3051.26,2001.8 3050.8,2005.22 3050.41,2006.49C3050.33,2006.73 3050.18,2007.02 3049.95,2007.14C3049.66,2007.3 3049.21,2007.32 3048.76,2007.21C3048.31,2007.11 3047.87,2006.88 3047.59,2006.61C3047.38,2006.4 3047.23,2006.09 3047.17,2005.84ZM3049.93,2004.14C3049.92,2004.18 3049.91,2004.23 3049.9,2004.27C3049.9,2004.24 3049.92,2004.15 3049.93,2004.14C3050.18,2003.19 3050.42,2001.13 3050.58,1999.04C3050.67,1997.81 3050.73,1996.57 3050.74,1995.49C3050.74,1994.85 3050.73,1994.28 3050.67,1993.9C3050.65,1993.86 3050.5,1993.5 3050.38,1993.31C3050.08,1992.83 3049.66,1992.39 3049.21,1992.07C3048.64,1991.67 3048.01,1991.45 3047.46,1991.67C3047.3,1991.73 3047.2,1992.2 3047.13,1992.81C3046.99,1993.93 3046.95,1995.46 3046.97,1997.07C3047.02,1999.55 3047.24,2002.23 3047.63,2003.91C3047.66,2003.78 3047.76,2004.08 3047.87,2004.14C3048.12,2004.31 3048.46,2004.4 3048.79,2004.44C3049.13,2004.48 3049.46,2004.45 3049.71,2004.33C3049.81,2004.29 3049.96,2004.36 3049.94,2004.16C3049.94,2004.14 3049.94,2004.13 3049.93,2004.14ZM3050.66,1993.86C3050.66,1993.86 3050.66,1993.86 3050.66,1993.86C3050.66,1993.86 3050.66,1993.86 3050.66,1993.86Z"/>
                            </g>
                            <g transform="matrix(0.72087,-0.692688,0.59483,0.635393,-364.942,3192.8)">
                                <path d="M3050.65,2031.04C3050.85,2031.51 3050.68,2032.07 3050.28,2032.29C3049.88,2032.52 3049.38,2032.32 3049.18,2031.85C3049.18,2031.85 3047.6,2028.38 3046.05,2024.88C3044.49,2021.39 3042.97,2017.88 3042.97,2017.88C3042.85,2017.6 3042.83,2017.28 3042.91,2016.99C3042.91,2016.99 3043.5,2014.91 3044.27,2012.28C3045.63,2007.67 3047.55,2001.35 3047.55,2001.35C3047.69,2000.86 3048.15,2000.59 3048.58,2000.76C3049.01,2000.92 3049.25,2001.46 3049.11,2001.95C3049.11,2001.95 3047.44,2008.37 3046.19,2013.02C3045.67,2014.93 3045.22,2016.54 3045.01,2017.29C3045.45,2018.34 3046.62,2021.13 3047.77,2023.93C3049.23,2027.48 3050.65,2031.04 3050.65,2031.04Z"/>
                            </g>
                            <g transform="matrix(-0.41149,0.911414,-0.23976,-0.108248,4777.94,-190.481)">
                                <path d="M3047.41,2004.94C3046.36,2000.79 3046.25,1990.63 3047.41,1990.12C3048.81,1989.5 3050.75,1991.44 3051.02,1992.94C3051.47,1995.49 3050.75,2003.38 3050.15,2005.38C3049.89,2006.26 3047.64,2005.83 3047.41,2004.94Z"/>
                                <path d="M3047.17,2005.84C3046.53,2003.42 3046.18,1999.07 3046.2,1995.45C3046.21,1993.61 3046.31,1991.96 3046.5,1990.78C3046.7,1989.52 3047,1988.74 3047.37,1988.56C3048.11,1988.21 3049.01,1988.52 3049.75,1989.15C3050.27,1989.6 3050.72,1990.22 3051,1990.82C3051.18,1991.21 3051.3,1991.65 3051.37,1992.03C3051.47,1992.61 3051.55,1993.37 3051.57,1994.27C3051.61,1995.48 3051.57,1997 3051.47,1998.55C3051.26,2001.8 3050.8,2005.22 3050.41,2006.49C3050.33,2006.73 3050.18,2007.02 3049.95,2007.14C3049.66,2007.3 3049.21,2007.32 3048.76,2007.21C3048.31,2007.11 3047.87,2006.88 3047.59,2006.61C3047.38,2006.4 3047.23,2006.09 3047.17,2005.84ZM3050.66,1993.86C3050.66,1993.86 3050.66,1993.86 3050.66,1993.86C3050.66,1993.86 3050.66,1993.86 3050.66,1993.86ZM3049.93,2004.14C3049.92,2004.18 3049.91,2004.23 3049.9,2004.27C3049.9,2004.24 3049.92,2004.15 3049.93,2004.14C3050.18,2003.19 3050.42,2001.13 3050.58,1999.04C3050.67,1997.81 3050.73,1996.57 3050.74,1995.49C3050.74,1994.85 3050.73,1994.28 3050.67,1993.9C3050.65,1993.86 3050.5,1993.5 3050.38,1993.31C3050.08,1992.83 3049.66,1992.39 3049.21,1992.07C3048.64,1991.67 3048.01,1991.45 3047.46,1991.67C3047.3,1991.73 3047.2,1992.2 3047.13,1992.81C3046.99,1993.93 3046.95,1995.46 3046.97,1997.07C3047.02,1999.55 3047.24,2002.23 3047.63,2003.91C3047.66,2003.78 3047.76,2004.08 3047.87,2004.14C3048.12,2004.31 3048.46,2004.4 3048.79,2004.44C3049.13,2004.48 3049.46,2004.45 3049.71,2004.33C3049.81,2004.29 3049.96,2004.36 3049.94,2004.16C3049.94,2004.14 3049.94,2004.13 3049.93,2004.14Z"/>
                            </g>
                            <g transform="matrix(1,0,0,1,-0.748587,4.24306)">
                                <path d="M2967.6,2359.09C2967.82,2359.18 2967.93,2359.43 2967.84,2359.65C2967.75,2359.87 2967.5,2359.97 2967.28,2359.89L2919.78,2340.84C2919.61,2340.77 2919.53,2340.57 2919.6,2340.4C2919.66,2340.22 2919.86,2340.14 2920.03,2340.21L2967.6,2359.09Z"/>
                            </g>
                            <g transform="matrix(1,0,0,1,9.72552,1.63272)">
                                <path d="M2967.6,2359.09C2967.82,2359.18 2967.93,2359.43 2967.84,2359.65C2967.75,2359.87 2967.5,2359.97 2967.28,2359.89L2919.78,2340.84C2919.61,2340.77 2919.53,2340.57 2919.6,2340.4C2919.66,2340.22 2919.86,2340.14 2920.03,2340.21L2967.6,2359.09Z"/>
                            </g>
                            <g transform="matrix(1,0,0,1,-0.748587,-9.36482)">
                                <path d="M2967.6,2359.09C2967.82,2359.18 2967.93,2359.43 2967.84,2359.65C2967.75,2359.87 2967.5,2359.97 2967.28,2359.89L2919.78,2340.84C2919.61,2340.77 2919.53,2340.57 2919.6,2340.4C2919.66,2340.22 2919.86,2340.14 2920.03,2340.21L2967.6,2359.09Z"/>
                            </g>
                        </g>
                        <g>
                            <g transform="matrix(0.888662,-0.103566,0.104856,0.899733,138.362,858.014)">
                                <path d="M3011.81,1970.96C3021.87,1970.96 3029.25,1978.73 3029.25,1988.4C3029.25,1998.08 3020.29,2005.85 3010.22,2005.85C3000.16,2005.85 2992.78,1998.08 2992.78,1988.4C2992.78,1978.73 3001.74,1970.96 3011.81,1970.96Z" style="fill:white;"/>
                                <path d="M3011.81,1970.06C3017.1,1970.03 3021.69,1972.05 3024.98,1975.33C3028.3,1978.65 3030.29,1983.27 3030.32,1988.4C3030.34,1993.63 3027.92,1998.35 3024.11,2001.73C3020.43,2004.98 3015.47,2006.98 3010.22,2006.99C3004.88,2006.98 3000.25,2004.91 2996.96,2001.57C2993.65,1998.21 2991.69,1993.56 2991.71,1988.4C2991.74,1983.2 2994.19,1978.52 2998.01,1975.18C3001.68,1971.98 3006.61,1970.03 3011.81,1970.06ZM3011.81,1971.87C3007.09,1971.89 3002.64,1973.72 2999.34,1976.65C2995.99,1979.64 2993.83,1983.79 2993.85,1988.4C2993.87,1992.96 2995.63,1997.06 2998.57,2000.01C3001.48,2002.92 3005.54,2004.71 3010.22,2004.7C3014.89,2004.71 3019.31,2002.94 3022.6,2000.05C3025.96,1997.11 3028.15,1993 3028.17,1988.4C3028.2,1983.83 3026.48,1979.7 3023.55,1976.71C3020.64,1973.74 3016.54,1971.89 3011.81,1971.87Z"/>
                            </g>
                            <g transform="matrix(1,0,0,1,16.5287,347.154)">
                                <path d="M3004.54,2049.45C3004.99,2049.28 3005.51,2049.07 3006.01,2048.9C3009.86,2047.62 3016.2,2045.03 3021.43,2043.69C3023.88,2043.06 3026.11,2042.71 3027.75,2042.84C3029.13,2042.96 3030.16,2043.42 3030.76,2044.2C3032.23,2046.14 3033.07,2048.07 3033.59,2050.02C3034.75,2054.46 3034.12,2059 3036.03,2064.04C3036.19,2064.46 3035.98,2064.94 3035.56,2065.1C3035.14,2065.26 3034.66,2065.05 3034.5,2064.63C3032.51,2059.56 3033.07,2054.96 3031.83,2050.49C3031.36,2048.76 3030.6,2047.06 3029.26,2045.35C3029.01,2045.02 3028.58,2044.88 3028.04,2044.79C3027.26,2044.67 3026.3,2044.73 3025.22,2044.88C3019.26,2045.76 3009.88,2049.91 3005.54,2051.23C3004.66,2051.5 3003.95,2051.65 3003.49,2051.67C3002.99,2051.7 3002.63,2051.57 3002.41,2051.43C3002.1,2051.23 3001.92,2050.94 3001.87,2050.58C3001.83,2050.33 3001.86,2049.96 3002.13,2049.52C3004.35,2045.83 3005.45,2041.63 3005.96,2037.18C3007.12,2027.09 3005.26,2015.74 3005.81,2005.89C3005.84,2005.44 3006.22,2005.1 3006.67,2005.12C3007.12,2005.14 3007.47,2005.53 3007.45,2005.98C3007.01,2015.87 3009.03,2027.26 3007.95,2037.4C3007.49,2041.7 3006.47,2045.78 3004.54,2049.45ZM3003.63,2049.73C3003.5,2049.57 3003.33,2049.43 3003.32,2049.61C3003.3,2049.74 3003.42,2049.77 3003.63,2049.73Z"/>
                            </g>
                            <g transform="matrix(0.110867,-0.993835,0.993835,0.110867,672.493,5112.9)">
                                <path d="M2947.44,2065.26C2947.44,2065.26 2950.05,2079.52 2951.84,2082.23C2953.01,2084.01 2958.5,2083.66 2958.2,2081.55C2957.8,2078.72 2949.44,2065.26 2949.44,2065.26" style="fill:rgb(35,31,32);"/>
                                <path d="M2947.11,2065.32C2947.07,2065.14 2947.2,2064.96 2947.38,2064.92C2947.57,2064.89 2947.74,2065.01 2947.78,2065.2C2947.78,2065.2 2949.08,2072.08 2950.47,2077.17C2951.06,2079.35 2951.66,2081.2 2952.2,2082C2952.4,2082.31 2952.77,2082.52 2953.21,2082.68C2953.83,2082.89 2954.58,2082.97 2955.3,2082.94C2956.05,2082.9 2956.78,2082.74 2957.27,2082.43C2957.6,2082.23 2957.82,2081.97 2957.78,2081.61C2957.66,2080.74 2956.76,2078.86 2955.61,2076.66C2953.03,2071.77 2949.15,2065.44 2949.15,2065.44C2949.05,2065.28 2949.1,2065.07 2949.26,2064.97C2949.42,2064.87 2949.63,2064.92 2949.73,2065.08C2949.73,2065.08 2953.7,2071.39 2956.33,2076.28C2957.56,2078.58 2958.49,2080.58 2958.62,2081.49C2958.7,2082.07 2958.47,2082.57 2958.02,2082.95C2957.58,2083.32 2956.91,2083.58 2956.14,2083.71C2955.03,2083.9 2953.73,2083.81 2952.77,2083.43C2952.21,2083.2 2951.75,2082.88 2951.49,2082.47C2950.93,2081.62 2950.29,2079.68 2949.68,2077.38C2948.33,2072.25 2947.11,2065.32 2947.11,2065.32Z"/>
                            </g>
                            <g transform="matrix(1,0,0,1,16.5287,347.154)">
                                <path d="M2994.12,2049.08C2993.71,2049.26 2993.23,2049.08 2993.04,2048.67C2992.86,2048.25 2993.04,2047.77 2993.46,2047.59C2993.46,2047.59 3007.59,2041.09 3018.49,2037.83C3021.53,2036.92 3024.33,2036.27 3026.5,2036.05C3028.17,2035.88 3029.51,2035.98 3030.39,2036.35C3031.33,2036.73 3032.06,2037.47 3032.58,2038.52C3033.3,2039.98 3033.63,2042.08 3033.66,2044.48C3033.75,2052.27 3030.8,2063.31 3030.8,2063.31C3030.69,2063.74 3030.24,2064.01 3029.8,2063.89C3029.37,2063.78 3029.1,2063.33 3029.22,2062.9C3029.22,2062.9 3031.34,2054.37 3031.68,2047.13C3031.81,2044.39 3031.69,2041.83 3031.05,2040.06C3030.73,2039.18 3030.3,2038.51 3029.62,2038.24C3028.96,2037.97 3027.95,2037.97 3026.71,2038.1C3024.64,2038.31 3021.98,2038.95 3019.07,2039.79C3008.25,2042.93 2994.12,2049.08 2994.12,2049.08Z"/>
                            </g>
                            <g transform="matrix(1,0,0,1,42.7792,331.448)">
                                <path d="M3003.76,2078.34C3003.76,2078.34 3018.48,2083.39 3021.87,2083.38C3023.74,2083.37 3025.85,2078.96 3024.12,2078.26C3021.38,2077.15 3005.46,2076.71 3005.46,2076.71" style="fill:rgb(35,31,32);"/>
                                <path d="M3003.65,2078.66C3003.47,2078.6 3003.38,2078.41 3003.44,2078.23C3003.5,2078.05 3003.69,2077.96 3003.87,2078.02C3003.87,2078.02 3010.98,2080.41 3016.45,2081.87C3018.81,2082.49 3020.86,2082.95 3021.87,2082.95C3022.18,2082.95 3022.49,2082.77 3022.79,2082.52C3023.21,2082.15 3023.59,2081.62 3023.87,2081.06C3024.16,2080.48 3024.35,2079.86 3024.33,2079.36C3024.32,2079.04 3024.23,2078.77 3023.96,2078.66C3023.12,2078.31 3021.02,2078.04 3018.53,2077.81C3012.95,2077.3 3005.45,2077.05 3005.45,2077.05C3005.26,2077.04 3005.11,2076.89 3005.12,2076.7C3005.12,2076.51 3005.28,2076.36 3005.47,2076.37C3005.47,2076.37 3013,2076.53 3018.61,2077C3021.21,2077.22 3023.41,2077.51 3024.28,2077.87C3024.77,2078.06 3025.05,2078.47 3025.15,2079C3025.24,2079.5 3025.16,2080.14 3024.93,2080.79C3024.59,2081.74 3023.95,2082.7 3023.23,2083.27C3022.79,2083.61 3022.33,2083.8 3021.88,2083.8C3020.82,2083.8 3018.69,2083.33 3016.24,2082.66C3010.76,2081.15 3003.65,2078.66 3003.65,2078.66Z"/>
                            </g>
                            <g transform="matrix(0.979091,0.203422,-0.203422,0.979091,445.216,-226.804)">
                                <path d="M3065.27,2018.25C3065.72,2018.29 3066.05,2018.68 3066.02,2019.14C3065.98,2019.59 3065.59,2019.92 3065.14,2019.88C3065.14,2019.88 3058.87,2019.5 3053.45,2019.11C3049.31,2018.81 3045.67,2018.51 3045.67,2018.51C3045.38,2018.49 3045.12,2018.34 3044.94,2018.12C3044.76,2017.89 3044.69,2017.6 3044.74,2017.32L3047.52,2001.52C3047.6,2001.07 3048.02,2000.77 3048.46,2000.84C3048.91,2000.91 3049.21,2001.34 3049.14,2001.78C3049.14,2001.78 3046.93,2016.54 3046.93,2016.54C3048.32,2016.66 3050.86,2016.87 3053.61,2017.12C3059.03,2017.62 3065.27,2018.25 3065.27,2018.25Z"/>
                            </g>
                            <g transform="matrix(0.99311,0.117186,-0.117186,0.99311,381.946,16.6272)">
                                <path d="M2919.89,2026.97C2919.99,2026.85 2920.15,2026.76 2920.37,2026.74C2920.54,2026.72 2920.78,2026.73 2921.07,2026.8C2921.57,2026.92 2922.29,2027.2 2923.18,2027.62C2927.75,2029.79 2937.12,2035.78 2946.22,2042.44C2956.37,2049.87 2966.18,2058.15 2968.71,2062.88C2968.8,2063.04 2968.74,2063.25 2968.58,2063.34C2968.41,2063.42 2968.21,2063.36 2968.12,2063.2C2966.01,2059.29 2958.81,2052.97 2950.62,2046.71C2940.55,2039.01 2928.96,2031.43 2923.36,2028.65C2922.21,2028.08 2921.32,2027.72 2920.77,2027.61C2920.67,2027.59 2920.56,2027.59 2920.5,2027.59C2920.47,2027.63 2920.41,2027.67 2920.33,2027.71C2920.27,2027.75 2920.13,2027.8 2919.93,2027.86C2919.23,2028.09 2917.7,2028.55 2916.5,2029.05C2916.05,2029.24 2915.66,2029.44 2915.38,2029.63C2915.31,2029.69 2915.23,2029.77 2915.18,2029.82C2915.22,2029.84 2915.27,2029.88 2915.32,2029.9C2922.76,2033.41 2938.51,2043.32 2949.79,2051.16C2955.89,2055.41 2960.68,2059.06 2962.17,2060.77C2962.46,2061.1 2962.64,2061.38 2962.7,2061.58C2962.75,2061.76 2962.74,2061.91 2962.69,2062.02C2962.62,2062.16 2962.51,2062.27 2962.3,2062.33C2962.16,2062.37 2961.96,2062.37 2961.68,2062.33C2961.5,2062.3 2961.37,2062.13 2961.4,2061.94C2961.43,2061.76 2961.6,2061.63 2961.78,2061.66C2961.86,2061.68 2961.93,2061.66 2961.99,2061.66C2961.88,2061.44 2961.63,2061.16 2961.28,2060.81C2958.96,2058.5 2952.32,2053.7 2944.59,2048.53C2934,2041.45 2921.38,2033.68 2914.96,2030.67C2914.4,2030.41 2914.26,2030.06 2914.3,2029.76C2914.33,2029.51 2914.52,2029.21 2914.89,2028.94C2915.9,2028.21 2918.44,2027.45 2919.54,2027.09C2919.67,2027.05 2919.81,2027 2919.89,2026.97Z"/>
                            </g>
                            <g transform="matrix(6.36079,2.05133,3.17207,2.22739,-23298.6,-8446.55)">
                                <path d="M3177.3,1971.81C3177.35,1971.84 3177.21,1972.18 3176.98,1972.57C3176.76,1972.97 3176.54,1973.26 3176.49,1973.23C3176.49,1973.23 3173.14,1971.43 3168.67,1968.97C3166.28,1967.65 3163.57,1966.16 3160.88,1964.64C3159.31,1963.75 3157.74,1962.84 3156.24,1961.97C3150.36,1958.55 3145.48,1955.66 3145.48,1955.66C3145.43,1955.63 3145.57,1955.29 3145.8,1954.9C3146.02,1954.51 3146.24,1954.21 3146.29,1954.24C3146.29,1954.24 3151.27,1956.93 3157.23,1960.23C3158.75,1961.07 3160.33,1961.94 3161.9,1962.83C3164.59,1964.36 3167.26,1965.92 3169.62,1967.29C3174.03,1969.87 3177.3,1971.81 3177.3,1971.81Z"/>
                            </g>
                            <g transform="matrix(-0.332348,-0.125657,0.353656,-0.935375,3548.46,4702.18)">
                                <path d="M3563.25,1944.17L3563.25,1934.93L3667.15,1934.93L3667.15,1926.36L3704.29,1939.55L3667.15,1952.75L3667.15,1944.17L3563.25,1944.17Z" style="fill:rgb(46,91,155);"/>
                                <path d="M3562.3,1944.17L3562.25,1934.93C3562.25,1934.74 3562.7,1934.58 3563.25,1934.58C3563.25,1934.58 3665.99,1934.52 3665.99,1934.52L3665.96,1926.36C3665.96,1926.19 3666.25,1926.03 3666.7,1925.97C3667.14,1925.9 3667.65,1925.94 3667.99,1926.06L3705.13,1939.25C3705.6,1939.42 3705.6,1939.69 3705.13,1939.85L3667.96,1953.04C3667.63,1953.15 3667.14,1953.19 3666.71,1953.13C3666.28,1953.06 3665.99,1952.91 3665.99,1952.75L3666.03,1944.57L3563.25,1944.51C3562.72,1944.51 3562.3,1944.36 3562.3,1944.17ZM3564.2,1943.83L3667.15,1943.77C3667.77,1943.77 3668.27,1943.95 3668.27,1944.17L3668.3,1951.76L3702.59,1939.55L3668.33,1927.37L3668.31,1934.93C3668.31,1935.16 3667.79,1935.35 3667.15,1935.35L3564.24,1935.29L3564.2,1943.83Z"/>
                            </g>
                            <g transform="matrix(0.921971,0.387258,-0.387258,0.921971,1013.8,-986.741)">
                                <path d="M3228.86,2331.89C3209.34,2332.93 3128.78,2332.91 3108.86,2331.89C3107.27,2331.81 3109.34,2333.91 3110.25,2336.45C3111.72,2340.58 3114.34,2346.09 3117.86,2346.56C3136.19,2349.01 3200.36,2349.01 3218.86,2346.56C3222.32,2346.11 3225.18,2341.08 3226.94,2337.03C3228.17,2334.23 3230.68,2331.8 3228.86,2331.89Z" style="fill:rgb(46,91,155);"/>
                                <path d="M3228.84,2331.56C3229.32,2331.53 3229.58,2331.67 3229.72,2331.86C3229.86,2332.06 3229.88,2332.37 3229.72,2332.78C3229.37,2333.7 3228.04,2335.36 3227.26,2337.17C3226.27,2339.45 3224.93,2342.04 3223.34,2343.97C3222.02,2345.56 3220.52,2346.7 3218.91,2346.92C3209.66,2348.15 3189,2348.78 3168.36,2348.8C3147.67,2348.81 3126.99,2348.21 3117.8,2346.99C3116.14,2346.76 3114.64,2345.51 3113.38,2343.77C3111.87,2341.69 3110.68,2338.93 3109.84,2336.6C3109.25,2334.95 3108.18,2333.48 3107.92,2332.68C3107.79,2332.26 3107.85,2331.95 3108.02,2331.75C3108.16,2331.58 3108.43,2331.45 3108.88,2331.47C3118.82,2331.98 3143.85,2332.25 3168.86,2332.27C3193.97,2332.29 3219.07,2332.07 3228.84,2331.56ZM3108.71,2332.32C3108.72,2332.34 3108.72,2332.36 3108.72,2332.38C3108.76,2332.49 3108.81,2332.62 3108.88,2332.77C3109.28,2333.62 3110.14,2334.9 3110.65,2336.31C3111.46,2338.57 3112.61,2341.26 3114.07,2343.27C3115.18,2344.8 3116.45,2345.95 3117.91,2346.14C3127.08,2347.37 3147.71,2347.99 3168.36,2348C3188.96,2348.01 3209.58,2347.42 3218.81,2346.21C3220.27,2346.02 3221.6,2344.96 3222.8,2343.52C3224.35,2341.64 3225.66,2339.12 3226.63,2336.89C3227.41,2335.1 3228.74,2333.45 3229.1,2332.53C3229.13,2332.43 3229.16,2332.3 3229.16,2332.26C3229.14,2332.25 3229.12,2332.24 3229.1,2332.24C3229.04,2332.23 3228.97,2332.23 3228.88,2332.23C3219.1,2332.76 3193.99,2333.04 3168.86,2333.06C3143.83,2333.07 3118.78,2332.82 3108.83,2332.32C3108.8,2332.32 3108.75,2332.32 3108.71,2332.32Z"/>
                                <path d="M3109.97,2336.2C3109.86,2336.2 3109.77,2336.11 3109.77,2335.99C3109.78,2335.88 3109.87,2335.79 3109.99,2335.8C3119.46,2336.2 3129.35,2336.5 3139.43,2336.69C3149.13,2336.88 3159.01,2336.96 3168.88,2336.94C3174.79,2336.93 3180.69,2336.88 3186.55,2336.79C3200.76,2336.58 3214.69,2336.13 3227.76,2335.41C3227.87,2335.41 3227.97,2335.49 3227.97,2335.61C3227.98,2335.72 3227.89,2335.82 3227.78,2335.82C3214.71,2336.57 3200.77,2337.05 3186.56,2337.29C3180.7,2337.39 3174.79,2337.45 3168.88,2337.46C3159.01,2337.48 3149.12,2337.38 3139.42,2337.18C3129.34,2336.96 3119.45,2336.64 3109.97,2336.2Z"/>
                            </g>
                            <g transform="matrix(-0.294587,0.955625,-0.25139,-0.0774951,4438.29,-383.715)">
                                <path d="M3047.41,2004.94C3046.36,2000.79 3046.25,1990.63 3047.41,1990.12C3048.81,1989.5 3050.75,1991.44 3051.02,1992.94C3051.47,1995.49 3050.75,2003.38 3050.15,2005.38C3049.89,2006.26 3047.64,2005.83 3047.41,2004.94Z"/>
                                <path d="M3047.17,2005.84C3046.53,2003.42 3046.18,1999.07 3046.2,1995.45C3046.21,1993.61 3046.31,1991.96 3046.5,1990.78C3046.7,1989.52 3047,1988.74 3047.37,1988.56C3048.11,1988.21 3049.01,1988.52 3049.75,1989.15C3050.27,1989.6 3050.72,1990.22 3051,1990.82C3051.18,1991.21 3051.3,1991.65 3051.37,1992.03C3051.47,1992.61 3051.55,1993.37 3051.57,1994.27C3051.61,1995.48 3051.57,1997 3051.47,1998.55C3051.26,2001.8 3050.8,2005.22 3050.41,2006.49C3050.33,2006.73 3050.18,2007.02 3049.95,2007.14C3049.66,2007.3 3049.21,2007.32 3048.76,2007.21C3048.31,2007.11 3047.87,2006.88 3047.59,2006.61C3047.38,2006.4 3047.23,2006.09 3047.17,2005.84ZM3050.66,1993.86C3050.66,1993.86 3050.66,1993.86 3050.66,1993.86C3050.66,1993.86 3050.66,1993.86 3050.66,1993.86ZM3049.93,2004.14C3049.92,2004.18 3049.91,2004.23 3049.9,2004.27C3049.9,2004.24 3049.92,2004.15 3049.93,2004.14C3050.18,2003.19 3050.42,2001.13 3050.58,1999.04C3050.67,1997.81 3050.73,1996.57 3050.74,1995.49C3050.74,1994.85 3050.73,1994.28 3050.67,1993.9C3050.65,1993.86 3050.5,1993.5 3050.38,1993.31C3050.08,1992.83 3049.66,1992.39 3049.21,1992.07C3048.64,1991.67 3048.01,1991.45 3047.46,1991.67C3047.3,1991.73 3047.2,1992.2 3047.13,1992.81C3046.99,1993.93 3046.95,1995.46 3046.97,1997.07C3047.02,1999.55 3047.24,2002.23 3047.63,2003.91C3047.66,2003.78 3047.76,2004.08 3047.87,2004.14C3048.12,2004.31 3048.46,2004.4 3048.79,2004.44C3049.13,2004.48 3049.46,2004.45 3049.71,2004.33C3049.81,2004.29 3049.96,2004.36 3049.94,2004.16C3049.94,2004.14 3049.94,2004.13 3049.93,2004.14Z"/>
                            </g>
                            <g transform="matrix(0.72087,-0.692688,0.59483,0.635393,-364.942,3192.8)">
                                <path d="M3050.65,2031.04C3050.85,2031.51 3050.68,2032.07 3050.28,2032.29C3049.88,2032.52 3049.38,2032.32 3049.18,2031.85C3049.18,2031.85 3047.6,2028.38 3046.05,2024.88C3044.49,2021.39 3042.97,2017.88 3042.97,2017.88C3042.85,2017.6 3042.83,2017.28 3042.91,2016.99C3042.91,2016.99 3043.5,2014.91 3044.27,2012.28C3045.63,2007.67 3047.55,2001.35 3047.55,2001.35C3047.69,2000.86 3048.15,2000.59 3048.58,2000.76C3049.01,2000.92 3049.25,2001.46 3049.11,2001.95C3049.11,2001.95 3047.44,2008.37 3046.19,2013.02C3045.67,2014.93 3045.22,2016.54 3045.01,2017.29C3045.45,2018.34 3046.62,2021.13 3047.77,2023.93C3049.23,2027.48 3050.65,2031.04 3050.65,2031.04Z"/>
                            </g>
                            <g transform="matrix(-0.41149,0.911414,-0.23976,-0.108248,4777.94,-190.481)">
                                <path d="M3047.41,2004.94C3046.36,2000.79 3046.25,1990.63 3047.41,1990.12C3048.81,1989.5 3050.75,1991.44 3051.02,1992.94C3051.47,1995.49 3050.75,2003.38 3050.15,2005.38C3049.89,2006.26 3047.64,2005.83 3047.41,2004.94Z"/>
                                <path d="M3047.17,2005.84C3046.53,2003.42 3046.18,1999.07 3046.2,1995.45C3046.21,1993.61 3046.31,1991.96 3046.5,1990.78C3046.7,1989.52 3047,1988.74 3047.37,1988.56C3048.11,1988.21 3049.01,1988.52 3049.75,1989.15C3050.27,1989.6 3050.72,1990.22 3051,1990.82C3051.18,1991.21 3051.3,1991.65 3051.37,1992.03C3051.47,1992.61 3051.55,1993.37 3051.57,1994.27C3051.61,1995.48 3051.57,1997 3051.47,1998.55C3051.26,2001.8 3050.8,2005.22 3050.41,2006.49C3050.33,2006.73 3050.18,2007.02 3049.95,2007.14C3049.66,2007.3 3049.21,2007.32 3048.76,2007.21C3048.31,2007.11 3047.87,2006.88 3047.59,2006.61C3047.38,2006.4 3047.23,2006.09 3047.17,2005.84ZM3050.66,1993.86C3050.66,1993.86 3050.66,1993.86 3050.66,1993.86C3050.66,1993.86 3050.66,1993.86 3050.66,1993.86ZM3049.93,2004.14C3049.92,2004.18 3049.91,2004.23 3049.9,2004.27C3049.9,2004.24 3049.92,2004.15 3049.93,2004.14C3050.18,2003.19 3050.42,2001.13 3050.58,1999.04C3050.67,1997.81 3050.73,1996.57 3050.74,1995.49C3050.74,1994.85 3050.73,1994.28 3050.67,1993.9C3050.65,1993.86 3050.5,1993.5 3050.38,1993.31C3050.08,1992.83 3049.66,1992.39 3049.21,1992.07C3048.64,1991.67 3048.01,1991.45 3047.46,1991.67C3047.3,1991.73 3047.2,1992.2 3047.13,1992.81C3046.99,1993.93 3046.95,1995.46 3046.97,1997.07C3047.02,1999.55 3047.24,2002.23 3047.63,2003.91C3047.66,2003.78 3047.76,2004.08 3047.87,2004.14C3048.12,2004.31 3048.46,2004.4 3048.79,2004.44C3049.13,2004.48 3049.46,2004.45 3049.71,2004.33C3049.81,2004.29 3049.96,2004.36 3049.94,2004.16C3049.94,2004.14 3049.94,2004.13 3049.93,2004.14Z"/>
                            </g>
                            <g transform="matrix(1,0,0,1,-0.748587,4.24306)">
                                <path d="M2967.6,2359.09C2967.82,2359.18 2967.93,2359.43 2967.84,2359.65C2967.75,2359.87 2967.5,2359.97 2967.28,2359.89L2919.78,2340.84C2919.61,2340.77 2919.53,2340.57 2919.6,2340.4C2919.66,2340.22 2919.86,2340.14 2920.03,2340.21L2967.6,2359.09Z"/>
                            </g>
                            <g transform="matrix(1,0,0,1,9.72552,1.63272)">
                                <path d="M2967.6,2359.09C2967.82,2359.18 2967.93,2359.43 2967.84,2359.65C2967.75,2359.87 2967.5,2359.97 2967.28,2359.89L2919.78,2340.84C2919.61,2340.77 2919.53,2340.57 2919.6,2340.4C2919.66,2340.22 2919.86,2340.14 2920.03,2340.21L2967.6,2359.09Z"/>
                            </g>
                            <g transform="matrix(1,0,0,1,-0.748587,-9.36482)">
                                <path d="M2967.6,2359.09C2967.82,2359.18 2967.93,2359.43 2967.84,2359.65C2967.75,2359.87 2967.5,2359.97 2967.28,2359.89L2919.78,2340.84C2919.61,2340.77 2919.53,2340.57 2919.6,2340.4C2919.66,2340.22 2919.86,2340.14 2920.03,2340.21L2967.6,2359.09Z"/>
                            </g>
                        </g>
                    </g>
                </g>
                <g transform="matrix(0.515787,0,0,1.30029,1922.23,-2275.25)">
                    <rect x="6321.24" y="1749.8" width="1920" height="1080" style="fill:none;stroke:white;stroke-width:70px;"/>
                </g>
            </g>
        </g>
    </g>
</svg>
