<?xml version="1.0" encoding="UTF-8" standalone="no"?>
<!DOCTYPE svg PUBLIC "-//W3C//DTD SVG 1.1//EN" "http://www.w3.org/Graphics/SVG/1.1/DTD/svg11.dtd">
<svg width="100%" height="100%" viewBox="0 0 374 104" version="1.1" xmlns="http://www.w3.org/2000/svg" xmlns:xlink="http://www.w3.org/1999/xlink" xml:space="preserve" xmlns:serif="http://www.serif.com/" style="fill-rule:evenodd;clip-rule:evenodd;stroke-linecap:round;stroke-linejoin:round;stroke-miterlimit:1.5;">
    <g transform="matrix(1,0,0,1,0,-222)">
        <g transform="matrix(0.409929,0,0,0.252317,-472.565,-433.742)">
            <rect id="physics-icon2" x="1152.8" y="2601.51" width="912.353" height="408.217" style="fill:none;"/>
            <g id="physics-icon21" serif:id="physics-icon2">
                <g transform="matrix(1.94649,0,0,3.31814,1123.79,2460.46)">
                    <ellipse cx="90.978" cy="101.87" rx="56.481" ry="53.83" style="fill:rgb(251,234,190);stroke:rgb(18,48,74);stroke-width:4.89px;"/>
                </g>
                <g transform="matrix(0.208049,0,0,0.338008,1215.46,2676.99)">
                    <path d="M764.835,161.037L235.497,161.037C223.052,161.037 212.963,171.126 212.963,183.569L212.963,616.429C212.963,628.874 223.053,638.962 235.497,638.962C247.942,638.962 258.034,628.873 258.034,616.429L258.034,206.105L742.305,206.105L742.305,616.429C742.305,628.874 752.394,638.962 764.838,638.962C777.281,638.962 787.372,628.873 787.372,616.429L787.372,183.571C787.37,171.126 777.28,161.037 764.835,161.037Z" style="fill:rgb(102,102,102);fill-rule:nonzero;"/>
                    <path d="M273.333,426.524C273.333,387.191 241.449,355.304 202.116,355.304C162.782,355.304 130.896,387.191 130.896,426.524C130.896,465.852 162.78,497.741 202.116,497.741C241.449,497.741 273.333,465.852 273.333,426.524Z" style="fill:rgb(191,191,191);fill-rule:nonzero;"/>
                    <path d="M197.113,401.94C197.113,390.859 188.124,381.874 177.043,381.874C165.958,381.874 156.976,390.859 156.976,401.94C156.976,413.026 165.958,422.01 177.043,422.01C188.124,422.01 197.113,413.027 197.113,401.94Z" style="fill:rgb(153,153,153);fill-rule:nonzero;"/>
                    <path d="M415.771,426.524C415.771,387.191 383.888,355.304 344.553,355.304C305.222,355.304 273.333,387.191 273.333,426.524C273.333,465.852 305.22,497.741 344.553,497.741C383.888,497.741 415.771,465.852 415.771,426.524Z" style="fill:rgb(191,191,191);fill-rule:nonzero;"/>
                    <path d="M339.551,401.94C339.551,390.859 330.562,381.874 319.481,381.874C308.397,381.874 299.415,390.859 299.415,401.94C299.415,413.026 308.397,422.01 319.481,422.01C330.562,422.01 339.551,413.027 339.551,401.94Z" style="fill:rgb(153,153,153);fill-rule:nonzero;"/>
                    <path d="M558.208,426.524C558.208,387.191 526.323,355.304 486.991,355.304C447.66,355.304 415.768,387.191 415.768,426.524C415.768,465.852 447.657,497.741 486.991,497.741C526.323,497.741 558.208,465.852 558.208,426.524Z" style="fill:rgb(191,191,191);fill-rule:nonzero;"/>
                    <path d="M481.986,401.94C481.986,390.859 472.999,381.874 461.916,381.874C450.835,381.874 441.851,390.859 441.851,401.94C441.851,413.026 450.835,422.01 461.916,422.01C472.999,422.01 481.986,413.027 481.986,401.94Z" style="fill:rgb(153,153,153);fill-rule:nonzero;"/>
                    <path d="M746.797,413.624C746.797,374.29 714.913,342.404 675.577,342.404C636.246,342.404 604.361,374.288 604.361,413.624C604.361,452.95 636.245,484.841 675.577,484.841C714.911,484.841 746.797,452.95 746.797,413.624Z" style="fill:rgb(191,191,191);fill-rule:nonzero;"/>
                    <circle cx="650.512" cy="389.038" r="20.067" style="fill:rgb(153,153,153);"/>
                    <path d="M764.835,593.893L587.032,593.893L587.032,183.571C587.032,171.126 576.943,161.038 564.5,161.038L35.161,161.038C22.715,161.038 12.626,171.127 12.626,183.571L12.626,616.431C12.626,628.876 22.717,638.963 35.161,638.963L235.497,638.963C247.942,638.963 258.034,628.874 258.034,616.431C258.034,603.984 247.944,593.893 235.497,593.893L57.692,593.893L57.692,206.105L541.964,206.105L541.964,616.429C541.964,628.874 552.055,638.962 564.5,638.962L764.836,638.962C777.281,638.962 787.37,628.873 787.37,616.429C787.37,603.984 777.28,593.893 764.835,593.893Z" style="fill:rgb(102,102,102);fill-rule:nonzero;"/>
                    <path d="M764.835,148.412L35.161,148.412C15.773,148.412 0,164.183 0,183.571L0,616.431C0,635.818 15.773,651.588 35.161,651.588L235.497,651.588C254.884,651.588 270.659,635.817 270.659,616.431L270.659,474.722C271.587,473.408 272.484,472.069 273.336,470.699C288.148,494.489 314.528,510.367 344.556,510.367C374.584,510.367 400.965,494.489 415.774,470.699C430.587,494.491 456.966,510.367 486.996,510.367C502.11,510.367 516.656,506.314 529.342,498.88L529.342,616.431C529.342,635.818 545.116,651.588 564.505,651.588L764.841,651.588C784.228,651.588 800.002,635.817 800.002,616.431L800.002,183.571C799.995,164.183 784.222,148.412 764.835,148.412ZM245.406,582.714C242.26,581.786 238.939,581.268 235.495,581.268L225.586,581.268L225.586,506.999C232.614,504.945 239.27,502.013 245.408,498.297L245.408,582.714L245.406,582.714ZM202.116,485.116C169.807,485.116 143.521,458.832 143.521,426.524C143.521,394.213 169.807,367.929 202.116,367.929C234.422,367.929 260.708,394.215 260.708,426.524C260.708,458.83 234.424,485.116 202.116,485.116ZM183.968,344.678C146.434,352.995 118.271,386.523 118.271,426.524C118.271,472.158 154.924,509.366 200.336,510.32L200.336,581.267L70.317,581.267L70.317,218.728L131.126,218.728L183.968,344.678ZM158.508,218.728L200.336,218.728L200.336,318.426L158.508,218.728ZM245.406,284.753L245.406,354.746C239.269,351.029 232.613,348.1 225.585,346.043L225.585,331.993L245.406,284.753ZM225.586,266.73L225.586,218.728L245.408,218.728L245.408,219.486L225.586,266.73ZM270.656,378.323L270.656,224.567L273.106,218.728L273.562,218.728L326.404,344.676C304.075,349.625 285.07,363.49 273.334,382.346C272.481,380.977 271.584,379.638 270.656,378.323ZM300.945,218.728L388.16,218.728L344.553,322.668L300.945,218.728ZM344.553,485.116C312.243,485.116 285.958,458.832 285.958,426.524C285.958,394.213 312.243,367.929 344.553,367.929C376.862,367.929 403.146,394.215 403.146,426.524C403.146,458.83 376.862,485.116 344.553,485.116ZM362.701,344.678L415.543,218.73L415.999,218.73L468.841,344.679C446.513,349.626 427.508,363.496 415.773,382.348C404.037,363.495 385.031,349.628 362.701,344.678ZM529.339,466.991C518.299,478.549 503.102,485.116 486.992,485.116C454.682,485.116 428.396,458.832 428.396,426.524C428.396,394.213 454.682,367.929 486.992,367.929C503.125,367.929 518.302,374.493 529.339,386.056L529.339,466.991ZM529.339,354.16C521.838,349.764 513.692,346.543 505.145,344.659L529.339,286.992L529.339,354.16ZM529.339,221.728L486.989,322.67L443.38,218.73L529.339,218.73L529.339,221.728ZM764.835,626.337L564.501,626.337C559.037,626.337 554.591,621.892 554.591,616.429L554.591,206.105C554.591,199.132 548.939,193.48 541.966,193.48L57.692,193.48C50.718,193.48 45.067,199.132 45.067,206.105L45.067,593.893C45.067,600.867 50.718,606.518 57.692,606.518L235.495,606.518C240.96,606.518 245.406,610.965 245.406,616.429C245.406,621.892 240.96,626.337 235.495,626.337L35.161,626.337C29.697,626.337 25.251,621.892 25.251,616.429L25.251,183.571C25.251,178.108 29.697,173.663 35.161,173.663L564.501,173.663C569.964,173.663 574.409,178.108 574.409,183.571L574.409,593.893C574.409,600.867 580.061,606.518 587.034,606.518L764.838,606.518C770.302,606.518 774.747,610.965 774.747,616.429C774.745,621.893 770.302,626.337 764.835,626.337ZM734.172,413.624C734.172,445.93 707.886,472.216 675.577,472.216C643.271,472.216 616.985,445.932 616.985,413.624C616.985,381.317 643.27,355.029 675.577,355.029C707.885,355.029 734.172,381.315 734.172,413.624ZM690.174,331.078L708.158,218.73L729.677,218.73L729.677,349.643C718.597,340.257 705.058,333.703 690.174,331.078ZM667.81,311.042L599.659,220.3L599.659,218.73L682.591,218.73L667.81,311.042ZM652.706,332.978C629.209,339.651 609.889,356.321 599.657,378.095L599.657,262.347L652.706,332.978ZM675.576,497.466C696.182,497.466 715.063,489.98 729.679,477.603L729.679,581.267L599.657,581.267L599.657,449.154C613.057,477.669 642.04,497.466 675.576,497.466ZM774.745,582.714C771.599,581.786 768.278,581.268 764.836,581.268L754.928,581.268L754.928,440.644C757.827,432.16 759.421,423.077 759.421,413.626C759.421,404.174 757.827,395.088 754.928,386.604L754.928,206.105C754.928,199.132 749.277,193.48 742.303,193.48L712.202,193.48L712.26,193.122C713.363,186.238 708.674,179.761 701.79,178.661C694.896,177.549 688.427,182.247 687.329,189.132L686.633,193.482L599.661,193.482L599.661,183.572C599.661,180.13 599.14,176.81 598.217,173.665L764.839,173.665C770.303,173.665 774.749,178.11 774.749,183.572L774.749,582.714L774.745,582.714Z" style="fill-rule:nonzero;"/>
                </g>
                <g transform="matrix(2.4472,0,0,4.61809,989.343,2102.12)">
                    <g transform="matrix(0.996832,0,0,0.858205,-14.9254,13.6123)">
                        <text x="220.524px" y="148.96px" style="font-family:'Cabin-Regular', 'Cabin', sans-serif;font-size:24px;">Secular curriculum</text>
                        <text x="228.816px" y="172.96px" style="font-family:'Cabin-Regular', 'Cabin', sans-serif;font-size:24px;">c<tspan x="239.544px " y="172.96px ">o</tspan>vering mo<tspan x="354.048px 362.136px " y="172.96px 172.96px ">ti</tspan>on,</text>
                        <g transform="matrix(24,0,0,24,406.104,196.96)">
                        </g>
                        <text x="221.736px" y="196.96px" style="font-family:'Cabin-Regular', 'Cabin', sans-serif;font-size:24px;">ener<tspan x="267.288px 279.24px 290.616px 295.8px " y="196.96px 196.96px 196.96px 196.96px ">gy, </tspan>and f<tspan x="352.56px 365.76px 373.152px 383.88px " y="196.96px 196.96px 196.96px 196.96px ">orce</tspan>s</text>
                    </g>
                </g>
            </g>
        </g>
    </g>
</svg>
