<?xml version="1.0" encoding="UTF-8" standalone="no"?>
<!DOCTYPE svg PUBLIC "-//W3C//DTD SVG 1.1//EN" "http://www.w3.org/Graphics/SVG/1.1/DTD/svg11.dtd">
<svg width="100%" height="100%" viewBox="0 0 483 746" version="1.1" xmlns="http://www.w3.org/2000/svg" xmlns:xlink="http://www.w3.org/1999/xlink" xml:space="preserve" xmlns:serif="http://www.serif.com/" style="fill-rule:evenodd;clip-rule:evenodd;stroke-linecap:round;stroke-linejoin:round;stroke-miterlimit:1.5;">
    <g transform="matrix(1,0,0,1,-11341,-26702)">
        <g transform="matrix(0.486823,0,0,0.530044,8818.59,26702.7)">
            <rect id="PhysicsRocket" x="5182.64" y="0" width="990.311" height="1404.31" style="fill:none;"/>
            <clipPath id="_clip1">
                <rect id="PhysicsRocket1" serif:id="PhysicsRocket" x="5182.64" y="0" width="990.311" height="1404.31"/>
            </clipPath>
            <g clip-path="url(#_clip1)">
                <g transform="matrix(2.05413,0,0,1.88664,-7711.77,-3288.57)">
                    <rect x="6321.24" y="1749.8" width="1920" height="1080" style="fill:none;"/>
                </g>
                <g transform="matrix(0.647103,0,0,0.594336,4472.92,-182.046)">
                    <path d="M1988.7,2005.49C1929.09,1892.76 1883.77,1737.22 1891.99,1442.98L1891.88,1385.96L1788.59,1375.4L1788.59,1464.42C1787.61,1712.13 1758.38,1834.24 1661.3,2070.82L1988.7,2005.49Z" style="fill:url(#_Linear2);"/>
                    <path d="M1989.66,2010.31L1662.42,2076.44C1660.35,2076.85 1658.22,2076.09 1656.88,2074.46C1655.53,2072.83 1655.19,2070.6 1656,2068.65C1703.59,1952.02 1734.68,1863.3 1754.11,1773.59C1773.96,1681.88 1781.6,1589.14 1782,1464.41L1782.04,1375.4C1782.04,1373.54 1782.83,1371.78 1784.2,1370.54C1785.58,1369.29 1787.42,1368.69 1789.26,1368.88L1892.53,1379.57C1895.81,1379.9 1898.3,1382.66 1898.31,1385.95L1898.32,1442.97C1898.32,1443.03 1898.32,1443.09 1898.32,1443.16C1893.97,1587.35 1902.61,1698.12 1919.52,1786.87C1936.93,1878.26 1963.12,1946.21 1993.04,2003.19C1993.77,2004.56 1993.8,2006.19 1993.14,2007.6C1992.47,2009 1991.18,2010 1989.66,2010.31ZM1981.27,2001.94C1951.89,1945.57 1926.09,1878.4 1908.59,1788.98C1891.11,1699.68 1881.93,1588.14 1885.67,1442.91C1885.67,1442.91 1885.47,1391.78 1885.47,1391.78L1795.15,1382.64L1795.19,1464.42L1795.19,1464.45C1794.58,1590.28 1786.78,1683.84 1766.49,1776.29C1747.24,1864.01 1716.75,1950.73 1670.65,2063.14L1981.27,2001.94Z" style="fill:rgb(35,31,32);"/>
                    <path d="M2091.4,1907.57C2045.06,1916.47 1997.25,1942.24 1959.94,1989.23C1872.52,1894.62 1752.62,1919.94 1683.44,2020.95C1676.75,1931.42 1621.95,1894.94 1567.42,1896.66C1561.52,1896.85 1569.41,1898.4 1566.97,1896.61C1587.64,1850.86 1561,1782.82 1506.68,1781.96C1513.21,1689.51 1407.91,1665.26 1364.65,1725.74C1313.39,1708.54 1246.15,1755.24 1279.13,1836.83C1232.58,1901.98 1277.11,1989.11 1338.64,1982.24C1339.59,1982.13 1368.6,1966.35 1339.1,1982.18C1338.89,1982.3 1338.68,1982.41 1338.48,1982.52C1338.08,1982.73 1337.68,1982.95 1337.28,1983.16C1297.14,2005 1276.31,2059.3 1293.94,2121.74C1193.3,2244.4 1342.95,2399.52 1487.9,2333.67C1436.5,2484.33 1704.42,2466.42 1750.11,2387.55C1814.82,2482.08 1972.77,2454.65 1997.53,2392.46C2062.58,2467.97 2158.39,2433.06 2168.57,2382.16C2269.58,2503.52 2454.28,2300.56 2323.02,2220.52C2396.62,2171.49 2401.84,2113.55 2377.39,2070.28C2376.86,2069.34 2378.43,2070.47 2378.43,2070.47C2412.22,2068.05 2443.39,1999.73 2391.84,1975.16C2449.87,1954.22 2450.46,1781.15 2347.58,1808.93C2338.42,1741.67 2219.36,1747.6 2195.74,1826.61C2153.79,1796.7 2089.28,1833.33 2091.45,1906.73" style="fill:rgb(239,239,239);"/>
                    <g transform="matrix(1.45537,0,0,1.45537,-787.698,-731.915)">
                        <g transform="matrix(1.21387,-0.866865,0,1,-240.111,1287.83)">
                            <path d="M1539.99,1258.72L1467.36,1256.47L1453.94,1571L1543.9,1564.75" style="fill:rgb(251,234,190);stroke:rgb(35,31,32);stroke-width:10.52px;"/>
                        </g>
                        <g transform="matrix(-1.21387,-0.866865,0,1,3871,1288.11)">
                            <path d="M1533.15,1252.53L1470.06,1259.46L1453.94,1571L1542.95,1563.86" style="fill:rgb(251,234,190);stroke:rgb(35,31,32);stroke-width:10.52px;"/>
                        </g>
                        <g transform="matrix(1.56003,0,0,1,-355.084,115.504)">
                            <path d="M1397.8,1368.52C1432.21,1370.66 1473.24,1380.77 1508.06,1398.72C1557.96,1011.88 1435.04,694.598 1391.53,696.358C1346.39,698.184 1234.32,1010.6 1275,1398.72C1305.39,1382.43 1335.31,1372.68 1366.04,1369.37" style="fill:rgb(251,234,190);stroke:rgb(35,31,32);stroke-width:6.94px;"/>
                        </g>
                        <g transform="matrix(1,0,0,1,6,0)">
                            <path d="M1801.06,1557.76L1818.75,1484.02L1814.1,1211.6L1797.28,1269.62" style="fill:rgb(251,234,190);stroke:rgb(35,31,32);stroke-width:9.09px;"/>
                        </g>
                        <g transform="matrix(1.12207,0,0,1,-229.792,4.46084)">
                            <ellipse cx="1822.67" cy="997.061" rx="65.244" ry="72.711" style="fill:rgb(46,91,155);stroke:rgb(35,31,32);stroke-width:8.55px;"/>
                        </g>
                        <g transform="matrix(0.564462,-0.403101,0,1,958.259,572.507)">
                            <path d="M1522.61,1252.86L1498.98,1243.37L1437.47,1276.3L1453.94,1571L1500.74,1590.21L1497.54,1300.76L1437.47,1276.3" style="fill:rgb(251,234,190);stroke:rgb(35,31,32);stroke-width:15.64px;"/>
                        </g>
                        <g transform="matrix(1.34089,0,0,1.10583,-633.472,-106.224)">
                            <ellipse cx="1826.41" cy="1002" rx="37.362" ry="43.919" style="fill:white;stroke:rgb(35,31,32);stroke-width:7.39px;"/>
                        </g>
                    </g>
                    <path d="M2250.12,1956.99C2251.51,1959.32 2250.74,1962.34 2248.4,1963.72C2246.07,1965.11 2243.05,1964.33 2241.67,1962C2217.79,1922.19 2160.45,1902.33 2099.63,1912C2052.4,1919.51 2002.98,1944.95 1964.95,1993.22C1963.79,1994.68 1962.05,1995.56 1960.18,1995.63C1958.31,1995.7 1956.5,1994.95 1955.23,1993.58C1913.05,1948.03 1863.15,1931.34 1815.39,1938.3C1767.58,1945.28 1722.03,1975.78 1688.52,2024.43C1687.04,2026.59 1684.36,2027.58 1681.84,2026.9C1679.31,2026.22 1677.49,2024.02 1677.3,2021.41C1674.35,1979.91 1660.77,1950.18 1641.44,1930.77C1616.71,1905.92 1582.73,1898.11 1550.75,1903.79C1536.97,1906.24 1523.55,1911.17 1511.38,1918.34C1499.35,1925.43 1488.52,1934.69 1479.77,1945.88C1478.11,1948.02 1475.02,1948.42 1472.87,1946.76C1470.72,1945.09 1470.33,1942 1471.99,1939.86C1481.41,1927.58 1493.1,1917.38 1506.14,1909.53C1519.31,1901.61 1533.87,1896.11 1548.84,1893.31C1584.25,1886.69 1621.96,1895.24 1649.6,1922.57C1668.15,1940.91 1682.21,1967.8 1687.76,2004.51C1722.19,1959.99 1766.86,1932.16 1813.48,1925.29C1863.18,1917.96 1915.19,1934.28 1959.59,1979.57C1999.46,1932.58 2049.8,1907.8 2097.87,1900.6C2163.54,1890.76 2224.82,1913.8 2250.12,1956.99Z" style="fill:rgb(35,31,32);"/>
                    <path d="M1334.93,1978.84C1337.32,1977.55 1340.31,1978.43 1341.6,1980.81C1342.9,1983.2 1342.02,1986.19 1339.63,1987.48C1318.8,1998.88 1303.58,2019.57 1296.78,2045.63C1291.08,2067.49 1291.3,2093.1 1299.06,2120.3C1299.53,2121.97 1299.15,2123.77 1298.05,2125.12C1248.54,2185.74 1262.52,2254.46 1306.73,2298.25C1348.66,2339.79 1417.59,2359 1485.36,2328.06C1487.59,2327.05 1490.22,2327.46 1492.04,2329.11C1493.86,2330.76 1494.52,2333.33 1493.73,2335.65C1484.41,2363.1 1486.17,2384.51 1495.9,2400.6C1506.75,2418.56 1527.2,2429.69 1551.65,2435.61C1596.42,2446.45 1654.6,2439.62 1696.81,2421.09C1718.35,2411.63 1735.74,2399.22 1744.41,2384.24C1745.55,2382.29 1747.6,2381.05 1749.87,2380.96C1752.12,2380.88 1754.27,2381.96 1755.55,2383.82C1783.44,2424.58 1829.54,2441.44 1873.83,2442.45C1903.26,2443.12 1931.95,2436.82 1954.15,2425.62C1972.09,2416.59 1985.8,2404.45 1991.54,2390.08C1992.37,2387.98 1994.24,2386.47 1996.47,2386.1C1998.69,2385.73 2000.95,2386.54 2002.42,2388.25C2028.53,2418.64 2059.86,2430.3 2088.08,2429.83C2125.2,2429.2 2157.11,2407.87 2162.54,2380.95C2163.01,2378.63 2164.76,2376.78 2167.06,2376.2C2169.35,2375.62 2171.78,2376.41 2173.29,2378.23C2220.16,2434.73 2286.28,2416.53 2326.64,2374.99C2368.3,2332.11 2383.1,2263.73 2320.18,2225.19C2318.58,2224.21 2317.6,2222.5 2317.56,2220.63C2317.52,2218.76 2318.44,2217.01 2319.99,2215.97C2365.67,2185.67 2385.56,2151.28 2386.6,2119.81C2387.91,2080.3 2359.46,2046.06 2317.38,2031.85C2314.8,2030.98 2313.41,2028.19 2314.28,2025.62C2315.14,2023.05 2317.93,2021.66 2320.5,2022.52C2367.2,2038.06 2398.26,2076.35 2397,2120.13C2396.06,2152.61 2377.28,2188.5 2332.82,2220.38C2395.26,2263.84 2379.79,2336.68 2335.02,2383.1C2292.2,2427.5 2223.08,2447.15 2171.2,2394.22C2159.71,2420.87 2126.8,2441.71 2088.31,2442.47C2059.16,2443.05 2026.89,2432.22 1999.09,2403.7C1991.04,2416.94 1977.37,2428.48 1960.03,2437.26C1936.13,2449.36 1905.24,2456.3 1873.54,2455.6C1828.08,2454.59 1781.05,2437.89 1750.29,2398.91C1739.54,2412.46 1722.59,2424.14 1702.07,2433.11C1657.44,2452.62 1595.9,2459.63 1548.63,2448.04C1520.58,2441.17 1497.53,2427.73 1485.14,2407.08C1475.43,2390.89 1472.06,2370.14 1478.38,2344.24C1409.41,2369.86 1341,2348.8 1298.59,2306.44C1251.29,2259.19 1236.08,2185.58 1288.1,2120.51C1280.65,2092.27 1280.83,2065.74 1286.89,2043.02C1294.58,2014.14 1311.75,1991.38 1334.93,1978.84Z" style="fill:rgb(35,31,32);"/>
                    <path d="M1783.68,1464.4C1783.69,1461.69 1785.9,1459.5 1788.61,1459.51C1791.33,1459.52 1793.52,1461.73 1793.51,1464.44C1793.81,1533.39 1791.44,1592.73 1786.41,1645.34C1783.79,1672.74 1780.45,1698.32 1776.49,1722.47C1772.05,1749.48 1766.81,1774.7 1760.94,1798.73C1745.78,1860.82 1726.36,1914.86 1704.42,1970.85C1703.44,1973.38 1700.6,1974.65 1698.07,1973.68C1695.53,1972.71 1694.26,1969.86 1695.23,1967.33C1716.14,1911.48 1734.37,1857.55 1748.69,1795.81C1754.21,1772.01 1759.13,1747.04 1763.47,1720.34C1767.36,1696.43 1770.76,1671.14 1773.64,1644.05C1779.19,1591.82 1782.84,1532.92 1783.68,1464.4Z" style="fill:rgb(35,31,32);"/>
                    <path d="M1887.08,1442.95C1887.09,1440.24 1889.31,1438.05 1892.02,1438.06C1894.74,1438.08 1896.92,1440.3 1896.91,1443.01C1897.06,1512.59 1898.43,1573.11 1901.23,1626.66C1902.35,1648.06 1903.68,1668.33 1905.29,1687.63C1907.07,1708.99 1909.16,1729.15 1911.7,1748.28C1921.95,1825.7 1939.39,1886.22 1968.18,1941.65C1969.44,1944.04 1968.53,1947.02 1966.13,1948.29C1963.73,1949.56 1960.75,1948.64 1959.49,1946.24C1929.31,1890.18 1910.22,1828.84 1898.96,1750.03C1896.19,1730.71 1893.91,1710.33 1892.11,1688.73C1890.49,1669.28 1889.25,1648.84 1888.36,1627.26C1886.15,1573.51 1886.07,1512.75 1887.08,1442.95Z" style="fill:rgb(35,31,32);"/>
                    <path d="M1704.43,2080.36C1703.48,2082.9 1700.65,2084.2 1698.11,2083.25C1695.57,2082.3 1694.27,2079.47 1695.22,2076.92C1707.49,2042.41 1729.39,2015.33 1755.86,1997.05C1768.12,1988.58 1781.38,1982.03 1795.06,1977.49C1809.22,1972.8 1823.85,1970.29 1838.31,1970.01C1872.79,1969.33 1906.37,1981.24 1931.33,2006.92C1933.25,2008.84 1933.25,2011.95 1931.33,2013.87C1929.41,2015.79 1926.3,2015.79 1924.38,2013.87C1900.98,1991.11 1870.1,1981.31 1838.69,1982.6C1825.47,1983.13 1812.18,1985.7 1799.23,1990.01C1778.5,1996.91 1758.73,2008.44 1741.95,2024.46C1726.32,2039.39 1713.17,2058.04 1704.43,2080.36Z" style="fill:rgb(35,31,32);"/>
                    <g transform="matrix(1,0,0,1,-11,-13)">
                        <path d="M1401.8,2003.68C1404.51,2003.74 1406.67,2005.98 1406.61,2008.7C1406.56,2011.41 1404.31,2013.57 1401.6,2013.51C1372.88,2013.53 1354.57,2027.28 1344.56,2048.39C1338.8,2060.53 1335.67,2075.03 1334.91,2090.9C1333.91,2111.78 1336.77,2134.93 1343.53,2157.98C1344.34,2160.57 1342.9,2163.33 1340.32,2164.15C1337.73,2164.96 1334.96,2163.53 1334.15,2160.94C1326.03,2136.88 1321.74,2112.53 1322.26,2090.45C1322.68,2072.62 1326.13,2056.22 1332.82,2042.7C1345.1,2017.88 1367.78,2002.3 1401.8,2003.68Z" style="fill:rgb(35,31,32);"/>
                    </g>
                    <path d="M2203.62,2043.72C2200.91,2043.88 2198.59,2041.81 2198.43,2039.1C2198.27,2036.39 2200.35,2034.06 2203.05,2033.91C2233.57,2031.55 2260.3,2032.94 2282.62,2037.97C2292.05,2040.09 2300.69,2042.89 2308.51,2046.28C2317.56,2050.2 2325.52,2054.94 2332.31,2060.37C2357.08,2080.17 2366.99,2108.91 2358.73,2144.39C2358.16,2147.04 2355.54,2148.73 2352.89,2148.16C2350.24,2147.59 2348.55,2144.98 2349.11,2142.32C2355.17,2111.5 2346.17,2087.06 2324.4,2070.51C2318.3,2065.87 2311.23,2061.86 2303.25,2058.41C2296.09,2055.3 2288.21,2052.67 2279.63,2050.49C2258.38,2045.12 2232.91,2042.6 2203.62,2043.72Z" style="fill:rgb(35,31,32);"/>
                    <g transform="matrix(-0.88069,-0.473692,0.473692,-0.88069,2812.15,4915.7)">
                        <path d="M1756.56,2359.12C1756.26,2356.42 1758.21,2353.99 1760.91,2353.69C1763.61,2353.39 1766.04,2355.34 1766.34,2358.03C1767.4,2364.2 1769.27,2369.73 1771.54,2374.76C1773.94,2380.06 1777.07,2384.6 1780.73,2388.53C1785.16,2393.28 1790.39,2397.16 1796.84,2399.64C1800.92,2401.21 1805.35,2402.43 1810.23,2403C1812.94,2403.16 1815.01,2405.49 1814.85,2408.2C1814.68,2410.91 1812.35,2412.98 1809.64,2412.82C1798.75,2412.73 1789.29,2410.18 1781.36,2405.62C1777.55,2403.42 1774.12,2400.72 1771.12,2397.57C1768.19,2394.48 1765.65,2390.96 1763.61,2387.04C1759.46,2379.11 1757.13,2369.67 1756.56,2359.12Z" style="fill:rgb(35,31,32);"/>
                    </g>
                    <path d="M2137.04,2294.11C2136.07,2291.57 2137.35,2288.73 2139.88,2287.76C2142.42,2286.8 2145.26,2288.07 2146.22,2290.61C2156.72,2316.81 2171.42,2337.66 2188.04,2352.68C2201.18,2364.56 2215.56,2372.62 2230.19,2376.65C2266.46,2386.63 2304.19,2370.63 2327.55,2322.59C2328.71,2320.14 2331.64,2319.08 2334.1,2320.24C2336.55,2321.39 2337.61,2324.33 2336.45,2326.78C2311.36,2381.94 2267.96,2400.4 2226.73,2389.38C2214.06,2385.99 2201.57,2379.69 2189.92,2370.74C2168.18,2354.04 2149.29,2327.96 2137.04,2294.11Z" style="fill:rgb(35,31,32);"/>
                    <path d="M1437.9,2174.42C1438.29,2171.73 1440.78,2169.87 1443.47,2170.25C1446.15,2170.64 1448.02,2173.14 1447.63,2175.82C1442.3,2216.51 1454.07,2252.09 1475.5,2278.05C1485.43,2290.08 1497.44,2300.03 1510.84,2307.46C1524.23,2314.88 1539,2319.82 1554.5,2321.67C1587.08,2325.58 1622.78,2316.11 1655.2,2288.65C1657.25,2286.87 1660.36,2287.09 1662.14,2289.14C1663.92,2291.19 1663.7,2294.29 1661.65,2296.07C1627.19,2326.72 1588.55,2337.78 1553.12,2334.19C1535.87,2332.44 1519.35,2327.21 1504.46,2319.01C1489.59,2310.81 1476.31,2299.65 1465.54,2286.14C1442.74,2257.55 1430.95,2218.44 1437.9,2174.42Z" style="fill:rgb(35,31,32);"/>
                    <g transform="matrix(1,0,0,1,0,75.2081)">
                        <path d="M1887.52,2254.17C1886.26,2251.76 1887.2,2248.79 1889.61,2247.54C1892.01,2246.28 1894.98,2247.22 1896.24,2249.63C1905.92,2267.4 1921.61,2279.87 1939.3,2287.18C1957.43,2294.66 1977.72,2296.47 1996.29,2292.61C2030.84,2285.41 2059.14,2257.71 2054.89,2206.29C2054.63,2203.59 2056.61,2201.19 2059.31,2200.93C2062.01,2200.67 2064.42,2202.65 2064.68,2205.35C2071.15,2264.23 2038.62,2296.98 1999.01,2305.51C1986.29,2308.26 1972.77,2308.38 1959.6,2306.04C1929.88,2300.75 1901.87,2282.92 1887.52,2254.17Z" style="fill:rgb(35,31,32);"/>
                    </g>
                    <path d="M1808.92,1536.76C1808.99,1534.04 1811.25,1531.89 1813.96,1531.96C1816.67,1532.02 1818.82,1534.28 1818.76,1536.99C1818.15,1585.23 1816.15,1629.25 1812.43,1669.34C1811.01,1684.56 1809.34,1699.22 1807.41,1713.31C1805.33,1728.53 1802.96,1743.1 1800.35,1757.05C1789.69,1813.92 1775.2,1860.55 1757.95,1898.59C1756.86,1901.07 1753.95,1902.2 1751.47,1901.1C1748.99,1900.01 1747.86,1897.1 1748.95,1894.62C1765.12,1856.92 1778.02,1810.77 1787.69,1754.77C1790.07,1740.96 1792.26,1726.55 1794.31,1711.53C1796.21,1697.57 1797.98,1683.09 1799.61,1668.05C1803.93,1628.28 1807.22,1584.65 1808.92,1536.76Z" style="fill:rgb(35,31,32);"/>
                    <path d="M1869.93,1650.39C1869.72,1647.68 1871.74,1645.31 1874.44,1645.1C1877.15,1644.89 1879.52,1646.91 1879.73,1649.61C1883.17,1686.13 1887.4,1718.99 1891.89,1748.72C1893.62,1760.1 1895.36,1771.03 1897.14,1781.52C1899.07,1792.9 1901.03,1803.77 1903.06,1814.16C1911.44,1857.15 1921.19,1891.82 1932.4,1920.34C1933.43,1922.85 1932.23,1925.72 1929.72,1926.75C1927.2,1927.78 1924.33,1926.57 1923.3,1924.06C1912.38,1898.4 1902.23,1867.77 1893.52,1830.43C1890.5,1817.53 1887.65,1803.83 1885.07,1789.25C1882.76,1776.14 1880.65,1762.32 1878.78,1747.74C1875.01,1718.45 1872.19,1686.12 1869.93,1650.39Z" style="fill:rgb(35,31,32);"/>
                    <path d="M1837.94,1536.88C1837.94,1534.16 1840.14,1531.96 1842.86,1531.96C1845.57,1531.96 1847.77,1534.16 1847.77,1536.87C1848.36,1583.61 1849.98,1624.64 1852.13,1661.48C1852.97,1675.89 1853.88,1689.66 1854.87,1702.88C1855.95,1717.27 1857.11,1731 1858.39,1744.19C1863.39,1795.69 1870.43,1838.92 1879.62,1880.63C1880.23,1883.27 1878.58,1885.92 1875.94,1886.53C1873.3,1887.14 1870.65,1885.49 1870.04,1882.85C1860.98,1845.68 1853.35,1807.3 1847.67,1762.86C1845.57,1746.42 1843.72,1729.16 1842.24,1710.82C1840.91,1694.35 1839.86,1677.01 1839.12,1658.64C1837.66,1622.5 1837.39,1582.36 1837.94,1536.88Z" style="fill:rgb(35,31,32);"/>
                    <path d="M2096.37,1906.58C2096.45,1909.3 2094.31,1911.56 2091.6,1911.64C2088.89,1911.72 2086.62,1909.59 2086.54,1906.87C2085.28,1872.31 2098.28,1845.44 2116.81,1828.98C2138.6,1809.62 2168.06,1804.58 2192.47,1817.59C2205.7,1783.16 2236.68,1763.07 2267.94,1757.61C2305.91,1750.97 2343.69,1765.98 2352.72,1800.97C2370.36,1797.52 2385,1799.8 2396.88,1805.88C2412.12,1813.69 2422.95,1827.87 2429.52,1845.16C2441.46,1876.63 2439.2,1918.45 2425.83,1947.34C2420.23,1959.43 2412.68,1969.27 2403.55,1975.48C2422.49,1988.88 2427.11,2009.02 2423.36,2027.8C2418.45,2052.31 2398.76,2074.06 2378.78,2075.37C2376.08,2075.57 2373.72,2073.53 2373.53,2070.82C2373.34,2068.11 2375.38,2065.76 2378.08,2065.56C2394.27,2064.3 2409.2,2045.72 2412.94,2025.78C2416.15,2008.67 2410.65,1990.25 2389.4,1980.27C2387.34,1979.29 2386.07,1977.16 2386.18,1974.88C2386.29,1972.6 2387.76,1970.6 2389.91,1969.83C2401.96,1965.41 2410.91,1953.43 2416.85,1938.33C2424.55,1918.8 2427.01,1893.96 2423.4,1871.35C2419.67,1847.98 2409.51,1826.86 2390.98,1817.48C2380.02,1811.94 2366.2,1810.7 2349.29,1815.29C2347.46,1815.79 2345.51,1815.47 2343.93,1814.42C2342.35,1813.38 2341.3,1811.7 2341.04,1809.82C2336.66,1777.27 2303.03,1764.76 2270.13,1770.31C2240.93,1775.24 2211.77,1794.46 2201.48,1828.33C2200.92,1830.18 2199.51,1831.65 2197.68,1832.28C2195.85,1832.91 2193.84,1832.61 2192.26,1831.49C2171.31,1816.36 2144,1819.97 2124.04,1837.23C2107.3,1851.72 2095.67,1875.68 2096.37,1906.58Z" style="fill:rgb(35,31,32);"/>
                    <g transform="matrix(0.844961,0.140486,-0.133949,0.805644,508.965,111.408)">
                        <path d="M1366.27,2050.17C1368.29,2047.62 1371.91,2047.27 1374.35,2049.39C1376.78,2051.52 1377.12,2055.32 1375.09,2057.87C1330.22,2115.22 1273.84,2110.34 1236.81,2076.47C1202.19,2044.82 1184.5,1987.11 1209.01,1929.85C1185.37,1887.44 1186.43,1849.46 1200.2,1821.2C1217.26,1786.15 1254.21,1765.79 1290.27,1769.38C1312.87,1727.27 1357.9,1709.45 1398.04,1718.07C1434.83,1725.98 1467.76,1755.87 1474.81,1809.72C1506.11,1807.8 1532.54,1825.55 1549.41,1851.71C1566.74,1878.6 1573.87,1914.27 1565.82,1945.33C1565.01,1948.55 1561.86,1950.46 1558.8,1949.61C1555.74,1948.75 1553.91,1945.45 1554.73,1942.24C1561.59,1914.51 1554.79,1882.85 1539.11,1859.1C1523.52,1835.48 1498.94,1819.63 1469.89,1824.37C1468.07,1824.66 1466.21,1824.15 1464.76,1822.96C1463.31,1821.77 1462.39,1820 1462.22,1818.08C1457.47,1767.8 1428.36,1739.81 1395.19,1732.96C1359.58,1725.61 1319.58,1742.44 1301.42,1781.56C1299.94,1784.73 1296.67,1786.51 1293.35,1785.95C1261.94,1780.68 1228.86,1797.93 1213.85,1828.54C1201.58,1853.58 1201.62,1887.38 1223.62,1925.36C1224.94,1927.61 1225.06,1930.42 1223.95,1932.79C1199.62,1984.25 1214.65,2037.04 1245.61,2065.99C1277.6,2095.9 1326.54,2099.67 1366.27,2050.17Z" style="fill:rgb(35,31,32);"/>
                    </g>
                    <g transform="matrix(0.780502,0.346336,-0.350311,0.740844,993.824,-41.5084)">
                        <path d="M1417.65,1806.05C1414.71,1807.23 1411.35,1805.68 1410.14,1802.59C1408.93,1799.5 1410.33,1796.03 1413.27,1794.84C1423.11,1790.06 1432.25,1787.15 1440.69,1786.46C1445.36,1786.08 1449.83,1786.44 1454,1787.44C1458.62,1788.54 1462.92,1790.43 1466.81,1793.1C1474.58,1798.43 1480.99,1806.62 1485.53,1818.21C1486.92,1821.23 1485.73,1824.79 1482.87,1826.16C1480.01,1827.54 1476.56,1826.21 1475.17,1823.19C1472.73,1818.68 1469.93,1815.05 1466.99,1811.98C1462.36,1807.14 1456.99,1804.52 1450.99,1803.16C1446.1,1802.05 1440.79,1801.74 1434.92,1802.41C1429.56,1803.03 1423.8,1804.09 1417.65,1806.05Z" style="fill:rgb(35,31,32);"/>
                    </g>
                    <g transform="matrix(1,0,0,1,-4.63857,91.0838)">
                        <path d="M1307.33,1745.36C1309.86,1744.37 1312.71,1745.61 1313.71,1748.13C1314.7,1750.66 1313.46,1753.52 1310.93,1754.51C1304.46,1757.39 1299.6,1763.49 1295.86,1770.93C1292.45,1777.7 1290.3,1785.7 1289.13,1794.05C1287.79,1803.69 1287.75,1813.8 1289.96,1823.17C1291.46,1829.55 1293.77,1835.6 1297.31,1840.81C1298.93,1842.99 1298.48,1846.07 1296.3,1847.69C1294.12,1849.31 1291.04,1848.85 1289.42,1846.67C1281.26,1836.5 1276.76,1823.13 1275.64,1809.34C1275.18,1803.65 1275.29,1797.87 1276.06,1792.26C1277.42,1782.33 1280.62,1772.9 1285.18,1765.12C1290.77,1755.56 1298.4,1748.43 1307.33,1745.36Z" style="fill:rgb(35,31,32);"/>
                    </g>
                    <g transform="matrix(0.938414,-0.345514,0.345514,0.938414,-604.156,666.724)">
                        <path d="M1475.3,1912.62C1473.85,1914.91 1470.81,1915.6 1468.52,1914.16C1466.22,1912.71 1465.53,1909.67 1466.98,1907.38C1471.78,1898.78 1478.9,1891.11 1487.45,1885.06C1490.96,1882.57 1494.74,1880.4 1498.65,1878.58C1502.59,1876.75 1506.68,1875.29 1510.8,1874.17C1521.18,1871.35 1531.68,1870.61 1540.91,1872.09C1543.61,1872.38 1545.56,1874.81 1545.26,1877.51C1544.96,1880.21 1542.53,1882.16 1539.84,1881.86C1535.19,1881.6 1530.29,1882.17 1525.25,1883.16C1518.23,1884.56 1511.14,1887.24 1504.28,1890.51C1498.68,1893.18 1493.23,1896.21 1488.35,1899.87C1483.34,1903.63 1478.77,1907.76 1475.3,1912.62Z" style="fill:rgb(35,31,32);"/>
                    </g>
                    <path d="M2212.62,1846.3C2211.48,1848.76 2208.56,1849.84 2206.09,1848.7C2203.63,1847.56 2202.56,1844.63 2203.7,1842.17C2208.6,1830.24 2214.19,1819.6 2220.89,1810.6C2224.12,1806.25 2227.63,1802.31 2231.38,1798.8C2235.35,1795.08 2239.6,1791.86 2244.08,1789.11C2254.53,1782.71 2266.2,1778.82 2279.17,1777.69C2281.86,1777.35 2284.33,1779.25 2284.67,1781.94C2285.01,1784.63 2283.11,1787.1 2280.42,1787.44C2267.73,1789.56 2256.9,1794.81 2247.33,1802.37C2244.49,1804.61 2241.78,1807.06 2239.12,1809.68C2236.54,1812.23 2234.02,1814.94 2231.56,1817.83C2224.66,1825.94 2218.26,1835.37 2212.62,1846.3Z" style="fill:rgb(35,31,32);"/>
                </g>
                <g transform="matrix(0.476784,0,0,0.437906,5086.06,4.25003)">
                    <path d="M429.696,2232.19L434.901,2264.88L458.975,2269.97C462.708,2270.85 465.348,2274.17 465.348,2278.01C465.348,2281.84 462.708,2285.17 458.975,2286.04L436.102,2291.78L431.956,2324.12C431.36,2328.57 427.567,2331.89 423.082,2331.89C418.597,2331.89 414.804,2328.57 414.208,2324.12L410.174,2291.65L387.227,2285.87C383.572,2285.02 380.987,2281.76 380.987,2278.01C380.987,2274.25 383.572,2270.99 387.227,2270.14C387.227,2270.14 411.346,2264.99 411.346,2264.99L416.468,2232.19C416.912,2228.88 419.739,2226.4 423.082,2226.4C426.425,2226.4 429.252,2228.88 429.696,2232.19ZM422.339,2277.37C422.55,2277.49 422.755,2277.62 422.954,2277.77C423.158,2277.61 423.369,2277.47 423.586,2277.33C423.381,2277.18 423.184,2277.01 422.996,2276.84C422.788,2277.03 422.568,2277.2 422.339,2277.37Z" style="fill:rgb(35,31,32);"/>
                </g>
                <g transform="matrix(0.396642,0,0,0.314196,5893.81,286.061)">
                    <path d="M430.916,2231.08L437.369,2260.33L459.819,2266.95C464.078,2268.36 467.015,2272.87 467.015,2278.01C467.015,2283.14 464.078,2287.65 459.819,2289.06L438.913,2296.55L433.593,2325.61C432.508,2331.34 428.135,2335.41 423.082,2335.41C418.029,2335.41 413.656,2331.34 412.571,2325.61L407.356,2296.38L386.401,2288.83C382.231,2287.45 379.354,2283.03 379.354,2278.01C379.354,2272.98 382.231,2268.56 386.401,2267.18L408.875,2260.48L415.248,2231.08C416.057,2226.82 419.316,2223.78 423.082,2223.78C426.848,2223.78 430.107,2226.82 430.916,2231.08ZM422.013,2277C422.341,2277.25 422.655,2277.52 422.955,2277.82C423.256,2277.51 423.573,2277.22 423.905,2276.96C423.579,2276.63 423.275,2276.27 422.993,2275.89C422.691,2276.29 422.364,2276.66 422.013,2277Z" style="fill:rgb(35,31,32);"/>
                </g>
                <g transform="matrix(0.396642,0,0,0.314196,5638.17,218.299)">
                    <path d="M430.916,2231.08L437.369,2260.33L459.819,2266.95C464.078,2268.36 467.015,2272.87 467.015,2278.01C467.015,2283.14 464.078,2287.65 459.819,2289.06L438.913,2296.55L433.593,2325.61C432.508,2331.34 428.135,2335.41 423.082,2335.41C418.029,2335.41 413.656,2331.34 412.571,2325.61L407.356,2296.38L386.401,2288.83C382.231,2287.45 379.354,2283.03 379.354,2278.01C379.354,2272.98 382.231,2268.56 386.401,2267.18L408.875,2260.48L415.248,2231.08C416.057,2226.82 419.316,2223.78 423.082,2223.78C426.848,2223.78 430.107,2226.82 430.916,2231.08ZM422.013,2277C422.341,2277.25 422.655,2277.52 422.955,2277.82C423.256,2277.51 423.573,2277.22 423.905,2276.96C423.579,2276.63 423.275,2276.27 422.993,2275.89C422.691,2276.29 422.364,2276.66 422.013,2277Z" style="fill:rgb(35,31,32);"/>
                </g>
                <g transform="matrix(0.476784,0,0,0.418006,5138.15,-60.1081)">
                    <path d="M418.605,2242.43C418.275,2238.59 420.985,2235.19 424.653,2234.84C428.321,2234.5 431.566,2237.34 431.896,2241.18C433.088,2246.95 434.861,2251.85 436.568,2256.21C437.138,2257.67 437.747,2259.01 438.338,2260.29C438.894,2261.5 439.376,2262.65 440.023,2263.66C442.058,2266.81 444.674,2269.16 449.104,2269.3C452.775,2268.99 455.997,2271.85 456.294,2275.7C456.591,2279.55 453.853,2282.92 450.182,2283.23C439.844,2285.33 432.227,2281.66 426.35,2275.03C424.726,2273.19 423.348,2270.98 422.194,2268.5C421.244,2266.45 420.436,2264.19 419.901,2261.74C418.676,2256.11 418.373,2249.66 418.605,2242.43Z" style="fill:rgb(35,31,32);"/>
                </g>
                <g transform="matrix(0.12701,0.402902,-0.459556,0.111352,6329.75,474.134)">
                    <path d="M416.319,2241.4C416.308,2237.7 419.421,2234.77 423.267,2234.84C427.113,2234.92 430.244,2237.98 430.255,2241.68C430.938,2246.89 432.778,2251.16 434.756,2254.99C435.393,2256.23 436.122,2257.36 436.845,2258.47C437.559,2259.57 438.24,2260.66 439.076,2261.63C442.042,2265.11 445.694,2268.1 450.892,2269.71C454.676,2270.46 457.188,2274 456.499,2277.62C455.809,2281.24 452.178,2283.57 448.394,2282.82C440.528,2282.14 433.979,2279.51 428.511,2275.61C425.888,2273.74 423.638,2271.43 421.757,2268.81C420.003,2266.36 418.556,2263.61 417.627,2260.59C415.885,2254.93 415.408,2248.54 416.319,2241.4Z" style="fill:rgb(35,31,32);"/>
                </g>
                <g transform="matrix(-0.476784,0,0,0.418006,5540.71,-59.927)">
                    <path d="M431.91,2241.37C431.681,2237.52 428.511,2234.59 424.836,2234.83C421.16,2235.07 418.362,2238.39 418.591,2242.24C418.156,2249.67 418.403,2256.15 419.616,2261.75C420.162,2264.26 421.014,2266.56 422.02,2268.63C423.234,2271.14 424.694,2273.35 426.428,2275.17C432.131,2281.16 439.573,2284.57 449.725,2283.25C453.407,2283.21 456.36,2280.04 456.315,2276.18C456.27,2272.32 453.244,2269.23 449.561,2269.27C444.836,2268.79 441.91,2266.47 439.702,2263.3C439.047,2262.36 438.569,2261.26 438.022,2260.13C437.434,2258.91 436.834,2257.64 436.286,2256.23C434.635,2252 432.955,2247.2 431.91,2241.37Z" style="fill:rgb(35,31,32);"/>
                </g>
                <g transform="matrix(-0.12701,0.402902,0.459556,0.111352,4349.11,474.806)">
                    <path d="M430.255,2241.68C430.244,2237.98 427.113,2234.92 423.267,2234.84C419.421,2234.77 416.308,2237.7 416.319,2241.4C415.408,2248.54 415.885,2254.93 417.627,2260.59C418.556,2263.61 420.003,2266.36 421.757,2268.81C423.638,2271.43 425.888,2273.74 428.511,2275.61C433.979,2279.51 440.528,2282.14 448.394,2282.82C452.178,2283.57 455.809,2281.24 456.499,2277.62C457.188,2274 454.676,2270.46 450.892,2269.71C445.694,2268.1 442.042,2265.11 439.076,2261.63C438.24,2260.66 437.559,2259.57 436.845,2258.47C436.122,2257.36 435.393,2256.23 434.756,2254.99C432.778,2251.16 430.938,2246.89 430.255,2241.68Z" style="fill:rgb(35,31,32);"/>
                </g>
                <g transform="matrix(0.3424,0,0,0.272831,5782.37,515.357)">
                    <path d="M416.004,2242.86C415.499,2236.98 419.232,2231.73 424.335,2231.15C429.438,2230.56 433.992,2234.87 434.497,2240.75C435.855,2246.16 438.008,2250.37 439.709,2254.45C440.405,2256.12 441.154,2257.59 441.9,2258.96C442.433,2259.94 442.486,2261.18 443.209,2261.89C444.758,2263.4 446.295,2265.28 448.961,2265.58C454.075,2265.15 458.533,2269.58 458.91,2275.48C459.286,2281.37 455.44,2286.51 450.326,2286.95C439.448,2289.95 431.385,2285.96 424.81,2279.55C422.787,2277.57 421.122,2275.02 419.709,2272.15C418.558,2269.81 417.552,2267.22 416.974,2264.34C415.705,2258.03 415.426,2250.96 416.004,2242.86Z" style="fill:rgb(35,31,32);"/>
                </g>
                <g transform="matrix(0.0912117,0.262972,-0.330027,0.0726792,6638.59,864.493)">
                    <path d="M412.671,2240.88C412.656,2235.7 417.4,2231.8 423.259,2232.16C429.118,2232.53 433.887,2237.03 433.902,2242.2C434.871,2246.86 437.159,2250.47 438.999,2253.96C439.638,2255.17 440.433,2256.23 441.1,2257.32C442.028,2258.83 442.544,2260.43 443.812,2261.64C445.943,2263.67 447.934,2265.92 451.228,2267.1C457.021,2268.24 461.014,2273.28 460.14,2278.34C459.265,2283.4 453.852,2286.58 448.059,2285.43C438.728,2284.97 431.165,2281.62 424.568,2277C421.537,2274.87 419.031,2272.16 416.934,2269.12C415.097,2266.45 413.573,2263.46 412.783,2260.19C411.372,2254.35 411.192,2248.01 412.671,2240.88Z" style="fill:rgb(35,31,32);"/>
                </g>
                <g transform="matrix(-0.3424,0,0,0.272831,6070.04,515.913)">
                    <path d="M434.52,2241.07C434.17,2235.17 429.731,2230.72 424.615,2231.12C419.499,2231.52 415.63,2236.64 415.981,2242.54C415.171,2250.64 415.348,2257.57 416.545,2263.74C417.28,2267.53 418.703,2270.85 420.357,2273.73C421.694,2276.05 423.207,2278.16 425.035,2279.8C431.365,2285.48 439.153,2289.11 449.747,2286.97C454.874,2286.91 458.991,2282.06 458.934,2276.14C458.877,2270.23 454.668,2265.49 449.54,2265.55C446.547,2264.99 444.698,2263.06 442.914,2261.41C442.162,2260.72 442.05,2259.52 441.505,2258.58C440.786,2257.34 440.071,2256.02 439.431,2254.48C437.8,2250.57 435.729,2246.49 434.52,2241.07Z" style="fill:rgb(35,31,32);"/>
                </g>
                <g transform="matrix(-0.0652742,0.269403,0.333483,0.0450059,5195.61,924.626)">
                    <path d="M433.902,2242.2C433.887,2236.99 429.118,2232.47 423.259,2232.1C417.4,2231.73 412.656,2235.66 412.671,2240.87C411.188,2248.05 411.384,2254.42 412.81,2260.28C413.61,2263.57 415.146,2266.58 416.998,2269.26C419.105,2272.3 421.619,2275.02 424.662,2277.14C431.241,2281.72 438.779,2285.05 448.074,2285.5C453.869,2286.64 459.276,2283.44 460.142,2278.34C461.008,2273.25 457.007,2268.18 451.212,2267.03C447.921,2265.85 445.926,2263.59 443.793,2261.56C442.529,2260.36 442.016,2258.77 441.091,2257.27C440.427,2256.19 439.633,2255.13 438.997,2253.93C437.158,2250.45 434.867,2246.86 433.902,2242.2Z" style="fill:rgb(35,31,32);"/>
                </g>
            </g>
        </g>
    </g>
    <defs>
        <linearGradient id="_Linear2" x1="0" y1="0" x2="1" y2="0" gradientUnits="userSpaceOnUse" gradientTransform="matrix(63.7718,-705.672,705.672,63.7718,1788.59,1937.86)"><stop offset="0" style="stop-color:rgb(255,235,218);stop-opacity:1"/><stop offset="0.42" style="stop-color:rgb(232,174,80);stop-opacity:1"/><stop offset="1" style="stop-color:rgb(255,234,107);stop-opacity:1"/></linearGradient>
    </defs>
</svg>
