<?xml version="1.0" encoding="UTF-8" standalone="no"?><!DOCTYPE svg PUBLIC "-//W3C//DTD SVG 1.1//EN" "http://www.w3.org/Graphics/SVG/1.1/DTD/svg11.dtd"><svg width="100%" height="100%" viewBox="0 0 215 102" version="1.1" xmlns="http://www.w3.org/2000/svg" xmlns:xlink="http://www.w3.org/1999/xlink" xml:space="preserve" xmlns:serif="http://www.serif.com/" style="fill-rule:evenodd;clip-rule:evenodd;stroke-linejoin:round;stroke-miterlimit:2;"><rect id="Artboard2" x="0" y="0" width="215" height="102" style="fill:#fff;"/><g><path d="M131.784,97.089l-13.093,-24.07l0,-18.266l-4.62,0l0,18.837l11.815,22.29l-35.906,0l11.814,-22.29l0,-18.837l-4.62,0l0,18.266l-13.094,24.07l-1.856,3.411l51.416,0l-1.856,-3.411Z" style="fill:#86c3ec;fill-rule:nonzero;"/><path d="M107.932,39.373c-7.976,0 -15.477,3.106 -21.116,8.747c-5.641,5.64 -8.747,13.14 -8.747,21.117c0,7.408 2.731,14.514 7.692,20.008l0.694,0.77l2.595,-4.763l-0.311,-0.383c-3.586,-4.397 -5.561,-9.948 -5.561,-15.632c0,-6.612 2.575,-12.828 7.25,-17.505c4.676,-4.674 10.893,-7.248 17.504,-7.248c6.612,0 12.828,2.574 17.504,7.248c4.675,4.674 7.25,10.89 7.25,17.505c0,5.686 -1.975,11.237 -5.56,15.633l-0.311,0.382l2.594,4.763l0.694,-0.77c4.962,-5.495 7.694,-12.6 7.694,-20.008c0,-7.978 -3.107,-15.478 -8.748,-21.117c-5.639,-5.641 -13.139,-8.747 -21.117,-8.747" style="fill:#302e6a;fill-rule:nonzero;"/><path d="M107.823,64.247c-1.194,-0.122 -2.223,0.192 -3.133,0.887c-0.866,0.752 -1.381,1.697 -1.501,2.891c-0.119,1.143 0.197,2.172 0.893,3.083c0.751,0.863 1.696,1.379 2.89,1.501c1.143,0.116 2.172,-0.2 3.083,-0.894c0.863,-0.752 1.379,-1.696 1.495,-2.839c0.122,-1.195 -0.193,-2.223 -0.888,-3.134c-0.752,-0.865 -1.696,-1.38 -2.839,-1.495" style="fill:#476eb5;fill-rule:nonzero;"/><path d="M112.484,79.674c0.634,-0.516 1.032,-1.251 1.124,-2.148c0.09,-0.895 -0.151,-1.696 -0.669,-2.329c-0.511,-0.699 -1.246,-1.097 -2.14,-1.188c-0.896,-0.092 -1.697,0.151 -2.337,0.732c-0.634,0.517 -1.034,1.252 -1.124,2.147c-0.092,0.897 0.151,1.696 0.667,2.331c0.517,0.633 1.252,1.032 2.149,1.122c0.896,0.092 1.695,-0.15 2.33,-0.667" style="fill:#476eb5;fill-rule:nonzero;"/><path d="M108.125,85.585c0.544,-0.394 0.824,-0.926 0.891,-1.592c0.069,-0.668 -0.098,-1.244 -0.547,-1.795c-0.398,-0.489 -0.93,-0.769 -1.597,-0.836c-0.667,-0.068 -1.244,0.099 -1.789,0.491c-0.495,0.455 -0.774,0.987 -0.842,1.653c-0.066,0.667 0.098,1.244 0.497,1.734c0.45,0.55 0.982,0.829 1.648,0.897c0.668,0.067 1.245,-0.098 1.739,-0.552" style="fill:#476eb5;fill-rule:nonzero;"/><path d="M107.641,90.85c0.435,0.043 0.812,-0.064 1.135,-0.361c0.357,-0.258 0.539,-0.605 0.583,-1.042c0.045,-0.435 -0.065,-0.812 -0.357,-1.171c-0.262,-0.321 -0.609,-0.503 -1.044,-0.546c-0.436,-0.046 -0.813,0.063 -1.168,0.32c-0.324,0.297 -0.507,0.645 -0.55,1.081c-0.046,0.435 0.063,0.812 0.323,1.132c0.294,0.36 0.641,0.542 1.078,0.587" style="fill:#476eb5;fill-rule:nonzero;"/><path d="M74.04,86.614c-1.825,-8.787 -3.511,-17.202 -5.01,-25.009c-1.948,-10.135 -2.3,-12.076 -2.336,-12.328l-0.201,-1.467l-7.031,-0.559l-0.536,1.164c-0.045,0.097 -0.181,0.393 -4.492,10.204c-2.291,5.215 -4.485,10.19 -6.585,14.924c-2.699,-5.944 -5.1,-11.303 -7.153,-15.973c-2.482,-5.642 -3.817,-8.68 -4.004,-9.114l-0.559,-1.291l-7.153,1.035l-0.275,1.238c-0.153,0.683 -1.035,4.947 -2.698,13.035c-1.63,7.923 -3.409,16.05 -5.29,24.157l-0.435,1.877l8.06,1.47l0.325,-1.816c1.274,-7.134 2.636,-14.15 4.046,-20.851c0.474,-2.25 0.854,-4.049 1.157,-5.483c0.691,1.53 1.532,3.39 2.517,5.577c2.682,5.95 5.187,11.611 7.445,16.826l0.48,1.108l6.33,0l0.477,-1.115c2.379,-5.567 4.865,-11.203 7.384,-16.751c0.966,-2.125 1.795,-3.943 2.491,-5.465l5.161,28.049l8.263,-1.623l-0.378,-1.819Z" style="fill:#302e6a;fill-rule:nonzero;"/><path d="M181.702,62.008l5.16,28.048l8.264,-1.623l-0.379,-1.818c-1.824,-8.788 -3.51,-17.203 -5.009,-25.01c-1.949,-10.135 -2.301,-12.076 -2.337,-12.328l-0.2,-1.467l-7.031,-0.559l-0.537,1.164c-0.045,0.097 -0.181,0.394 -4.492,10.205c-2.29,5.214 -4.485,10.189 -6.584,14.923c-2.7,-5.944 -5.1,-11.304 -7.153,-15.974c-2.482,-5.641 -3.817,-8.679 -4.005,-9.113l-0.558,-1.291l-7.153,1.035l-0.276,1.238c-0.152,0.683 -1.034,4.947 -2.698,13.035c-1.629,7.923 -3.408,16.05 -5.289,24.156l-0.436,1.878l8.061,1.47l0.325,-1.816c1.274,-7.134 2.636,-14.149 4.046,-20.851c0.473,-2.25 0.853,-4.049 1.156,-5.483c0.692,1.529 1.533,3.39 2.518,5.577c2.682,5.949 5.186,11.611 7.445,16.826l0.48,1.108l6.329,0l0.477,-1.115c2.38,-5.567 4.865,-11.203 7.385,-16.751c0.965,-2.126 1.794,-3.943 2.491,-5.464" style="fill:#302e6a;fill-rule:nonzero;"/><path d="M26.372,30.781c1.24,-0.725 2.241,-1.688 2.978,-2.865c0.759,-1.211 1.143,-2.623 1.143,-4.198c0,-1.524 -0.403,-2.908 -1.199,-4.114c-0.758,-1.148 -1.878,-2.165 -3.335,-3.024c-0.85,-0.498 -1.729,-0.965 -2.612,-1.391c-0.803,-0.386 -1.452,-0.729 -1.943,-1.029c-1.078,-0.638 -1.469,-1.091 -1.608,-1.306c-0.217,-0.334 -0.323,-0.658 -0.323,-0.99c0,-0.394 0.09,-0.718 0.275,-0.988c0.229,-0.336 0.492,-0.587 0.808,-0.768c0.43,-0.248 0.951,-0.438 1.546,-0.563c0.648,-0.137 1.283,-0.206 1.885,-0.206c1.137,0 2.097,0.036 2.855,0.108c0.793,0.074 1.246,0.117 1.357,0.13l1.8,0.199l-0.555,-5.736l-1.188,-0.13c-0.12,-0.014 -0.605,-0.046 -1.454,-0.093c-2.421,-0.134 -4.772,-0.073 -6.726,0.433c-1.35,0.35 -2.52,0.891 -3.488,1.617c-0.948,0.721 -1.729,1.6 -2.322,2.613c-0.631,1.077 -0.951,2.342 -0.951,3.764c0,1.397 0.346,2.69 1.028,3.844c0.671,1.133 1.766,2.167 3.249,3.068c0.802,0.494 1.711,0.981 2.706,1.444c0.895,0.418 1.629,0.796 2.185,1.128c0.907,0.534 1.321,0.976 1.508,1.252c0.231,0.342 0.344,0.775 0.344,1.325c0,0.467 -0.095,0.818 -0.292,1.074c-0.257,0.334 -0.659,0.638 -1.194,0.901c-0.302,0.147 -0.9,0.362 -2.038,0.552c-0.976,0.162 -1.767,0.244 -2.353,0.244c-1.051,0 -1.971,-0.033 -2.733,-0.098c-0.764,-0.066 -1.229,-0.109 -1.396,-0.132l-1.774,-0.253l0.322,5.783l1.264,0.114c0.144,0.014 0.662,0.047 1.555,0.099c0.893,0.052 1.768,0.078 2.598,0.078c1.595,0 3.077,-0.156 4.408,-0.464c1.365,-0.317 2.6,-0.795 3.67,-1.422" style="fill:#476eb5;fill-rule:nonzero;"/><path d="M42.982,27.714c1.694,1.624 3.871,2.875 6.472,3.717c2.534,0.82 5.452,1.236 8.67,1.236l2.019,0l0.109,-1.351c0.05,-0.604 0.102,-1.163 0.158,-1.674l0.302,-2.698l-1.757,0.117c-0.155,0.01 -0.3,0.015 -0.433,0.015l-0.361,0c-1.559,0 -3.151,-0.167 -4.732,-0.499c-1.528,-0.319 -2.924,-0.837 -4.154,-1.544c-1.421,-0.806 -2.463,-1.797 -3.098,-2.945c-0.655,-1.184 -0.973,-2.472 -0.973,-3.937c0,-1.38 0.352,-2.633 1.076,-3.83c0.726,-1.198 1.785,-2.2 3.146,-2.976c1.087,-0.615 2.416,-1.087 3.95,-1.402c1.589,-0.325 3.141,-0.491 4.615,-0.491l2.25,0l-0.141,-1.597c-0.05,-0.575 -0.093,-1.109 -0.131,-1.603c-0.038,-0.485 -0.062,-0.839 -0.074,-1.061l-0.079,-1.386l-2.241,0c-2.942,0 -5.75,0.462 -8.343,1.371c-2.651,0.929 -4.807,2.219 -6.411,3.838c-1.115,1.13 -2.029,2.467 -2.715,3.973c-0.704,1.544 -1.06,3.262 -1.06,5.107c0,2.026 0.356,3.869 1.06,5.475c0.701,1.601 1.67,2.997 2.876,4.145" style="fill:#476eb5;fill-rule:nonzero;"/><path d="M69.605,30.833l-0.023,1.493l6.11,0l-0.023,-1.493c-0.013,-0.757 -0.032,-2.184 -0.057,-4.283c-0.025,-2.106 -0.038,-5.098 -0.038,-8.891c0,-1.512 0.01,-3.462 0.029,-5.849c0.019,-2.389 0.041,-4.484 0.066,-6.287l0.02,-1.49l-6.106,0l0.022,1.492c0.038,2.507 0.063,4.926 0.077,7.256c0.011,2.333 0.018,4.217 0.018,5.654c0,3.594 -0.013,6.404 -0.038,8.351c-0.025,1.941 -0.044,3.29 -0.057,4.047" style="fill:#476eb5;fill-rule:nonzero;"/><path d="M87.757,30.768l-0.052,1.52l1.521,0c0.925,0 2.057,-0.006 3.394,-0.019c1.327,-0.012 2.79,-0.018 4.389,-0.018c2.304,0 4.238,0.006 5.8,0.018c1.573,0.013 2.417,0.019 2.531,0.019l1.469,0l0,-5.571l-1.469,0c-0.152,0 -0.874,0.006 -2.164,0.019c-1.278,0.012 -2.854,0.018 -4.728,0.018c-1.222,0 -2.361,-0.003 -3.418,-0.009c-0.451,-0.002 -0.872,-0.005 -1.265,-0.01c-0.007,-0.627 -0.014,-1.322 -0.021,-2.084c-0.009,-1.097 -0.015,-2.499 -0.017,-4.202c0.207,-0.001 0.424,-0.002 0.651,-0.005c0.835,-0.005 1.554,-0.009 2.157,-0.009c1.636,0 3.444,0.009 5.42,0.029c1.991,0.019 3.036,0.028 3.138,0.028l1.47,0l0,-5.553l-1.47,0c-0.113,0 -1.05,0.01 -2.808,0.028c-1.744,0.019 -3.723,0.03 -5.939,0.03c-0.603,0 -1.289,-0.004 -2.062,-0.011c-0.191,-0.001 -0.375,-0.003 -0.553,-0.003c0.006,-0.815 0.016,-1.659 0.032,-2.534c0.017,-0.942 0.028,-1.885 0.034,-2.831c0.221,-0.001 0.454,-0.003 0.703,-0.004c0.905,-0.006 1.83,-0.01 2.773,-0.01c2.164,0 3.972,0.01 5.425,0.029c1.47,0.018 2.268,0.028 2.395,0.028l1.47,0l0,-5.571l-1.47,0c-0.127,0 -0.951,0.006 -2.473,0.019c-1.512,0.012 -3.47,0.018 -5.877,0.018c-1.421,0 -2.803,-0.006 -4.142,-0.018c-1.35,-0.013 -2.475,-0.019 -3.375,-0.019l-1.492,0l0.022,1.492c0.038,2.507 0.063,4.932 0.077,7.274c0.011,2.346 0.018,4.231 0.018,5.655c0,2.596 -0.01,5.111 -0.028,7.543c-0.02,2.413 -0.042,3.999 -0.066,4.714" style="fill:#476eb5;fill-rule:nonzero;"/><path d="M142.31,29.739c0,-0.139 -0.012,-1.271 -0.037,-3.398c-0.026,-2.088 -0.038,-4.879 -0.038,-8.531c0,-1.121 0.009,-2.954 0.028,-5.498c0.019,-2.548 0.041,-4.81 0.066,-6.79l0.02,-1.489l-5.913,0l0,1.47c0,2.215 0.025,5.661 0.075,10.243c0.025,2.219 0.043,4.106 0.056,5.681c-2.457,-3.05 -5.032,-6.281 -7.684,-9.645c-3.64,-4.613 -5.573,-7.064 -5.799,-7.355l-0.724,-0.927l-4.797,2.272l0.014,0.945c0.037,2.545 0.063,4.955 0.076,7.229c0.012,2.275 0.019,4.1 0.019,5.474c0,3.404 -0.013,6.113 -0.038,8.047c-0.025,1.908 -0.044,3.017 -0.056,3.329l-0.063,1.53l5.98,0l-0.025,-1.495c-0.012,-0.756 -0.04,-3.595 -0.085,-8.517c-0.027,-3.041 -0.046,-5.824 -0.057,-8.319c0.853,1.066 1.905,2.383 3.158,3.95c3.285,4.111 6.87,8.788 10.655,13.9l0.728,0.983l4.441,-2.171l0,-0.918Z" style="fill:#476eb5;fill-rule:nonzero;"/><path d="M156.807,27.714c1.694,1.624 3.871,2.875 6.472,3.717c2.534,0.82 5.452,1.236 8.67,1.236l2.019,0l0.109,-1.351c0.05,-0.604 0.102,-1.163 0.158,-1.674l0.302,-2.698l-1.757,0.117c-0.155,0.01 -0.3,0.015 -0.433,0.015l-0.361,0c-1.559,0 -3.151,-0.167 -4.732,-0.499c-1.527,-0.319 -2.924,-0.837 -4.154,-1.544c-1.421,-0.806 -2.463,-1.797 -3.098,-2.945c-0.654,-1.184 -0.973,-2.472 -0.973,-3.937c0,-1.38 0.352,-2.633 1.076,-3.83c0.726,-1.198 1.785,-2.2 3.146,-2.976c1.087,-0.615 2.416,-1.087 3.951,-1.402c1.588,-0.325 3.141,-0.491 4.614,-0.491l2.25,0l-0.141,-1.597c-0.05,-0.575 -0.093,-1.109 -0.131,-1.603c-0.038,-0.485 -0.062,-0.839 -0.074,-1.061l-0.079,-1.386l-2.241,0c-2.942,0 -5.75,0.462 -8.343,1.371c-2.65,0.929 -4.807,2.219 -6.411,3.838c-1.115,1.13 -2.029,2.467 -2.715,3.973c-0.704,1.544 -1.06,3.262 -1.06,5.107c0,2.026 0.356,3.869 1.06,5.475c0.701,1.601 1.67,2.997 2.876,4.145" style="fill:#476eb5;fill-rule:nonzero;"/><path d="M200.975,26.717c-0.152,0 -0.873,0.006 -2.163,0.019c-1.279,0.012 -2.854,0.018 -4.729,0.018c-1.222,0 -2.361,-0.003 -3.418,-0.009c-0.451,-0.003 -0.872,-0.006 -1.265,-0.01c-0.007,-0.627 -0.014,-1.321 -0.02,-2.084c-0.01,-1.097 -0.016,-2.498 -0.018,-4.202c0.207,-0.001 0.424,-0.003 0.651,-0.005c0.835,-0.006 1.554,-0.009 2.158,-0.009c1.635,0 3.443,0.009 5.42,0.028c1.99,0.019 3.035,0.029 3.138,0.029l1.469,0l0,-5.553l-1.469,0c-0.114,0 -1.051,0.01 -2.809,0.029c-1.743,0.019 -3.723,0.028 -5.939,0.028c-0.603,0 -1.289,-0.003 -2.062,-0.009c-0.191,-0.002 -0.375,-0.003 -0.553,-0.005c0.006,-0.814 0.017,-1.658 0.032,-2.533c0.017,-0.942 0.028,-1.886 0.034,-2.831c0.221,-0.001 0.454,-0.003 0.704,-0.004c0.904,-0.006 1.83,-0.01 2.772,-0.01c2.164,0 3.973,0.01 5.426,0.029c1.469,0.018 2.267,0.028 2.395,0.028l1.469,0l0,-5.571l-1.469,0c-0.128,0 -0.952,0.006 -2.473,0.019c-1.513,0.012 -3.471,0.019 -5.877,0.019c-1.422,0 -2.803,-0.007 -4.143,-0.019c-1.35,-0.013 -2.475,-0.019 -3.375,-0.019l-1.492,0l0.022,1.491c0.039,2.508 0.064,4.933 0.077,7.276c0.011,2.344 0.018,4.229 0.018,5.654c0,2.597 -0.009,5.111 -0.028,7.543c-0.019,2.413 -0.042,3.998 -0.066,4.714l-0.052,1.52l1.521,0c0.925,0 2.057,-0.006 3.394,-0.018c1.327,-0.013 2.79,-0.019 4.389,-0.019c2.305,0 4.239,0.006 5.801,0.019c1.572,0.012 2.416,0.018 2.53,0.018l1.47,0l0,-5.571l-1.47,0Z" style="fill:#476eb5;fill-rule:nonzero;"/></g></svg>