<?xml version="1.0" encoding="UTF-8" standalone="no"?><!DOCTYPE svg PUBLIC "-//W3C//DTD SVG 1.1//EN" "http://www.w3.org/Graphics/SVG/1.1/DTD/svg11.dtd"><svg width="100%" height="100%" viewBox="0 0 450 100" version="1.1" xmlns="http://www.w3.org/2000/svg" xmlns:xlink="http://www.w3.org/1999/xlink" xml:space="preserve" xmlns:serif="http://www.serif.com/" style="fill-rule:evenodd;clip-rule:evenodd;stroke-miterlimit:1.41421;"><rect id="Artboard3" x="0" y="0" width="450" height="100" style="fill:#fff;"/><path d="M46.046,86.804l42.543,0" style="fill:none;stroke:#476eb6;stroke-width:2px;"/><path d="M359.429,86.804l42.544,0" style="fill:none;stroke:#476eb6;stroke-width:2px;"/><path d="M374.326,39.284l0,-16.984l-4.297,0l0,17.514l10.986,20.724l-33.385,0l10.985,-20.724l0,-17.514l-4.296,0l0,16.984l-12.173,22.378l-1.727,3.172l47.804,0l-1.725,-3.172l-12.172,-22.378Z" style="fill:#86c3ec;fill-rule:nonzero;"/><path d="M364.322,8c-7.416,0 -14.389,2.889 -19.634,8.133c-5.244,5.245 -8.131,12.218 -8.131,19.634c0,6.889 2.539,13.494 7.151,18.602l0.646,0.716l2.412,-4.428l-0.289,-0.356c-3.334,-4.088 -5.169,-9.25 -5.169,-14.534c0,-6.147 2.393,-11.928 6.739,-16.275c4.348,-4.346 10.127,-6.74 16.275,-6.74c6.148,0 11.927,2.394 16.274,6.74c4.347,4.346 6.74,10.125 6.74,16.275c0,5.286 -1.835,10.447 -5.168,14.534l-0.29,0.356l2.411,4.43l0.646,-0.718c4.614,-5.108 7.152,-11.715 7.152,-18.602c0,-7.418 -2.888,-14.391 -8.131,-19.634c-5.244,-5.244 -12.217,-8.133 -19.634,-8.133Z" style="fill:#302e6a;fill-rule:nonzero;"/><path d="M364.22,31.127c-1.111,-0.114 -2.066,0.18 -2.913,0.826c-0.804,0.699 -1.283,1.577 -1.396,2.688c-0.11,1.061 0.184,2.019 0.832,2.865c0.698,0.802 1.576,1.283 2.686,1.396c1.063,0.108 2.019,-0.186 2.867,-0.831c0.801,-0.699 1.282,-1.576 1.39,-2.64c0.113,-1.11 -0.18,-2.067 -0.826,-2.914c-0.699,-0.804 -1.578,-1.282 -2.64,-1.39Z" style="fill:#476eb6;fill-rule:nonzero;"/><path d="M368.554,45.472c0.589,-0.481 0.959,-1.164 1.045,-1.998c0.083,-0.832 -0.14,-1.578 -0.622,-2.165c-0.475,-0.651 -1.158,-1.02 -1.99,-1.105c-0.832,-0.086 -1.578,0.14 -2.173,0.68c-0.59,0.481 -0.96,1.164 -1.045,1.996c-0.085,0.834 0.141,1.576 0.62,2.167c0.481,0.59 1.164,0.96 1.999,1.044c0.832,0.086 1.575,-0.139 2.166,-0.619Z" style="fill:#476eb6;fill-rule:nonzero;"/><path d="M364.501,50.967c0.506,-0.366 0.765,-0.862 0.829,-1.481c0.063,-0.619 -0.091,-1.157 -0.509,-1.669c-0.37,-0.454 -0.865,-0.714 -1.485,-0.777c-0.619,-0.062 -1.157,0.093 -1.663,0.457c-0.461,0.423 -0.72,0.917 -0.783,1.536c-0.062,0.621 0.091,1.158 0.462,1.612c0.418,0.512 0.914,0.771 1.533,0.835c0.62,0.063 1.156,-0.092 1.616,-0.513Z" style="fill:#476eb6;fill-rule:nonzero;"/><path d="M364.05,55.862c0.405,0.04 0.756,-0.06 1.057,-0.335c0.332,-0.241 0.5,-0.564 0.542,-0.969c0.041,-0.405 -0.061,-0.756 -0.332,-1.089c-0.244,-0.298 -0.566,-0.468 -0.971,-0.508c-0.406,-0.043 -0.756,0.058 -1.086,0.298c-0.302,0.275 -0.471,0.6 -0.512,1.004c-0.042,0.405 0.059,0.757 0.3,1.053c0.274,0.335 0.597,0.504 1.002,0.546Z" style="fill:#476eb6;fill-rule:nonzero;"/><path d="M328.152,28.671c-1.812,-9.423 -2.139,-11.227 -2.172,-11.462l-0.186,-1.364l-6.537,-0.519l-0.5,1.08c-0.07,0.152 -0.577,1.3 -4.176,9.489c-2.13,4.849 -4.171,9.475 -6.122,13.876c-2.509,-5.529 -4.742,-10.512 -6.65,-14.853c-2.309,-5.245 -3.55,-8.07 -3.724,-8.473l-0.52,-1.2l-6.65,0.962l-0.256,1.15c-0.141,0.638 -0.961,4.603 -2.509,12.122c-1.514,7.361 -3.167,14.918 -4.918,22.46l-0.405,1.744l7.496,1.366l0.301,-1.687c1.184,-6.631 2.451,-13.153 3.762,-19.387c0.441,-2.092 0.794,-3.764 1.075,-5.097c0.643,1.421 1.424,3.15 2.341,5.185c2.498,5.541 4.827,10.806 6.923,15.645l0.445,1.029l5.886,0l0.442,-1.037c2.21,-5.169 4.52,-10.408 6.866,-15.574c0.899,-1.977 1.669,-3.666 2.318,-5.08l4.797,26.078l7.683,-1.509l-0.352,-1.691c-1.696,-8.169 -3.264,-15.991 -4.658,-23.253Z" style="fill:#302e6a;fill-rule:nonzero;"/><path d="M445.039,51.924c-1.697,-8.169 -3.264,-15.991 -4.659,-23.253c-1.809,-9.423 -2.138,-11.227 -2.171,-11.462l-0.186,-1.364l-6.537,-0.519l-0.499,1.08c-0.07,0.152 -0.579,1.3 -4.176,9.489c-2.13,4.849 -4.171,9.475 -6.123,13.876c-2.51,-5.529 -4.742,-10.512 -6.65,-14.853c-2.307,-5.245 -3.55,-8.07 -3.724,-8.473l-0.518,-1.2l-6.65,0.962l-0.258,1.15c-0.141,0.638 -0.961,4.603 -2.508,12.122c-1.515,7.361 -3.169,14.918 -4.918,22.46l-0.406,1.744l7.496,1.366l0.302,-1.687c1.185,-6.631 2.45,-13.153 3.761,-19.387c0.44,-2.092 0.793,-3.764 1.076,-5.097c0.643,1.421 1.423,3.15 2.34,5.185c2.499,5.541 4.827,10.806 6.922,15.645l0.447,1.029l5.885,0l0.443,-1.037c2.209,-5.169 4.521,-10.408 6.866,-15.574c0.898,-1.977 1.669,-3.666 2.316,-5.08l4.797,26.078l7.683,-1.509l-0.351,-1.691Z" style="fill:#302e6a;fill-rule:nonzero;"/><path d="M23.822,32.886c-1.23,-0.722 -2.514,-1.405 -3.818,-2.032c-1.185,-0.571 -2.145,-1.079 -2.873,-1.522c-1.552,-0.92 -2.193,-1.602 -2.46,-2.01c-0.35,-0.542 -0.519,-1.07 -0.519,-1.616c0,-0.643 0.147,-1.172 0.454,-1.621c0.36,-0.528 0.781,-0.926 1.283,-1.216c0.659,-0.38 1.452,-0.67 2.356,-0.86c0.975,-0.204 1.927,-0.308 2.829,-0.308c1.682,0 3.1,0.053 4.22,0.159c1.165,0.108 1.829,0.172 1.993,0.192l2.281,0.256l-0.756,-7.816l-1.497,-0.169c-0.176,-0.02 -0.884,-0.067 -2.124,-0.134c-3.46,-0.194 -6.939,-0.112 -9.785,0.626c-1.943,0.503 -3.627,1.283 -5.015,2.322c-1.356,1.033 -2.477,2.294 -3.333,3.749c-0.899,1.536 -1.353,3.343 -1.353,5.376c0,1.996 0.494,3.846 1.468,5.491c0.96,1.622 2.533,3.106 4.669,4.403c1.165,0.719 2.493,1.429 3.942,2.104c1.325,0.618 2.41,1.178 3.235,1.669c1.106,0.652 1.884,1.301 2.308,1.926c0.374,0.552 0.555,1.244 0.555,2.113c0,0.753 -0.159,1.329 -0.489,1.758c-0.407,0.527 -1.032,1.002 -1.856,1.408c-0.463,0.225 -1.371,0.552 -3.078,0.838c-1.444,0.241 -2.623,0.363 -3.501,0.363c-1.552,0 -2.911,-0.049 -4.039,-0.146c-1.126,-0.096 -1.812,-0.16 -2.057,-0.198l-2.252,-0.327l0.436,7.878l1.598,0.147c0.209,0.02 0.968,0.067 2.275,0.145c1.291,0.076 2.57,0.113 3.796,0.113c2.322,0 4.479,-0.226 6.405,-0.673c1.974,-0.458 3.76,-1.15 5.306,-2.055c1.777,-1.041 3.213,-2.422 4.27,-4.107c1.084,-1.729 1.633,-3.749 1.633,-6.005c0,-2.178 -0.576,-4.155 -1.712,-5.875c-1.088,-1.651 -2.7,-3.111 -4.795,-4.346Z" style="fill:#476eb6;fill-rule:nonzero;"/><path d="M68.129,48.335l-0.528,0c-2.307,0 -4.665,-0.248 -7.009,-0.739c-2.273,-0.475 -4.349,-1.246 -6.182,-2.299c-2.138,-1.213 -3.705,-2.705 -4.662,-4.438c-0.974,-1.758 -1.466,-3.752 -1.466,-5.924c0,-2.083 0.531,-3.972 1.624,-5.778c1.092,-1.802 2.682,-3.308 4.725,-4.474c1.623,-0.918 3.602,-1.622 5.885,-2.088c2.349,-0.482 4.649,-0.726 6.835,-0.726l2.98,0l-0.179,-2.026c-0.074,-0.844 -0.138,-1.63 -0.193,-2.356c-0.055,-0.714 -0.091,-1.235 -0.109,-1.561l-0.101,-1.754l-3.007,0c-4.285,0 -8.372,0.672 -12.152,1.993c-3.848,1.352 -6.975,3.223 -9.295,5.564c-1.612,1.63 -2.935,3.565 -3.93,5.748c-1.015,2.227 -1.528,4.708 -1.528,7.373c0,2.936 0.513,5.6 1.53,7.917c1.013,2.313 2.412,4.33 4.155,5.991c2.456,2.355 5.615,4.167 9.388,5.389c3.689,1.194 7.94,1.8 12.637,1.8l2.691,0l0.137,-1.712c0.072,-0.888 0.151,-1.711 0.231,-2.466l0.405,-3.608l-2.228,0.15c-0.232,0.017 -0.451,0.024 -0.654,0.024Z" style="fill:#476eb6;fill-rule:nonzero;"/><path d="M89.278,47.268c-0.036,-3.079 -0.055,-7.431 -0.055,-13.058c0,-2.219 0.015,-5.081 0.042,-8.588c0.028,-3.506 0.061,-6.583 0.098,-9.23l0.025,-1.888l-8.362,0l0.029,1.889c0.055,3.682 0.092,7.235 0.111,10.657c0.018,3.425 0.028,6.192 0.028,8.301c0,5.326 -0.019,9.414 -0.055,12.261c-0.038,2.852 -0.065,4.831 -0.084,5.943l-0.033,1.892l8.372,0l-0.031,-1.892c-0.02,-1.112 -0.046,-3.207 -0.085,-6.287Z" style="fill:#476eb6;fill-rule:nonzero;"/><path d="M125.776,47.835c-1.877,0.017 -4.193,0.027 -6.945,0.027c-1.793,0 -3.466,-0.005 -5.022,-0.013c-0.773,-0.005 -1.488,-0.011 -2.147,-0.018c-0.011,-0.996 -0.021,-2.112 -0.033,-3.352c-0.016,-1.675 -0.025,-3.83 -0.027,-6.467c0.392,-0.003 0.808,-0.006 1.25,-0.009c1.228,-0.009 2.285,-0.012 3.171,-0.012c2.402,0 5.056,0.012 7.961,0.042c2.92,0.026 4.455,0.04 4.602,0.04l1.861,0l0,-7.557l-1.861,0c-0.168,0 -1.54,0.015 -4.12,0.042c-2.561,0.028 -5.467,0.042 -8.722,0.042c-0.884,0 -1.894,-0.005 -3.028,-0.014c-0.387,-0.003 -0.757,-0.006 -1.109,-0.007c0.007,-1.288 0.023,-2.629 0.049,-4.02c0.027,-1.48 0.044,-2.962 0.052,-4.446c0.406,-0.003 0.848,-0.006 1.325,-0.009c1.332,-0.009 2.689,-0.013 4.075,-0.013c3.176,0 5.833,0.013 7.966,0.04c2.155,0.029 3.326,0.043 3.512,0.043l1.861,0l0,-7.585l-1.861,0c-0.186,0 -1.394,0.009 -3.629,0.027c-2.219,0.019 -5.096,0.028 -8.629,0.028c-2.088,0 -4.117,-0.009 -6.083,-0.028c-1.981,-0.018 -3.632,-0.027 -4.952,-0.027l-1.889,0l0.028,1.887c0.056,3.683 0.094,7.244 0.111,10.685c0.019,3.443 0.029,6.21 0.029,8.301c0,3.815 -0.015,7.505 -0.043,11.078c-0.027,3.55 -0.059,5.86 -0.095,6.929l-0.066,1.923l1.925,0c1.356,0 3.015,-0.011 4.98,-0.029c1.95,-0.017 4.099,-0.026 6.445,-0.026c3.384,0 6.223,0.009 8.518,0.026l5.574,0.029l0,-7.587l-1.861,0c-0.224,0 -1.283,0.011 -3.173,0.03Z" style="fill:#476eb6;fill-rule:nonzero;"/><path d="M171.255,16.365c0,3.265 0.036,8.277 0.11,15.035c0.039,3.629 0.07,6.694 0.088,9.196c-3.728,-4.625 -7.689,-9.593 -11.818,-14.826c-5.344,-6.774 -8.183,-10.374 -8.515,-10.8l-0.917,-1.173l-6.653,3.151l0.018,1.197c0.055,3.737 0.093,7.275 0.11,10.614c0.02,3.341 0.03,6.02 0.03,8.038c0,5.049 -0.019,8.987 -0.056,11.818c-0.038,2.806 -0.063,4.437 -0.082,4.895l-0.079,1.937l8.162,0l-0.028,-1.889c-0.018,-1.112 -0.06,-5.279 -0.125,-12.51c-0.043,-4.868 -0.073,-9.226 -0.088,-13.066c1.338,1.671 3.06,3.825 5.169,6.464c4.821,6.029 10.087,12.899 15.651,20.414l0.921,1.245l6.131,-2.997l0,-1.162c0,-0.204 -0.018,-1.865 -0.056,-4.985c-0.037,-3.097 -0.055,-7.275 -0.055,-12.527c0,-1.646 0.014,-4.337 0.042,-8.076c0.027,-3.739 0.061,-7.063 0.097,-9.969l0.024,-1.885l-8.081,0l0,1.861Z" style="fill:#476eb6;fill-rule:nonzero;"/><path d="M218.721,48.335l-0.528,0c-2.307,0 -4.665,-0.248 -7.009,-0.739c-2.271,-0.475 -4.349,-1.246 -6.183,-2.299c-2.137,-1.213 -3.704,-2.705 -4.661,-4.438c-0.972,-1.758 -1.465,-3.752 -1.465,-5.924c0,-2.083 0.53,-3.972 1.622,-5.778c1.093,-1.802 2.683,-3.308 4.726,-4.474c1.622,-0.918 3.602,-1.622 5.885,-2.088c2.349,-0.482 4.648,-0.726 6.835,-0.726l2.98,0l-0.179,-2.026c-0.074,-0.844 -0.138,-1.63 -0.194,-2.356c-0.055,-0.714 -0.09,-1.235 -0.108,-1.561l-0.101,-1.754l-3.007,0c-4.285,0 -8.372,0.672 -12.153,1.993c-3.847,1.352 -6.974,3.223 -9.295,5.564c-1.611,1.63 -2.935,3.565 -3.929,5.748c-1.015,2.227 -1.528,4.708 -1.528,7.373c0,2.936 0.513,5.6 1.53,7.917c1.013,2.313 2.412,4.33 4.155,5.991c2.455,2.355 5.614,4.167 9.389,5.389c3.688,1.194 7.94,1.8 12.636,1.8l2.691,0l0.137,-1.712c0.072,-0.888 0.151,-1.711 0.232,-2.466l0.404,-3.608l-2.228,0.15c-0.233,0.017 -0.451,0.024 -0.654,0.024Z" style="fill:#476eb6;fill-rule:nonzero;"/><path d="M253.933,47.835c-1.876,0.017 -4.192,0.027 -6.944,0.027c-1.794,0 -3.467,-0.005 -5.022,-0.013c-0.774,-0.005 -1.489,-0.011 -2.148,-0.018c-0.012,-0.996 -0.021,-2.112 -0.033,-3.352c-0.016,-1.675 -0.025,-3.83 -0.026,-6.467c0.391,-0.003 0.808,-0.006 1.25,-0.009c1.228,-0.009 2.284,-0.012 3.17,-0.012c2.402,0 5.056,0.012 7.961,0.042c2.921,0.026 4.455,0.04 4.603,0.04l1.86,0l0,-7.557l-1.86,0c-0.169,0 -1.541,0.015 -4.12,0.042c-2.562,0.028 -5.467,0.042 -8.722,0.042c-0.884,0 -1.895,-0.005 -3.029,-0.014c-0.387,-0.003 -0.758,-0.006 -1.109,-0.007c0.007,-1.288 0.024,-2.629 0.049,-4.02c0.027,-1.48 0.045,-2.962 0.052,-4.446c0.407,-0.003 0.849,-0.006 1.325,-0.009c1.332,-0.009 2.689,-0.013 4.074,-0.013c3.177,0 5.834,0.013 7.967,0.04c2.155,0.029 3.326,0.043 3.513,0.043l1.86,0l0,-7.585l-1.86,0c-0.187,0 -1.395,0.009 -3.629,0.027c-2.219,0.019 -5.096,0.028 -8.63,0.028c-2.088,0 -4.117,-0.009 -6.083,-0.028c-1.981,-0.018 -3.631,-0.027 -4.952,-0.027l-1.888,0l0.028,1.887c0.055,3.683 0.092,7.244 0.11,10.685c0.019,3.443 0.03,6.21 0.03,8.301c0,3.815 -0.015,7.505 -0.043,11.078c-0.027,3.55 -0.06,5.86 -0.096,6.929l-0.065,1.923l1.924,0c1.356,0 3.016,-0.011 4.98,-0.029c1.95,-0.017 4.099,-0.026 6.445,-0.026c3.385,0 6.223,0.009 8.518,0.026l5.574,0.029l0,-7.587l-1.86,0c-0.225,0 -1.283,0.011 -3.174,0.03Z" style="fill:#476eb6;fill-rule:nonzero;"/><path d="M324.808,80.002l-0.069,0.001l-0.069,0.002l-0.068,0.003l-0.069,0.005l-0.068,0.005l-0.068,0.006l-0.067,0.007l-0.067,0.007l-0.068,0.009l-0.066,0.009l-0.067,0.011l-0.066,0.011l-0.066,0.012l-0.066,0.013l-0.065,0.014l-0.066,0.015l-0.064,0.015l-0.065,0.016l-0.064,0.017l-0.064,0.018l-0.064,0.019l-0.063,0.02l-0.063,0.02l-0.063,0.022l-0.062,0.022l-0.062,0.022l-0.062,0.024l-0.061,0.024l-0.062,0.025l-0.06,0.026l-0.06,0.027l-0.06,0.028l-0.06,0.028l-0.059,0.029l-0.059,0.029l-0.058,0.031l-0.058,0.031l-0.058,0.032l-0.057,0.032l-0.057,0.034l-0.057,0.034l-0.056,0.035l-0.055,0.035l-0.055,0.036l-0.055,0.037l-0.054,0.038l-0.054,0.038l-0.054,0.039l-0.053,0.039l-0.052,0.04l-0.052,0.041l-0.052,0.042l-0.051,0.042l-0.05,0.043l-0.05,0.043l-0.05,0.044l-0.049,0.045l-0.049,0.045l-0.048,0.046l-0.047,0.047l-0.047,0.047l-0.047,0.048l-0.046,0.048l-0.045,0.049l-0.045,0.05l-0.044,0.05l-0.044,0.05l-0.043,0.051l-0.043,0.052l-0.042,0.053l-0.042,0.052l-0.041,0.054l-0.04,0.054l-0.04,0.054l-0.039,0.055l-0.038,0.056l-0.038,0.056l-0.038,0.056l-0.036,0.057l-0.037,0.058l-0.035,0.058l-0.035,0.058l-0.034,0.059l-0.033,0.06l-0.033,0.06l-0.032,0.06l-0.032,0.061l-0.031,0.061l-0.03,0.062l-0.03,0.062l-0.028,0.063l-0.028,0.063l-0.028,0.063l-0.027,0.064l-0.026,0.064l-0.025,0.065l-0.024,0.065l-0.024,0.065l-0.023,0.066l-0.023,0.066l-0.021,0.067l-0.021,0.067l-0.02,0.067l-0.02,0.068l-0.018,0.068l-0.018,0.068l-0.017,0.069l-0.017,0.069l-0.015,0.07l-0.015,0.069l-0.014,0.07l-0.013,0.071l-0.012,0.07l-0.012,0.071l-0.01,0.072l-0.01,0.071l-0.009,0.072l-0.009,0.072l-0.007,0.073l-0.006,0.072l-0.006,0.073l-0.005,0.074l-0.004,0.073l-0.003,0.074l-0.002,0.074l-0.001,0.074l-0.001,0.075l0.001,0.074l0.001,0.074l0.002,0.074l0.003,0.074l0.004,0.073l0.005,0.074l0.006,0.073l0.006,0.072l0.007,0.073l0.009,0.072l0.009,0.072l0.01,0.071l0.01,0.072l0.012,0.071l0.012,0.07l0.013,0.071l0.014,0.07l0.015,0.069l0.015,0.07l0.017,0.069l0.017,0.069l0.018,0.068l0.018,0.068l0.02,0.068l0.02,0.067l0.021,0.067l0.021,0.067l0.023,0.066l0.023,0.066l0.024,0.065l0.024,0.065l0.025,0.065l0.026,0.064l0.027,0.064l0.028,0.063l0.028,0.063l0.028,0.063l0.03,0.062l0.03,0.062l0.031,0.061l0.032,0.061l0.032,0.06l0.033,0.06l0.033,0.06l0.034,0.059l0.035,0.058l0.035,0.058l0.037,0.058l0.036,0.057l0.038,0.056l0.038,0.056l0.038,0.056l0.039,0.055l0.04,0.054l0.04,0.054l0.041,0.054l0.042,0.053l0.042,0.052l0.043,0.052l0.043,0.051l0.044,0.05l0.044,0.051l0.045,0.049l0.045,0.049l0.046,0.048l0.047,0.048l0.047,0.047l0.047,0.047l0.048,0.046l0.049,0.045l0.049,0.045l0.05,0.044l0.05,0.043l0.05,0.043l0.051,0.042l0.052,0.042l0.052,0.041l0.052,0.04l0.053,0.039l0.054,0.039l0.054,0.038l0.054,0.038l0.055,0.037l0.055,0.036l0.055,0.035l0.056,0.035l0.057,0.034l0.057,0.034l0.057,0.032l0.058,0.032l0.058,0.031l0.058,0.031l0.059,0.029l0.059,0.029l0.06,0.029l0.06,0.027l0.06,0.027l0.06,0.026l0.062,0.025l0.061,0.024l0.062,0.024l0.062,0.023l0.062,0.022l0.063,0.021l0.063,0.02l0.063,0.02l0.064,0.019l0.064,0.018l0.064,0.017l0.065,0.016l0.064,0.016l0.066,0.014l0.065,0.014l0.066,0.013l0.066,0.012l0.066,0.011l0.067,0.011l0.066,0.009l0.068,0.009l0.067,0.008l0.067,0.006l0.068,0.006l0.068,0.005l0.069,0.005l0.068,0.003l0.069,0.002l0.069,0.002l0.069,0l0.069,0l0.069,-0.002l0.069,-0.002l0.069,-0.003l0.068,-0.005l0.068,-0.005l0.068,-0.006l0.068,-0.006l0.067,-0.008l0.067,-0.009l0.067,-0.009l0.066,-0.011l0.067,-0.011l0.066,-0.012l0.065,-0.013l0.066,-0.014l0.065,-0.014l0.065,-0.016l0.064,-0.016l0.065,-0.017l0.064,-0.018l0.063,-0.019l0.064,-0.02l0.063,-0.02l0.062,-0.021l0.063,-0.022l0.062,-0.023l0.062,-0.024l0.061,-0.024l0.061,-0.025l0.061,-0.026l0.06,-0.027l0.06,-0.027l0.059,-0.029l0.06,-0.029l0.058,-0.029l0.059,-0.031l0.058,-0.031l0.058,-0.032l0.057,-0.032l0.057,-0.034l0.056,-0.034l0.056,-0.035l0.056,-0.035l0.055,-0.036l0.054,-0.037l0.055,-0.038l0.054,-0.038l0.053,-0.039l0.053,-0.039l0.052,-0.04l0.052,-0.041l0.052,-0.042l0.051,-0.042l0.051,-0.043l0.05,-0.043l0.049,-0.044l0.049,-0.045l0.049,-0.045l0.048,-0.046l0.048,-0.047l0.047,-0.047l0.046,-0.048l0.046,-0.048l0.046,-0.049l0.045,-0.049l0.044,-0.051l0.044,-0.05l0.043,-0.051l0.043,-0.052l0.042,-0.052l0.041,-0.053l0.041,-0.054l0.04,-0.054l0.04,-0.054l0.039,-0.055l0.039,-0.056l0.038,-0.056l0.037,-0.056l0.037,-0.057l0.036,-0.058l0.035,-0.058l0.035,-0.058l0.034,-0.059l0.034,-0.06l0.033,-0.06l0.032,-0.06l0.031,-0.061l0.031,-0.061l0.03,-0.062l0.03,-0.062l0.029,-0.063l0.028,-0.063l0.027,-0.063l0.027,-0.064l0.026,-0.064l0.025,-0.065l0.025,-0.065l0.024,-0.065l0.023,-0.066l0.022,-0.066l0.022,-0.067l0.021,-0.067l0.02,-0.067l0.019,-0.068l0.019,-0.068l0.018,-0.068l0.017,-0.069l0.016,-0.069l0.016,-0.07l0.014,-0.069l0.014,-0.07l0.013,-0.071l0.013,-0.07l0.011,-0.071l0.011,-0.072l0.01,-0.071l0.009,-0.072l0.008,-0.072l0.007,-0.073l0.007,-0.072l0.006,-0.073l0.004,-0.074l0.004,-0.073l0.003,-0.074l0.003,-0.074l0.001,-0.074l0,-0.074l0,-0.075l-0.001,-0.074l-0.003,-0.074l-0.003,-0.074l-0.004,-0.073l-0.004,-0.074l-0.006,-0.073l-0.007,-0.072l-0.007,-0.073l-0.008,-0.072l-0.009,-0.072l-0.01,-0.071l-0.011,-0.072l-0.011,-0.071l-0.013,-0.07l-0.013,-0.071l-0.014,-0.07l-0.014,-0.069l-0.016,-0.07l-0.016,-0.069l-0.017,-0.069l-0.018,-0.068l-0.019,-0.068l-0.019,-0.068l-0.02,-0.067l-0.021,-0.067l-0.022,-0.067l-0.022,-0.066l-0.023,-0.066l-0.024,-0.065l-0.025,-0.065l-0.025,-0.065l-0.026,-0.064l-0.027,-0.064l-0.027,-0.063l-0.028,-0.063l-0.029,-0.063l-0.03,-0.062l-0.03,-0.062l-0.031,-0.061l-0.031,-0.061l-0.032,-0.06l-0.033,-0.06l-0.034,-0.06l-0.034,-0.059l-0.035,-0.058l-0.035,-0.058l-0.036,-0.058l-0.037,-0.057l-0.037,-0.056l-0.038,-0.056l-0.039,-0.056l-0.039,-0.055l-0.04,-0.054l-0.04,-0.054l-0.041,-0.054l-0.041,-0.052l-0.042,-0.053l-0.043,-0.052l-0.043,-0.051l-0.044,-0.05l-0.044,-0.05l-0.045,-0.05l-0.046,-0.049l-0.046,-0.048l-0.046,-0.048l-0.047,-0.047l-0.048,-0.047l-0.048,-0.046l-0.049,-0.045l-0.049,-0.045l-0.049,-0.044l-0.05,-0.043l-0.051,-0.043l-0.051,-0.042l-0.052,-0.042l-0.052,-0.041l-0.052,-0.04l-0.053,-0.039l-0.053,-0.039l-0.054,-0.038l-0.055,-0.038l-0.054,-0.037l-0.055,-0.036l-0.056,-0.035l-0.056,-0.035l-0.056,-0.034l-0.057,-0.034l-0.057,-0.032l-0.058,-0.032l-0.058,-0.031l-0.059,-0.031l-0.058,-0.029l-0.06,-0.029l-0.059,-0.028l-0.06,-0.028l-0.06,-0.027l-0.061,-0.026l-0.061,-0.025l-0.061,-0.024l-0.062,-0.024l-0.062,-0.022l-0.063,-0.022l-0.062,-0.022l-0.063,-0.02l-0.064,-0.02l-0.063,-0.019l-0.064,-0.018l-0.065,-0.017l-0.064,-0.016l-0.065,-0.015l-0.065,-0.015l-0.066,-0.014l-0.065,-0.013l-0.066,-0.012l-0.067,-0.011l-0.066,-0.011l-0.067,-0.009l-0.067,-0.009l-0.067,-0.007l-0.068,-0.007l-0.068,-0.006l-0.068,-0.005l-0.068,-0.005l-0.069,-0.003l-0.069,-0.002l-0.069,-0.001l-0.069,-0.001l-0.069,0.001Zm0.226,-0.681l0.078,0.002l0.078,0.004l0.077,0.005l0.077,0.005l0.077,0.007l0.077,0.008l0.076,0.009l0.077,0.009l0.075,0.011l0.076,0.012l0.075,0.013l0.075,0.014l0.075,0.014l0.074,0.016l0.074,0.017l0.074,0.017l0.073,0.019l0.073,0.019l0.073,0.021l0.072,0.021l0.072,0.022l0.071,0.023l0.071,0.024l0.071,0.025l0.071,0.026l0.069,0.027l0.07,0.028l0.069,0.028l0.069,0.029l0.068,0.031l0.068,0.031l0.067,0.032l0.067,0.032l0.067,0.034l0.066,0.034l0.066,0.036l0.065,0.036l0.064,0.037l0.065,0.037l0.063,0.039l0.064,0.039l0.062,0.04l0.062,0.041l0.062,0.041l0.061,0.043l0.061,0.043l0.06,0.043l0.06,0.045l0.059,0.045l0.058,0.046l0.058,0.047l0.058,0.047l0.057,0.049l0.056,0.048l0.056,0.05l0.055,0.05l0.055,0.051l0.054,0.052l0.053,0.052l0.053,0.053l0.052,0.053l0.051,0.055l0.051,0.054l0.051,0.056l0.049,0.056l0.05,0.057l0.048,0.057l0.048,0.058l0.047,0.059l0.046,0.059l0.046,0.06l0.045,0.06l0.045,0.061l0.044,0.062l0.043,0.062l0.042,0.062l0.042,0.063l0.041,0.064l0.04,0.065l0.04,0.064l0.039,0.066l0.038,0.066l0.037,0.066l0.037,0.067l0.036,0.067l0.035,0.068l0.035,0.069l0.033,0.069l0.033,0.069l0.032,0.07l0.032,0.07l0.03,0.071l0.03,0.071l0.029,0.072l0.028,0.072l0.028,0.072l0.026,0.073l0.026,0.074l0.025,0.074l0.024,0.074l0.024,0.075l0.022,0.075l0.022,0.075l0.02,0.076l0.02,0.076l0.019,0.077l0.018,0.076l0.018,0.078l0.016,0.077l0.016,0.078l0.014,0.079l0.014,0.078l0.013,0.079l0.012,0.08l0.01,0.079l0.011,0.08l0.009,0.08l0.008,0.081l0.007,0.081l0.006,0.081l0.006,0.081l0.004,0.082l0.003,0.081l0.003,0.083l0.001,0.082l0.001,0.083l-0.001,0.082l-0.001,0.082l-0.003,0.083l-0.003,0.081l-0.004,0.082l-0.006,0.081l-0.006,0.081l-0.007,0.081l-0.008,0.081l-0.009,0.08l-0.011,0.08l-0.01,0.079l-0.012,0.08l-0.013,0.079l-0.014,0.078l-0.014,0.079l-0.016,0.078l-0.016,0.077l-0.018,0.078l-0.018,0.077l-0.019,0.076l-0.02,0.076l-0.02,0.076l-0.022,0.075l-0.022,0.076l-0.024,0.074l-0.024,0.074l-0.025,0.074l-0.026,0.074l-0.026,0.073l-0.028,0.072l-0.028,0.072l-0.029,0.072l-0.03,0.071l-0.03,0.071l-0.032,0.07l-0.032,0.07l-0.033,0.069l-0.033,0.069l-0.035,0.069l-0.035,0.068l-0.036,0.067l-0.037,0.067l-0.037,0.066l-0.038,0.066l-0.039,0.066l-0.04,0.065l-0.04,0.064l-0.041,0.064l-0.042,0.063l-0.042,0.062l-0.043,0.062l-0.044,0.062l-0.045,0.061l-0.045,0.06l-0.046,0.06l-0.046,0.059l-0.047,0.059l-0.048,0.058l-0.048,0.057l-0.05,0.057l-0.049,0.056l-0.051,0.056l-0.051,0.054l-0.051,0.055l-0.052,0.053l-0.053,0.053l-0.053,0.052l-0.054,0.052l-0.055,0.051l-0.055,0.05l-0.056,0.05l-0.056,0.049l-0.057,0.048l-0.058,0.047l-0.058,0.047l-0.058,0.046l-0.059,0.045l-0.06,0.045l-0.06,0.043l-0.061,0.044l-0.061,0.042l-0.062,0.041l-0.062,0.041l-0.062,0.04l-0.064,0.039l-0.063,0.039l-0.065,0.037l-0.064,0.037l-0.065,0.036l-0.066,0.036l-0.066,0.034l-0.067,0.034l-0.067,0.032l-0.067,0.032l-0.068,0.031l-0.068,0.031l-0.069,0.029l-0.069,0.028l-0.07,0.028l-0.069,0.027l-0.071,0.026l-0.071,0.025l-0.071,0.024l-0.071,0.023l-0.072,0.022l-0.072,0.021l-0.073,0.021l-0.073,0.019l-0.073,0.019l-0.074,0.017l-0.074,0.017l-0.074,0.016l-0.075,0.015l-0.075,0.013l-0.075,0.013l-0.076,0.012l-0.075,0.011l-0.077,0.009l-0.076,0.009l-0.077,0.008l-0.077,0.007l-0.077,0.005l-0.077,0.005l-0.078,0.004l-0.078,0.002l-0.078,0.002l-0.079,0.001l-0.078,-0.001l-0.078,-0.002l-0.078,-0.002l-0.078,-0.004l-0.078,-0.005l-0.077,-0.005l-0.077,-0.007l-0.077,-0.008l-0.076,-0.009l-0.076,-0.009l-0.076,-0.011l-0.076,-0.012l-0.075,-0.013l-0.075,-0.013l-0.074,-0.015l-0.075,-0.016l-0.074,-0.017l-0.073,-0.017l-0.074,-0.019l-0.073,-0.019l-0.072,-0.021l-0.072,-0.021l-0.072,-0.022l-0.072,-0.023l-0.071,-0.024l-0.071,-0.025l-0.07,-0.026l-0.07,-0.027l-0.07,-0.028l-0.069,-0.028l-0.068,-0.029l-0.069,-0.031l-0.068,-0.031l-0.067,-0.032l-0.067,-0.032l-0.066,-0.034l-0.067,-0.034l-0.065,-0.036l-0.065,-0.036l-0.065,-0.037l-0.064,-0.037l-0.064,-0.039l-0.063,-0.039l-0.063,-0.04l-0.062,-0.041l-0.062,-0.041l-0.061,-0.042l-0.061,-0.044l-0.06,-0.043l-0.059,-0.045l-0.059,-0.045l-0.059,-0.046l-0.058,-0.047l-0.057,-0.047l-0.057,-0.048l-0.057,-0.049l-0.055,-0.05l-0.056,-0.05l-0.054,-0.051l-0.054,-0.052l-0.053,-0.052l-0.053,-0.053l-0.052,-0.053l-0.052,-0.055l-0.051,-0.054l-0.05,-0.056l-0.05,-0.056l-0.049,-0.057l-0.049,-0.057l-0.047,-0.058l-0.048,-0.059l-0.046,-0.059l-0.046,-0.06l-0.045,-0.06l-0.044,-0.061l-0.044,-0.062l-0.043,-0.062l-0.043,-0.062l-0.042,-0.063l-0.041,-0.064l-0.04,-0.064l-0.04,-0.065l-0.038,-0.066l-0.039,-0.066l-0.037,-0.066l-0.037,-0.067l-0.036,-0.067l-0.035,-0.068l-0.034,-0.069l-0.034,-0.069l-0.033,-0.069l-0.032,-0.07l-0.031,-0.07l-0.031,-0.071l-0.03,-0.071l-0.029,-0.072l-0.028,-0.072l-0.027,-0.072l-0.027,-0.073l-0.026,-0.074l-0.025,-0.074l-0.024,-0.074l-0.023,-0.074l-0.023,-0.076l-0.021,-0.075l-0.021,-0.076l-0.02,-0.076l-0.019,-0.076l-0.018,-0.077l-0.017,-0.078l-0.017,-0.077l-0.015,-0.078l-0.015,-0.079l-0.013,-0.078l-0.013,-0.079l-0.012,-0.08l-0.011,-0.079l-0.01,-0.08l-0.009,-0.08l-0.008,-0.081l-0.008,-0.081l-0.006,-0.081l-0.005,-0.081l-0.005,-0.082l-0.003,-0.081l-0.003,-0.083l-0.001,-0.082l0,-0.082l0,-0.083l0.001,-0.082l0.003,-0.083l0.003,-0.081l0.005,-0.082l0.005,-0.081l0.006,-0.081l0.008,-0.081l0.008,-0.081l0.009,-0.08l0.01,-0.08l0.011,-0.079l0.012,-0.08l0.013,-0.079l0.013,-0.078l0.015,-0.079l0.015,-0.078l0.017,-0.077l0.017,-0.078l0.018,-0.076l0.019,-0.077l0.02,-0.076l0.021,-0.076l0.021,-0.075l0.023,-0.075l0.023,-0.075l0.024,-0.074l0.025,-0.074l0.026,-0.074l0.027,-0.073l0.027,-0.072l0.028,-0.072l0.029,-0.072l0.03,-0.071l0.031,-0.071l0.031,-0.07l0.032,-0.07l0.033,-0.069l0.034,-0.069l0.034,-0.069l0.035,-0.068l0.036,-0.067l0.037,-0.067l0.037,-0.066l0.039,-0.066l0.038,-0.066l0.04,-0.064l0.04,-0.065l0.041,-0.064l0.042,-0.063l0.043,-0.062l0.043,-0.062l0.044,-0.062l0.044,-0.061l0.045,-0.06l0.046,-0.06l0.046,-0.059l0.048,-0.059l0.047,-0.058l0.049,-0.057l0.049,-0.057l0.05,-0.056l0.05,-0.056l0.051,-0.054l0.052,-0.055l0.052,-0.053l0.053,-0.053l0.053,-0.052l0.054,-0.052l0.054,-0.051l0.056,-0.05l0.055,-0.05l0.057,-0.048l0.057,-0.049l0.057,-0.047l0.058,-0.047l0.059,-0.046l0.059,-0.045l0.059,-0.045l0.06,-0.043l0.061,-0.043l0.061,-0.043l0.062,-0.041l0.062,-0.041l0.063,-0.04l0.063,-0.039l0.064,-0.039l0.064,-0.037l0.065,-0.037l0.065,-0.036l0.065,-0.036l0.067,-0.034l0.066,-0.034l0.067,-0.032l0.067,-0.032l0.068,-0.031l0.069,-0.031l0.068,-0.029l0.069,-0.028l0.07,-0.028l0.07,-0.027l0.07,-0.026l0.071,-0.025l0.071,-0.024l0.072,-0.023l0.072,-0.022l0.072,-0.021l0.072,-0.021l0.073,-0.019l0.074,-0.019l0.073,-0.017l0.074,-0.017l0.075,-0.016l0.074,-0.014l0.075,-0.014l0.075,-0.013l0.076,-0.012l0.076,-0.011l0.076,-0.009l0.076,-0.009l0.077,-0.008l0.077,-0.007l0.077,-0.005l0.078,-0.005l0.078,-0.004l0.078,-0.002l0.078,-0.002l0.078,-0.001l0.079,0.001l0.078,0.002Z" style="fill:#476eb6;"/><path d="M199.776,81.339l-0.086,0l-0.118,0.003l-0.148,0.005l-0.084,0.004l-0.09,0.005l-0.097,0.006l-0.102,0.008l-0.108,0.009l-0.112,0.011l-0.118,0.012l-0.122,0.014l-0.127,0.016l-0.13,0.018l-0.134,0.02l-0.137,0.023l-0.14,0.025l-0.142,0.027l-0.145,0.03l-0.147,0.033l-0.148,0.035l-0.15,0.038l-0.151,0.042l-0.075,0.022l-0.076,0.023l-0.076,0.023l-0.076,0.024l-0.076,0.026l-0.076,0.026l-0.075,0.027l-0.076,0.027l-0.076,0.029l-0.075,0.03l-0.075,0.03l-0.075,0.032l-0.075,0.032l-0.074,0.033l-0.074,0.035l-0.074,0.035l-0.073,0.036l-0.072,0.037l-0.072,0.039l-0.072,0.039l-0.07,0.04l-0.071,0.041l-0.069,0.043l-0.069,0.043l-0.068,0.045l-0.067,0.045l-0.067,0.047l-0.065,0.048l-0.065,0.048l-0.064,0.05l-0.062,0.051l-0.062,0.053l-0.061,0.053l-0.06,0.055l-0.058,0.055l-0.058,0.057l-0.056,0.058l-0.056,0.06l-0.054,0.06l-0.052,0.062l-0.052,0.063l-0.05,0.065l-0.049,0.065l-0.048,0.067l-0.046,0.069l-0.045,0.07l-0.044,0.071l-0.042,0.072l-0.04,0.074l-0.039,0.076l-0.038,0.077l-0.035,0.078l-0.035,0.08l-0.032,0.082l-0.031,0.083l-0.03,0.085l-0.027,0.086l-0.026,0.089l-0.024,0.09l-0.022,0.091l-0.021,0.094l-0.018,0.095l-0.016,0.097l-0.015,0.099l-0.012,0.101l-0.01,0.103l-0.008,0.105l-0.006,0.106l-0.004,0.109l-0.001,0.11l0.001,0.102l0.003,0.099l0.006,0.098l0.008,0.096l0.01,0.095l0.013,0.093l0.014,0.091l0.017,0.09l0.019,0.088l0.02,0.087l0.023,0.085l0.025,0.084l0.026,0.082l0.029,0.081l0.03,0.079l0.032,0.078l0.034,0.077l0.036,0.076l0.037,0.074l0.039,0.073l0.041,0.072l0.042,0.071l0.044,0.069l0.046,0.069l0.047,0.067l0.048,0.066l0.05,0.065l0.052,0.064l0.053,0.063l0.054,0.061l0.056,0.061l0.057,0.059l0.058,0.059l0.06,0.057l0.061,0.057l0.062,0.055l0.064,0.055l0.064,0.053l0.066,0.052l0.066,0.052l0.068,0.05l0.069,0.05l0.069,0.048l0.071,0.048l0.071,0.046l0.073,0.046l0.073,0.044l0.073,0.044l0.075,0.042l0.075,0.042l0.076,0.041l0.077,0.04l0.077,0.039l0.078,0.038l0.078,0.037l0.078,0.037l0.079,0.035l0.079,0.035l0.08,0.033l0.08,0.033l0.08,0.032l0.08,0.031l0.081,0.031l0.08,0.029l0.081,0.029l0.081,0.028l0.08,0.027l0.08,0.026l0.162,0.051l0.16,0.047l0.159,0.045l0.157,0.041l0.156,0.039l0.154,0.036l0.151,0.034l0.149,0.031l0.145,0.029l0.142,0.027l0.138,0.024l0.134,0.022l0.13,0.02l0.124,0.019l0.12,0.016l0.114,0.015l0.109,0.012l0.102,0.012l0.096,0.01l0.089,0.008l0.157,0.014l0.126,0.009l0.092,0.005l0.403,0.019l0,1.636l-0.356,0.011l-0.075,0.002l-0.119,0.001l-0.159,-0.001l-0.095,-0.002l-0.103,-0.002l-0.112,-0.004l-0.12,-0.005l-0.128,-0.006l-0.136,-0.008l-0.142,-0.01l-0.15,-0.012l-0.156,-0.013l-0.161,-0.016l-0.168,-0.019l-0.173,-0.021l-0.177,-0.023l-0.182,-0.027l-0.186,-0.03l-0.19,-0.032l-0.193,-0.037l-0.196,-0.04l-0.1,-0.021l-0.099,-0.022l-0.101,-0.024l-0.1,-0.024l-0.102,-0.025l-0.101,-0.027l-0.102,-0.027l-0.103,-0.029l-0.102,-0.029l-0.103,-0.031l-0.103,-0.032l-0.103,-0.033l-0.104,-0.034l-0.103,-0.036l-0.103,-0.037l-0.103,-0.038l-0.104,-0.039l-0.103,-0.041l-0.102,-0.042l-0.103,-0.043l-0.102,-0.045l-0.102,-0.046l-0.102,-0.048l-0.101,-0.049l-0.1,-0.051l-0.1,-0.052l-0.1,-0.053l-0.099,-0.056l-0.098,-0.057l-0.097,-0.058l-0.097,-0.06l-0.096,-0.062l-0.094,-0.063l-0.094,-0.065l-0.093,-0.067l-0.092,-0.069l-0.091,-0.07l-0.09,-0.072l-0.088,-0.075l-0.087,-0.075l-0.086,-0.078l-0.085,-0.08l-0.083,-0.082l-0.081,-0.083l-0.08,-0.086l-0.079,-0.087l-0.076,-0.09l-0.075,-0.092l-0.074,-0.093l-0.071,-0.096l-0.069,-0.098l-0.068,-0.1l-0.065,-0.102l-0.064,-0.104l-0.061,-0.106l-0.059,-0.108l-0.057,-0.111l-0.054,-0.112l-0.052,-0.115l-0.05,-0.117l-0.047,-0.119l-0.044,-0.122l-0.042,-0.122l-0.02,-0.064l-0.02,-0.063l-0.018,-0.063l-0.018,-0.065l-0.018,-0.064l-0.016,-0.066l-0.016,-0.065l-0.015,-0.067l-0.015,-0.067l-0.014,-0.067l-0.013,-0.068l-0.012,-0.069l-0.012,-0.069l-0.01,-0.07l-0.011,-0.07l-0.009,-0.071l-0.009,-0.072l-0.007,-0.072l-0.008,-0.072l-0.006,-0.073l-0.005,-0.074l-0.005,-0.074l-0.004,-0.075l-0.003,-0.075l-0.003,-0.076l-0.001,-0.077l-0.001,-0.075l0,-0.075l0.001,-0.074l0.001,-0.074l0.003,-0.073l0.003,-0.073l0.004,-0.072l0.005,-0.071l0.005,-0.071l0.006,-0.071l0.007,-0.07l0.008,-0.069l0.009,-0.069l0.009,-0.068l0.01,-0.068l0.011,-0.067l0.011,-0.067l0.012,-0.066l0.013,-0.066l0.014,-0.066l0.029,-0.127l0.032,-0.127l0.035,-0.124l0.037,-0.122l0.04,-0.12l0.043,-0.118l0.045,-0.116l0.047,-0.114l0.05,-0.111l0.053,-0.11l0.054,-0.107l0.057,-0.106l0.059,-0.103l0.061,-0.101l0.063,-0.099l0.066,-0.097l0.067,-0.095l0.069,-0.093l0.071,-0.091l0.072,-0.089l0.075,-0.088l0.076,-0.085l0.077,-0.083l0.079,-0.081l0.081,-0.08l0.082,-0.077l0.083,-0.076l0.085,-0.073l0.086,-0.072l0.087,-0.071l0.088,-0.068l0.089,-0.067l0.09,-0.065l0.092,-0.063l0.092,-0.062l0.093,-0.06l0.094,-0.058l0.095,-0.057l0.095,-0.055l0.096,-0.054l0.097,-0.052l0.097,-0.05l0.097,-0.05l0.099,-0.047l0.098,-0.047l0.099,-0.044l0.099,-0.044l0.1,-0.042l0.1,-0.041l0.1,-0.04l0.1,-0.038l0.1,-0.037l0.1,-0.036l0.101,-0.034l0.1,-0.034l0.1,-0.032l0.1,-0.031l0.1,-0.03l0.099,-0.029l0.099,-0.027l0.099,-0.027l0.099,-0.026l0.098,-0.024l0.097,-0.024l0.098,-0.023l0.097,-0.022l0.19,-0.04l0.189,-0.037l0.185,-0.034l0.181,-0.03l0.178,-0.028l0.173,-0.024l0.169,-0.022l0.164,-0.02l0.158,-0.016l0.152,-0.015l0.146,-0.012l0.14,-0.011l0.132,-0.009l0.126,-0.007l0.117,-0.005l0.11,-0.005l0.101,-0.003l0.093,-0.002l0.156,-0.002l0.116,0l0.074,0.001l0.358,0.009l0,1.657l-0.418,-0.004Zm-0.274,-0.979l-0.086,0.002l-0.096,0.003l-0.104,0.004l-0.112,0.006l-0.119,0.007l-0.126,0.008l-0.133,0.01l-0.14,0.012l-0.145,0.014l-0.15,0.016l-0.156,0.018l-0.161,0.021l-0.165,0.023l-0.169,0.026l-0.173,0.029l-0.175,0.032l-0.179,0.036l-0.181,0.038l-0.091,0.021l-0.092,0.021l-0.092,0.022l-0.092,0.024l-0.093,0.024l-0.093,0.025l-0.093,0.026l-0.093,0.027l-0.094,0.028l-0.093,0.029l-0.094,0.03l-0.093,0.031l-0.094,0.032l-0.093,0.034l-0.093,0.034l-0.093,0.036l-0.092,0.036l-0.093,0.038l-0.091,0.039l-0.092,0.04l-0.091,0.041l-0.09,0.043l-0.09,0.043l-0.089,0.045l-0.089,0.046l-0.088,0.048l-0.087,0.048l-0.086,0.05l-0.085,0.052l-0.085,0.052l-0.083,0.054l-0.083,0.055l-0.082,0.057l-0.08,0.058l-0.08,0.059l-0.078,0.061l-0.077,0.062l-0.076,0.063l-0.074,0.065l-0.073,0.067l-0.072,0.068l-0.071,0.069l-0.069,0.071l-0.067,0.072l-0.066,0.074l-0.065,0.076l-0.062,0.077l-0.062,0.079l-0.059,0.08l-0.058,0.082l-0.056,0.084l-0.055,0.085l-0.052,0.087l-0.051,0.089l-0.049,0.091l-0.047,0.092l-0.045,0.094l-0.043,0.097l-0.041,0.098l-0.039,0.1l-0.037,0.102l-0.035,0.104l-0.032,0.106l-0.031,0.108l-0.027,0.11l-0.026,0.114l-0.012,0.056l-0.011,0.057l-0.011,0.059l-0.01,0.058l-0.01,0.059l-0.008,0.06l-0.009,0.061l-0.007,0.061l-0.007,0.061l-0.006,0.062l-0.006,0.063l-0.005,0.063l-0.004,0.064l-0.003,0.065l-0.003,0.065l-0.002,0.066l-0.002,0.066l-0.001,0.067l0,0.068l0.001,0.068l0.002,0.069l0.002,0.069l0.003,0.068l0.003,0.067l0.004,0.067l0.005,0.066l0.006,0.065l0.007,0.065l0.007,0.064l0.007,0.064l0.009,0.063l0.009,0.063l0.009,0.062l0.011,0.061l0.01,0.061l0.012,0.06l0.012,0.06l0.013,0.059l0.013,0.058l0.014,0.058l0.015,0.057l0.015,0.057l0.016,0.057l0.016,0.055l0.017,0.055l0.017,0.054l0.037,0.109l0.039,0.105l0.041,0.104l0.043,0.102l0.045,0.099l0.047,0.098l0.05,0.096l0.051,0.093l0.053,0.092l0.055,0.091l0.056,0.088l0.059,0.087l0.06,0.084l0.062,0.084l0.064,0.081l0.065,0.08l0.067,0.078l0.068,0.076l0.07,0.075l0.072,0.074l0.073,0.071l0.074,0.071l0.076,0.068l0.077,0.067l0.079,0.066l0.079,0.064l0.081,0.063l0.082,0.061l0.083,0.06l0.085,0.059l0.085,0.057l0.086,0.055l0.088,0.055l0.088,0.052l0.089,0.052l0.09,0.05l0.09,0.049l0.092,0.048l0.092,0.046l0.093,0.045l0.093,0.044l0.094,0.042l0.094,0.042l0.095,0.04l0.095,0.039l0.096,0.038l0.095,0.036l0.096,0.036l0.097,0.034l0.096,0.033l0.097,0.032l0.096,0.031l0.097,0.03l0.096,0.029l0.097,0.028l0.096,0.027l0.096,0.025l0.096,0.025l0.095,0.024l0.096,0.023l0.094,0.022l0.095,0.021l0.093,0.02l0.187,0.038l0.183,0.035l0.181,0.031l0.177,0.028l0.173,0.026l0.17,0.022l0.164,0.02l0.16,0.018l0.155,0.015l0.149,0.013l0.142,0.011l0.136,0.01l0.13,0.007l0.122,0.006l0.114,0.005l0.106,0.003l0.098,0.003l0.089,0.001l0.019,0l0,-0.319l-0.158,-0.014l-0.095,-0.009l-0.101,-0.01l-0.107,-0.012l-0.114,-0.014l-0.12,-0.015l-0.126,-0.018l-0.131,-0.019l-0.136,-0.021l-0.141,-0.023l-0.145,-0.026l-0.149,-0.028l-0.153,-0.03l-0.156,-0.033l-0.16,-0.035l-0.162,-0.038l-0.165,-0.042l-0.166,-0.044l-0.169,-0.047l-0.17,-0.05l-0.171,-0.054l-0.086,-0.028l-0.087,-0.029l-0.086,-0.03l-0.086,-0.031l-0.087,-0.032l-0.086,-0.032l-0.087,-0.034l-0.086,-0.034l-0.087,-0.036l-0.086,-0.036l-0.086,-0.038l-0.086,-0.038l-0.085,-0.04l-0.086,-0.04l-0.085,-0.042l-0.084,-0.043l-0.084,-0.044l-0.084,-0.045l-0.083,-0.046l-0.083,-0.047l-0.082,-0.049l-0.081,-0.049l-0.081,-0.051l-0.08,-0.052l-0.079,-0.053l-0.079,-0.055l-0.077,-0.056l-0.077,-0.057l-0.076,-0.059l-0.075,-0.059l-0.074,-0.062l-0.072,-0.062l-0.072,-0.064l-0.071,-0.065l-0.069,-0.067l-0.068,-0.068l-0.067,-0.07l-0.065,-0.071l-0.064,-0.073l-0.063,-0.074l-0.061,-0.075l-0.059,-0.077l-0.058,-0.079l-0.056,-0.08l-0.054,-0.082l-0.053,-0.083l-0.051,-0.085l-0.049,-0.087l-0.047,-0.088l-0.045,-0.089l-0.043,-0.091l-0.041,-0.093l-0.039,-0.095l-0.036,-0.095l-0.034,-0.098l-0.032,-0.099l-0.03,-0.101l-0.027,-0.102l-0.025,-0.104l-0.023,-0.105l-0.019,-0.107l-0.018,-0.108l-0.014,-0.11l-0.012,-0.112l-0.01,-0.112l-0.007,-0.115l-0.003,-0.116l-0.002,-0.117l0.002,-0.126l0.004,-0.123l0.007,-0.121l0.009,-0.12l0.012,-0.118l0.014,-0.116l0.016,-0.115l0.019,-0.112l0.022,-0.111l0.023,-0.109l0.026,-0.108l0.028,-0.105l0.031,-0.104l0.032,-0.102l0.035,-0.101l0.037,-0.098l0.039,-0.097l0.04,-0.095l0.043,-0.094l0.045,-0.091l0.046,-0.09l0.049,-0.089l0.05,-0.086l0.052,-0.085l0.053,-0.083l0.055,-0.082l0.057,-0.079l0.058,-0.078l0.06,-0.077l0.061,-0.074l0.062,-0.074l0.064,-0.071l0.065,-0.07l0.066,-0.068l0.067,-0.067l0.069,-0.065l0.07,-0.063l0.07,-0.063l0.072,-0.06l0.073,-0.059l0.073,-0.058l0.074,-0.056l0.075,-0.054l0.076,-0.054l0.077,-0.052l0.077,-0.05l0.078,-0.049l0.079,-0.048l0.079,-0.047l0.079,-0.045l0.08,-0.044l0.081,-0.043l0.081,-0.041l0.081,-0.041l0.082,-0.039l0.082,-0.038l0.082,-0.036l0.082,-0.036l0.082,-0.035l0.083,-0.033l0.082,-0.033l0.083,-0.031l0.083,-0.03l0.082,-0.03l0.083,-0.028l0.082,-0.027l0.083,-0.027l0.082,-0.025l0.082,-0.025l0.082,-0.024l0.162,-0.044l0.161,-0.042l0.159,-0.038l0.157,-0.035l0.155,-0.032l0.152,-0.029l0.149,-0.026l0.145,-0.024l0.142,-0.021l0.139,-0.02l0.134,-0.017l0.129,-0.015l0.125,-0.013l0.12,-0.011l0.114,-0.01l0.109,-0.008l0.102,-0.006l0.097,-0.006l0.09,-0.004l0.117,-0.004l0,-0.301l-0.01,0Z" style="fill:#476eb6;"/><path d="M262.676,81.427l-0.018,-0.003l-0.052,-0.006l-0.086,-0.01l-0.119,-0.011l-0.069,-0.005l-0.077,-0.006l-0.084,-0.005l-0.09,-0.004l-0.096,-0.004l-0.103,-0.003l-0.107,-0.002l-0.113,-0.001l-0.117,0.001l-0.122,0.002l-0.126,0.004l-0.13,0.006l-0.133,0.008l-0.136,0.01l-0.14,0.013l-0.142,0.015l-0.144,0.018l-0.146,0.021l-0.073,0.012l-0.074,0.012l-0.075,0.013l-0.074,0.015l-0.075,0.015l-0.075,0.015l-0.075,0.017l-0.075,0.018l-0.076,0.018l-0.075,0.02l-0.075,0.02l-0.075,0.022l-0.076,0.022l-0.075,0.024l-0.075,0.024l-0.074,0.026l-0.075,0.027l-0.074,0.028l-0.074,0.029l-0.073,0.03l-0.073,0.031l-0.073,0.032l-0.072,0.034l-0.072,0.035l-0.071,0.036l-0.071,0.037l-0.07,0.039l-0.069,0.039l-0.069,0.041l-0.068,0.043l-0.067,0.044l-0.066,0.045l-0.066,0.046l-0.065,0.048l-0.064,0.049l-0.063,0.051l-0.062,0.052l-0.061,0.054l-0.06,0.055l-0.059,0.056l-0.058,0.058l-0.058,0.06l-0.055,0.061l-0.055,0.063l-0.054,0.065l-0.053,0.066l-0.051,0.068l-0.05,0.07l-0.049,0.071l-0.047,0.074l-0.046,0.075l-0.045,0.077l-0.044,0.079l-0.042,0.08l-0.04,0.083l-0.04,0.085l-0.037,0.087l-0.036,0.089l-0.035,0.091l-0.032,0.093l-0.032,0.096l-0.029,0.098l-0.028,0.1l-0.026,0.102l-0.024,0.104l-0.022,0.107l-0.02,0.11l-0.018,0.112l-0.016,0.114l-0.015,0.117l-0.012,0.119l-0.01,0.122l-0.007,0.124l-0.006,0.127l-0.003,0.13l-0.001,0.131l0.002,0.106l0.004,0.103l0.006,0.101l0.008,0.1l0.011,0.097l0.013,0.096l0.015,0.094l0.017,0.092l0.019,0.09l0.021,0.089l0.023,0.087l0.025,0.086l0.027,0.083l0.029,0.083l0.031,0.08l0.032,0.079l0.034,0.078l0.036,0.076l0.038,0.075l0.039,0.073l0.041,0.072l0.042,0.071l0.044,0.069l0.046,0.068l0.047,0.067l0.048,0.066l0.05,0.064l0.052,0.063l0.053,0.062l0.054,0.06l0.055,0.06l0.057,0.058l0.059,0.057l0.059,0.056l0.061,0.055l0.062,0.054l0.063,0.053l0.064,0.051l0.065,0.051l0.066,0.049l0.068,0.049l0.068,0.047l0.07,0.046l0.07,0.045l0.071,0.044l0.072,0.043l0.073,0.043l0.073,0.041l0.074,0.04l0.075,0.039l0.076,0.038l0.076,0.037l0.077,0.036l0.077,0.035l0.078,0.035l0.078,0.033l0.079,0.032l0.079,0.032l0.079,0.031l0.08,0.029l0.079,0.029l0.08,0.028l0.08,0.027l0.081,0.026l0.08,0.026l0.08,0.024l0.081,0.024l0.079,0.023l0.161,0.044l0.159,0.04l0.159,0.038l0.157,0.035l0.155,0.032l0.153,0.029l0.151,0.027l0.147,0.025l0.145,0.022l0.142,0.02l0.137,0.018l0.134,0.016l0.129,0.014l0.124,0.012l0.119,0.011l0.114,0.009l0.108,0.008l0.102,0.007l0.096,0.005l0.088,0.004l0.157,0.006l0.125,0.003l0.092,0.001l0.42,-0.002l0,1.67l-0.342,0.026l-0.075,0.005l-0.119,0.007l-0.159,0.006l-0.095,0.002l-0.103,0.002l-0.112,0.001l-0.12,0l-0.128,-0.001l-0.136,-0.002l-0.143,-0.004l-0.15,-0.005l-0.156,-0.008l-0.162,-0.009l-0.167,-0.012l-0.173,-0.014l-0.178,-0.017l-0.182,-0.02l-0.186,-0.022l-0.19,-0.026l-0.193,-0.029l-0.099,-0.016l-0.098,-0.017l-0.1,-0.018l-0.099,-0.018l-0.101,-0.02l-0.101,-0.021l-0.101,-0.022l-0.102,-0.023l-0.102,-0.024l-0.103,-0.025l-0.103,-0.026l-0.103,-0.027l-0.103,-0.029l-0.103,-0.03l-0.104,-0.031l-0.103,-0.032l-0.104,-0.034l-0.103,-0.035l-0.104,-0.036l-0.103,-0.038l-0.103,-0.039l-0.103,-0.04l-0.102,-0.042l-0.102,-0.044l-0.102,-0.045l-0.102,-0.046l-0.1,-0.048l-0.101,-0.05l-0.1,-0.051l-0.099,-0.053l-0.098,-0.055l-0.098,-0.056l-0.097,-0.058l-0.096,-0.06l-0.095,-0.062l-0.094,-0.063l-0.094,-0.065l-0.092,-0.067l-0.091,-0.07l-0.09,-0.071l-0.089,-0.073l-0.087,-0.074l-0.086,-0.077l-0.085,-0.079l-0.083,-0.081l-0.082,-0.084l-0.08,-0.085l-0.079,-0.087l-0.077,-0.09l-0.075,-0.091l-0.073,-0.094l-0.072,-0.096l-0.069,-0.098l-0.068,-0.101l-0.065,-0.103l-0.064,-0.105l-0.061,-0.107l-0.059,-0.109l-0.057,-0.112l-0.054,-0.114l-0.052,-0.117l-0.05,-0.118l-0.047,-0.12l-0.023,-0.063l-0.022,-0.062l-0.021,-0.062l-0.02,-0.063l-0.02,-0.064l-0.02,-0.064l-0.018,-0.065l-0.018,-0.066l-0.018,-0.066l-0.016,-0.067l-0.016,-0.067l-0.015,-0.068l-0.015,-0.068l-0.013,-0.069l-0.014,-0.07l-0.012,-0.07l-0.011,-0.071l-0.011,-0.071l-0.01,-0.072l-0.01,-0.073l-0.008,-0.073l-0.008,-0.074l-0.007,-0.075l-0.007,-0.075l-0.005,-0.075l-0.005,-0.077l-0.004,-0.077l-0.003,-0.077l-0.002,-0.078l-0.002,-0.079l-0.001,-0.078l0,-0.077l0.001,-0.076l0.002,-0.076l0.002,-0.076l0.003,-0.075l0.004,-0.074l0.005,-0.073l0.005,-0.074l0.007,-0.072l0.007,-0.072l0.007,-0.072l0.009,-0.07l0.009,-0.071l0.01,-0.069l0.011,-0.07l0.011,-0.068l0.012,-0.068l0.013,-0.068l0.013,-0.067l0.015,-0.066l0.015,-0.067l0.032,-0.129l0.034,-0.128l0.037,-0.126l0.04,-0.124l0.043,-0.121l0.045,-0.119l0.047,-0.117l0.05,-0.115l0.052,-0.113l0.054,-0.111l0.057,-0.108l0.059,-0.107l0.061,-0.104l0.063,-0.102l0.065,-0.1l0.067,-0.098l0.069,-0.096l0.071,-0.094l0.072,-0.092l0.074,-0.089l0.076,-0.088l0.078,-0.086l0.079,-0.084l0.08,-0.082l0.082,-0.08l0.083,-0.078l0.085,-0.076l0.086,-0.074l0.087,-0.073l0.088,-0.071l0.089,-0.069l0.091,-0.067l0.091,-0.065l0.092,-0.064l0.093,-0.062l0.094,-0.06l0.095,-0.059l0.095,-0.057l0.096,-0.055l0.097,-0.054l0.097,-0.052l0.098,-0.051l0.098,-0.05l0.099,-0.047l0.099,-0.047l0.099,-0.045l0.1,-0.043l0.1,-0.043l0.1,-0.041l0.1,-0.039l0.1,-0.038l0.101,-0.037l0.1,-0.036l0.1,-0.035l0.1,-0.033l0.1,-0.032l0.1,-0.031l0.1,-0.03l0.099,-0.028l0.099,-0.028l0.099,-0.027l0.098,-0.025l0.097,-0.025l0.098,-0.023l0.096,-0.022l0.096,-0.022l0.096,-0.021l0.188,-0.038l0.185,-0.035l0.182,-0.031l0.178,-0.029l0.173,-0.025l0.169,-0.023l0.164,-0.02l0.158,-0.017l0.152,-0.015l0.147,-0.013l0.139,-0.011l0.133,-0.009l0.125,-0.007l0.118,-0.006l0.11,-0.005l0.101,-0.003l0.093,-0.002l0.156,-0.002l0.117,0l0.073,0.001l0.359,0.009l0,1.443l-0.388,0.338Zm-0.304,-1.107l-0.087,0.002l-0.095,0.004l-0.104,0.004l-0.112,0.005l-0.119,0.007l-0.126,0.009l-0.133,0.01l-0.139,0.013l-0.145,0.014l-0.151,0.016l-0.156,0.019l-0.16,0.022l-0.165,0.024l-0.169,0.027l-0.172,0.03l-0.176,0.033l-0.179,0.036l-0.089,0.02l-0.091,0.02l-0.091,0.021l-0.092,0.022l-0.092,0.023l-0.092,0.024l-0.093,0.025l-0.093,0.026l-0.093,0.027l-0.093,0.028l-0.093,0.029l-0.094,0.03l-0.093,0.031l-0.094,0.032l-0.093,0.033l-0.093,0.035l-0.093,0.035l-0.093,0.037l-0.092,0.038l-0.092,0.039l-0.092,0.04l-0.092,0.041l-0.09,0.043l-0.091,0.044l-0.09,0.045l-0.089,0.046l-0.088,0.048l-0.088,0.049l-0.087,0.05l-0.086,0.051l-0.086,0.053l-0.084,0.055l-0.084,0.055l-0.082,0.057l-0.082,0.059l-0.081,0.06l-0.079,0.061l-0.078,0.063l-0.077,0.064l-0.076,0.065l-0.075,0.068l-0.073,0.068l-0.072,0.071l-0.07,0.071l-0.069,0.074l-0.068,0.075l-0.066,0.076l-0.065,0.078l-0.063,0.08l-0.061,0.082l-0.06,0.083l-0.058,0.085l-0.056,0.086l-0.055,0.089l-0.053,0.09l-0.051,0.092l-0.049,0.094l-0.047,0.096l-0.045,0.098l-0.043,0.1l-0.042,0.101l-0.039,0.104l-0.037,0.106l-0.034,0.108l-0.033,0.11l-0.03,0.112l-0.029,0.116l-0.013,0.057l-0.012,0.058l-0.012,0.059l-0.012,0.06l-0.01,0.06l-0.01,0.061l-0.01,0.062l-0.009,0.062l-0.008,0.063l-0.008,0.063l-0.006,0.064l-0.007,0.064l-0.005,0.065l-0.005,0.066l-0.004,0.066l-0.004,0.067l-0.003,0.068l-0.002,0.068l-0.001,0.068l-0.001,0.07l0,0.07l0,0.07l0.002,0.072l0.002,0.071l0.003,0.071l0.004,0.069l0.004,0.069l0.005,0.069l0.006,0.067l0.006,0.067l0.007,0.067l0.008,0.066l0.008,0.065l0.009,0.064l0.01,0.064l0.01,0.063l0.011,0.062l0.012,0.062l0.012,0.062l0.013,0.06l0.013,0.06l0.014,0.06l0.015,0.058l0.015,0.059l0.016,0.057l0.016,0.057l0.017,0.057l0.018,0.055l0.018,0.056l0.018,0.054l0.019,0.054l0.02,0.053l0.041,0.106l0.043,0.104l0.045,0.101l0.048,0.098l0.049,0.097l0.051,0.095l0.053,0.093l0.055,0.09l0.056,0.089l0.059,0.087l0.06,0.085l0.061,0.083l0.064,0.081l0.065,0.079l0.067,0.078l0.068,0.076l0.07,0.074l0.071,0.073l0.073,0.07l0.074,0.069l0.075,0.068l0.077,0.066l0.078,0.064l0.08,0.063l0.08,0.061l0.082,0.059l0.083,0.058l0.084,0.057l0.085,0.055l0.086,0.053l0.087,0.053l0.088,0.05l0.089,0.049l0.089,0.048l0.091,0.047l0.091,0.045l0.092,0.044l0.092,0.042l0.093,0.041l0.094,0.04l0.094,0.038l0.094,0.038l0.095,0.036l0.095,0.034l0.096,0.034l0.096,0.032l0.096,0.032l0.096,0.03l0.096,0.029l0.097,0.027l0.096,0.027l0.096,0.026l0.097,0.024l0.096,0.024l0.096,0.022l0.095,0.022l0.096,0.02l0.095,0.02l0.094,0.018l0.095,0.018l0.093,0.017l0.093,0.016l0.092,0.015l0.184,0.027l0.181,0.025l0.177,0.021l0.173,0.019l0.169,0.016l0.165,0.013l0.159,0.012l0.155,0.009l0.148,0.007l0.143,0.005l0.136,0.004l0.129,0.002l0.122,0.001l0.114,0l0.106,-0.002l0.098,-0.001l0.088,-0.003l0.034,-0.001l0,-0.351l-0.14,-0.005l-0.094,-0.004l-0.101,-0.006l-0.108,-0.007l-0.114,-0.008l-0.12,-0.01l-0.125,-0.011l-0.131,-0.013l-0.136,-0.015l-0.14,-0.017l-0.145,-0.018l-0.149,-0.022l-0.153,-0.023l-0.156,-0.026l-0.16,-0.028l-0.162,-0.032l-0.164,-0.034l-0.167,-0.037l-0.169,-0.04l-0.17,-0.043l-0.171,-0.047l-0.086,-0.024l-0.087,-0.026l-0.086,-0.026l-0.087,-0.028l-0.086,-0.028l-0.087,-0.029l-0.086,-0.031l-0.087,-0.031l-0.086,-0.032l-0.087,-0.034l-0.086,-0.034l-0.086,-0.036l-0.086,-0.036l-0.085,-0.038l-0.085,-0.039l-0.085,-0.039l-0.084,-0.042l-0.084,-0.042l-0.084,-0.043l-0.082,-0.045l-0.083,-0.046l-0.081,-0.047l-0.081,-0.049l-0.081,-0.05l-0.079,-0.051l-0.079,-0.052l-0.078,-0.054l-0.077,-0.056l-0.076,-0.056l-0.076,-0.059l-0.074,-0.059l-0.073,-0.061l-0.072,-0.063l-0.071,-0.064l-0.07,-0.066l-0.068,-0.067l-0.067,-0.069l-0.066,-0.07l-0.064,-0.072l-0.063,-0.073l-0.062,-0.076l-0.059,-0.076l-0.059,-0.079l-0.056,-0.08l-0.055,-0.082l-0.053,-0.083l-0.051,-0.086l-0.049,-0.086l-0.048,-0.089l-0.045,-0.09l-0.043,-0.092l-0.041,-0.094l-0.039,-0.096l-0.037,-0.097l-0.035,-0.098l-0.032,-0.101l-0.03,-0.102l-0.028,-0.104l-0.025,-0.106l-0.023,-0.107l-0.02,-0.109l-0.018,-0.111l-0.015,-0.112l-0.012,-0.114l-0.01,-0.116l-0.007,-0.117l-0.005,-0.12l-0.001,-0.12l0.001,-0.145l0.003,-0.142l0.006,-0.14l0.009,-0.137l0.011,-0.135l0.013,-0.133l0.016,-0.13l0.018,-0.128l0.021,-0.126l0.022,-0.124l0.026,-0.121l0.027,-0.119l0.029,-0.117l0.032,-0.115l0.034,-0.112l0.036,-0.111l0.038,-0.108l0.04,-0.106l0.042,-0.104l0.044,-0.101l0.046,-0.1l0.048,-0.097l0.049,-0.096l0.052,-0.093l0.053,-0.091l0.055,-0.089l0.056,-0.087l0.058,-0.085l0.06,-0.083l0.061,-0.081l0.062,-0.078l0.064,-0.077l0.065,-0.075l0.067,-0.073l0.067,-0.071l0.069,-0.069l0.07,-0.067l0.072,-0.065l0.072,-0.063l0.073,-0.062l0.074,-0.059l0.075,-0.058l0.076,-0.056l0.077,-0.054l0.077,-0.053l0.078,-0.051l0.079,-0.049l0.08,-0.048l0.08,-0.045l0.08,-0.045l0.081,-0.043l0.082,-0.041l0.082,-0.04l0.082,-0.038l0.082,-0.037l0.083,-0.035l0.083,-0.034l0.084,-0.033l0.083,-0.031l0.084,-0.03l0.083,-0.029l0.084,-0.027l0.083,-0.026l0.084,-0.025l0.083,-0.024l0.084,-0.023l0.083,-0.021l0.083,-0.021l0.083,-0.019l0.082,-0.019l0.083,-0.017l0.081,-0.016l0.082,-0.016l0.081,-0.014l0.081,-0.014l0.081,-0.013l0.157,-0.022l0.156,-0.02l0.154,-0.017l0.15,-0.013l0.147,-0.011l0.144,-0.009l0.139,-0.006l0.135,-0.004l0.131,-0.003l0.126,-0.001l0.121,0.001l0.115,0.002l0.109,0.004l0.104,0.004l0.097,0.005l0.091,0.005l0.081,0.006l0,-0.391l-0.009,0Z" style="fill:#476eb6;"/><path d="M310.257,82.882l0.286,1.455l0.288,1.448l0.289,1.442l0.291,1.436l0.291,1.429l0.356,1.73l-1.455,0.429l-0.434,-0.274l-0.048,-0.307l-0.05,-0.307l-0.05,-0.307l-0.051,-0.307l-0.052,-0.306l-0.052,-0.307l-0.054,-0.307l-0.054,-0.307l-0.055,-0.308l-0.056,-0.307l-0.057,-0.307l-0.058,-0.307l-0.059,-0.307l-0.06,-0.307l-0.06,-0.307l-0.062,-0.308l-0.063,-0.307l-0.064,-0.307l-0.065,-0.307l-0.065,-0.308l-0.067,-0.307l-0.068,-0.308l-0.069,-0.307l-0.07,-0.307l-0.072,-0.308l-0.072,-0.308l-0.074,-0.307l-0.075,-0.308l-0.076,-0.307l-0.001,-0.007l-0.082,0.173l-0.241,0.518l-0.24,0.521l-0.239,0.522l-0.237,0.525l-0.236,0.527l-0.234,0.529l-0.234,0.532l-0.231,0.534l-0.231,0.536l-0.229,0.538l-0.228,0.541l-0.227,0.543l-0.225,0.545l-0.311,0.76l-1.62,0l-0.185,-0.495l-0.102,-0.272l-0.104,-0.271l-0.105,-0.271l-0.105,-0.27l-0.107,-0.27l-0.108,-0.269l-0.108,-0.269l-0.11,-0.268l-0.111,-0.268l-0.111,-0.267l-0.113,-0.267l-0.113,-0.266l-0.115,-0.266l-0.115,-0.265l-0.117,-0.265l-0.117,-0.264l-0.119,-0.264l-0.119,-0.263l-0.12,-0.263l-0.121,-0.263l-0.122,-0.262l-0.123,-0.261l-0.124,-0.261l-0.125,-0.261l-0.126,-0.26l-0.126,-0.259l-0.128,-0.259l-0.091,-0.184l-0.067,0.302l-0.135,0.615l-0.133,0.615l-0.131,0.616l-0.129,0.615l-0.128,0.616l-0.126,0.616l-0.124,0.616l-0.124,0.616l-0.121,0.616l-0.12,0.616l-0.12,0.616l-0.117,0.617l-0.117,0.616l-0.186,0.988l-1.825,-0.538l0.154,-0.658l0.079,-0.347l0.079,-0.349l0.079,-0.351l0.078,-0.353l0.078,-0.355l0.076,-0.357l0.077,-0.358l0.076,-0.36l0.075,-0.362l0.075,-0.363l0.074,-0.363l0.147,-0.731l0.145,-0.733l0.142,-0.735l0.141,-0.736l0.138,-0.735l0.137,-0.734l0.135,-0.732l0.133,-0.728l0.131,-0.723l0.18,-1.002l1.785,0.024l0.311,0.814l0.23,0.592l0.114,0.293l0.116,0.292l0.115,0.291l0.116,0.288l0.116,0.288l0.117,0.285l0.117,0.284l0.117,0.283l0.118,0.281l0.119,0.279l0.119,0.278l0.12,0.276l0.121,0.275l0.122,0.272l0.122,0.272l0.123,0.269l0.124,0.268l0.125,0.267l0.126,0.264l0.127,0.263l0.128,0.262l0.129,0.259l0.13,0.259l0.132,0.256l0.132,0.255l0.085,0.161l0.226,-0.478l0.261,-0.547l0.262,-0.549l0.525,-1.099l0.263,-0.551l0.26,-0.552l0.259,-0.553l0.128,-0.277l0.127,-0.277l0.127,-0.276l0.125,-0.278l0.125,-0.277l0.123,-0.277l0.122,-0.278l0.121,-0.277l0.119,-0.278l0.117,-0.277l0.116,-0.278l0.115,-0.278l0.112,-0.278l0.197,-0.494l1.667,0l0.337,1.744l0.286,1.462Zm-1.36,-0.6l0.079,0.311l0.078,0.31l0.076,0.31l0.076,0.31l0.074,0.31l0.073,0.31l0.072,0.31l0.07,0.309l0.07,0.31l0.068,0.31l0.068,0.309l0.066,0.31l0.065,0.309l0.065,0.31l0.063,0.309l0.062,0.309l0.061,0.309l0.06,0.31l0.059,0.309l0.059,0.309l0.057,0.309l0.056,0.309l0.056,0.309l0.055,0.309l0.053,0.308l0.053,0.309l0.052,0.309l0.052,0.308l0.05,0.309l0.037,0.233l0.481,-0.142l-0.23,-1.116l-0.291,-1.43l-0.291,-1.437l-0.289,-1.443l-0.288,-1.45l-0.287,-1.456l-0.286,-1.462l-0.23,-1.193l-0.641,0l-0.026,0.066l-0.114,0.282l-0.116,0.281l-0.118,0.281l-0.118,0.281l-0.121,0.281l-0.122,0.28l-0.123,0.28l-0.124,0.28l-0.125,0.279l-0.127,0.279l-0.127,0.279l-0.128,0.278l-0.129,0.279l-0.26,0.555l-0.262,0.554l-0.262,0.552l-0.526,1.101l-0.262,0.548l-0.26,0.546l-0.258,0.544l-0.254,0.543l-0.609,0.019l-0.138,-0.253l-0.137,-0.255l-0.136,-0.257l-0.135,-0.259l-0.133,-0.26l-0.132,-0.262l-0.131,-0.263l-0.13,-0.265l-0.129,-0.267l-0.127,-0.268l-0.127,-0.269l-0.125,-0.272l-0.125,-0.272l-0.123,-0.274l-0.123,-0.276l-0.122,-0.278l-0.121,-0.278l-0.121,-0.281l-0.119,-0.281l-0.119,-0.284l-0.119,-0.284l-0.118,-0.287l-0.117,-0.287l-0.117,-0.29l-0.117,-0.29l-0.116,-0.292l-0.116,-0.294l-0.115,-0.295l-0.231,-0.594l-0.146,-0.384l-0.744,-0.01l-0.078,0.433l-0.131,0.724l-0.133,0.729l-0.135,0.733l-0.137,0.735l-0.139,0.737l-0.141,0.738l-0.143,0.737l-0.145,0.735l-0.147,0.733l-0.075,0.365l-0.075,0.365l-0.075,0.362l-0.076,0.362l-0.077,0.36l-0.077,0.359l-0.078,0.356l-0.079,0.355l-0.079,0.353l-0.079,0.351l-0.081,0.349l-0.007,0.032l0.483,0.142l0.046,-0.246l0.117,-0.618l0.118,-0.618l0.119,-0.617l0.121,-0.618l0.122,-0.617l0.123,-0.618l0.125,-0.617l0.127,-0.618l0.128,-0.617l0.129,-0.617l0.132,-0.618l0.133,-0.617l0.136,-0.617l0.137,-0.617l0.139,-0.617l0.637,-0.08l0.132,0.259l0.131,0.26l0.131,0.26l0.129,0.261l0.129,0.261l0.127,0.262l0.127,0.262l0.126,0.263l0.125,0.263l0.124,0.264l0.123,0.264l0.122,0.265l0.121,0.265l0.121,0.265l0.119,0.267l0.118,0.266l0.118,0.267l0.116,0.268l0.116,0.268l0.114,0.268l0.114,0.27l0.113,0.269l0.111,0.27l0.111,0.271l0.109,0.271l0.109,0.272l0.108,0.272l0.106,0.272l0.106,0.274l0.105,0.273l0.103,0.275l0.02,0.052l0.688,0l0.138,-0.337l0.226,-0.547l0.227,-0.545l0.229,-0.543l0.23,-0.541l0.232,-0.538l0.233,-0.536l0.234,-0.534l0.236,-0.532l0.237,-0.529l0.238,-0.527l0.24,-0.525l0.241,-0.523l0.242,-0.52l0.244,-0.518l0.244,-0.515l0.639,0.061l0.08,0.309Z" style="fill:#476eb6;"/><path d="M351.694,82.899l0.286,1.455l0.288,1.448l0.289,1.442l0.29,1.436l0.292,1.429l0.355,1.731l-1.455,0.428l-0.433,-0.274l-0.049,-0.307l-0.049,-0.307l-0.05,-0.307l-0.051,-0.307l-0.052,-0.306l-0.053,-0.307l-0.053,-0.307l-0.054,-0.307l-0.056,-0.307l-0.056,-0.308l-0.057,-0.307l-0.057,-0.307l-0.059,-0.307l-0.06,-0.307l-0.061,-0.307l-0.062,-0.307l-0.062,-0.308l-0.064,-0.307l-0.065,-0.307l-0.066,-0.308l-0.067,-0.307l-0.068,-0.308l-0.069,-0.307l-0.07,-0.307l-0.071,-0.308l-0.073,-0.308l-0.073,-0.307l-0.075,-0.308l-0.076,-0.307l-0.002,-0.007l-0.081,0.173l-0.242,0.518l-0.239,0.521l-0.239,0.522l-0.237,0.525l-0.236,0.527l-0.235,0.529l-0.233,0.532l-0.232,0.534l-0.23,0.536l-0.23,0.538l-0.228,0.541l-0.226,0.543l-0.225,0.545l-0.311,0.76l-1.62,0l-0.185,-0.495l-0.103,-0.272l-0.103,-0.271l-0.105,-0.271l-0.106,-0.27l-0.107,-0.27l-0.107,-0.269l-0.109,-0.269l-0.109,-0.268l-0.111,-0.268l-0.112,-0.267l-0.112,-0.267l-0.114,-0.266l-0.114,-0.266l-0.116,-0.265l-0.116,-0.265l-0.118,-0.264l-0.118,-0.264l-0.119,-0.263l-0.12,-0.263l-0.122,-0.263l-0.122,-0.262l-0.123,-0.261l-0.123,-0.261l-0.125,-0.261l-0.126,-0.26l-0.127,-0.259l-0.127,-0.259l-0.091,-0.184l-0.067,0.302l-0.135,0.615l-0.133,0.615l-0.131,0.616l-0.13,0.615l-0.127,0.616l-0.126,0.616l-0.125,0.616l-0.123,0.616l-0.122,0.616l-0.12,0.616l-0.119,0.616l-0.118,0.617l-0.117,0.616l-0.185,0.988l-1.826,-0.538l0.154,-0.658l0.08,-0.347l0.079,-0.349l0.079,-0.351l0.078,-0.353l0.077,-0.355l0.077,-0.357l0.076,-0.358l0.076,-0.36l0.076,-0.362l0.074,-0.363l0.075,-0.363l0.146,-0.731l0.145,-0.733l0.143,-0.735l0.14,-0.736l0.139,-0.735l0.137,-0.734l0.135,-0.732l0.132,-0.728l0.131,-0.723l0.181,-1.002l1.784,0.024l0.312,0.814l0.229,0.592l0.115,0.293l0.115,0.292l0.116,0.291l0.116,0.288l0.116,0.288l0.116,0.285l0.117,0.284l0.118,0.283l0.118,0.281l0.119,0.279l0.119,0.278l0.12,0.276l0.121,0.275l0.121,0.272l0.123,0.272l0.123,0.269l0.124,0.268l0.125,0.267l0.126,0.264l0.126,0.263l0.128,0.262l0.13,0.26l0.13,0.258l0.131,0.256l0.133,0.255l0.085,0.161l0.226,-0.478l0.26,-0.547l0.263,-0.549l0.525,-1.099l0.262,-0.551l0.261,-0.552l0.258,-0.553l0.129,-0.277l0.127,-0.277l0.126,-0.276l0.126,-0.278l0.124,-0.277l0.124,-0.277l0.122,-0.278l0.12,-0.277l0.119,-0.278l0.118,-0.277l0.116,-0.278l0.114,-0.278l0.113,-0.278l0.196,-0.494l1.667,0l0.338,1.745l0.286,1.461Zm-1.36,-0.6l0.079,0.311l0.078,0.31l0.076,0.31l0.075,0.31l0.075,0.31l0.073,0.31l0.071,0.31l0.071,0.309l0.07,0.31l0.068,0.31l0.067,0.309l0.067,0.31l0.065,0.309l0.064,0.31l0.063,0.309l0.063,0.309l0.061,0.31l0.06,0.309l0.059,0.309l0.058,0.309l0.058,0.309l0.056,0.309l0.056,0.309l0.054,0.309l0.054,0.308l0.053,0.309l0.052,0.309l0.051,0.308l0.051,0.309l0.037,0.233l0.48,-0.142l-0.229,-1.116l-0.292,-1.43l-0.29,-1.437l-0.289,-1.443l-0.288,-1.45l-0.287,-1.456l-0.286,-1.462l-0.231,-1.193l-0.641,0l-0.026,0.066l-0.114,0.282l-0.115,0.281l-0.118,0.281l-0.119,0.281l-0.12,0.281l-0.122,0.28l-0.123,0.28l-0.124,0.28l-0.126,0.279l-0.126,0.279l-0.128,0.279l-0.128,0.278l-0.129,0.279l-0.259,0.555l-0.262,0.554l-0.263,0.552l-0.526,1.101l-0.261,0.548l-0.26,0.546l-0.258,0.544l-0.254,0.543l-0.609,0.019l-0.138,-0.253l-0.138,-0.255l-0.136,-0.257l-0.134,-0.259l-0.134,-0.26l-0.132,-0.262l-0.131,-0.263l-0.129,-0.265l-0.129,-0.267l-0.128,-0.268l-0.126,-0.269l-0.125,-0.272l-0.125,-0.272l-0.124,-0.274l-0.122,-0.276l-0.122,-0.278l-0.121,-0.278l-0.121,-0.281l-0.12,-0.281l-0.119,-0.284l-0.118,-0.284l-0.118,-0.287l-0.118,-0.287l-0.117,-0.29l-0.116,-0.29l-0.116,-0.292l-0.116,-0.294l-0.116,-0.295l-0.23,-0.594l-0.147,-0.384l-0.743,-0.01l-0.078,0.433l-0.131,0.724l-0.133,0.729l-0.135,0.733l-0.137,0.735l-0.139,0.737l-0.141,0.738l-0.143,0.737l-0.145,0.735l-0.147,0.733l-0.075,0.366l-0.075,0.364l-0.076,0.362l-0.076,0.362l-0.076,0.36l-0.078,0.359l-0.078,0.356l-0.078,0.355l-0.079,0.353l-0.08,0.351l-0.08,0.349l-0.007,0.032l0.482,0.142l0.047,-0.246l0.117,-0.618l0.118,-0.617l0.119,-0.618l0.121,-0.618l0.122,-0.617l0.123,-0.618l0.125,-0.617l0.126,-0.618l0.128,-0.617l0.13,-0.617l0.132,-0.618l0.133,-0.617l0.135,-0.617l0.138,-0.617l0.139,-0.617l0.637,-0.08l0.132,0.259l0.131,0.26l0.13,0.26l0.13,0.261l0.128,0.261l0.128,0.262l0.127,0.262l0.126,0.263l0.125,0.263l0.124,0.264l0.123,0.264l0.122,0.265l0.121,0.265l0.12,0.265l0.12,0.267l0.118,0.266l0.118,0.267l0.116,0.268l0.115,0.268l0.115,0.268l0.114,0.27l0.112,0.269l0.112,0.27l0.11,0.271l0.11,0.271l0.109,0.272l0.107,0.272l0.107,0.273l0.106,0.273l0.104,0.273l0.104,0.275l0.019,0.052l0.688,0l0.138,-0.337l0.227,-0.547l0.227,-0.545l0.229,-0.543l0.23,-0.541l0.232,-0.538l0.233,-0.536l0.234,-0.534l0.235,-0.532l0.237,-0.529l0.239,-0.527l0.239,-0.525l0.241,-0.523l0.243,-0.52l0.243,-0.518l0.245,-0.515l0.639,0.061l0.08,0.309Z" style="fill:#476eb6;"/><path d="M183.022,81.413l-0.119,-0.006l-0.118,-0.006l-0.117,-0.005l-0.115,-0.004l-0.115,-0.003l-0.113,-0.002l-0.112,-0.001l-0.111,0l-0.109,0.001l-0.108,0.002l-0.107,0.003l-0.105,0.004l-0.104,0.006l-0.102,0.006l-0.1,0.008l-0.099,0.009l-0.097,0.01l-0.096,0.011l-0.093,0.013l-0.092,0.014l-0.09,0.015l-0.088,0.017l-0.085,0.017l-0.084,0.019l-0.082,0.021l-0.08,0.022l-0.077,0.023l-0.076,0.024l-0.073,0.026l-0.07,0.026l-0.069,0.029l-0.066,0.029l-0.063,0.031l-0.062,0.032l-0.059,0.033l-0.056,0.035l-0.054,0.036l-0.052,0.037l-0.05,0.04l-0.023,0.018l-0.023,0.02l-0.023,0.02l-0.022,0.021l-0.021,0.021l-0.021,0.021l-0.021,0.022l-0.02,0.022l-0.019,0.023l-0.019,0.022l-0.018,0.023l-0.017,0.024l-0.018,0.024l-0.016,0.024l-0.016,0.025l-0.016,0.025l-0.015,0.026l-0.015,0.026l-0.014,0.027l-0.013,0.027l-0.013,0.027l-0.013,0.029l-0.012,0.028l-0.011,0.03l-0.011,0.03l-0.011,0.03l-0.01,0.031l-0.009,0.032l-0.009,0.032l-0.008,0.033l-0.008,0.034l-0.007,0.034l-0.006,0.035l-0.006,0.035l-0.006,0.037l-0.004,0.037l-0.004,0.038l-0.004,0.038l-0.003,0.039l-0.002,0.04l-0.001,0.041l-0.001,0.041l0,0.043l0,0.043l0.002,0.043l0.002,0.043l0.003,0.041l0.004,0.038l0.005,0.038l0.007,0.037l0.008,0.036l0.009,0.035l0.01,0.035l0.012,0.035l0.012,0.034l0.014,0.033l0.015,0.034l0.017,0.033l0.017,0.033l0.019,0.032l0.021,0.033l0.021,0.032l0.023,0.032l0.024,0.032l0.025,0.032l0.026,0.032l0.028,0.031l0.029,0.032l0.031,0.031l0.031,0.031l0.033,0.031l0.034,0.031l0.036,0.031l0.036,0.031l0.038,0.03l0.038,0.031l0.04,0.03l0.041,0.03l0.042,0.03l0.042,0.029l0.09,0.06l0.093,0.059l0.096,0.058l0.099,0.058l0.102,0.057l0.105,0.057l0.108,0.057l0.11,0.057l0.111,0.056l0.23,0.114l0.234,0.114l0.237,0.117l0.239,0.119l0.119,0.061l0.119,0.062l0.119,0.063l0.118,0.065l0.117,0.066l0.116,0.067l0.114,0.07l0.113,0.072l0.11,0.073l0.055,0.038l0.054,0.039l0.054,0.039l0.053,0.039l0.052,0.04l0.052,0.041l0.051,0.042l0.05,0.043l0.05,0.043l0.048,0.044l0.048,0.045l0.047,0.046l0.046,0.046l0.045,0.048l0.044,0.048l0.044,0.049l0.042,0.051l0.04,0.051l0.04,0.052l0.039,0.053l0.037,0.055l0.036,0.055l0.035,0.057l0.033,0.057l0.032,0.059l0.03,0.059l0.029,0.061l0.027,0.061l0.025,0.063l0.024,0.064l0.022,0.065l0.02,0.066l0.019,0.067l0.016,0.068l0.015,0.069l0.012,0.07l0.011,0.07l0.009,0.072l0.007,0.073l0.004,0.074l0.003,0.074l0.001,0.075l-0.002,0.08l-0.002,0.079l-0.004,0.078l-0.004,0.077l-0.007,0.076l-0.007,0.075l-0.009,0.074l-0.009,0.074l-0.012,0.072l-0.012,0.072l-0.013,0.071l-0.015,0.07l-0.016,0.069l-0.017,0.068l-0.019,0.067l-0.02,0.066l-0.02,0.066l-0.022,0.064l-0.024,0.064l-0.024,0.063l-0.026,0.062l-0.026,0.061l-0.028,0.06l-0.029,0.059l-0.03,0.058l-0.032,0.058l-0.032,0.056l-0.033,0.055l-0.035,0.055l-0.035,0.054l-0.037,0.052l-0.038,0.052l-0.039,0.051l-0.039,0.05l-0.041,0.049l-0.042,0.048l-0.042,0.047l-0.044,0.046l-0.044,0.045l-0.046,0.044l-0.046,0.043l-0.047,0.043l-0.048,0.041l-0.049,0.041l-0.049,0.039l-0.051,0.039l-0.051,0.038l-0.052,0.037l-0.053,0.036l-0.053,0.035l-0.054,0.034l-0.055,0.034l-0.056,0.032l-0.056,0.032l-0.057,0.031l-0.058,0.03l-0.058,0.03l-0.059,0.028l-0.059,0.028l-0.061,0.027l-0.06,0.026l-0.062,0.026l-0.062,0.024l-0.062,0.024l-0.063,0.024l-0.064,0.022l-0.064,0.022l-0.065,0.021l-0.065,0.021l-0.067,0.02l-0.133,0.037l-0.135,0.035l-0.137,0.033l-0.139,0.03l-0.141,0.028l-0.143,0.025l-0.145,0.023l-0.146,0.021l-0.148,0.019l-0.149,0.016l-0.151,0.015l-0.152,0.013l-0.154,0.01l-0.155,0.009l-0.156,0.008l-0.158,0.005l-0.159,0.004l-0.159,0.002l-0.161,0l-0.162,-0.001l-0.163,-0.002l-0.163,-0.004l-0.165,-0.006l-0.165,-0.006l-0.166,-0.008l-0.166,-0.009l-0.167,-0.011l-0.167,-0.011l-0.483,-0.036l0,-1.652l0.389,-0.338l0.142,0.02l0.139,0.019l0.138,0.017l0.138,0.017l0.135,0.015l0.135,0.014l0.133,0.013l0.132,0.012l0.13,0.011l0.129,0.009l0.127,0.008l0.126,0.007l0.124,0.005l0.122,0.004l0.121,0.003l0.119,0.001l0.117,-0.001l0.115,-0.001l0.113,-0.004l0.111,-0.004l0.11,-0.006l0.107,-0.008l0.105,-0.009l0.103,-0.011l0.1,-0.012l0.098,-0.014l0.096,-0.016l0.094,-0.017l0.091,-0.019l0.089,-0.02l0.086,-0.022l0.083,-0.023l0.081,-0.025l0.078,-0.026l0.075,-0.028l0.073,-0.03l0.07,-0.031l0.068,-0.033l0.032,-0.016l0.031,-0.018l0.032,-0.017l0.03,-0.018l0.03,-0.018l0.029,-0.019l0.028,-0.019l0.028,-0.019l0.027,-0.02l0.026,-0.02l0.025,-0.02l0.025,-0.021l0.025,-0.021l0.023,-0.022l0.023,-0.021l0.022,-0.023l0.022,-0.022l0.021,-0.023l0.02,-0.024l0.02,-0.024l0.019,-0.024l0.019,-0.024l0.018,-0.026l0.017,-0.025l0.017,-0.026l0.016,-0.027l0.016,-0.027l0.015,-0.027l0.014,-0.029l0.014,-0.028l0.014,-0.03l0.012,-0.029l0.013,-0.031l0.011,-0.031l0.011,-0.032l0.01,-0.032l0.01,-0.033l0.009,-0.034l0.009,-0.035l0.008,-0.035l0.007,-0.036l0.006,-0.036l0.006,-0.038l0.005,-0.038l0.005,-0.039l0.004,-0.04l0.003,-0.04l0.002,-0.042l0.002,-0.042l0.001,-0.043l0,-0.044l-0.001,-0.042l-0.001,-0.038l-0.003,-0.035l-0.004,-0.035l-0.006,-0.033l-0.006,-0.033l-0.008,-0.033l-0.009,-0.032l-0.01,-0.031l-0.012,-0.032l-0.013,-0.031l-0.013,-0.031l-0.016,-0.031l-0.016,-0.03l-0.018,-0.031l-0.019,-0.03l-0.02,-0.031l-0.022,-0.03l-0.023,-0.031l-0.024,-0.03l-0.026,-0.03l-0.027,-0.031l-0.029,-0.03l-0.03,-0.03l-0.031,-0.03l-0.032,-0.03l-0.034,-0.03l-0.035,-0.03l-0.036,-0.03l-0.037,-0.03l-0.039,-0.029l-0.039,-0.03l-0.041,-0.029l-0.042,-0.03l-0.042,-0.029l-0.09,-0.058l-0.093,-0.058l-0.097,-0.058l-0.099,-0.057l-0.103,-0.057l-0.106,-0.057l-0.109,-0.057l-0.11,-0.057l-0.113,-0.057l-0.231,-0.114l-0.237,-0.116l-0.239,-0.118l-0.121,-0.06l-0.121,-0.061l-0.12,-0.062l-0.121,-0.063l-0.12,-0.065l-0.119,-0.066l-0.118,-0.067l-0.117,-0.07l-0.116,-0.071l-0.113,-0.073l-0.112,-0.075l-0.056,-0.039l-0.054,-0.04l-0.054,-0.039l-0.054,-0.041l-0.053,-0.041l-0.052,-0.042l-0.051,-0.043l-0.051,-0.043l-0.05,-0.044l-0.049,-0.045l-0.048,-0.046l-0.047,-0.047l-0.047,-0.047l-0.045,-0.049l-0.044,-0.049l-0.044,-0.05l-0.042,-0.052l-0.041,-0.052l-0.04,-0.053l-0.039,-0.054l-0.037,-0.055l-0.036,-0.057l-0.035,-0.057l-0.033,-0.058l-0.032,-0.06l-0.03,-0.06l-0.029,-0.062l-0.027,-0.063l-0.025,-0.063l-0.024,-0.065l-0.021,-0.066l-0.02,-0.067l-0.019,-0.068l-0.016,-0.068l-0.014,-0.07l-0.012,-0.071l-0.011,-0.072l-0.008,-0.072l-0.006,-0.074l-0.004,-0.074l-0.002,-0.076l0,-0.075l0.001,-0.074l0.003,-0.073l0.003,-0.071l0.005,-0.071l0.005,-0.071l0.007,-0.069l0.007,-0.069l0.008,-0.068l0.01,-0.067l0.01,-0.066l0.011,-0.066l0.012,-0.065l0.014,-0.064l0.014,-0.064l0.015,-0.062l0.016,-0.062l0.017,-0.062l0.017,-0.06l0.019,-0.06l0.02,-0.059l0.021,-0.058l0.022,-0.058l0.022,-0.057l0.024,-0.056l0.024,-0.055l0.026,-0.055l0.026,-0.054l0.027,-0.053l0.029,-0.052l0.029,-0.052l0.03,-0.05l0.031,-0.05l0.031,-0.049l0.033,-0.049l0.034,-0.047l0.034,-0.047l0.035,-0.046l0.036,-0.046l0.037,-0.044l0.038,-0.044l0.038,-0.043l0.04,-0.042l0.04,-0.041l0.041,-0.04l0.041,-0.04l0.043,-0.039l0.043,-0.038l0.044,-0.037l0.044,-0.037l0.045,-0.036l0.046,-0.035l0.047,-0.034l0.047,-0.033l0.048,-0.033l0.049,-0.032l0.049,-0.031l0.05,-0.03l0.051,-0.03l0.051,-0.029l0.052,-0.028l0.052,-0.028l0.053,-0.027l0.053,-0.026l0.055,-0.025l0.054,-0.025l0.055,-0.024l0.056,-0.024l0.058,-0.023l0.113,-0.043l0.116,-0.041l0.119,-0.039l0.12,-0.036l0.123,-0.034l0.125,-0.031l0.126,-0.029l0.129,-0.027l0.13,-0.025l0.132,-0.023l0.134,-0.02l0.136,-0.019l0.138,-0.017l0.139,-0.015l0.141,-0.013l0.143,-0.011l0.145,-0.009l0.146,-0.008l0.148,-0.006l0.149,-0.004l0.151,-0.003l0.153,-0.001l0.154,0l0.155,0.002l0.157,0.003l0.158,0.005l0.16,0.006l0.161,0.007l0.163,0.009l0.483,0.029l0,1.717l-0.487,-0.033l-0.119,-0.008Zm-1.129,-1.054l-0.144,0.003l-0.142,0.004l-0.139,0.006l-0.138,0.007l-0.136,0.009l-0.134,0.01l-0.131,0.013l-0.13,0.013l-0.127,0.016l-0.125,0.017l-0.123,0.019l-0.12,0.021l-0.118,0.022l-0.116,0.024l-0.113,0.027l-0.111,0.027l-0.108,0.03l-0.106,0.032l-0.103,0.033l-0.1,0.036l-0.099,0.037l-0.047,0.019l-0.047,0.02l-0.046,0.021l-0.046,0.02l-0.045,0.022l-0.045,0.021l-0.044,0.022l-0.043,0.023l-0.042,0.023l-0.042,0.024l-0.041,0.024l-0.04,0.025l-0.04,0.025l-0.039,0.025l-0.038,0.027l-0.038,0.026l-0.037,0.027l-0.036,0.028l-0.036,0.028l-0.035,0.029l-0.034,0.029l-0.034,0.029l-0.032,0.031l-0.033,0.03l-0.031,0.032l-0.031,0.031l-0.03,0.033l-0.03,0.033l-0.029,0.033l-0.028,0.034l-0.028,0.035l-0.027,0.035l-0.026,0.036l-0.026,0.037l-0.025,0.037l-0.024,0.038l-0.024,0.038l-0.023,0.039l-0.023,0.04l-0.022,0.04l-0.021,0.042l-0.02,0.042l-0.02,0.042l-0.02,0.044l-0.018,0.044l-0.018,0.045l-0.017,0.045l-0.017,0.047l-0.016,0.047l-0.015,0.048l-0.014,0.049l-0.014,0.05l-0.013,0.05l-0.012,0.052l-0.012,0.052l-0.011,0.053l-0.01,0.054l-0.009,0.055l-0.009,0.056l-0.008,0.057l-0.007,0.057l-0.006,0.059l-0.005,0.059l-0.005,0.06l-0.004,0.062l-0.003,0.062l-0.002,0.063l-0.002,0.063l0,0.058l0.002,0.056l0.003,0.055l0.004,0.054l0.006,0.053l0.008,0.052l0.009,0.051l0.01,0.05l0.012,0.049l0.012,0.048l0.015,0.048l0.015,0.047l0.017,0.046l0.018,0.045l0.019,0.045l0.021,0.044l0.022,0.044l0.023,0.043l0.024,0.042l0.025,0.042l0.027,0.042l0.028,0.041l0.029,0.041l0.03,0.04l0.032,0.04l0.032,0.04l0.034,0.039l0.035,0.038l0.036,0.039l0.037,0.038l0.038,0.037l0.039,0.038l0.04,0.037l0.042,0.036l0.042,0.036l0.043,0.036l0.044,0.036l0.045,0.035l0.046,0.035l0.047,0.034l0.048,0.035l0.048,0.033l0.1,0.068l0.102,0.065l0.105,0.065l0.107,0.064l0.11,0.062l0.112,0.062l0.113,0.061l0.114,0.06l0.116,0.06l0.117,0.059l0.118,0.059l0.237,0.116l0.237,0.116l0.235,0.117l0.117,0.059l0.115,0.059l0.115,0.06l0.113,0.06l0.111,0.062l0.109,0.063l0.108,0.064l0.105,0.065l0.101,0.067l0.051,0.035l0.05,0.034l0.049,0.036l0.048,0.036l0.047,0.036l0.046,0.037l0.046,0.038l0.045,0.038l0.043,0.039l0.043,0.04l0.042,0.04l0.041,0.042l0.04,0.042l0.038,0.043l0.038,0.044l0.036,0.045l0.035,0.046l0.033,0.047l0.032,0.048l0.031,0.049l0.029,0.05l0.027,0.051l0.026,0.052l0.024,0.053l0.022,0.055l0.02,0.055l0.018,0.056l0.016,0.057l0.014,0.058l0.012,0.059l0.01,0.06l0.007,0.061l0.005,0.061l0.002,0.06l0.001,0.058l0,0.056l-0.001,0.055l-0.002,0.055l-0.003,0.054l-0.004,0.054l-0.005,0.053l-0.006,0.052l-0.007,0.052l-0.008,0.052l-0.01,0.051l-0.01,0.05l-0.011,0.05l-0.012,0.049l-0.013,0.048l-0.014,0.048l-0.015,0.047l-0.016,0.047l-0.017,0.046l-0.019,0.046l-0.019,0.045l-0.02,0.044l-0.021,0.043l-0.022,0.043l-0.023,0.042l-0.024,0.042l-0.025,0.04l-0.025,0.04l-0.027,0.04l-0.028,0.038l-0.028,0.038l-0.029,0.037l-0.031,0.036l-0.031,0.036l-0.031,0.035l-0.033,0.034l-0.033,0.033l-0.034,0.033l-0.035,0.032l-0.036,0.031l-0.036,0.03l-0.037,0.029l-0.038,0.029l-0.038,0.028l-0.039,0.027l-0.04,0.027l-0.04,0.026l-0.041,0.025l-0.042,0.024l-0.042,0.024l-0.042,0.023l-0.045,0.023l-0.087,0.042l-0.09,0.04l-0.092,0.038l-0.095,0.035l-0.096,0.033l-0.098,0.03l-0.1,0.028l-0.103,0.026l-0.104,0.024l-0.105,0.021l-0.108,0.02l-0.109,0.017l-0.111,0.016l-0.113,0.014l-0.115,0.012l-0.116,0.01l-0.117,0.009l-0.12,0.007l-0.121,0.005l-0.122,0.003l-0.124,0.002l-0.126,0l-0.127,-0.001l-0.128,-0.003l-0.13,-0.004l-0.131,-0.006l-0.132,-0.007l-0.134,-0.008l-0.135,-0.01l-0.136,-0.011l-0.138,-0.012l-0.138,-0.014l-0.14,-0.014l-0.141,-0.016l-0.142,-0.017l-0.041,-0.006l0,0.627l0.012,0.001l0.162,0.01l0.162,0.009l0.16,0.008l0.16,0.006l0.159,0.005l0.158,0.004l0.156,0.003l0.156,0.001l0.154,-0.001l0.153,-0.002l0.151,-0.003l0.15,-0.006l0.149,-0.006l0.146,-0.009l0.146,-0.01l0.143,-0.012l0.141,-0.014l0.14,-0.015l0.137,-0.018l0.135,-0.019l0.133,-0.021l0.131,-0.023l0.129,-0.026l0.126,-0.027l0.124,-0.029l0.121,-0.032l0.12,-0.033l0.057,-0.018l0.058,-0.018l0.057,-0.018l0.056,-0.02l0.056,-0.019l0.054,-0.02l0.055,-0.021l0.053,-0.022l0.053,-0.021l0.051,-0.023l0.052,-0.023l0.05,-0.023l0.05,-0.024l0.049,-0.025l0.048,-0.025l0.047,-0.026l0.047,-0.026l0.046,-0.027l0.045,-0.028l0.044,-0.028l0.043,-0.028l0.043,-0.029l0.042,-0.03l0.041,-0.03l0.04,-0.031l0.039,-0.032l0.039,-0.032l0.038,-0.032l0.037,-0.034l0.036,-0.034l0.035,-0.034l0.035,-0.035l0.034,-0.036l0.033,-0.036l0.032,-0.038l0.031,-0.037l0.031,-0.039l0.03,-0.039l0.029,-0.04l0.028,-0.04l0.027,-0.041l0.027,-0.042l0.026,-0.043l0.025,-0.044l0.024,-0.044l0.023,-0.045l0.023,-0.046l0.021,-0.047l0.021,-0.047l0.02,-0.049l0.02,-0.049l0.018,-0.051l0.017,-0.051l0.017,-0.052l0.016,-0.053l0.014,-0.054l0.014,-0.055l0.013,-0.056l0.012,-0.057l0.011,-0.058l0.011,-0.059l0.009,-0.06l0.008,-0.061l0.007,-0.063l0.006,-0.063l0.006,-0.064l0.004,-0.066l0.003,-0.066l0.002,-0.068l0.001,-0.067l0,-0.058l-0.002,-0.055l-0.004,-0.055l-0.005,-0.053l-0.006,-0.052l-0.008,-0.051l-0.009,-0.05l-0.01,-0.05l-0.012,-0.048l-0.013,-0.048l-0.015,-0.046l-0.015,-0.046l-0.017,-0.045l-0.018,-0.045l-0.019,-0.044l-0.021,-0.043l-0.022,-0.043l-0.023,-0.042l-0.024,-0.042l-0.025,-0.041l-0.026,-0.041l-0.028,-0.04l-0.029,-0.04l-0.03,-0.039l-0.031,-0.04l-0.032,-0.038l-0.034,-0.038l-0.034,-0.038l-0.036,-0.038l-0.037,-0.037l-0.037,-0.037l-0.039,-0.036l-0.04,-0.036l-0.041,-0.036l-0.042,-0.035l-0.042,-0.035l-0.044,-0.035l-0.045,-0.034l-0.045,-0.034l-0.047,-0.034l-0.047,-0.033l-0.047,-0.033l-0.099,-0.066l-0.102,-0.064l-0.103,-0.064l-0.107,-0.062l-0.108,-0.061l-0.111,-0.061l-0.112,-0.059l-0.113,-0.06l-0.115,-0.058l-0.233,-0.116l-0.235,-0.115l-0.236,-0.116l-0.233,-0.115l-0.117,-0.059l-0.115,-0.06l-0.114,-0.06l-0.112,-0.061l-0.111,-0.062l-0.11,-0.064l-0.107,-0.065l-0.105,-0.066l-0.102,-0.068l-0.051,-0.036l-0.05,-0.035l-0.049,-0.036l-0.048,-0.037l-0.047,-0.037l-0.047,-0.038l-0.046,-0.039l-0.045,-0.039l-0.044,-0.04l-0.043,-0.041l-0.042,-0.042l-0.041,-0.042l-0.041,-0.043l-0.038,-0.045l-0.038,-0.045l-0.037,-0.046l-0.035,-0.047l-0.034,-0.048l-0.033,-0.049l-0.031,-0.051l-0.03,-0.051l-0.028,-0.052l-0.026,-0.053l-0.025,-0.055l-0.023,-0.055l-0.021,-0.057l-0.019,-0.057l-0.017,-0.058l-0.016,-0.06l-0.013,-0.06l-0.011,-0.061l-0.009,-0.062l-0.006,-0.062l-0.005,-0.062l-0.002,-0.057l-0.002,-0.054l-0.001,-0.054l0,-0.054l0.001,-0.053l0.002,-0.052l0.003,-0.052l0.004,-0.052l0.004,-0.05l0.006,-0.051l0.006,-0.05l0.007,-0.049l0.008,-0.049l0.009,-0.048l0.01,-0.048l0.011,-0.047l0.012,-0.047l0.012,-0.046l0.014,-0.045l0.014,-0.045l0.015,-0.045l0.017,-0.044l0.016,-0.043l0.018,-0.043l0.019,-0.042l0.02,-0.041l0.02,-0.041l0.021,-0.041l0.023,-0.039l0.022,-0.039l0.024,-0.039l0.025,-0.037l0.025,-0.038l0.026,-0.036l0.027,-0.036l0.028,-0.035l0.028,-0.034l0.029,-0.034l0.03,-0.033l0.03,-0.033l0.032,-0.031l0.031,-0.031l0.033,-0.031l0.033,-0.029l0.034,-0.03l0.035,-0.029l0.069,-0.054l0.073,-0.052l0.075,-0.049l0.077,-0.048l0.079,-0.044l0.081,-0.043l0.082,-0.04l0.085,-0.037l0.086,-0.036l0.088,-0.034l0.089,-0.031l0.092,-0.029l0.092,-0.028l0.095,-0.026l0.095,-0.024l0.098,-0.022l0.098,-0.02l0.101,-0.019l0.101,-0.017l0.103,-0.016l0.104,-0.014l0.106,-0.012l0.107,-0.011l0.108,-0.01l0.109,-0.009l0.111,-0.007l0.111,-0.006l0.113,-0.004l0.114,-0.003l0.115,-0.003l0.116,-0.001l0.117,0l0.118,0.001l0.119,0.003l0.12,0.003l0.121,0.004l0.122,0.005l0.122,0.006l0.007,0l0,-0.344l-0.153,-0.007l-0.154,-0.006l-0.152,-0.004l-0.151,-0.004l-0.149,-0.001l-0.148,-0.001l-0.145,0.001Z" style="fill:#476eb6;"/><path d="M220.172,79.678l0.82,0.006l0.45,0.004l0.457,0.003l0.463,0.002l0.471,0.001l0.764,-0.001l0.69,-0.002l0.615,-0.003l0.54,-0.004l1.09,-0.008l0.344,0.341l0,1.213l-0.344,0.341l-0.306,-0.003l-0.749,-0.01l-0.513,-0.005l-0.573,-0.004l-0.632,-0.003l-0.691,-0.001l-0.622,0.001l-0.61,0.004l-0.543,0.002l-0.076,0.001l0,0.154l-0.004,0.495l-0.005,0.493l-0.007,0.493l-0.008,0.483l-0.004,0.469l-0.003,0.456l0,0.102l0.071,0l0.482,0.004l0.488,0.003l0.429,0.001l0.719,-0.001l0.679,-0.002l0.639,-0.004l0.6,-0.006l0.892,-0.011l0.346,-0.003l0.345,0.341l0,1.205l-0.344,0.341l-0.38,-0.003l-1.005,-0.01l-0.645,-0.004l-0.615,-0.004l-0.587,-0.002l-0.559,-0.001l-0.441,0.001l-0.519,0.004l-0.515,0.001l-0.081,0l0,0.441l0.002,0.697l0.002,0.612l0.004,0.527l0.008,0.89l0.004,0.402l0.215,0.003l0.312,0.003l0.339,0.003l0.731,0.002l0.786,0.001l0.601,-0.001l0.55,-0.001l0.5,-0.003l0.45,-0.003l0.663,-0.008l0.289,-0.002l0.344,0.341l0,1.215l-0.154,0.153l-0.19,0.188l-1.117,-0.01l-0.549,-0.003l-0.613,-0.003l-0.675,-0.001l-0.736,-0.001l-0.522,0.001l-0.499,0.001l-0.476,0.003l-0.453,0.003l-0.426,0.005l-0.393,0.003l-0.358,0.002l-0.324,0l-0.342,-0.351l0.004,-0.144l0.004,-0.18l0.008,-0.472l0.007,-0.621l0.007,-0.769l0.005,-0.848l0.004,-0.863l0.002,-0.878l0,-0.891l0,-0.534l-0.002,-0.613l-0.004,-1.465l-0.006,-0.818l-0.007,-0.832l-0.01,-0.846l-0.012,-0.861l0.342,-0.346l0.317,0l0.355,0.002Zm-0.319,1.196l0.009,0.848l0.008,0.834l0.006,0.82l0.004,1.466l0.001,0.614l0.001,0.535l-0.001,0.892l-0.002,0.879l-0.003,0.864l-0.005,0.85l-0.007,0.771l-0.008,0.623l-0.007,0.455l0.329,-0.002l0.391,-0.003l0.426,-0.004l0.455,-0.004l0.477,-0.002l0.5,-0.002l0.524,0l0.738,0l0.675,0.002l0.614,0.002l0.552,0.004l0.773,0.007l0,-0.526l-0.607,0.006l-0.452,0.004l-0.502,0.002l-0.552,0.002l-0.602,0l-0.787,-0.001l-0.734,-0.002l-0.341,-0.003l-0.315,-0.003l-0.288,-0.004l-0.593,-0.01l-0.012,-1.066l-0.008,-0.891l-0.003,-0.529l-0.003,-0.613l-0.001,-0.699l-0.001,-0.783l0.341,-0.341l0.422,-0.001l0.512,-0.001l0.52,-0.004l0.444,-0.001l0.561,0.001l0.588,0.002l0.617,0.004l0.646,0.005l1.005,0.01l0.036,0l0,-0.516l-0.002,0l-0.892,0.011l-0.601,0.005l-0.642,0.004l-0.68,0.003l-0.721,0.001l-0.433,-0.001l-0.489,-0.004l-0.481,-0.004l-0.41,-0.001l-0.341,-0.342l0.001,-0.444l0.003,-0.459l0.005,-0.472l0.007,-0.484l0.007,-0.491l0.006,-0.491l0.003,-0.492l0.002,-0.832l0.755,-0.002l0.541,-0.002l0.611,-0.004l0.625,-0.001l0.693,0.001l0.634,0.002l0.575,0.004l0.515,0.006l0.709,0.009l0,-0.524l-0.746,0.005l-0.542,0.005l-0.617,0.003l-0.691,0.002l-0.765,0l-0.472,0l-0.466,-0.002l-0.458,-0.003l-0.451,-0.005l-0.818,-0.005l-0.322,-0.002l0.007,0.515Z" style="fill:#476eb6;"/><path d="M271.967,79.678l0.82,0.006l0.451,0.004l0.457,0.003l0.463,0.002l0.471,0.001l0.764,-0.001l0.689,-0.002l0.615,-0.003l0.541,-0.004l1.09,-0.008l0.344,0.341l0,1.213l-0.344,0.341l-0.306,-0.003l-0.749,-0.01l-0.513,-0.005l-0.573,-0.004l-0.632,-0.003l-0.691,-0.001l-0.622,0.001l-0.61,0.004l-0.543,0.002l-0.076,0.001l0,0.154l-0.004,0.495l-0.005,0.493l-0.008,0.493l-0.007,0.483l-0.005,0.469l-0.002,0.456l-0.001,0.102l0.072,0l0.482,0.004l0.488,0.003l0.429,0.001l0.719,-0.001l0.679,-0.002l0.639,-0.004l0.6,-0.006l0.891,-0.011l0.347,-0.003l0.345,0.341l0,1.205l-0.344,0.341l-0.38,-0.003l-1.005,-0.01l-0.645,-0.004l-0.616,-0.004l-0.587,-0.002l-0.558,-0.001l-0.441,0.001l-0.52,0.004l-0.514,0.001l-0.081,0l0,0.441l0.002,0.697l0.002,0.612l0.004,0.527l0.007,0.89l0.005,0.402l0.215,0.003l0.312,0.003l0.339,0.003l0.731,0.002l0.786,0.001l0.6,-0.001l0.551,-0.001l0.5,-0.003l0.45,-0.003l0.663,-0.008l0.289,-0.002l0.344,0.341l0,1.215l-0.154,0.153l-0.19,0.188l-1.117,-0.01l-0.55,-0.003l-0.612,-0.003l-0.675,-0.001l-0.736,-0.001l-0.522,0.001l-0.499,0.001l-0.476,0.003l-0.453,0.003l-0.426,0.005l-0.393,0.003l-0.358,0.002l-0.324,0l-0.342,-0.351l0.004,-0.144l0.004,-0.18l0.008,-0.472l0.007,-0.621l0.007,-0.769l0.005,-0.848l0.004,-0.863l0.001,-0.878l0.001,-0.891l0,-0.534l-0.002,-0.613l-0.004,-1.465l-0.006,-0.818l-0.007,-0.832l-0.01,-0.846l-0.012,-0.861l0.342,-0.346l0.317,0l0.354,0.002Zm-0.319,1.196l0.01,0.848l0.008,0.834l0.005,0.82l0.005,1.466l0.001,0.614l0.001,0.535l-0.001,0.892l-0.002,0.879l-0.003,0.864l-0.005,0.85l-0.008,0.771l-0.007,0.623l-0.007,0.455l0.329,-0.002l0.391,-0.003l0.426,-0.004l0.455,-0.004l0.477,-0.002l0.5,-0.002l0.524,0l0.737,0l0.676,0.002l0.614,0.002l0.551,0.004l0.773,0.007l0,-0.526l-0.606,0.006l-0.452,0.004l-0.502,0.002l-0.552,0.002l-0.602,0l-0.787,-0.001l-0.734,-0.002l-0.341,-0.003l-0.315,-0.003l-0.288,-0.004l-0.594,-0.01l-0.011,-1.066l-0.008,-0.891l-0.003,-0.529l-0.003,-0.613l-0.001,-0.699l-0.001,-0.783l0.341,-0.341l0.422,-0.001l0.512,-0.001l0.52,-0.004l0.444,-0.001l0.56,0.001l0.589,0.002l0.617,0.004l0.646,0.005l1.005,0.01l0.035,0l0,-0.516l-0.001,0l-0.892,0.011l-0.602,0.005l-0.641,0.004l-0.681,0.003l-0.72,0.001l-0.433,-0.001l-0.489,-0.004l-0.481,-0.004l-0.411,-0.001l-0.34,-0.342l0.001,-0.444l0.003,-0.459l0.005,-0.472l0.007,-0.484l0.007,-0.491l0.006,-0.491l0.003,-0.492l0.002,-0.832l0.755,-0.002l0.541,-0.002l0.611,-0.004l0.624,-0.001l0.694,0.001l0.634,0.002l0.575,0.004l0.515,0.006l0.708,0.009l0,-0.524l-0.746,0.005l-0.541,0.005l-0.617,0.003l-0.691,0.002l-0.766,0l-0.472,0l-0.465,-0.002l-0.459,-0.003l-0.45,-0.005l-0.819,-0.005l-0.322,-0.002l0.007,0.515Z" style="fill:#476eb6;"/><path d="M130.211,91.464l0.677,0l3.867,-10.883l-0.51,-0.148l-3.377,9.133l-0.642,-0.005l-3.117,-8.866l-0.683,0l-3.405,9.208l-0.644,-0.013l-3.1,-9.47l-0.785,0.182l3.584,10.862l0.685,0l3.692,-9.216l0.64,0.017l3.118,9.199Zm3.614,-11.863l1.815,0.526l-4.27,12.019l-1.648,0l-2.979,-8.787l-3.52,8.787l-1.641,0l-3.972,-12.04l2.122,-0.492l2.989,9.133l3.23,-8.734l1.642,0l2.963,8.428l3.269,-8.84Z" style="fill:#476eb6;"/><path d="M154.502,91.464l0.676,0l3.867,-10.883l-0.51,-0.148l-3.377,9.133l-0.642,-0.005l-3.116,-8.866l-0.683,0l-3.405,9.208l-0.645,-0.013l-3.099,-9.47l-0.785,0.182l3.583,10.862l0.685,0l3.692,-9.216l0.64,0.017l3.119,9.199Zm3.613,-11.863l1.816,0.526l-4.271,12.019l-1.648,0l-2.979,-8.787l-3.52,8.787l-1.64,0l-3.973,-12.04l2.122,-0.492l2.989,9.133l3.23,-8.734l1.642,0l2.963,8.428l3.269,-8.84Z" style="fill:#476eb6;"/><path d="M105.921,91.464l0.676,0l3.867,-10.883l-0.509,-0.148l-3.378,9.133l-0.642,-0.005l-3.116,-8.866l-0.683,0l-3.405,9.208l-0.645,-0.013l-3.099,-9.47l-0.785,0.182l3.584,10.862l0.684,0l3.692,-9.216l0.64,0.017l3.119,9.199Zm3.614,-11.863l1.815,0.526l-4.271,12.019l-1.648,0l-2.978,-8.787l-3.521,8.787l-1.64,0l-3.972,-12.04l2.121,-0.492l2.989,9.133l3.23,-8.734l1.642,0l2.963,8.428l3.27,-8.84Z" style="fill:#476eb6;"/><path d="M168.48,91.221l0,-1.104l-1.149,0l0,1.104l1.149,0Zm0.683,0.682l-2.515,0l0,-2.468l2.515,0l0,2.468Z" style="fill:#476eb6;"/><path d="M288.457,91.107l0,-1.104l-1.103,0l0,1.104l1.103,0Zm0.683,0.682l-2.469,0l0,-2.469l2.469,0l0,2.469Z" style="fill:#476eb6;"/><path d="M208.793,80.748l0.011,0.371l0.011,0.372l0.01,0.371l0.008,0.371l0.009,0.37l0.007,0.371l0.006,0.37l0.005,0.371l0.005,0.37l0.004,0.369l0.003,0.37l0.002,0.37l0.001,0.369l0,0.369l0,0.369l-0.002,0.369l-0.002,0.369l-0.003,0.369l-0.004,0.368l-0.005,0.368l-0.005,0.368l-0.007,0.368l-0.007,0.368l-0.008,0.367l-0.009,0.368l-0.009,0.367l-0.011,0.367l-0.011,0.367l-0.012,0.367l-0.001,0.013l0.686,0l-0.004,-0.381l-0.007,-0.726l-0.005,-0.728l-0.005,-0.73l-0.003,-0.731l-0.003,-0.732l-0.001,-0.735l0,-0.735l0,-0.738l0.002,-0.739l0.003,-0.741l0.003,-0.743l0.005,-0.745l0.005,-0.747l0.006,-0.748l0.004,-0.407l-0.685,0l0,0.018l0.013,0.372Zm1.351,0.023l-0.007,0.748l-0.005,0.746l-0.004,0.744l-0.004,0.742l-0.002,0.74l-0.002,0.738l-0.001,0.737l0.001,0.735l0.001,0.733l0.002,0.731l0.004,0.73l0.004,0.729l0.006,0.727l0.006,0.726l0.012,1.069l-2.083,0l0.026,-0.718l0.012,-0.366l0.011,-0.365l0.01,-0.366l0.01,-0.365l0.009,-0.366l0.008,-0.366l0.007,-0.366l0.006,-0.367l0.006,-0.366l0.004,-0.367l0.004,-0.367l0.003,-0.367l0.003,-0.367l0.001,-0.367l0,-0.368l0,-0.368l-0.001,-0.367l-0.002,-0.368l-0.003,-0.368l-0.004,-0.369l-0.004,-0.368l-0.006,-0.369l-0.006,-0.369l-0.007,-0.369l-0.008,-0.369l-0.009,-0.369l-0.009,-0.37l-0.011,-0.369l-0.012,-0.37l-0.012,-0.37l-0.026,-0.724l2.082,0l-0.01,1.095Z" style="fill:#476eb6;"/><path d="M245.889,80.098l-0.008,0.7l-0.007,0.747l-0.007,0.796l-0.007,0.845l-0.006,0.808l-0.004,0.686l-0.002,0.564l-0.001,0.442l0.001,1.159l0.003,1.033l0.005,0.908l0.003,0.406l0.004,0.376l0.013,1.105l0.006,0.646l-1.6,0.778l-0.494,-0.662l-0.322,-0.43l-0.32,-0.425l-0.317,-0.419l-0.314,-0.414l-0.312,-0.409l-0.309,-0.403l-0.306,-0.398l-0.304,-0.393l-0.3,-0.387l-0.299,-0.382l-0.295,-0.377l-0.293,-0.371l-0.29,-0.366l-0.288,-0.36l-0.285,-0.356l-1.015,-1.264l-0.777,-0.965l-0.244,-0.302l0.001,0.279l0.002,0.658l0.004,0.692l0.004,0.724l0.005,0.757l0.007,0.79l0.007,0.824l0.013,1.501l0.011,1.146l0.009,0.79l0.006,0.436l-0.341,0.346l-1.352,0l-0.341,-0.35l0.004,-0.176l0.006,-0.313l0.008,-0.45l0.008,-0.588l0.004,-0.345l0.003,-0.376l0.006,-0.851l0.004,-0.98l0.001,-1.109l-0.001,-0.507l-0.001,-0.584l-0.006,-1.397l-0.006,-0.788l-0.008,-0.811l-0.01,-0.833l-0.015,-1.077l1.759,-0.829l0.91,1.147l0.809,1.021l1.104,1.388l0.619,0.78l0.61,0.765l0.602,0.752l0.592,0.737l0.583,0.724l0.574,0.709l0.53,0.652l-0.005,-0.843l-0.011,-1.226l-0.015,-1.453l-0.015,-1.467l-0.011,-1.264l-0.003,-0.556l-0.003,-0.506l-0.002,-0.455l0,-0.404l0.341,-0.341l1.35,0l0.341,0.345Zm-1.349,0.337l0,0.062l0.002,0.453l0.002,0.505l0.004,0.555l0.011,1.263l0.015,1.466l0.015,1.453l0.01,1.228l0.007,1.003l0.001,0.416l0.001,0.582l-0.459,0.205l-0.721,-0.884l-0.566,-0.696l-0.575,-0.711l-0.584,-0.724l-0.593,-0.738l-0.602,-0.753l-0.611,-0.766l-0.62,-0.78l-1.103,-1.389l-0.81,-1.021l-0.573,-0.723l-0.872,0.411l0.009,0.638l0.01,0.835l0.007,0.812l0.006,0.79l0.006,1.398l0.002,0.586l0,0.508l-0.001,1.111l-0.003,0.981l-0.006,0.853l-0.004,0.379l-0.004,0.346l-0.008,0.589l-0.007,0.452l-0.003,0.144l0.657,0l-0.002,-0.09l-0.008,-0.792l-0.011,-1.147l-0.014,-1.501l-0.007,-0.824l-0.006,-0.791l-0.006,-0.758l-0.004,-0.725l-0.003,-0.692l-0.003,-0.659l-0.001,-0.626l-0.001,-0.806l0.452,-0.222l0.47,0.58l0.537,0.667l0.777,0.965l1.017,1.265l0.285,0.356l0.289,0.362l0.291,0.368l0.294,0.372l0.297,0.378l0.299,0.383l0.302,0.389l0.305,0.394l0.307,0.399l0.31,0.404l0.312,0.41l0.315,0.416l0.318,0.42l0.321,0.426l0.323,0.431l0.156,0.21l0.704,-0.342l-0.002,-0.215l-0.012,-1.104l-0.004,-0.376l-0.003,-0.408l-0.006,-0.91l-0.002,-1.035l-0.001,-1.16l0,-0.444l0.002,-0.566l0.004,-0.687l0.007,-0.808l0.006,-0.845l0.007,-0.797l0.008,-0.749l0.004,-0.355l-0.663,0Z" style="fill:#476eb6;"/><path d="M324.828,81.044l-0.049,0.001l-0.049,0.002l-0.049,0.002l-0.048,0.004l-0.049,0.004l-0.048,0.004l-0.048,0.006l-0.048,0.006l-0.047,0.007l-0.048,0.008l-0.047,0.008l-0.047,0.009l-0.047,0.01l-0.047,0.01l-0.047,0.011l-0.046,0.012l-0.046,0.012l-0.046,0.013l-0.046,0.014l-0.046,0.014l-0.045,0.015l-0.045,0.016l-0.045,0.016l-0.045,0.018l-0.044,0.017l-0.089,0.038l-0.088,0.039l-0.086,0.043l-0.086,0.044l-0.084,0.048l-0.084,0.049l-0.082,0.053l-0.082,0.054l-0.08,0.057l-0.079,0.059l-0.078,0.061l-0.077,0.064l-0.075,0.066l-0.074,0.068l-0.073,0.07l-0.072,0.072l-0.07,0.074l-0.068,0.077l-0.067,0.078l-0.066,0.08l-0.064,0.083l-0.062,0.084l-0.061,0.086l-0.059,0.088l-0.058,0.089l-0.055,0.092l-0.054,0.093l-0.052,0.094l-0.051,0.097l-0.048,0.098l-0.047,0.099l-0.044,0.101l-0.043,0.103l-0.041,0.104l-0.038,0.105l-0.037,0.107l-0.034,0.108l-0.032,0.11l-0.03,0.11l-0.028,0.112l-0.026,0.113l-0.023,0.114l-0.021,0.115l-0.019,0.117l-0.016,0.117l-0.014,0.118l-0.011,0.12l-0.009,0.12l-0.007,0.121l-0.004,0.122l-0.001,0.123l0.001,0.122l0.004,0.122l0.007,0.121l0.009,0.12l0.011,0.12l0.014,0.118l0.016,0.117l0.019,0.117l0.021,0.115l0.023,0.114l0.026,0.113l0.028,0.112l0.03,0.11l0.032,0.11l0.034,0.108l0.037,0.107l0.038,0.105l0.041,0.104l0.043,0.103l0.044,0.101l0.047,0.099l0.048,0.098l0.051,0.097l0.052,0.094l0.054,0.093l0.055,0.092l0.058,0.089l0.059,0.088l0.061,0.086l0.062,0.084l0.064,0.083l0.066,0.08l0.067,0.078l0.068,0.077l0.07,0.074l0.072,0.072l0.073,0.07l0.074,0.068l0.075,0.066l0.077,0.064l0.078,0.061l0.079,0.059l0.08,0.057l0.082,0.054l0.082,0.053l0.084,0.049l0.084,0.048l0.086,0.044l0.086,0.043l0.088,0.04l0.089,0.037l0.044,0.018l0.045,0.017l0.045,0.016l0.045,0.016l0.045,0.015l0.046,0.014l0.046,0.014l0.046,0.013l0.046,0.012l0.046,0.012l0.047,0.011l0.047,0.011l0.047,0.009l0.047,0.009l0.047,0.009l0.048,0.007l0.047,0.007l0.048,0.006l0.048,0.006l0.048,0.004l0.049,0.004l0.048,0.004l0.049,0.002l0.049,0.002l0.049,0.001l0.049,0.001l0.049,-0.001l0.049,-0.001l0.049,-0.002l0.049,-0.002l0.049,-0.004l0.048,-0.004l0.048,-0.004l0.048,-0.006l0.048,-0.006l0.048,-0.007l0.047,-0.007l0.048,-0.009l0.047,-0.009l0.047,-0.009l0.047,-0.011l0.046,-0.011l0.047,-0.012l0.046,-0.012l0.046,-0.013l0.046,-0.014l0.045,-0.014l0.046,-0.015l0.045,-0.016l0.045,-0.016l0.045,-0.017l0.043,-0.018l0.09,-0.037l0.087,-0.04l0.087,-0.043l0.085,-0.044l0.085,-0.048l0.083,-0.049l0.083,-0.053l0.081,-0.054l0.081,-0.057l0.079,-0.059l0.078,-0.061l0.076,-0.064l0.076,-0.066l0.074,-0.068l0.073,-0.07l0.071,-0.072l0.07,-0.074l0.069,-0.077l0.067,-0.078l0.065,-0.08l0.064,-0.083l0.063,-0.084l0.06,-0.086l0.06,-0.088l0.057,-0.089l0.056,-0.092l0.054,-0.093l0.052,-0.094l0.05,-0.097l0.049,-0.098l0.046,-0.099l0.045,-0.101l0.042,-0.103l0.041,-0.104l0.039,-0.105l0.036,-0.107l0.035,-0.108l0.032,-0.11l0.03,-0.11l0.028,-0.112l0.025,-0.113l0.024,-0.114l0.021,-0.115l0.018,-0.117l0.016,-0.117l0.014,-0.118l0.012,-0.12l0.009,-0.12l0.006,-0.121l0.004,-0.122l0.001,-0.122l-0.001,-0.123l-0.004,-0.122l-0.006,-0.121l-0.009,-0.12l-0.012,-0.12l-0.014,-0.118l-0.016,-0.117l-0.018,-0.117l-0.021,-0.115l-0.024,-0.114l-0.025,-0.113l-0.028,-0.112l-0.03,-0.11l-0.032,-0.11l-0.035,-0.108l-0.036,-0.107l-0.039,-0.105l-0.041,-0.104l-0.042,-0.103l-0.045,-0.101l-0.046,-0.099l-0.049,-0.098l-0.05,-0.097l-0.052,-0.094l-0.054,-0.093l-0.056,-0.092l-0.057,-0.089l-0.06,-0.088l-0.06,-0.086l-0.063,-0.084l-0.064,-0.083l-0.065,-0.08l-0.067,-0.078l-0.069,-0.077l-0.07,-0.074l-0.071,-0.072l-0.073,-0.07l-0.074,-0.068l-0.076,-0.066l-0.076,-0.064l-0.078,-0.061l-0.079,-0.059l-0.081,-0.057l-0.081,-0.054l-0.083,-0.053l-0.083,-0.049l-0.085,-0.048l-0.085,-0.044l-0.087,-0.043l-0.087,-0.039l-0.09,-0.038l-0.043,-0.017l-0.045,-0.018l-0.045,-0.016l-0.045,-0.016l-0.046,-0.015l-0.045,-0.014l-0.046,-0.014l-0.046,-0.013l-0.046,-0.012l-0.047,-0.012l-0.046,-0.011l-0.047,-0.01l-0.047,-0.01l-0.047,-0.009l-0.048,-0.008l-0.047,-0.008l-0.048,-0.007l-0.048,-0.006l-0.048,-0.006l-0.048,-0.004l-0.048,-0.004l-0.049,-0.004l-0.049,-0.002l-0.049,-0.002l-0.049,-0.001l-0.049,-0.001l-0.049,0.001Zm0.168,-0.681l0.059,0.002l0.059,0.003l0.059,0.004l0.059,0.005l0.058,0.006l0.059,0.006l0.058,0.008l0.058,0.008l0.057,0.009l0.058,0.01l0.057,0.011l0.057,0.012l0.056,0.013l0.057,0.013l0.056,0.014l0.056,0.015l0.055,0.016l0.056,0.017l0.055,0.017l0.054,0.018l0.055,0.019l0.054,0.02l0.054,0.02l0.055,0.022l0.105,0.044l0.104,0.048l0.104,0.051l0.102,0.053l0.101,0.056l0.099,0.059l0.098,0.062l0.096,0.065l0.095,0.067l0.093,0.069l0.092,0.072l0.09,0.075l0.088,0.077l0.086,0.079l0.085,0.082l0.083,0.084l0.081,0.086l0.08,0.089l0.077,0.09l0.076,0.093l0.074,0.095l0.072,0.096l0.069,0.099l0.068,0.101l0.066,0.102l0.064,0.105l0.061,0.106l0.06,0.108l0.057,0.11l0.055,0.111l0.053,0.113l0.05,0.115l0.049,0.116l0.046,0.117l0.043,0.12l0.041,0.12l0.039,0.122l0.037,0.124l0.033,0.124l0.032,0.126l0.029,0.127l0.026,0.129l0.023,0.129l0.021,0.131l0.019,0.131l0.015,0.133l0.013,0.134l0.01,0.134l0.007,0.136l0.004,0.136l0.002,0.138l-0.002,0.137l-0.004,0.136l-0.007,0.136l-0.01,0.134l-0.013,0.134l-0.015,0.133l-0.019,0.131l-0.021,0.131l-0.023,0.129l-0.026,0.129l-0.029,0.127l-0.032,0.126l-0.033,0.124l-0.037,0.124l-0.039,0.122l-0.041,0.12l-0.043,0.12l-0.046,0.117l-0.049,0.116l-0.05,0.115l-0.053,0.113l-0.055,0.111l-0.057,0.11l-0.06,0.108l-0.061,0.106l-0.064,0.105l-0.066,0.102l-0.068,0.101l-0.069,0.099l-0.072,0.096l-0.074,0.095l-0.076,0.093l-0.077,0.09l-0.08,0.089l-0.081,0.086l-0.083,0.084l-0.085,0.082l-0.086,0.079l-0.088,0.077l-0.09,0.075l-0.092,0.072l-0.093,0.069l-0.095,0.067l-0.096,0.065l-0.098,0.062l-0.099,0.059l-0.101,0.056l-0.102,0.053l-0.104,0.051l-0.104,0.048l-0.105,0.044l-0.055,0.022l-0.054,0.02l-0.054,0.02l-0.055,0.019l-0.054,0.018l-0.055,0.017l-0.056,0.017l-0.055,0.016l-0.056,0.015l-0.056,0.014l-0.057,0.013l-0.056,0.013l-0.057,0.012l-0.057,0.011l-0.058,0.01l-0.057,0.009l-0.058,0.008l-0.058,0.008l-0.059,0.006l-0.058,0.006l-0.059,0.005l-0.059,0.004l-0.059,0.003l-0.059,0.003l-0.059,0.001l-0.06,0l-0.059,0l-0.06,-0.001l-0.059,-0.003l-0.059,-0.003l-0.059,-0.004l-0.059,-0.005l-0.058,-0.006l-0.058,-0.006l-0.058,-0.008l-0.058,-0.008l-0.058,-0.009l-0.057,-0.01l-0.057,-0.011l-0.057,-0.012l-0.057,-0.013l-0.056,-0.013l-0.056,-0.014l-0.056,-0.015l-0.056,-0.016l-0.055,-0.017l-0.055,-0.017l-0.055,-0.018l-0.054,-0.019l-0.055,-0.02l-0.053,-0.02l-0.055,-0.022l-0.105,-0.044l-0.105,-0.048l-0.104,-0.051l-0.102,-0.053l-0.1,-0.056l-0.1,-0.059l-0.098,-0.062l-0.096,-0.065l-0.095,-0.067l-0.093,-0.069l-0.091,-0.072l-0.09,-0.075l-0.088,-0.077l-0.087,-0.079l-0.085,-0.082l-0.083,-0.084l-0.081,-0.086l-0.079,-0.089l-0.078,-0.09l-0.076,-0.093l-0.073,-0.095l-0.072,-0.096l-0.07,-0.099l-0.068,-0.101l-0.065,-0.102l-0.064,-0.105l-0.062,-0.106l-0.059,-0.108l-0.057,-0.11l-0.055,-0.111l-0.053,-0.113l-0.051,-0.115l-0.048,-0.116l-0.046,-0.117l-0.044,-0.12l-0.041,-0.12l-0.039,-0.122l-0.036,-0.124l-0.034,-0.124l-0.031,-0.126l-0.029,-0.127l-0.026,-0.129l-0.024,-0.129l-0.021,-0.131l-0.018,-0.131l-0.016,-0.133l-0.012,-0.134l-0.01,-0.134l-0.008,-0.136l-0.004,-0.136l-0.001,-0.137l0.001,-0.138l0.004,-0.136l0.008,-0.136l0.01,-0.134l0.012,-0.134l0.016,-0.133l0.018,-0.131l0.021,-0.131l0.024,-0.129l0.026,-0.129l0.029,-0.127l0.031,-0.126l0.034,-0.124l0.036,-0.124l0.039,-0.122l0.041,-0.12l0.044,-0.12l0.046,-0.117l0.048,-0.116l0.051,-0.115l0.053,-0.113l0.055,-0.111l0.057,-0.11l0.059,-0.108l0.062,-0.106l0.064,-0.105l0.065,-0.102l0.068,-0.101l0.07,-0.099l0.072,-0.096l0.073,-0.095l0.076,-0.093l0.078,-0.09l0.079,-0.089l0.081,-0.086l0.083,-0.084l0.085,-0.082l0.087,-0.079l0.088,-0.077l0.09,-0.075l0.091,-0.072l0.093,-0.069l0.095,-0.067l0.096,-0.065l0.098,-0.062l0.1,-0.059l0.1,-0.056l0.102,-0.053l0.104,-0.051l0.105,-0.048l0.105,-0.044l0.055,-0.022l0.053,-0.02l0.055,-0.02l0.054,-0.019l0.055,-0.018l0.055,-0.017l0.055,-0.017l0.056,-0.016l0.056,-0.015l0.056,-0.014l0.056,-0.013l0.057,-0.013l0.057,-0.012l0.057,-0.011l0.057,-0.01l0.058,-0.009l0.058,-0.008l0.058,-0.008l0.058,-0.006l0.058,-0.006l0.059,-0.005l0.059,-0.004l0.059,-0.003l0.059,-0.002l0.06,-0.002l0.059,0l0.06,0l0.059,0.002Z" style="fill:#476eb6;"/><path d="M111.028,80.244c-0.982,2.576 -1.896,5.103 -2.742,7.583c-0.846,2.48 -1.29,3.775 -1.33,3.885l-1.213,0c-0.029,-0.11 -0.341,-1.036 -0.937,-2.777c-0.596,-1.742 -1.382,-3.909 -2.359,-6.502l-0.018,0c-0.854,2.145 -1.641,4.196 -2.359,6.153c-0.718,1.956 -1.1,2.998 -1.146,3.126l-1.239,0c-0.046,-0.168 -0.42,-1.309 -1.12,-3.423c-0.701,-2.113 -1.636,-4.757 -2.804,-7.932l1.43,-0.558c0.023,0.082 0.363,1.105 1.02,3.07c0.657,1.965 1.41,4.172 2.259,6.619l0.018,0c0.895,-2.255 1.675,-4.322 2.341,-6.2c0.666,-1.878 1.013,-2.861 1.042,-2.948l1.352,0c0.023,0.099 0.377,1.163 1.06,3.192c0.683,2.029 1.376,4.014 2.08,5.956l0.017,0c0.93,-2.54 1.715,-4.767 2.355,-6.68c0.639,-1.913 0.971,-2.916 0.994,-3.009l1.299,0.445Z" style="fill:#476eb6;fill-rule:nonzero;"/><path d="M135.228,80.244c-0.982,2.576 -1.897,5.103 -2.743,7.583c-0.846,2.48 -1.289,3.775 -1.33,3.885l-1.212,0c-0.029,-0.11 -0.341,-1.036 -0.937,-2.777c-0.596,-1.742 -1.383,-3.909 -2.359,-6.502l-0.018,0c-0.854,2.145 -1.641,4.196 -2.359,6.153c-0.718,1.956 -1.1,2.998 -1.147,3.126l-1.238,0c-0.047,-0.168 -0.42,-1.309 -1.121,-3.423c-0.7,-2.113 -1.635,-4.757 -2.803,-7.932l1.43,-0.558c0.023,0.082 0.363,1.105 1.02,3.07c0.657,1.965 1.41,4.172 2.259,6.619l0.017,0c0.896,-2.255 1.676,-4.322 2.342,-6.2c0.666,-1.878 1.013,-2.861 1.042,-2.948l1.352,0c0.023,0.099 0.376,1.163 1.059,3.192c0.684,2.029 1.377,4.014 2.08,5.956l0.018,0c0.93,-2.54 1.715,-4.767 2.355,-6.68c0.639,-1.913 0.97,-2.916 0.994,-3.009l1.299,0.445Z" style="fill:#476eb6;fill-rule:nonzero;"/><path d="M159.428,80.244c-0.983,2.576 -1.897,5.103 -2.743,7.583c-0.846,2.48 -1.289,3.775 -1.33,3.885l-1.212,0c-0.029,-0.11 -0.342,-1.036 -0.938,-2.777c-0.595,-1.742 -1.382,-3.909 -2.359,-6.502l-0.017,0c-0.855,2.145 -1.641,4.196 -2.359,6.153c-0.718,1.956 -1.1,2.998 -1.147,3.126l-1.238,0c-0.047,-0.168 -0.42,-1.309 -1.121,-3.423c-0.7,-2.113 -1.635,-4.757 -2.804,-7.932l1.431,-0.558c0.023,0.082 0.363,1.105 1.02,3.07c0.657,1.965 1.41,4.172 2.259,6.619l0.017,0c0.895,-2.255 1.676,-4.322 2.342,-6.2c0.665,-1.878 1.013,-2.861 1.042,-2.948l1.352,0c0.023,0.099 0.376,1.163 1.059,3.192c0.683,2.029 1.377,4.014 2.08,5.956l0.018,0c0.93,-2.54 1.715,-4.767 2.354,-6.68c0.64,-1.913 0.971,-2.916 0.994,-3.009l1.3,0.445Z" style="fill:#476eb6;fill-rule:nonzero;"/><rect x="167.11" y="89.802" width="1.753" height="1.858" style="fill:#476eb6;fill-rule:nonzero;"/><path d="M183.714,88.372c0,0.599 -0.141,1.124 -0.423,1.574c-0.282,0.451 -0.662,0.816 -1.138,1.095c-0.436,0.256 -0.936,0.449 -1.5,0.58c-0.564,0.13 -1.189,0.196 -1.875,0.196c-0.372,0 -0.758,-0.012 -1.156,-0.035c-0.398,-0.023 -0.629,-0.038 -0.693,-0.044l-0.07,-1.255c0.081,0.011 0.308,0.033 0.68,0.065c0.372,0.032 0.811,0.048 1.317,0.048c0.308,0 0.707,-0.041 1.195,-0.122c0.488,-0.082 0.863,-0.186 1.125,-0.314c0.343,-0.169 0.606,-0.372 0.789,-0.611c0.183,-0.238 0.275,-0.54 0.275,-0.907c0,-0.389 -0.092,-0.719 -0.275,-0.989c-0.183,-0.271 -0.487,-0.531 -0.911,-0.781c-0.273,-0.163 -0.628,-0.346 -1.064,-0.549c-0.436,-0.204 -0.829,-0.413 -1.177,-0.628c-0.593,-0.361 -1.016,-0.755 -1.269,-1.182c-0.253,-0.427 -0.38,-0.903 -0.38,-1.426c0,-0.535 0.115,-0.998 0.345,-1.391c0.229,-0.392 0.527,-0.728 0.894,-1.007c0.372,-0.279 0.827,-0.489 1.365,-0.628c0.537,-0.14 1.135,-0.209 1.792,-0.209c0.36,0 0.725,0.01 1.094,0.03c0.369,0.021 0.58,0.034 0.632,0.039l0.123,1.265c-0.053,-0.006 -0.265,-0.026 -0.637,-0.061c-0.372,-0.035 -0.831,-0.052 -1.378,-0.052c-0.326,0 -0.661,0.036 -1.007,0.109c-0.346,0.072 -0.65,0.184 -0.912,0.335c-0.232,0.134 -0.43,0.32 -0.593,0.558c-0.162,0.239 -0.244,0.518 -0.244,0.838c0,0.285 0.086,0.559 0.257,0.824c0.172,0.264 0.493,0.536 0.964,0.815c0.238,0.146 0.554,0.313 0.946,0.502c0.393,0.189 0.778,0.394 1.156,0.615c0.581,0.343 1.019,0.736 1.312,1.181c0.294,0.445 0.441,0.952 0.441,1.522Z" style="fill:#476eb6;fill-rule:nonzero;"/><path d="M200.143,90.587c-0.006,0.053 -0.022,0.199 -0.048,0.441c-0.026,0.241 -0.051,0.504 -0.074,0.789l-0.305,0c-1.419,0 -2.68,-0.179 -3.785,-0.536c-1.105,-0.358 -2.012,-0.877 -2.721,-1.557c-0.494,-0.471 -0.885,-1.035 -1.173,-1.692c-0.288,-0.657 -0.432,-1.407 -0.432,-2.25c0,-0.756 0.143,-1.446 0.428,-2.071c0.284,-0.625 0.657,-1.17 1.116,-1.636c0.668,-0.674 1.567,-1.209 2.695,-1.604c1.128,-0.396 2.334,-0.593 3.619,-0.593l0.392,0c0.006,0.104 0.018,0.272 0.035,0.501c0.018,0.23 0.038,0.478 0.061,0.746l-0.296,0c-0.727,0 -1.48,0.08 -2.259,0.24c-0.779,0.16 -1.451,0.399 -2.015,0.719c-0.732,0.419 -1.296,0.955 -1.691,1.609c-0.396,0.654 -0.593,1.359 -0.593,2.115c0,0.785 0.177,1.499 0.532,2.141c0.354,0.643 0.915,1.182 1.683,1.618c0.628,0.36 1.33,0.622 2.106,0.785c0.776,0.163 1.548,0.244 2.315,0.244l0.166,0c0.076,0 0.157,-0.003 0.244,-0.009Z" style="fill:#476eb6;fill-rule:nonzero;"/><path d="M209.709,91.66l-1.439,0c0.006,-0.349 0.015,-0.971 0.026,-1.866c0.012,-0.896 0.018,-2.181 0.018,-3.855c0,-0.663 -0.003,-1.532 -0.009,-2.608c-0.006,-1.075 -0.018,-2.192 -0.035,-3.349l1.439,0c-0.012,0.832 -0.022,1.798 -0.031,2.9c-0.008,1.102 -0.013,2.002 -0.013,2.699c0,1.768 0.006,3.136 0.018,4.104c0.011,0.968 0.02,1.626 0.026,1.975Z" style="fill:#476eb6;fill-rule:nonzero;"/><path d="M226.749,91.642c-0.053,0 -0.439,-0.002 -1.16,-0.008c-0.721,-0.006 -1.613,-0.009 -2.677,-0.009c-0.739,0 -1.415,0.003 -2.028,0.009c-0.613,0.006 -1.132,0.008 -1.557,0.008c0.012,-0.337 0.022,-1.066 0.031,-2.189c0.008,-1.122 0.013,-2.282 0.013,-3.479c0,-0.657 -0.003,-1.526 -0.009,-2.608c-0.006,-1.081 -0.017,-2.2 -0.035,-3.357c0.413,0 0.929,0.003 1.548,0.008c0.619,0.006 1.257,0.009 1.914,0.009c1.111,0 2.015,-0.003 2.713,-0.009c0.697,-0.005 1.075,-0.008 1.133,-0.008l0,1.212c-0.058,0 -0.423,-0.005 -1.094,-0.013c-0.672,-0.009 -1.507,-0.013 -2.507,-0.013c-0.436,0 -0.864,0.001 -1.282,0.004c-0.419,0.003 -0.75,0.004 -0.995,0.004c0,0.657 -0.005,1.313 -0.017,1.967c-0.012,0.654 -0.017,1.272 -0.017,1.853l1.883,0.009c1.024,0 1.938,-0.004 2.743,-0.013c0.805,-0.009 1.234,-0.013 1.286,-0.013l0,1.203c-0.046,0 -0.526,-0.004 -1.439,-0.013c-0.912,-0.009 -1.747,-0.013 -2.502,-0.013l-1.971,0.009c0,1.099 0.003,1.971 0.008,2.616c0.006,0.645 0.012,1.186 0.018,1.622c0.343,0.006 0.758,0.01 1.247,0.013c0.488,0.003 1.014,0.005 1.578,0.005c0.867,0 1.595,-0.003 2.185,-0.009c0.59,-0.006 0.92,-0.009 0.99,-0.009l0,1.212Z" style="fill:#476eb6;fill-rule:nonzero;"/><path d="M245.699,79.982c-0.012,0.913 -0.022,1.957 -0.031,3.131c-0.009,1.175 -0.013,2.021 -0.013,2.538c0,1.651 0.006,2.964 0.017,3.938c0.012,0.973 0.018,1.492 0.018,1.556l-1.16,0.567c-1.756,-2.372 -3.397,-4.513 -4.923,-6.423c-1.526,-1.91 -2.409,-3.013 -2.647,-3.309l-0.017,0.008c0,1.558 0.01,3.473 0.03,5.743c0.02,2.27 0.034,3.58 0.039,3.929l-1.36,0c0.006,-0.145 0.014,-0.663 0.026,-1.552c0.012,-0.89 0.018,-2.128 0.018,-3.716c0,-0.633 -0.003,-1.475 -0.009,-2.524c-0.006,-1.05 -0.018,-2.162 -0.035,-3.336l1.326,-0.628c0.104,0.134 0.995,1.265 2.672,3.392c1.678,2.128 3.258,4.105 4.74,5.931l0.018,-0.009c0,-0.895 -0.012,-2.403 -0.035,-4.522c-0.023,-2.119 -0.035,-3.69 -0.035,-4.714l1.361,0Z" style="fill:#476eb6;fill-rule:nonzero;"/><path d="M263.035,90.587c-0.006,0.053 -0.022,0.199 -0.048,0.441c-0.026,0.241 -0.051,0.504 -0.074,0.789l-0.306,0c-1.418,0 -2.68,-0.179 -3.784,-0.536c-1.105,-0.358 -2.012,-0.877 -2.721,-1.557c-0.495,-0.471 -0.886,-1.035 -1.173,-1.692c-0.288,-0.657 -0.432,-1.407 -0.432,-2.25c0,-0.756 0.142,-1.446 0.427,-2.071c0.285,-0.625 0.657,-1.17 1.117,-1.636c0.668,-0.674 1.566,-1.209 2.694,-1.604c1.128,-0.396 2.335,-0.593 3.62,-0.593l0.392,0c0.006,0.104 0.017,0.272 0.035,0.501c0.017,0.23 0.038,0.478 0.061,0.746l-0.297,0c-0.726,0 -1.479,0.08 -2.258,0.24c-0.779,0.16 -1.451,0.399 -2.015,0.719c-0.732,0.419 -1.296,0.955 -1.692,1.609c-0.395,0.654 -0.593,1.359 -0.593,2.115c0,0.785 0.178,1.499 0.532,2.141c0.355,0.643 0.916,1.182 1.683,1.618c0.628,0.36 1.33,0.622 2.107,0.785c0.776,0.163 1.547,0.244 2.315,0.244l0.166,0c0.075,0 0.157,-0.003 0.244,-0.009Z" style="fill:#476eb6;fill-rule:nonzero;"/><path d="M278.566,91.642c-0.052,0 -0.439,-0.002 -1.16,-0.008c-0.721,-0.006 -1.613,-0.009 -2.677,-0.009c-0.739,0 -1.415,0.003 -2.028,0.009c-0.613,0.006 -1.132,0.008 -1.557,0.008c0.012,-0.337 0.022,-1.066 0.031,-2.189c0.009,-1.122 0.013,-2.282 0.013,-3.479c0,-0.657 -0.003,-1.526 -0.009,-2.608c-0.006,-1.081 -0.017,-2.2 -0.035,-3.357c0.413,0 0.929,0.003 1.548,0.008c0.619,0.006 1.258,0.009 1.915,0.009c1.11,0 2.014,-0.003 2.712,-0.009c0.697,-0.005 1.075,-0.008 1.134,-0.008l0,1.212c-0.059,0 -0.423,-0.005 -1.095,-0.013c-0.671,-0.009 -1.507,-0.013 -2.507,-0.013c-0.436,0 -0.864,0.001 -1.282,0.004c-0.419,0.003 -0.75,0.004 -0.994,0.004c0,0.657 -0.006,1.313 -0.018,1.967c-0.012,0.654 -0.017,1.272 -0.017,1.853l1.883,0.009c1.024,0 1.938,-0.004 2.743,-0.013c0.805,-0.009 1.234,-0.013 1.287,-0.013l0,1.203c-0.047,0 -0.527,-0.004 -1.439,-0.013c-0.913,-0.009 -1.748,-0.013 -2.503,-0.013l-1.971,0.009c0,1.099 0.003,1.971 0.008,2.616c0.006,0.645 0.012,1.186 0.018,1.622c0.343,0.006 0.759,0.01 1.247,0.013c0.488,0.003 1.014,0.005 1.578,0.005c0.867,0 1.595,-0.003 2.185,-0.009c0.59,-0.006 0.92,-0.009 0.99,-0.009l0,1.212Z" style="fill:#476eb6;fill-rule:nonzero;"/><rect x="286.885" y="89.802" width="1.753" height="1.858" style="fill:#476eb6;fill-rule:nonzero;"/><path d="M311.738,91.485l-1.421,0.28l-1.797,-9.794l-0.017,0c-0.227,0.471 -0.73,1.564 -1.509,3.279c-0.779,1.715 -1.538,3.436 -2.276,5.163l-1.203,0c-0.692,-1.599 -1.457,-3.327 -2.294,-5.185c-0.837,-1.857 -1.329,-2.94 -1.474,-3.248l-0.017,0c-0.035,0.151 -0.271,1.263 -0.707,3.335c-0.436,2.073 -0.851,4.217 -1.247,6.432l-1.343,-0.244c0.582,-2.506 1.125,-4.989 1.631,-7.448c0.506,-2.459 0.782,-3.793 0.828,-4.003l1.387,-0.2c0.058,0.133 0.47,1.069 1.234,2.808c0.765,1.738 1.664,3.741 2.699,6.009l0.053,0c0.79,-1.78 1.628,-3.675 2.511,-5.687c0.884,-2.011 1.343,-3.055 1.378,-3.13l1.317,0.104c0.017,0.128 0.259,1.403 0.724,3.824c0.465,2.422 0.98,4.99 1.543,7.705Z" style="fill:#476eb6;fill-rule:nonzero;"/><path d="M330.435,85.826c0,0.941 -0.161,1.806 -0.484,2.594c-0.322,0.788 -0.742,1.438 -1.26,1.949c-0.576,0.57 -1.186,0.984 -1.831,1.243c-0.646,0.259 -1.338,0.388 -2.076,0.388c-0.721,0 -1.401,-0.124 -2.041,-0.371c-0.639,-0.247 -1.215,-0.614 -1.726,-1.103c-0.564,-0.529 -1.019,-1.196 -1.365,-2.001c-0.346,-0.806 -0.519,-1.711 -0.519,-2.717c0,-0.895 0.136,-1.711 0.41,-2.446c0.273,-0.736 0.683,-1.397 1.229,-1.984c0.506,-0.547 1.108,-0.97 1.806,-1.269c0.697,-0.3 1.433,-0.449 2.206,-0.449c0.785,0 1.512,0.141 2.18,0.423c0.669,0.282 1.247,0.673 1.736,1.173c0.57,0.581 1.001,1.266 1.295,2.054c0.293,0.787 0.44,1.626 0.44,2.516Zm-1.491,0.139c0,-0.756 -0.126,-1.498 -0.379,-2.228c-0.253,-0.73 -0.638,-1.342 -1.156,-1.836c-0.349,-0.337 -0.74,-0.599 -1.173,-0.785c-0.433,-0.186 -0.917,-0.279 -1.452,-0.279c-0.523,0 -1.01,0.095 -1.461,0.284c-0.45,0.189 -0.859,0.466 -1.225,0.832c-0.465,0.466 -0.827,1.041 -1.086,1.727c-0.258,0.686 -0.388,1.401 -0.388,2.146c0,0.837 0.132,1.587 0.397,2.25c0.264,0.662 0.638,1.223 1.121,1.683c0.331,0.319 0.723,0.577 1.177,0.772c0.453,0.194 0.939,0.292 1.456,0.292c0.518,0 1.002,-0.095 1.452,-0.284c0.451,-0.189 0.859,-0.461 1.226,-0.815c0.436,-0.419 0.793,-0.952 1.072,-1.6c0.279,-0.649 0.419,-1.368 0.419,-2.159Z" style="fill:#476eb6;fill-rule:nonzero;"/><path d="M353.222,91.485l-1.421,0.28l-1.797,-9.794l-0.017,0c-0.227,0.471 -0.73,1.564 -1.509,3.279c-0.779,1.715 -1.538,3.436 -2.276,5.163l-1.204,0c-0.692,-1.599 -1.456,-3.327 -2.293,-5.185c-0.838,-1.857 -1.329,-2.94 -1.474,-3.248l-0.018,0c-0.034,0.151 -0.27,1.263 -0.706,3.335c-0.436,2.073 -0.852,4.217 -1.247,6.432l-1.343,-0.244c0.581,-2.506 1.125,-4.989 1.631,-7.448c0.506,-2.459 0.782,-3.793 0.828,-4.003l1.387,-0.2c0.058,0.133 0.469,1.069 1.234,2.808c0.764,1.738 1.664,3.741 2.699,6.009l0.052,0c0.791,-1.78 1.628,-3.675 2.512,-5.687c0.884,-2.011 1.343,-3.055 1.378,-3.13l1.317,0.104c0.017,0.128 0.258,1.403 0.724,3.824c0.465,2.422 0.979,4.99 1.543,7.705Z" style="fill:#476eb6;fill-rule:nonzero;"/></svg>