<?xml version="1.0" encoding="UTF-8" standalone="no"?>
<!DOCTYPE svg PUBLIC "-//W3C//DTD SVG 1.1//EN" "http://www.w3.org/Graphics/SVG/1.1/DTD/svg11.dtd">
<svg width="100%" height="100%" viewBox="0 0 1000 800" version="1.1" xmlns="http://www.w3.org/2000/svg" xmlns:xlink="http://www.w3.org/1999/xlink" xml:space="preserve" xmlns:serif="http://www.serif.com/" style="fill-rule:evenodd;clip-rule:evenodd;stroke-linecap:round;stroke-linejoin:round;stroke-miterlimit:1.5;">
    <g transform="matrix(1,0,0,1,-1412.44,-1002.7)">
        <g id="Melted" transform="matrix(1.52582,0,0,2.1328,1397.13,-22.2916)">
            <rect x="10.036" y="480.585" width="655.384" height="375.094" style="fill:none;"/>
            <g transform="matrix(2.0891,0,0,1.49456,-8529.64,-657.678)">
                <g transform="matrix(0.987492,0.15767,-0.15767,0.987492,172.408,-652.441)">
                    <path d="M4218.28,764.079L4222.53,777.634L4231.88,767.391L4230.2,781.572L4242.79,776.669L4235.51,788.669L4248.84,790.077L4237.4,797.518L4248.84,804.959L4235.51,806.367L4242.79,818.366L4230.2,813.463L4231.88,827.645L4222.53,817.402L4218.28,830.956L4214.02,817.402L4204.68,827.645L4206.36,813.463L4193.77,818.366L4201.05,806.367L4187.72,804.959L4199.16,797.518L4187.72,790.077L4201.05,788.669L4193.77,776.669L4206.36,781.572L4204.68,767.391L4214.02,777.634L4218.28,764.079Z" style="fill:url(#_Radial1);stroke:rgb(35,31,32);stroke-width:1.37px;"/>
                </g>
                <g transform="matrix(0.755873,0,0,0.774813,1028.31,180.194)">
                    <ellipse cx="4212.18" cy="800.198" rx="18.19" ry="18.419" style="fill:url(#_Radial2);stroke:rgb(8,6,5);stroke-width:1.79px;"/>
                </g>
            </g>
            <g transform="matrix(2.16979,5.14446e-16,5.70103e-16,0.749382,-290.763,290.483)">
                <path d="M150,721.409L427.886,721.409" style="fill:none;stroke:rgb(8,6,5);stroke-width:1.68px;"/>
            </g>
            <g transform="matrix(2.2029,-0.302347,0.441228,1.63503,-7359.34,-1735.5)">
                <ellipse cx="3011.01" cy="1988.4" rx="18.233" ry="17.532" style="fill:white;"/>
                <path d="M3011.02,1970.1C3016.28,1970.07 3021.05,1972.1 3024.52,1975.4C3028.01,1978.72 3030.17,1983.32 3030.2,1988.4C3030.21,1993.5 3028.08,1998.13 3024.6,2001.49C3021.13,2004.84 3016.32,2006.91 3011.01,2006.92C3005.71,2006.91 3000.9,2004.84 2997.43,2001.48C2993.96,1998.13 2991.82,1993.5 2991.84,1988.4C2991.87,1983.32 2994.03,1978.72 2997.51,1975.4C3000.98,1972.1 3005.76,1970.07 3011.02,1970.1ZM3011.01,1971.65C3006.22,1971.67 3001.88,1973.56 2998.75,1976.6C2995.63,1979.63 2993.7,1983.8 2993.72,1988.4C2993.74,1992.99 2995.7,1997.13 2998.83,2000.13C3001.96,2003.11 3006.26,2004.96 3011.02,2004.95C3015.77,2004.96 3020.07,2003.11 3023.19,2000.12C3026.33,1997.13 3028.28,1992.99 3028.3,1988.4C3028.32,1983.81 3026.4,1979.63 3023.28,1976.61C3020.14,1973.57 3015.81,1971.67 3011.01,1971.65Z"/>
            </g>
            <g transform="matrix(2.70075,-0.370675,0.52868,1.9591,-9035.93,-2177.53)">
                <path d="M3008.53,2004.67C3008.55,2004.31 3008.86,2004.03 3009.22,2004.05C3009.59,2004.07 3009.86,2004.37 3009.85,2004.73C3009.76,2006.68 3009.03,2011.54 3008.06,2017.27C3006.06,2029.12 3003.04,2044.74 3002.78,2046.09C3002.81,2046.91 3003.05,2053.18 3003.3,2061.18C3003.52,2068.27 3003.75,2076.72 3003.9,2083.96C3004.07,2092.25 3004.13,2098.97 3003.95,2100.33C3003.9,2100.69 3003.57,2100.94 3003.21,2100.89C3002.85,2100.85 3002.6,2100.52 3002.64,2100.17C3002.81,2098.82 3002.67,2092.18 3002.43,2084C3002.22,2076.76 3001.91,2068.32 3001.66,2061.24C3001.36,2052.65 3001.12,2046.06 3001.12,2046.06C3001.12,2046 3001.13,2045.94 3001.14,2045.88C3001.14,2045.88 3004.44,2029.39 3006.64,2017.03C3007.64,2011.38 3008.43,2006.6 3008.53,2004.67Z"/>
            </g>
            <g transform="matrix(-0.753215,-1.68508,-1.86895,0.424884,6223.02,4917.48)">
                <path d="M2950.75,2065.99C2950.03,2065.05 2947.03,2066.22 2947.45,2067.32C2948.3,2069.52 2950.67,2079.39 2951.84,2082.23C2952.65,2084.2 2958.34,2083.68 2958.2,2081.55C2958.01,2078.84 2952.54,2068.36 2950.75,2065.99Z" style="fill:rgb(35,31,32);"/>
                <path d="M2951.28,2065.36C2951.04,2065.03 2950.65,2064.81 2950.17,2064.73C2949.58,2064.64 2948.81,2064.79 2948.17,2065.09C2947.58,2065.36 2947.11,2065.77 2946.87,2066.18C2946.58,2066.68 2946.54,2067.22 2946.74,2067.76C2947.37,2069.44 2948.84,2075.64 2950.02,2079.7C2950.39,2080.99 2950.74,2082.07 2951.02,2082.77C2951.28,2083.41 2951.84,2083.94 2952.61,2084.26C2953.56,2084.64 2954.89,2084.72 2956.05,2084.5C2957.02,2084.31 2957.88,2083.91 2958.39,2083.38C2958.91,2082.85 2959.15,2082.18 2959.1,2081.45C2959,2080.2 2957.89,2077.39 2956.45,2074.43C2954.63,2070.71 2952.33,2066.71 2951.28,2065.36ZM2948.22,2067.18C2948.23,2067.27 2948.21,2067.34 2948.16,2067.3C2948.12,2067.28 2948.16,2067.23 2948.22,2067.18ZM2957.3,2081.65C2957.3,2081.65 2957.3,2081.65 2957.3,2081.65C2957.3,2081.65 2957.3,2081.65 2957.3,2081.65ZM2948.26,2067.16C2948.33,2067.11 2948.41,2067.07 2948.47,2067.03C2948.76,2066.84 2949.12,2066.7 2949.47,2066.63C2949.66,2066.59 2949.85,2066.57 2950.01,2066.59C2950.09,2066.6 2950.18,2066.57 2950.22,2066.63C2951.2,2067.97 2953.32,2071.9 2955,2075.52C2956.18,2078.06 2957.18,2080.42 2957.29,2081.55C2957.26,2081.58 2957.21,2081.64 2957.18,2081.66C2957.05,2081.76 2956.91,2081.85 2956.74,2081.92C2956.11,2082.2 2955.28,2082.32 2954.5,2082.29C2953.97,2082.27 2953.47,2082.18 2953.07,2082C2952.89,2081.92 2952.72,2081.86 2952.66,2081.7C2952.39,2081.07 2952.07,2080.07 2951.71,2078.9C2950.52,2074.99 2948.99,2069.16 2948.26,2067.16ZM2948.16,2066.89C2948.16,2066.89 2948.16,2066.89 2948.16,2066.88C2948.16,2066.89 2948.16,2066.89 2948.16,2066.89Z"/>
            </g>
            <g transform="matrix(0.899576,-1.64817,1.82802,0.507446,-6243.91,4637.47)">
                <path d="M2950.75,2065.99C2950.03,2065.05 2947.03,2066.22 2947.45,2067.32C2948.3,2069.52 2950.67,2079.39 2951.84,2082.23C2952.65,2084.2 2958.34,2083.68 2958.2,2081.55C2958.01,2078.84 2952.54,2068.36 2950.75,2065.99Z" style="fill:rgb(35,31,32);"/>
                <path d="M2951.28,2065.36C2952.33,2066.71 2954.63,2070.71 2956.45,2074.43C2957.89,2077.39 2959,2080.2 2959.1,2081.45C2959.15,2082.18 2958.91,2082.85 2958.39,2083.38C2957.88,2083.91 2957.02,2084.31 2956.05,2084.5C2954.89,2084.72 2953.56,2084.65 2952.61,2084.26C2951.84,2083.95 2951.28,2083.41 2951.02,2082.77C2950.74,2082.07 2950.39,2080.99 2950.02,2079.7C2948.84,2075.64 2947.37,2069.44 2946.74,2067.76C2946.54,2067.22 2946.58,2066.68 2946.87,2066.18C2947.11,2065.77 2947.58,2065.36 2948.17,2065.09C2948.81,2064.79 2949.58,2064.64 2950.17,2064.73C2950.65,2064.81 2951.04,2065.03 2951.28,2065.36ZM2948.16,2066.89C2948.16,2066.89 2948.16,2066.89 2948.16,2066.88C2948.16,2066.89 2948.16,2066.89 2948.16,2066.89ZM2957.3,2081.65C2957.3,2081.65 2957.3,2081.65 2957.3,2081.65C2957.3,2081.65 2957.3,2081.65 2957.3,2081.65ZM2948.26,2067.16C2948.99,2069.16 2950.52,2074.99 2951.71,2078.9C2952.07,2080.07 2952.39,2081.07 2952.66,2081.7C2952.72,2081.86 2952.89,2081.92 2953.07,2082C2953.47,2082.18 2953.97,2082.27 2954.5,2082.29C2955.28,2082.32 2956.11,2082.2 2956.74,2081.92C2956.91,2081.85 2957.05,2081.76 2957.18,2081.66C2957.21,2081.64 2957.26,2081.58 2957.29,2081.55C2957.18,2080.42 2956.18,2078.06 2955,2075.53C2953.32,2071.9 2951.2,2067.97 2950.22,2066.63C2950.18,2066.57 2950.09,2066.6 2950.01,2066.59C2949.85,2066.57 2949.66,2066.59 2949.47,2066.63C2949.12,2066.7 2948.76,2066.84 2948.47,2067.03C2948.41,2067.07 2948.33,2067.11 2948.26,2067.16ZM2948.22,2067.18C2948.16,2067.23 2948.12,2067.28 2948.16,2067.3C2948.21,2067.34 2948.23,2067.27 2948.22,2067.18Z"/>
            </g>
            <g transform="matrix(2.70223,-0.384508,0.514343,1.97666,-9011.4,-2173.24)">
                <path d="M3001.16,2045.75C3001.25,2045.41 3001.61,2045.21 3001.96,2045.31C3002.31,2045.4 3002.51,2045.76 3002.42,2046.1C3002.42,2046.1 3000.99,2051.58 2999.03,2058.96C2997.99,2062.89 2996.8,2067.36 2995.59,2071.81C2994.88,2074.42 2994.15,2077.01 2993.46,2079.51C2990.72,2089.3 2988.41,2097.44 2988.41,2097.44C2988.32,2097.78 2987.96,2097.98 2987.61,2097.88C2987.26,2097.79 2987.05,2097.43 2987.14,2097.09C2987.14,2097.09 2989.28,2088.91 2991.91,2079.08C2992.57,2076.58 2993.27,2073.98 2993.98,2071.38C2995.2,2066.92 2996.45,2062.47 2997.54,2058.55C2999.6,2051.2 3001.16,2045.75 3001.16,2045.75Z"/>
            </g>
            <g transform="matrix(2.70075,-0.370675,0.519765,1.92606,-9018.04,-2111.25)">
                <path d="M3008.86,2006.3C3008.5,2006.01 3008.45,2005.48 3008.74,2005.13C3009.03,2004.77 3009.55,2004.71 3009.91,2005.01C3013.99,2008.32 3017.88,2011.34 3021.24,2013.65C3024.57,2015.94 3027.36,2017.55 3029.34,2017.95C3031.35,2018.38 3035.14,2017.98 3038.95,2017.19C3042.52,2016.46 3046.11,2015.38 3048.29,2014.23L3048.28,2014.21C3048.59,2014.05 3048.96,2014.16 3049.12,2014.47C3049.28,2014.77 3049.17,2015.14 3048.86,2015.29C3046.62,2016.53 3042.94,2017.76 3039.25,2018.6C3035.21,2019.53 3031.17,2019.97 3029.01,2019.56C3027.3,2019.22 3024.99,2018.11 3022.29,2016.4C3018.47,2013.97 3013.81,2010.35 3008.86,2006.3Z"/>
            </g>
            <g transform="matrix(-2.70075,-0.370675,-0.519765,1.92606,9322.05,-2111.25)">
                <path d="M3009.94,2005.04C3009.6,2004.73 3009.08,2004.75 3008.77,2005.09C3008.46,2005.43 3008.48,2005.96 3008.82,2006.27C3015.01,2011.97 3019.21,2016.13 3021.44,2018.97C3022.22,2019.96 3022.76,2020.77 3023.02,2021.42C3023.15,2021.74 3023.23,2021.98 3023.17,2022.18C3023.15,2022.25 3023.09,2022.3 3023.01,2022.34C3022.86,2022.41 3022.65,2022.46 3022.41,2022.5C3021.79,2022.58 3020.97,2022.54 3019.93,2022.4C3016.4,2021.92 3010.62,2020.3 3002.64,2017.77L3002.65,2017.76C3002.32,2017.65 3001.97,2017.83 3001.87,2018.15C3001.76,2018.48 3001.94,2018.83 3002.27,2018.92C3009.07,2021.24 3014.28,2022.87 3017.88,2023.64C3019.66,2024.03 3021.07,2024.2 3022.1,2024.17C3023.68,2024.11 3024.51,2023.5 3024.76,2022.67C3024.91,2022.19 3024.88,2021.56 3024.57,2020.79C3024.27,2020.03 3023.68,2019.07 3022.78,2017.91C3020.52,2015.03 3016.24,2010.81 3009.94,2005.04Z"/>
            </g>
            <g transform="matrix(-0.865154,-1.86317,-1.23529,0.296417,5273.98,5751.08)">
                <path d="M3048.87,2001.23C3047.51,1999.67 3045.47,1990.28 3047.42,1988.74C3050.43,1986.38 3051.1,1989.24 3050.55,1991.9C3049.75,1995.81 3050.23,2000.68 3048.87,2001.23Z"/>
                <path d="M3048.24,2001.66L3048.99,2002.59C3049.58,2002.39 3049.96,2001.69 3050.23,2000.66C3050.47,1999.74 3050.6,1998.44 3050.72,1997C3050.84,1995.58 3050.96,1994 3051.27,1992.56C3051.76,1990.29 3051.55,1987.95 3050.63,1986.8C3050.01,1986.02 3048.88,1985.75 3047.13,1987.12C3046.5,1987.63 3046.11,1988.6 3045.93,1989.9C3045.76,1991.1 3045.79,1992.64 3046,1994.25C3046.44,1997.72 3047.66,2001.49 3048.55,2002.44C3048.41,2002.28 3048.3,2002 3048.24,2001.66ZM3048.95,1999.6C3048.85,1999.39 3048.75,1999.13 3048.65,1998.84C3048.26,1997.76 3047.9,1996.25 3047.66,1994.73C3047.5,1993.68 3047.4,1992.63 3047.41,1991.72C3047.42,1991.11 3047.46,1990.56 3047.71,1990.37C3048.56,1989.7 3049.18,1989.49 3049.61,1989.66C3049.73,1989.7 3049.83,1989.74 3049.87,1989.9C3049.98,1990.25 3049.93,1990.75 3049.83,1991.24C3049.35,1993.76 3049.36,1996.63 3049.12,1998.61C3049.07,1999 3049.04,1999.36 3048.95,1999.6Z"/>
            </g>
            <g transform="matrix(-1.59591,-1.59716,-1.05776,0.544261,7245.41,4419.38)">
                <path d="M3048.87,2001.23C3047.51,1999.67 3045.47,1990.28 3047.42,1988.74C3050.43,1986.38 3051.1,1989.24 3050.55,1991.9C3049.75,1995.81 3050.23,2000.68 3048.87,2001.23Z"/>
                <path d="M3048.33,2002.03L3048.99,2002.59C3049.58,2002.39 3049.96,2001.69 3050.23,2000.66C3050.47,1999.74 3050.6,1998.44 3050.72,1997C3050.84,1995.58 3050.96,1994 3051.27,1992.56C3051.76,1990.29 3051.55,1987.95 3050.63,1986.8C3050.01,1986.02 3048.88,1985.75 3047.13,1987.12C3046.5,1987.63 3046.11,1988.6 3045.93,1989.9C3045.76,1991.1 3045.79,1992.64 3046,1994.25C3046.44,1997.72 3047.66,2001.49 3048.55,2002.44C3048.47,2002.34 3048.39,2002.2 3048.33,2002.03ZM3048.95,1999.6C3048.85,1999.39 3048.75,1999.13 3048.65,1998.84C3048.26,1997.76 3047.9,1996.25 3047.66,1994.73C3047.5,1993.68 3047.4,1992.63 3047.41,1991.72C3047.42,1991.11 3047.46,1990.56 3047.71,1990.37C3048.56,1989.7 3049.18,1989.49 3049.61,1989.66C3049.73,1989.7 3049.83,1989.74 3049.87,1989.9C3049.98,1990.25 3049.93,1990.75 3049.83,1991.24C3049.35,1993.76 3049.36,1996.63 3049.12,1998.61C3049.07,1999 3049.04,1999.36 3048.95,1999.6Z"/>
            </g>
            <g transform="matrix(1.37234,0,0,0.981782,-222.356,-1009.07)">
                <path d="M287.53,1658.09C287.53,1655.25 285.229,1652.95 282.396,1652.95L263.381,1652.95C260.548,1652.95 258.248,1655.25 258.248,1658.09C258.248,1660.92 260.548,1663.22 263.381,1663.22L282.396,1663.22C285.229,1663.22 287.53,1660.92 287.53,1658.09Z" style="fill:none;stroke:rgb(35,31,32);stroke-width:1.25px;"/>
            </g>
            <g transform="matrix(1.37234,0,0,0.981782,-222.356,-1009.07)">
                <path d="M258.248,1658.09L287.53,1658.09" style="fill:none;stroke:rgb(35,31,32);stroke-width:1.25px;"/>
            </g>
            <g transform="matrix(1.37234,0,0,0.981782,-222.356,-1009.07)">
                <path d="M264.32,1653.3L264.563,1663.22" style="fill:none;stroke:rgb(35,31,32);stroke-width:1.25px;"/>
            </g>
            <g transform="matrix(1.37234,0,0,0.981782,-222.356,-1009.07)">
                <path d="M272.889,1652.95L272.889,1663.22" style="fill:none;stroke:rgb(35,31,32);stroke-width:1.25px;"/>
            </g>
            <g transform="matrix(1.37234,0,0,0.981782,-222.356,-1009.07)">
                <path d="M280.717,1653.3L280.96,1663.22" style="fill:none;stroke:rgb(35,31,32);stroke-width:1.25px;"/>
            </g>
            <g transform="matrix(1.26413,-0.0436578,0.0630426,0.934273,-5552.66,-1534.02)">
                <path d="M4378.65,2484.02C4380.05,2484.02 4381.19,2485.86 4381.19,2488.14C4381.19,2490.42 4379.68,2491.49 4378.28,2491.49C4376.88,2491.49 4376.11,2490.42 4376.11,2488.14C4376.11,2485.86 4377.25,2484.02 4378.65,2484.02Z" style="fill:rgb(35,31,32);stroke:rgb(35,31,32);stroke-width:2.22px;"/>
            </g>
            <g transform="matrix(1.02454,-0.0353832,0.0292556,0.433559,-4417.23,-324.877)">
                <ellipse cx="4378.65" cy="2488.14" rx="2.539" ry="4.125" style="fill:white;"/>
            </g>
            <g transform="matrix(1.21703,-0.0420311,0.0604683,0.896121,-5314.24,-1446.31)">
                <path d="M4378.65,2484.02C4380.05,2484.02 4381.19,2485.86 4381.19,2488.14C4381.19,2490.42 4380.27,2491.85 4378.87,2491.85C4377.47,2491.85 4376.11,2490.42 4376.11,2488.14C4376.11,2485.86 4377.25,2484.02 4378.65,2484.02Z" style="fill:rgb(35,31,32);stroke:rgb(35,31,32);stroke-width:2.31px;"/>
            </g>
            <g transform="matrix(1.02454,-0.0353832,0.0292556,0.433559,-4391.6,-325.215)">
                <ellipse cx="4378.65" cy="2488.14" rx="2.539" ry="4.125" style="fill:white;"/>
            </g>
            <g transform="matrix(2.03791,0,0,1.82998,-9165.92,-527.566)">
                <path d="M4629.86,741.174C4630.01,741.521 4629.78,741.899 4629.34,742.017C4628.9,742.134 4628.43,741.947 4628.28,741.6C4627.46,739.7 4628.04,738.208 4629.92,737.035C4632.08,735.687 4636.25,734.79 4642.34,734.268C4649.35,733.666 4658.99,733.514 4671.09,733.57C4683.06,733.626 4697.45,733.89 4714.1,734.084C4724.68,734.236 4735.21,734.129 4745.19,733.999C4763.86,733.756 4780.58,733.393 4791.95,734.202C4798.22,734.649 4802.91,735.479 4805.49,736.837C4807.73,738.015 4808.57,739.566 4807.78,741.581C4807.64,741.932 4807.18,742.13 4806.74,742.022C4806.3,741.915 4806.05,741.543 4806.18,741.192C4806.7,739.815 4806.08,738.775 4804.55,737.982C4802.11,736.725 4797.69,736.043 4791.8,735.661C4780.46,734.926 4763.82,735.413 4745.23,735.724C4735.23,735.892 4724.67,735.998 4714.06,735.865C4697.43,735.612 4683.04,735.311 4671.07,735.198C4659.06,735.083 4649.49,735.161 4642.53,735.714C4637.99,736.073 4634.58,736.62 4632.35,737.461C4630.99,737.976 4630.09,738.579 4629.76,739.36C4629.53,739.892 4629.58,740.494 4629.86,741.174Z" style="fill:rgb(35,31,32);"/>
            </g>
            <g transform="matrix(2.33727,-0.743571,1.03937,1.67211,-10543.1,2963.6)">
                <path d="M4382.5,655.537C4375.39,653.334 4368.6,651.527 4361.91,646.221L4360.22,634.731L4356.93,632.909L4358.1,644.2L4342.1,632.909L4340.65,637.783L4346.22,640.911L4340.24,646.061L4343.74,649.563L4349.92,643.383C4359.77,650.846 4370.44,656.691 4382.5,659.863" style="fill:rgb(214,146,9);"/>
                <path d="M4382.62,655.14C4382.84,655.208 4382.96,655.441 4382.9,655.66C4382.83,655.879 4382.59,656.002 4382.38,655.934C4377.96,654.58 4373.67,653.376 4369.44,651.402C4366.81,650.172 4364.2,648.642 4361.61,646.596C4361.52,646.521 4361.45,646.411 4361.43,646.29L4359.76,635.055L4357.54,633.836L4358.63,644.145C4358.65,644.355 4358.55,644.558 4358.37,644.664C4358.19,644.771 4357.96,644.761 4357.79,644.639C4357.79,644.639 4342.41,633.813 4342.41,633.813C4342.41,633.813 4341.31,637.516 4341.31,637.516L4346.49,640.429C4346.64,640.517 4346.75,640.677 4346.77,640.856C4346.78,641.035 4346.71,641.212 4346.58,641.33L4341.04,646.092L4343.74,648.811L4349.56,643.02C4349.74,642.839 4350.03,642.82 4350.23,642.974C4355.13,646.705 4360.23,650.032 4365.61,652.826C4370.98,655.612 4376.62,657.868 4382.6,659.461C4382.82,659.52 4382.96,659.747 4382.9,659.969C4382.84,660.191 4382.61,660.323 4382.39,660.265C4376.34,658.69 4370.62,656.445 4365.19,653.658C4359.87,650.934 4354.82,647.693 4349.97,644.061L4344.12,649.939C4343.91,650.147 4343.57,650.147 4343.37,649.939L4339.86,646.444C4339.75,646.337 4339.7,646.191 4339.7,646.041C4339.71,645.891 4339.77,645.749 4339.89,645.651L4345.26,641.008L4340.38,638.269C4340.15,638.141 4340.05,637.875 4340.12,637.625L4341.56,632.751C4341.61,632.579 4341.74,632.441 4341.91,632.382C4342.08,632.323 4342.27,632.35 4342.42,632.454C4342.42,632.454 4357.44,643.08 4357.44,643.08L4356.41,632.962C4356.4,632.772 4356.48,632.586 4356.64,632.48C4356.8,632.374 4357.01,632.366 4357.18,632.458L4360.47,634.286C4360.61,634.363 4360.7,634.5 4360.73,634.657C4360.73,634.657 4362.36,645.964 4362.36,645.964C4364.83,647.916 4367.32,649.386 4369.83,650.579C4374.01,652.557 4378.25,653.773 4382.62,655.14Z" style="fill:rgb(35,31,32);"/>
            </g>
            <g transform="matrix(0.638912,1.77198,2.47688,-0.457083,-3919.41,-6694.15)">
                <path d="M4400.92,644.288C4398.9,657.099 4404.36,674.336 4407.88,681.773L4415.15,679.583L4406.59,646.427L4400.92,644.288Z" style="fill:rgb(215,26,1);stroke:rgb(35,31,32);stroke-width:1.79px;"/>
            </g>
            <g transform="matrix(2.55796,0,0,1.82998,-10887.7,-449.81)">
                <path d="M4454.12,680.62L4461.88,693.171C4445.31,694.93 4425.33,693.218 4402.85,691.929L4405.49,683.393C4420.82,685.633 4439.38,685.998 4454.12,680.62Z" style="fill:rgb(215,26,1);stroke:rgb(35,31,32);stroke-width:1.79px;"/>
            </g>
            <g transform="matrix(-0.925387,1.70603,-2.3847,-0.66203,6179.76,-6290.69)">
                <path d="M4443.65,677.693L4441.96,696.137C4422.92,698.98 4407.26,683.426 4414.91,670.276L4416.67,672.796C4414.34,686.018 4429.61,682.279 4443.65,677.693Z" style="fill:rgb(215,26,1);stroke:rgb(35,31,32);stroke-width:1.79px;"/>
            </g>
            <g transform="matrix(0.731567,-0.280663,0.632626,0.843964,-3237.27,1443.67)">
                <ellipse cx="4412" cy="695.204" rx="4.655" ry="4.957" style="fill:rgb(35,31,32);stroke:rgb(35,31,32);stroke-width:2.57px;"/>
            </g>
            <g transform="matrix(-0.0520481,0.592706,-1.33598,-0.0600447,1719.8,-1774.31)">
                <ellipse cx="4412" cy="695.204" rx="4.655" ry="4.957" style="fill:rgb(35,31,32);stroke:rgb(35,31,32);stroke-width:2.57px;"/>
            </g>
            <g transform="matrix(2.55796,0,0,1.82998,-11698,-544.54)">
                <g transform="matrix(1.47098,0,0,1.58347,-1753.58,-241.548)">
                    <path d="M4413.21,610.539C4412.32,610.197 4409.63,610.088 4406.42,610.157C4406.37,610.158 4406.27,610.16 4406.27,610.16L4405.57,610.703L4405.18,610.192C4405.18,610.192 4405.12,610.194 4405.08,610.195C4398.82,610.414 4391.34,611.236 4391.17,612.287C4390.96,613.59 4401.04,617.343 4407.33,619.082C4407.4,619.101 4407.54,619.139 4407.54,619.139L4408.21,618.657L4408.66,619.366C4408.66,619.366 4409.05,619.528 4409.12,619.546C4410.51,619.876 4411.54,620.042 4412,619.97C4413.68,617.672 4414.01,614.483 4413.21,610.539Z" style="fill:rgb(255,191,54);stroke:rgb(35,31,32);stroke-width:0.73px;"/>
                </g>
                <g transform="matrix(1.47098,0,0,1.58347,-1753.84,-232.445)">
                    <path d="M4408.33,609.302C4408.34,609.175 4408.46,609.077 4408.59,609.084C4408.73,609.09 4408.84,609.198 4408.83,609.325L4408.77,612.833C4408.76,613.027 4408.59,613.177 4408.38,613.168C4408.17,613.158 4408,612.992 4408.02,612.798L4408.33,609.302Z" style="fill:rgb(35,31,32);"/>
                </g>
                <g transform="matrix(-1.45059,-0.258333,0.172718,-1.29073,11016,2654.86)">
                    <path d="M4408.33,609.309C4408.34,609.155 4408.46,609.031 4408.6,609.033C4408.73,609.036 4408.84,609.163 4408.83,609.317L4408.8,612.475C4408.79,612.712 4408.61,612.901 4408.4,612.898C4408.19,612.895 4408.03,612.7 4408.04,612.463L4408.33,609.309Z" style="fill:rgb(35,31,32);"/>
                </g>
                <g transform="matrix(1.46877,0.0560798,0.0158688,0.984212,-1765.01,-115.281)">
                    <path d="M4408.33,609.304C4408.35,609.099 4408.47,608.938 4408.6,608.943C4408.74,608.948 4408.84,609.118 4408.83,609.323L4408.77,612.83C4408.76,613.143 4408.57,613.391 4408.36,613.383C4408.15,613.375 4408,613.114 4408.02,612.801L4408.33,609.304Z" style="fill:rgb(35,31,32);"/>
                </g>
            </g>
            <g transform="matrix(2.33158,0.752671,-1.05209,1.66803,-9089.24,-3676.62)">
                <path d="M4402.69,682.246C4407.83,682.3 4428.6,674.129 4428.6,674.129L4432.25,659.878L4435.1,660.354L4433.08,671.646C4436.75,669.234 4439.54,666.238 4442.09,663.078L4444.82,664.167C4440.74,669.228 4436.47,674.229 4430.47,678.695L4435.92,681.601L4433.74,683.961L4425.39,679.966L4402.69,687.775L4402.69,682.246Z" style="fill:rgb(214,146,9);"/>
                <path d="M4402.69,681.83C4404.22,681.842 4407.16,681.098 4410.51,680.07C4417.64,677.881 4426.63,674.376 4428.18,673.765L4431.74,659.748C4431.81,659.486 4432.07,659.319 4432.33,659.363L4435.19,659.834C4435.33,659.857 4435.45,659.935 4435.53,660.05C4435.61,660.165 4435.65,660.308 4435.62,660.447C4435.62,660.447 4433.84,670.451 4433.84,670.451C4435.18,669.482 4436.4,668.431 4437.54,667.325C4439.03,665.871 4440.38,664.32 4441.66,662.728C4441.81,662.537 4442.07,662.469 4442.3,662.56L4445.03,663.649C4445.19,663.715 4445.31,663.854 4445.36,664.026C4445.4,664.197 4445.36,664.38 4445.25,664.518C4443.13,667.147 4440.96,669.762 4438.52,672.291C4436.41,674.477 4434.11,676.599 4431.47,678.619L4436.17,681.139C4436.31,681.215 4436.41,681.353 4436.44,681.513C4436.46,681.673 4436.41,681.837 4436.3,681.956L4434.12,684.312C4433.97,684.478 4433.72,684.525 4433.52,684.427L4425.36,680.501L4402.83,688.183C4402.69,688.228 4402.55,688.207 4402.44,688.126C4402.32,688.045 4402.26,687.914 4402.26,687.775L4402.27,682.246C4402.27,682.135 4402.32,682.029 4402.39,681.951C4402.47,681.873 4402.58,681.829 4402.69,681.83ZM4403.1,682.651L4403.12,687.169L4425.23,679.497C4425.35,679.455 4425.48,679.463 4425.6,679.519L4433.62,683.331C4433.62,683.331 4435.08,681.746 4435.08,681.746L4430.22,679.169C4430.06,679.082 4429.95,678.919 4429.94,678.735C4429.92,678.552 4430,678.374 4430.15,678.265C4433.02,676.124 4435.48,673.859 4437.73,671.526C4439.95,669.204 4441.96,666.813 4443.91,664.405C4443.91,664.405 4442.27,663.748 4442.27,663.748C4441.03,665.261 4439.74,666.734 4438.31,668.12C4436.83,669.558 4435.21,670.902 4433.38,672.103C4433.19,672.223 4432.96,672.223 4432.78,672.102C4432.59,671.982 4432.5,671.765 4432.54,671.549C4432.54,671.549 4434.49,660.785 4434.49,660.785L4432.63,660.472L4429.07,674.251C4429.03,674.403 4428.92,674.527 4428.77,674.585C4428.77,674.585 4418.65,678.54 4410.77,680.91C4407.59,681.866 4404.77,682.56 4403.1,682.651Z" style="fill:rgb(35,31,32);"/>
            </g>
            <g transform="matrix(-0.540551,0,0,0.332924,1453.22,554.621)">
                <path d="M1810.38,618.559C1814.5,587.645 1795.05,572.795 1803.3,534.55C1810.28,502.22 1839.63,485.183 1818.18,450.583C1809.15,436.015 1790.73,431.375 1798.17,465.573C1766.95,424.666 1822.28,401.417 1835.32,450.583C1847.09,494.948 1819.69,513.134 1814.63,540.275C1809.62,567.118 1819.2,585.6 1810.38,618.559Z" style="fill:none;stroke:rgb(35,31,32);stroke-width:2.27px;"/>
            </g>
            <g transform="matrix(0.537564,0,0,0.384578,-449.458,517.935)">
                <path d="M1587.35,518.71C1571.13,533.696 1569.88,550.351 1579.75,572.689C1589.8,595.456 1571.38,618.447 1591.33,638.599C1586.02,608.124 1600.92,585.4 1591.84,566.236C1581.92,545.309 1582.74,536.868 1587.35,518.71Z" style="fill:none;stroke:rgb(35,31,32);stroke-width:2.13px;"/>
            </g>
            <g transform="matrix(0.566022,0,0,0.205511,-439.855,642.859)">
                <path d="M1655.54,506.778C1647.11,560.005 1669.18,579.902 1644.17,638.599C1658.77,588.521 1627.37,558.646 1655.54,506.778Z" style="fill:none;stroke:rgb(35,31,32);stroke-width:2.55px;"/>
            </g>
            <g transform="matrix(-0.566022,0,0,0.205511,1357.11,569.422)">
                <path d="M1655.54,506.778C1647.11,560.005 1669.18,579.902 1644.17,638.599C1658.77,588.521 1627.37,558.646 1655.54,506.778Z" style="fill:none;stroke:rgb(35,31,32);stroke-width:2.55px;"/>
            </g>
            <g transform="matrix(0.467282,0,0,0.205511,-291.749,566.471)">
                <path d="M1666.89,588.071C1651.62,553.755 1615.59,560.596 1607.62,649.569C1605.38,518.916 1665.09,523.361 1666.89,588.071Z" style="fill:none;stroke:rgb(35,31,32);stroke-width:2.95px;"/>
            </g>
            <g transform="matrix(0.456354,0,0,0.384578,-292.271,505.138)">
                <path d="M1614.06,453.936C1636.47,485.192 1592.42,514.333 1609.81,543.552C1629.05,575.881 1600.38,614.296 1619.74,638.599C1607.2,613.289 1650.78,585.489 1630.42,552.011C1608.87,516.574 1651.23,471.845 1614.06,453.936Z" style="fill:none;stroke:rgb(35,31,32);stroke-width:2.29px;"/>
            </g>
            <g transform="matrix(-0.537564,0,0,0.294739,1226.83,542.323)">
                <path d="M1487.03,779.103C1465.37,708.064 1498.25,703.66 1489.41,665.358C1481.64,631.73 1470.64,610.256 1491.37,572.689C1482.78,608.122 1489.98,621.403 1499.55,653.918C1509.7,688.416 1483.59,713.365 1487.03,779.103Z" style="fill:none;stroke:rgb(35,31,32);stroke-width:2.39px;"/>
            </g>
            <g transform="matrix(2.57893,0,0,1.84498,-11066,-462.79)">
                <ellipse cx="4412" cy="695.204" rx="4.655" ry="4.957" style="fill:rgb(66,66,66);stroke:rgb(35,31,32);stroke-width:1.11px;"/>
            </g>
        </g>
    </g>
    <defs>
        <radialGradient id="_Radial1" cx="0" cy="0" r="1" gradientUnits="userSpaceOnUse" gradientTransform="matrix(23.4248,-2.10929,0.0748829,19.39,4218.28,797.518)"><stop offset="0" style="stop-color:rgb(255,249,237);stop-opacity:1"/><stop offset="1" style="stop-color:rgb(255,191,54);stop-opacity:1"/></radialGradient>
        <radialGradient id="_Radial2" cx="0" cy="0" r="1" gradientUnits="userSpaceOnUse" gradientTransform="matrix(11.2752,7.50851,-11.1028,7.62511,4212.18,800.198)"><stop offset="0" style="stop-color:rgb(255,248,193);stop-opacity:1"/><stop offset="1" style="stop-color:rgb(248,220,8);stop-opacity:1"/></radialGradient>
    </defs>
</svg>
