<?xml version="1.0" encoding="UTF-8" standalone="no"?>
<!DOCTYPE svg PUBLIC "-//W3C//DTD SVG 1.1//EN" "http://www.w3.org/Graphics/SVG/1.1/DTD/svg11.dtd">
<svg width="100%" height="100%" viewBox="0 0 800 600" version="1.1" xmlns="http://www.w3.org/2000/svg" xmlns:xlink="http://www.w3.org/1999/xlink" xml:space="preserve" xmlns:serif="http://www.serif.com/" style="fill-rule:evenodd;clip-rule:evenodd;stroke-linejoin:round;stroke-miterlimit:1.5;">
    <g transform="matrix(1,0,0,1,0,-24508.7)">
        <g id="AstronomyCertificate" transform="matrix(0.323267,0,0,0.318718,-2389.21,18299.9)">
            <rect x="7390.81" y="19480.7" width="2474.73" height="1882.54" style="fill:white;"/>
            <clipPath id="_clip1">
                <rect x="7390.81" y="19480.7" width="2474.73" height="1882.54"/>
            </clipPath>
            <g clip-path="url(#_clip1)">
                <g transform="matrix(3.19912,0,0,3.06267,-16344.8,-40328.8)">
                    <path d="M8202.55,20012.1C8182.96,19988 8161.95,19955.8 8133.58,19941.5C8119.65,19934.5 8098.81,19934.3 8094.93,19953.4C8089.29,19981.2 8124.52,20006.9 8106.25,20034C8087.71,20061.4 8017.16,20041.5 8023.3,20100.3C8026.83,20134 8170.73,20149.7 8197.4,20152.4" style="fill:rgb(146,146,146);"/>
                </g>
                <g transform="matrix(2.52339,0,0,2.55941,-11248,-30502.6)">
                    <path d="M7362.38,19642.1C7370.81,19639.4 7373.89,19631 7382.56,19629.1C7387.86,19628 7407.33,19619.4 7415.03,19620.4C7452.28,19625.2 7407.2,19652.7 7404.47,19671.6C7400.61,19698.3 7440.74,19701.8 7430.1,19735.7C7425.12,19751.6 7376.62,19745.3 7362.7,19743.8" style="fill:rgb(214,175,45);"/>
                </g>
                <g transform="matrix(2.52339,0,0,2.55941,-11288,-30502.5)">
                    <path d="M7377.36,19540.2C7379.19,19528.8 7432.97,19522.1 7440.75,19522C7496.32,19520.9 7575.64,19545.9 7542.93,19609.8C7524.01,19646.8 7484.78,19666.6 7455.56,19631.8C7449.63,19624.8 7447.02,19591 7430.51,19590.2C7399.86,19588.9 7387.59,19617.2 7377.32,19609.4C7362.65,19598.2 7370.54,19574.1 7377.1,19561.1" style="fill:rgb(146,146,146);"/>
                </g>
                <g transform="matrix(2.52339,0,0,2.55941,-10840.7,-30426.1)">
                    <path d="M8218.1,19549.8C8174.8,19524.8 8126.34,19514.1 8076.55,19512.8C8055.33,19512.2 8026.17,19519.6 8029.92,19546.7C8035.08,19584 8077.15,19579 8091.57,19606.2C8099.71,19621.6 8087.03,19640.7 8099.45,19654.3C8120.28,19677.1 8143.54,19646.2 8164.43,19642.6C8177.65,19640.3 8208.01,19675.4 8216.1,19683.7" style="fill:rgb(146,146,146);"/>
                </g>
                <g transform="matrix(2.52339,0,0,2.55941,-10833.2,-30421)">
                    <path d="M8218.55,19716.4C8177.48,19685.7 8165.79,19662.2 8133.74,19625.4C8124.29,19614.6 8110.11,19606.1 8103.49,19593.2C8093.6,19573.9 8097.38,19549.8 8111.64,19533.8C8138.93,19503.2 8180.49,19508.6 8216.93,19499.9" style="fill:none;stroke:black;stroke-width:1.23px;"/>
                </g>
                <g transform="matrix(3.64107,0,0,3.06267,-19921.2,-40328.8)">
                    <path d="M8191.59,19926.4C8181.05,19962.3 8154.49,19974 8121.83,19987.5C8109.29,19992.7 8089.57,20006.7 8092.38,20023C8099.12,20062.2 8143.57,20018 8159.54,20022.7C8175.57,20027.4 8183.47,20061.8 8189.06,20074.7" style="fill:none;stroke:black;stroke-width:0.92px;"/>
                </g>
                <g transform="matrix(3.27334,0,0,3.17876,-16715.3,-42567.5)">
                    <path d="M7357.19,19925.1C7378.21,19951 7405.1,19991.1 7433.93,20009.8C7473.13,20035.3 7511.56,20010.9 7534.12,20063.1C7538.62,20073.6 7542.6,20087 7540.25,20098.4C7530.17,20147 7454.39,20121.9 7432.35,20096.6C7422.49,20085.3 7418.51,20069.9 7405.67,20061.3C7389.46,20050.4 7369.45,20053.9 7356.44,20036.4C7331.63,20003 7340.7,19958.4 7348.14,19924.7" style="fill:rgb(214,175,45);"/>
                </g>
                <g transform="matrix(3.27334,0,0,3.17876,-16715.3,-42567.5)">
                    <path d="M7459.14,19964.8C7440.8,19945 7394.77,20014 7424.4,20043.3C7434.37,20053.1 7450.97,20057 7464.3,20052.9C7473.96,20050 7483.82,20038.9 7481.58,20028.1C7477.54,20008.7 7462.2,20010.6 7457.61,19994.2C7455.27,19985.8 7472.67,19979.5 7459.14,19964.8Z" style="fill:rgb(146,146,146);"/>
                </g>
                <g transform="matrix(3.27334,0,0,3.17876,-16715.3,-42567.5)">
                    <path d="M7505.85,19991.1C7503.58,19989.7 7500.06,19988.6 7496.39,19990.7C7492.44,19993 7490.71,20001.4 7495.43,20004.9C7503.42,20010.9 7509.15,20002.9 7509.68,20000.1C7510.64,19994.9 7506.94,19991.8 7505.85,19991.1Z" style="fill:rgb(214,175,45);"/>
                </g>
                <g id="logo" transform="matrix(0.856437,0,0,0.88239,1290.24,2354.98)">
                    <g transform="matrix(3.31491,0,0,3.26334,8884.71,19708)">
                        <path d="M0,-5.756L0,-17.167L-2.886,-17.167L-2.886,-5.4L4.494,8.524L-17.935,8.524L-10.555,-5.4L-10.555,-17.167L-13.441,-17.167L-13.441,-5.756L-21.621,9.279L-22.78,11.411L9.338,11.411L8.178,9.279L0,-5.756Z" style="fill:rgb(97,200,243);fill-rule:nonzero;"/>
                    </g>
                    <g transform="matrix(3.31491,0,0,3.26334,8862.43,19723.8)">
                        <path d="M0,-31.635C-4.983,-31.635 -9.668,-29.695 -13.191,-26.171C-16.715,-22.648 -18.655,-17.963 -18.655,-12.979C-18.655,-8.352 -16.949,-3.913 -13.85,-0.481L-13.416,0L-11.795,-2.976L-11.99,-3.215C-14.23,-5.962 -15.463,-9.429 -15.463,-12.979C-15.463,-17.11 -13.855,-20.993 -10.935,-23.914C-8.014,-26.834 -4.13,-28.442 0,-28.442C4.13,-28.442 8.013,-26.834 10.934,-23.914C13.854,-20.995 15.463,-17.111 15.463,-12.979C15.463,-9.428 14.229,-5.96 11.99,-3.214L11.795,-2.975L13.416,0L13.85,-0.481C16.949,-3.913 18.656,-8.352 18.656,-12.979C18.656,-17.963 16.715,-22.648 13.191,-26.171C9.668,-29.694 4.984,-31.635 0,-31.635" style="fill:rgb(44,42,107);fill-rule:nonzero;"/>
                    </g>
                    <g transform="matrix(3.31491,0,0,3.26334,8862.2,19688.3)">
                        <path d="M0,-5.22C-0.746,-5.296 -1.389,-5.1 -1.957,-4.666C-2.498,-4.196 -2.82,-3.606 -2.895,-2.86C-2.969,-2.146 -2.771,-1.503 -2.337,-0.934C-1.868,-0.395 -1.278,-0.072 -0.532,0.003C0.182,0.076 0.825,-0.121 1.394,-0.555C1.933,-1.024 2.256,-1.614 2.328,-2.328C2.405,-3.075 2.208,-3.717 1.773,-4.286C1.304,-4.826 0.714,-5.148 0,-5.22" style="fill:rgb(71,110,181);fill-rule:nonzero;"/>
                    </g>
                    <g transform="matrix(3.31491,0,0,3.26334,8871.86,19692.6)">
                        <path d="M0,3.122C0.396,2.799 0.645,2.34 0.702,1.78C0.758,1.221 0.608,0.721 0.284,0.325C-0.035,-0.112 -0.494,-0.36 -1.053,-0.417C-1.612,-0.474 -2.113,-0.323 -2.513,0.04C-2.909,0.363 -3.158,0.823 -3.214,1.382C-3.272,1.942 -3.12,2.441 -2.798,2.837C-2.475,3.233 -2.016,3.482 -1.455,3.538C-0.896,3.596 -0.397,3.445 0,3.122" style="fill:rgb(71,110,181);fill-rule:nonzero;"/>
                    </g>
                    <g transform="matrix(3.31491,0,0,3.26334,8862.83,19707.3)">
                        <path d="M0,2.294C0.34,2.048 0.515,1.715 0.557,1.299C0.6,0.882 0.496,0.522 0.215,0.178C-0.033,-0.128 -0.366,-0.302 -0.783,-0.344C-1.199,-0.387 -1.559,-0.282 -1.9,-0.037C-2.209,0.247 -2.384,0.579 -2.426,0.995C-2.468,1.412 -2.365,1.772 -2.115,2.078C-1.834,2.422 -1.502,2.596 -1.086,2.639C-0.669,2.681 -0.308,2.577 0,2.294" style="fill:rgb(71,110,181);fill-rule:nonzero;"/>
                    </g>
                    <g transform="matrix(3.31491,0,0,3.26334,8861.83,19719.2)">
                        <path d="M0,1.951C0.272,1.978 0.508,1.911 0.709,1.726C0.932,1.564 1.046,1.347 1.073,1.075C1.101,0.803 1.033,0.567 0.85,0.343C0.687,0.143 0.47,0.029 0.198,0.002C-0.074,-0.027 -0.309,0.041 -0.532,0.202C-0.734,0.387 -0.848,0.605 -0.875,0.877C-0.904,1.149 -0.836,1.385 -0.673,1.584C-0.489,1.809 -0.273,1.923 0,1.951" style="fill:rgb(71,110,181);fill-rule:nonzero;"/>
                    </g>
                    <g transform="matrix(3.31491,0,0,3.26334,8781.87,19694.5)">
                        <path d="M0,-8.753C-1.217,-15.084 -1.437,-16.296 -1.459,-16.454L-1.584,-17.37L-5.976,-17.719L-6.312,-16.993C-6.359,-16.891 -6.7,-16.12 -9.117,-10.618C-10.549,-7.36 -11.919,-4.252 -13.231,-1.295C-14.917,-5.01 -16.417,-8.358 -17.699,-11.273C-19.25,-14.798 -20.084,-16.696 -20.201,-16.967L-20.55,-17.773L-25.018,-17.127L-25.19,-16.353C-25.285,-15.926 -25.836,-13.262 -26.876,-8.21C-27.893,-3.263 -29.004,1.814 -30.18,6.88L-30.452,8.052L-25.416,8.97L-25.214,7.836C-24.418,3.381 -23.567,-1.001 -22.686,-5.189C-22.39,-6.594 -22.153,-7.718 -21.964,-8.614C-21.532,-7.659 -21.007,-6.497 -20.391,-5.13C-18.712,-1.406 -17.148,2.13 -15.74,5.381L-15.441,6.073L-11.486,6.073L-11.189,5.376C-9.704,1.904 -8.152,-1.617 -6.575,-5.088C-5.972,-6.415 -5.455,-7.551 -5.019,-8.501L-1.796,9.02L3.366,8.006L3.13,6.87C1.99,1.383 0.937,-3.873 0,-8.753" style="fill:rgb(44,42,107);fill-rule:nonzero;"/>
                    </g>
                    <g transform="matrix(3.31491,0,0,3.26334,9042.2,19643.5)">
                        <path d="M0,22.493C-1.14,17.006 -2.193,11.749 -3.13,6.87C-4.347,0.539 -4.567,-0.673 -4.589,-0.831L-4.714,-1.747L-9.106,-2.096L-9.441,-1.37C-9.488,-1.268 -9.83,-0.497 -12.247,5.005C-13.678,8.263 -15.049,11.371 -16.361,14.328C-18.047,10.613 -19.547,7.265 -20.829,4.349C-22.379,0.825 -23.214,-1.073 -23.331,-1.344L-23.68,-2.15L-28.147,-1.504L-28.32,-0.731C-28.415,-0.303 -28.966,2.361 -30.005,7.413C-31.023,12.36 -32.134,17.436 -33.31,22.503L-33.582,23.675L-28.546,24.593L-28.344,23.459C-27.548,19.004 -26.697,14.622 -25.816,10.434C-25.52,9.029 -25.283,7.905 -25.094,7.009C-24.661,7.964 -24.137,9.126 -23.521,10.493C-21.842,14.217 -20.278,17.753 -18.87,21.004L-18.571,21.696L-14.616,21.696L-14.319,20.999C-12.834,17.526 -11.282,14.006 -9.705,10.535C-9.102,9.207 -8.584,8.072 -8.149,7.122L-4.926,24.643L0.236,23.629L0,22.493Z" style="fill:rgb(44,42,107);fill-rule:nonzero;"/>
                    </g>
                    <g transform="matrix(3.31491,0,0,3.26334,8104.07,19684.3)">
                        <path d="M0,-2.803C-0.826,-3.287 -1.688,-3.746 -2.564,-4.168C-3.36,-4.552 -4.006,-4.893 -4.495,-5.191C-5.538,-5.809 -5.969,-6.267 -6.147,-6.541C-6.383,-6.905 -6.497,-7.26 -6.497,-7.627C-6.497,-8.059 -6.397,-8.414 -6.191,-8.716C-5.949,-9.071 -5.667,-9.338 -5.33,-9.532C-4.887,-9.788 -4.354,-9.983 -3.747,-10.111C-3.092,-10.248 -2.452,-10.318 -1.846,-10.318C-0.716,-10.318 0.237,-10.282 0.989,-10.211C1.772,-10.138 2.218,-10.095 2.328,-10.082L3.861,-9.909L3.354,-15.16L2.348,-15.275C2.229,-15.288 1.753,-15.32 0.92,-15.365C-1.404,-15.494 -3.742,-15.44 -5.653,-14.944C-6.96,-14.606 -8.091,-14.082 -9.023,-13.384C-9.935,-12.69 -10.688,-11.843 -11.263,-10.865C-11.866,-9.833 -12.172,-8.618 -12.172,-7.253C-12.172,-5.911 -11.84,-4.669 -11.186,-3.564C-10.541,-2.474 -9.483,-1.477 -8.049,-0.606C-7.266,-0.122 -6.374,0.354 -5.399,0.808C-4.51,1.223 -3.78,1.599 -3.227,1.929C-2.483,2.367 -1.961,2.803 -1.676,3.223C-1.425,3.594 -1.303,4.059 -1.303,4.643C-1.303,5.149 -1.41,5.536 -1.632,5.824C-1.904,6.178 -2.325,6.497 -2.879,6.77C-3.189,6.922 -3.8,7.141 -4.946,7.333C-5.917,7.495 -6.709,7.577 -7.299,7.577C-8.342,7.577 -9.255,7.544 -10.013,7.479C-10.769,7.414 -11.229,7.371 -11.395,7.346L-12.908,7.126L-12.614,12.419L-11.541,12.518C-11.4,12.531 -10.891,12.563 -10.013,12.615C-9.145,12.666 -8.286,12.691 -7.462,12.691C-5.901,12.691 -4.453,12.539 -3.159,12.239C-1.833,11.931 -0.633,11.467 0.406,10.858C1.601,10.159 2.565,9.231 3.275,8.099C4.003,6.937 4.372,5.58 4.372,4.064C4.372,2.601 3.985,1.273 3.223,0.117C2.491,-0.991 1.408,-1.973 0,-2.803" style="fill:rgb(71,110,181);fill-rule:nonzero;"/>
                    </g>
                    <g transform="matrix(3.31491,0,0,3.26334,8202.76,19650.8)">
                        <path d="M0,17.839L-0.355,17.839C-1.905,17.839 -3.489,17.672 -5.064,17.342C-6.591,17.024 -7.986,16.505 -9.219,15.798C-10.654,14.984 -11.707,13.981 -12.351,12.817C-13.004,11.635 -13.335,10.295 -13.335,8.836C-13.335,7.437 -12.979,6.167 -12.244,4.954C-11.511,3.743 -10.442,2.732 -9.069,1.948C-7.979,1.331 -6.649,0.859 -5.115,0.545C-3.537,0.221 -1.992,0.057 -0.523,0.057L1.479,0.057L1.358,-1.304C1.309,-1.871 1.266,-2.398 1.229,-2.887C1.191,-3.367 1.168,-3.717 1.155,-3.935L1.088,-5.114L-0.933,-5.114C-3.812,-5.114 -6.558,-4.663 -9.098,-3.774C-11.683,-2.867 -13.783,-1.61 -15.343,-0.037C-16.426,1.059 -17.314,2.359 -17.982,3.825C-18.664,5.321 -19.01,6.988 -19.01,8.779C-19.01,10.751 -18.664,12.541 -17.981,14.099C-17.301,15.652 -16.36,17.007 -15.189,18.123C-13.539,19.705 -11.417,20.923 -8.882,21.744C-6.403,22.546 -3.547,22.953 -0.392,22.953L1.417,22.953L1.509,21.803C1.557,21.206 1.609,20.653 1.664,20.147L1.936,17.722L0.438,17.823C0.282,17.834 0.136,17.839 0,17.839" style="fill:rgb(71,110,181);fill-rule:nonzero;"/>
                    </g>
                    <g transform="matrix(3.31491,0,0,3.26334,8249.86,19652.8)">
                        <path d="M0,16.518C-0.024,14.449 -0.037,11.525 -0.037,7.746C-0.037,6.254 -0.027,4.331 -0.009,1.975C0.01,-0.381 0.031,-2.448 0.057,-4.227L0.074,-5.495L-5.544,-5.495L-5.525,-4.226C-5.488,-1.752 -5.463,0.635 -5.45,2.934C-5.438,5.235 -5.432,7.094 -5.432,8.511C-5.432,12.09 -5.444,14.836 -5.469,16.749C-5.494,18.665 -5.513,19.996 -5.525,20.742L-5.547,22.013L0.078,22.013L0.057,20.742C0.044,19.996 0.025,18.587 0,16.518" style="fill:rgb(71,110,181);fill-rule:nonzero;"/>
                    </g>
                    <g transform="matrix(3.31491,0,0,3.26334,8331.14,19651.6)">
                        <path d="M0,17.26C-1.261,17.272 -2.816,17.279 -4.666,17.279C-5.871,17.279 -6.995,17.276 -8.04,17.269C-8.56,17.266 -9.04,17.262 -9.482,17.257C-9.49,16.588 -9.497,15.838 -9.505,15.005C-9.516,13.88 -9.521,12.432 -9.522,10.66C-9.26,10.658 -8.979,10.656 -8.683,10.655C-7.857,10.649 -7.147,10.646 -6.553,10.646C-4.938,10.646 -3.155,10.655 -1.204,10.674C0.758,10.693 1.789,10.701 1.889,10.701L3.139,10.701L3.139,5.624L1.889,5.624C1.775,5.624 0.854,5.634 -0.88,5.653C-2.601,5.671 -4.553,5.68 -6.739,5.68C-7.334,5.68 -8.013,5.677 -8.774,5.671C-9.035,5.669 -9.283,5.667 -9.52,5.666C-9.515,4.801 -9.504,3.901 -9.486,2.965C-9.469,1.971 -9.457,0.975 -9.452,-0.022C-9.179,-0.024 -8.882,-0.026 -8.562,-0.028C-7.667,-0.034 -6.755,-0.037 -5.824,-0.037C-3.689,-0.037 -1.904,-0.028 -0.472,-0.01C0.977,0.01 1.764,0.019 1.889,0.019L3.139,0.019L3.139,-5.077L1.889,-5.077C1.764,-5.077 0.951,-5.071 -0.55,-5.058C-2.041,-5.046 -3.974,-5.04 -6.348,-5.04C-7.751,-5.04 -9.113,-5.046 -10.435,-5.058C-11.766,-5.071 -12.875,-5.077 -13.762,-5.077L-15.03,-5.077L-15.012,-3.808C-14.975,-1.335 -14.949,1.058 -14.938,3.37C-14.925,5.683 -14.918,7.542 -14.918,8.947C-14.918,11.51 -14.928,13.989 -14.946,16.39C-14.965,18.776 -14.986,20.327 -15.011,21.045L-15.055,22.337L-13.762,22.337C-12.851,22.337 -11.735,22.33 -10.416,22.319C-9.105,22.306 -7.662,22.3 -6.086,22.3C-3.812,22.3 -1.904,22.306 -0.362,22.319L3.382,22.337L3.382,17.24L2.132,17.24C1.981,17.24 1.271,17.247 0,17.26" style="fill:rgb(71,110,181);fill-rule:nonzero;"/>
                    </g>
                    <g transform="matrix(3.31491,0,0,3.26334,8432.43,19720.4)">
                        <path d="M0,-24.974C0,-22.781 0.024,-19.413 0.074,-14.872C0.101,-12.434 0.121,-10.375 0.133,-8.695C-2.372,-11.801 -5.033,-15.139 -7.807,-18.656C-11.397,-23.206 -13.305,-25.625 -13.527,-25.911L-14.144,-26.7L-18.613,-24.582L-18.602,-23.779C-18.564,-21.267 -18.539,-18.89 -18.527,-16.647C-18.515,-14.402 -18.508,-12.602 -18.508,-11.246C-18.508,-7.854 -18.521,-5.208 -18.546,-3.306C-18.57,-1.421 -18.588,-0.326 -18.601,-0.017L-18.653,1.284L-13.169,1.284L-13.188,0.014C-13.2,-0.732 -13.229,-3.533 -13.272,-8.39C-13.302,-11.661 -13.321,-14.589 -13.331,-17.169C-12.433,-16.046 -11.275,-14.599 -9.858,-12.827C-6.62,-8.775 -3.082,-4.16 0.656,0.89L1.275,1.726L5.395,-0.287L5.395,-1.068C5.395,-1.205 5.382,-2.322 5.357,-4.417C5.332,-6.498 5.32,-9.305 5.32,-12.834C5.32,-13.94 5.329,-15.748 5.348,-18.26C5.366,-20.772 5.389,-23.005 5.413,-24.958L5.429,-26.224L0,-26.224L0,-24.974Z" style="fill:rgb(71,110,181);fill-rule:nonzero;"/>
                    </g>
                    <g transform="matrix(3.31491,0,0,3.26334,8538.15,19650.8)">
                        <path d="M0,17.839L-0.355,17.839C-1.905,17.839 -3.489,17.672 -5.064,17.342C-6.591,17.024 -7.986,16.505 -9.219,15.798C-10.654,14.984 -11.707,13.981 -12.351,12.817C-13.004,11.635 -13.335,10.295 -13.335,8.836C-13.335,7.437 -12.979,6.167 -12.244,4.954C-11.511,3.743 -10.442,2.732 -9.069,1.948C-7.979,1.331 -6.649,0.859 -5.115,0.545C-3.537,0.221 -1.992,0.057 -0.523,0.057L1.479,0.057L1.358,-1.304C1.309,-1.871 1.266,-2.398 1.229,-2.887C1.191,-3.367 1.168,-3.717 1.155,-3.935L1.088,-5.114L-0.933,-5.114C-3.812,-5.114 -6.558,-4.663 -9.098,-3.774C-11.683,-2.867 -13.783,-1.61 -15.343,-0.037C-16.426,1.059 -17.314,2.359 -17.982,3.825C-18.664,5.321 -19.01,6.988 -19.01,8.779C-19.01,10.751 -18.664,12.541 -17.981,14.099C-17.301,15.652 -16.36,17.007 -15.189,18.123C-13.539,19.705 -11.417,20.923 -8.882,21.744C-6.403,22.546 -3.547,22.953 -0.392,22.953L1.417,22.953L1.509,21.803C1.557,21.206 1.609,20.653 1.664,20.147L1.936,17.722L0.438,17.823C0.282,17.834 0.136,17.839 0,17.839" style="fill:rgb(71,110,181);fill-rule:nonzero;"/>
                    </g>
                    <g transform="matrix(3.31491,0,0,3.26334,8616.57,19651.6)">
                        <path d="M0,17.26C-1.261,17.272 -2.816,17.279 -4.666,17.279C-5.871,17.279 -6.995,17.276 -8.04,17.269C-8.56,17.266 -9.04,17.262 -9.482,17.257C-9.49,16.588 -9.497,15.838 -9.505,15.005C-9.516,13.88 -9.521,12.432 -9.522,10.66C-9.26,10.658 -8.979,10.656 -8.683,10.655C-7.857,10.649 -7.147,10.646 -6.553,10.646C-4.938,10.646 -3.155,10.655 -1.204,10.674C0.758,10.693 1.789,10.701 1.889,10.701L3.139,10.701L3.139,5.624L1.889,5.624C1.775,5.624 0.854,5.634 -0.88,5.653C-2.601,5.671 -4.553,5.68 -6.739,5.68C-7.334,5.68 -8.013,5.677 -8.774,5.671C-9.035,5.669 -9.283,5.667 -9.52,5.666C-9.515,4.801 -9.504,3.901 -9.486,2.965C-9.469,1.971 -9.457,0.975 -9.452,-0.022C-9.179,-0.024 -8.882,-0.026 -8.562,-0.028C-7.667,-0.034 -6.755,-0.037 -5.824,-0.037C-3.689,-0.037 -1.904,-0.028 -0.472,-0.01C0.977,0.01 1.764,0.019 1.889,0.019L3.139,0.019L3.139,-5.077L1.889,-5.077C1.764,-5.077 0.951,-5.071 -0.55,-5.058C-2.041,-5.046 -3.974,-5.04 -6.348,-5.04C-7.751,-5.04 -9.113,-5.046 -10.435,-5.058C-11.766,-5.071 -12.875,-5.077 -13.762,-5.077L-15.03,-5.077L-15.012,-3.808C-14.975,-1.335 -14.949,1.058 -14.938,3.37C-14.925,5.683 -14.918,7.542 -14.918,8.947C-14.918,11.51 -14.928,13.989 -14.946,16.39C-14.965,18.776 -14.986,20.327 -15.011,21.045L-15.055,22.337L-13.762,22.337C-12.851,22.337 -11.735,22.33 -10.416,22.319C-9.105,22.306 -7.662,22.3 -6.086,22.3C-3.812,22.3 -1.904,22.306 -0.362,22.319L3.382,22.337L3.382,17.24L2.132,17.24C1.981,17.24 1.271,17.247 0,17.26" style="fill:rgb(71,110,181);fill-rule:nonzero;"/>
                    </g>
                </g>
                <g transform="matrix(0.837622,0,0,0.849579,1628.53,3276.27)">
                    <text x="7489.72px" y="19701.5px" style="font-family:'OpenDyslexic-Regular', 'OpenDyslexic';font-size:108.452px;fill:rgb(75,9,21);">CER<tspan x="7709.23px " y="19701.5px ">T</tspan>IFICA<tspan x="8067.99px " y="19701.5px ">T</tspan>E OF COMPLETION</text>
                    <text x="7840.26px" y="19878.6px" style="font-family:'OpenDyslexic-Regular', 'OpenDyslexic';font-size:88.561px;fill:rgb(75,9,21);">THIS CER<tspan x="8266.68px " y="19878.6px ">T</tspan>IFIES THA<tspan x="8772.9px " y="19878.6px ">T</tspan></text>
                </g>
                <g transform="matrix(0.807573,0,0,0.832045,1648.7,3561.27)">
                    <g transform="matrix(3.12466,0,0,3.07605,-15700.4,-40440.8)">
                        <path d="M7836.89,20045.3C7836.7,20045.7 7836.4,20046.6 7836.4,20046.6C7836.4,20046.6 7837.05,20042.2 7837.65,20040.1C7838.79,20036.1 7840.62,20032.3 7841.64,20028.4C7841.81,20027.7 7844.23,20023.2 7844.39,20023.4C7845.28,20024.2 7844.23,20029.7 7844.39,20030.9C7844.71,20033.2 7845.38,20037.9 7845.38,20037.9C7845.38,20037.9 7845.86,20035.2 7846.14,20033.9C7846.75,20030.9 7848.24,20028.4 7849.89,20025.9C7850.15,20025.5 7851.59,20022.1 7852.13,20022.6C7852.66,20023.1 7852.13,20027.2 7852.13,20027.9C7852.13,20032.5 7852.74,20036.7 7853.88,20041.1C7854.18,20042.2 7853.67,20044.6 7855.38,20044.6" style="fill:none;stroke:black;stroke-width:1.23px;"/>
                    </g>
                    <g transform="matrix(3.12466,0,0,3.07605,-15700.4,-40440.8)">
                        <path d="M7865.86,20035.6C7866.44,20034.5 7866.18,20031 7864.11,20032.4C7861.81,20033.9 7855.52,20041.2 7858.62,20044.3C7861.4,20047.2 7865.81,20041.8 7866.35,20039.3C7866.83,20037.2 7867.37,20032.9 7867.37,20032.9C7867.37,20032.9 7866.53,20035.2 7866.35,20036.4C7865.99,20038.8 7865.53,20042 7867.11,20044.1C7868.97,20046.5 7875.5,20040.9 7874.09,20039.6" style="fill:none;stroke:black;stroke-width:1.23px;"/>
                    </g>
                    <g transform="matrix(3.12466,0,0,3.07605,-15700.4,-40440.8)">
                        <path d="M7877.09,20025.4C7876.08,20023.3 7876.39,20028.9 7876.35,20029.4C7876.11,20032.4 7876.1,20035.5 7876.1,20038.6C7876.1,20039.5 7875.66,20041.3 7876.59,20041.3C7876.85,20041.3 7876.41,20039 7876.35,20038.8" style="fill:none;stroke:black;stroke-width:1.23px;"/>
                    </g>
                    <g transform="matrix(3.12466,0,0,3.07605,-15700.4,-40440.8)">
                        <path d="M7870.86,20033.6C7871.86,20033.3 7883.3,20030.6 7883.83,20029.9C7885.24,20027.8 7884.59,20024.3 7884.59,20021.9C7884.59,20021.6 7884.88,20018.9 7885.34,20018.9C7885.53,20018.9 7884.62,20023.7 7884.59,20024.1C7884.25,20028.7 7883.91,20033.3 7883.57,20037.9C7883.51,20038.7 7882.58,20043.3 7883.34,20044.1C7884.08,20044.9 7884.18,20042.1 7884.59,20041.1C7885.32,20039.3 7887.99,20031.4 7890.81,20032.1C7893.53,20032.8 7892.82,20039.5 7892.82,20042.1L7892.82,20044.6C7892.82,20045 7892.82,20046.2 7892.82,20045.8L7892.82,20044.6" style="fill:none;stroke:black;stroke-width:1.23px;"/>
                    </g>
                    <g transform="matrix(3.12466,0,0,3.07605,-15700.4,-40440.8)">
                        <path d="M7914.54,20021.1C7914.54,20019.5 7914.54,20025 7914.54,20025.9C7914.54,20030 7914.26,20034.5 7913.79,20038.6C7913.72,20039.1 7913,20042.1 7913.53,20042.6C7913.95,20043 7914.23,20041.5 7914.28,20041.3" style="fill:none;stroke:black;stroke-width:1.23px;"/>
                    </g>
                    <g transform="matrix(3.12466,0,0,3.07605,-15700.4,-40440.8)">
                        <path d="M7910.53,20022.9C7909.33,20019.1 7914.76,20019.4 7917.28,20019.6C7921.32,20020 7925.66,20024.1 7927.28,20027.6C7929.9,20033.4 7924.11,20038.4 7919.78,20041.1C7918.31,20042 7913.3,20044.7 7912.04,20042.3" style="fill:none;stroke:black;stroke-width:1.23px;"/>
                    </g>
                    <g transform="matrix(3.12466,0,0,3.07605,-15700.4,-40440.8)">
                        <path d="M7934.5,20034.9C7932.31,20030.3 7928.25,20038 7929.52,20040.6C7931.2,20044 7934.87,20038.9 7935.75,20037.6C7936.44,20036.6 7936.97,20033.3 7937.5,20034.4C7938.04,20035.5 7936.72,20037.8 7937,20039.1C7937.38,20040.9 7940.43,20044.1 7941.74,20041.3" style="fill:none;stroke:black;stroke-width:1.23px;"/>
                    </g>
                    <g transform="matrix(3.12466,0,0,3.07605,-15700.4,-40440.8)">
                        <path d="M7945.99,20033.9C7942.76,20028.7 7934.6,20044.5 7943.25,20043.1C7948.5,20042.2 7950.23,20033.5 7950.23,20029.4C7950.23,20029 7949.13,20022.5 7948.49,20023.1C7947.84,20023.8 7948.25,20026.3 7948.25,20027.1C7948.25,20031 7949.16,20035.1 7950.23,20038.8C7950.46,20039.6 7951.82,20042.6 7952.73,20040.8" style="fill:none;stroke:black;stroke-width:1.23px;"/>
                    </g>
                </g>
                <g transform="matrix(0.61186,0,0,0.630401,3397.25,7845.62)">
                    <g transform="matrix(3.12466,0,0,3.07605,-15700.4,-40440.8)">
                        <path d="M7578.77,20018.9C7578.77,20006.8 7559.27,20010.6 7553.06,20014.9C7551.19,20016.2 7548.43,20017.6 7548.06,20020.1C7547.41,20024.5 7551.75,20025.7 7555.06,20026.9C7560.52,20028.8 7579.09,20033.4 7575.28,20042.6C7572.36,20049.6 7562.63,20055 7555.3,20055.6C7551.94,20055.8 7544.36,20052.8 7548.57,20048.6" style="fill:none;stroke:black;stroke-width:1.62px;"/>
                    </g>
                    <g transform="matrix(3.12466,0,0,3.07605,-15700.4,-40440.8)">
                        <path d="M7588.25,20034.4C7588.25,20031.9 7585.91,20023.9 7582.02,20028.4C7578.86,20032 7577.25,20042.4 7580.02,20046.6C7583.26,20051.5 7591.47,20049.1 7594.5,20045.6C7597.36,20042.3 7596.96,20038.2 7595.99,20034.4C7595.86,20033.9 7596.08,20031.5 7595.99,20031.4C7595.85,20031.2 7596.19,20035.4 7596.24,20035.9C7596.58,20038.5 7596.46,20041.2 7597,20043.8C7597.08,20044.2 7596.82,20046.3 7597.5,20046.3C7597.86,20046.3 7597.86,20044.6 7597.99,20044.3" style="fill:none;stroke:black;stroke-width:1.62px;"/>
                    </g>
                    <g transform="matrix(3.12466,0,0,3.07605,-15700.4,-40440.8)">
                        <path d="M7594.76,20020.6C7594.33,20020.6 7594.53,20020.9 7594.76,20020.6" style="fill:none;stroke:black;stroke-width:1.62px;"/>
                    </g>
                    <g transform="matrix(3.12466,0,0,3.07605,-15700.4,-40440.8)">
                        <path d="M7602.73,20034.6C7604.27,20033.6 7605.68,20032.6 7607.24,20031.6C7609.07,20030.5 7612.19,20026.8 7611.23,20024.4C7610.2,20021.8 7606.63,20022.2 7604.98,20024.1C7603.79,20025.5 7603.45,20025.9 7602.73,20027.6C7601.98,20029.4 7602.14,20029.3 7601.98,20031.1C7601.8,20033.2 7601.31,20035.4 7602.49,20037.4C7607.8,20046.1 7623.7,20039 7623.7,20029.9" style="fill:none;stroke:black;stroke-width:1.62px;"/>
                    </g>
                    <g transform="matrix(3.12466,0,0,3.07605,-15700.4,-40440.8)">
                        <path d="M7623.7,20020.1C7623.7,20022.1 7624.39,20024.6 7624.95,20026.6C7625.27,20027.7 7625.51,20029 7625.71,20030.1C7625.81,20030.7 7625.39,20036.5 7624.95,20035.6C7622.71,20031.2 7622,20012.7 7630.71,20015.1C7635.37,20016.5 7636.05,20027.9 7636.44,20031.6C7636.57,20032.8 7636.72,20038.4 7637.93,20035.9" style="fill:none;stroke:black;stroke-width:1.62px;"/>
                    </g>
                    <g transform="matrix(3.12466,0,0,3.07605,-15700.4,-40440.8)">
                        <path d="M7647.93,20013.9C7642.01,20008.2 7635.87,20018.9 7637.69,20024.9C7640.43,20034 7653.66,20034.3 7653.66,20023.9" style="fill:none;stroke:black;stroke-width:1.62px;"/>
                    </g>
                    <g transform="matrix(3.12466,0,0,3.07605,-15700.4,-40440.8)">
                        <path d="M7654.67,20022.4C7656.78,20021.2 7658.93,20020.1 7660.66,20018.4C7662.95,20016.2 7666.02,20010.3 7663.66,20007.2C7660.43,20002.9 7655.8,20007.2 7654.67,20010.7C7654.18,20012.1 7653.59,20015.6 7653.42,20017.1C7653.17,20019.5 7653.39,20023.4 7655.66,20024.9C7661.61,20028.7 7668.87,20025.7 7673.38,20021.1C7674.65,20019.9 7679.58,20014.6 7676.38,20012.9" style="fill:none;stroke:black;stroke-width:1.62px;"/>
                    </g>
                    <g transform="matrix(3.12466,0,0,3.07605,-15700.4,-40440.8)">
                        <path d="M7650.17,20037.6C7648.79,20037.6 7650.24,20044.6 7650.43,20045.6C7651.77,20052.7 7652.74,20059.9 7654.15,20067.1C7654.54,20069 7654.26,20073.3 7655.66,20074.8C7656.56,20075.7 7656.65,20071.4 7656.65,20071.3" style="fill:none;stroke:black;stroke-width:1.62px;"/>
                    </g>
                    <g transform="matrix(3.12466,0,0,3.07605,-15700.4,-40440.8)">
                        <path d="M7648.68,20035.1C7647.73,20034.2 7650,20036.1 7650.43,20036.9C7651.31,20038.4 7652.07,20040 7652.67,20041.6C7654.5,20046.5 7661.52,20065.1 7669.89,20059.1C7676.7,20054.1 7676.87,20039.6 7676.87,20032.4L7676.87,20022.9C7676.87,20021.7 7676.87,20018.2 7676.87,20019.4C7676.87,20030 7681.9,20042.1 7684.37,20052.3C7685.36,20056.4 7686.4,20061.8 7688.62,20065.5C7689.51,20067 7691.23,20069.3 7692.11,20066.8" style="fill:none;stroke:black;stroke-width:1.62px;"/>
                    </g>
                    <g transform="matrix(3.12466,0,0,3.07605,-15700.4,-40440.8)">
                        <path d="M7696.85,20023.4C7693.57,20021.7 7690.56,20029 7690.1,20031.4C7688.24,20041.2 7694.22,20060.1 7707.84,20054.6C7720.01,20049.7 7722.15,20034.6 7712.32,20026.6C7710.57,20025.2 7707.83,20022.9 7705.34,20022.6C7700.55,20022 7697.24,20022.8 7693.36,20025.4C7691.24,20026.8 7689.29,20028.8 7692.6,20029.6" style="fill:none;stroke:black;stroke-width:1.62px;"/>
                    </g>
                    <g transform="matrix(3.12466,0,0,3.07605,-15700.4,-40440.8)">
                        <path d="M7720.82,20039.8C7720.82,20039.9 7721.4,20041.4 7721.57,20041.1C7724.45,20035.6 7722.73,20023.9 7721.81,20018.1C7721.66,20017.2 7720.09,20011.2 7721.07,20010.2C7721.42,20009.8 7724.76,20018.3 7724.8,20018.4C7726.81,20023.6 7727.74,20029.8 7731.05,20034.4C7731.75,20035.3 7734.69,20037.4 7736.05,20036.4C7737.76,20035.1 7737.3,20031.3 7737.3,20029.6C7737.3,20022.1 7736.06,20014.9 7735.04,20007.4C7734.61,20004.3 7734.31,20004.5 7734.31,20001.4C7734.31,20000.9 7733.97,19999 7734.54,19998.7C7735.02,19998.4 7736.87,20003.6 7737.05,20004.2C7738.84,20009.7 7739.76,20015.5 7742.78,20020.6C7744.56,20023.6 7746.68,20026.3 7749.03,20028.9C7749.86,20029.8 7752.34,20032.7 7752.28,20032.6" style="fill:none;stroke:black;stroke-width:1.62px;"/>
                    </g>
                    <g transform="matrix(3.12466,0,0,3.07605,-15700.4,-40440.8)">
                        <path d="M7695.86,20029.6C7694.04,20031.4 7697.35,20036.9 7697.35,20034.4" style="fill:none;stroke:black;stroke-width:1.62px;"/>
                    </g>
                    <g transform="matrix(3.12466,0,0,3.07605,-15700.4,-40440.8)">
                        <path d="M7700.34,20028.6C7700.34,20030.6 7701.19,20032.3 7702.61,20033.6" style="fill:none;stroke:black;stroke-width:1.62px;"/>
                    </g>
                    <g transform="matrix(3.12466,0,0,3.07605,-15700.4,-40440.8)">
                        <path d="M7696.35,20040.1C7695.78,20040.6 7697.08,20041.9 7697.35,20042.6C7698.59,20045.7 7701.32,20046.8 7704.59,20046.8C7709.33,20046.8 7717.57,20033.6 7709.33,20033.6" style="fill:none;stroke:black;stroke-width:1.62px;"/>
                    </g>
                </g>
                <g transform="matrix(0.680255,0,0,0.689965,2782.91,6990.79)">
                    <text x="7641.36px" y="19701.5px" style="font-family:'OpenDyslexic-Regular', 'OpenDyslexic';font-size:106.012px;fill:rgb(75,9,21);">HAS SUCCESSFULL<tspan x="8672.64px " y="19701.5px ">Y</tspan> COMPLETED</text>
                    <text x="7805.94px" y="19807.5px" style="font-family:'OpenDyslexic-Regular', 'OpenDyslexic';font-size:106.012px;fill:rgb(75,9,21);">A COURSE IN ASTR<tspan x="8876.98px " y="19807.5px ">O</tspan>NOMY<tspan x="9276.54px " y="19807.5px ">.</tspan></text>
                    <text x="7959.31px" y="19975.4px" style="font-family:'OpenDyslexic-Regular', 'OpenDyslexic';font-size:61.84px;fill:rgb(75,9,21);">In c<tspan x="8073.1px " y="19975.4px ">o</tspan>mpletin<tspan x="8360.28px " y="19975.4px ">g</tspan> this c<tspan x="8602.02px " y="19975.4px ">o</tspan>urse<tspan x="8782.16px " y="19975.4px ">,</tspan> the<tspan x="8930.64px " y="19975.4px ">y</tspan> h<tspan x="9037.5px 9075.1px 9114.06px " y="19975.4px 19975.4px 19975.4px ">ave</tspan></text>
                    <text x="7857.15px" y="20037.2px" style="font-family:'OpenDyslexic-Regular', 'OpenDyslexic';font-size:61.84px;fill:rgb(75,9,21);">demonstr<tspan x="8167.46px " y="20037.2px ">a</tspan>ted their master<tspan x="8746.66px " y="20037.2px ">y</tspan> of the middle</text>
                    <text x="7876.23px" y="20099.1px" style="font-family:'OpenDyslexic-Regular', 'OpenDyslexic';font-size:61.84px;fill:rgb(75,9,21);">scho<tspan x="8024.09px " y="20099.1px ">o</tspan>l ne<tspan x="8186.05px " y="20099.1px ">x</tspan>t ge<tspan x="8361.12px " y="20099.1px ">n</tspan>er<tspan x="8466.49px " y="20099.1px ">a</tspan>tion scie<tspan x="8778.79px 8818.31px 8852.01px " y="20099.1px 20099.1px 20099.1px ">nce</tspan> st<tspan x="8982.8px " y="20099.1px ">a</tspan>ndar<tspan x="9162.45px " y="20099.1px ">d</tspan>s</text>
                    <text x="7865.84px" y="20160.9px" style="font-family:'OpenDyslexic-Regular', 'OpenDyslexic';font-size:61.84px;fill:rgb(75,9,21);">f<tspan x="7891.93px " y="20160.9px ">o</tspan>r phy<tspan x="8104.36px " y="20160.9px ">s</tspan>ic<tspan x="8189.08px " y="20160.9px ">a</tspan>l scie<tspan x="8396.61px 8436.13px 8469.83px " y="20160.9px 20160.9px 20160.9px ">nce</tspan>s and h<tspan x="8750.84px 8788.44px 8827.4px " y="20160.9px 20160.9px 20160.9px ">ave</tspan> thor<tspan x="9028.25px " y="20160.9px ">o</tspan>ughly</text>
                    <text x="8234.31px" y="20222.7px" style="font-family:'OpenDyslexic-Regular', 'OpenDyslexic';font-size:61.84px;fill:rgb(75,9,21);">defeated Math Dad!</text>
                </g>
            </g>
        </g>
    </g>
</svg>
