<?xml version="1.0" encoding="UTF-8" standalone="no"?>
<!DOCTYPE svg PUBLIC "-//W3C//DTD SVG 1.1//EN" "http://www.w3.org/Graphics/SVG/1.1/DTD/svg11.dtd">
<svg width="100%" height="100%" viewBox="0 0 37 54" version="1.1" xmlns="http://www.w3.org/2000/svg" xmlns:xlink="http://www.w3.org/1999/xlink" xml:space="preserve" xmlns:serif="http://www.serif.com/" style="fill-rule:evenodd;clip-rule:evenodd;stroke-linecap:round;stroke-linejoin:round;stroke-miterlimit:1.5;">
    <rect id="bacteria-smiling" x="0.559" y="0" width="36" height="54" style="fill:none;"/>
    <path d="M27.348,10.871C27.297,10.991 27.297,11.129 27.245,11.25C27.244,11.253 25.507,12.405 23.779,12.973C23.721,12.992 23.66,13.051 23.604,13.028C23.372,12.932 23.193,12.73 22.961,12.634C23.121,12.44 23.194,12.185 23.353,11.991C23.358,11.986 24.7,11.813 26.788,10.857C26.849,10.829 26.904,10.769 26.971,10.77C27.101,10.774 27.218,10.868 27.348,10.871Z"/>
    <path d="M14.569,5.865C11.363,6.44 5.473,12.745 7.632,24.566C9.651,35.619 11.566,32.741 16.109,45.009C17.887,49.81 25.622,51.658 29.609,47.509C32.42,44.584 34.546,40.342 29.129,30.917C24.314,22.541 26.011,19.119 24.082,14.013C20.715,5.098 17.519,5.337 14.569,5.865Z" style="fill:white;stroke:black;stroke-width:1.07px;"/>
    <path d="M12.109,19.509C12.714,21.355 14.302,19.992 13.609,19.018C12.916,18.043 11.504,17.664 12.109,19.509Z" style="stroke:black;stroke-width:1.07px;"/>
    <path d="M18.609,18.206C19.093,19.857 20.712,19.325 20.109,17.766C19.507,16.206 18.125,16.555 18.609,18.206Z" style="stroke:black;stroke-width:1.07px;"/>
    <path d="M14.109,23.009C14.196,23.629 15.645,27.308 17.609,27.009C19.573,26.71 20.181,23.311 20.109,22.509C20.037,21.708 14.022,22.39 14.109,23.009Z" style="fill:none;stroke:black;stroke-width:1.07px;"/>
    <path d="M13.256,0.776C13.307,1.19 13.45,1.59 13.501,2.004C13.538,2.306 13.418,2.311 13.561,5.526C13.575,5.823 13.7,6.136 13.602,6.416C13.519,6.654 13.15,6.711 13.067,6.948C12.963,6.457 12.685,6.013 12.581,5.522C12.557,5.41 12.808,2.191 12.864,1.966C12.964,1.561 13.156,1.182 13.256,0.776Z"/>
    <path d="M6.674,5.894C6.859,6.02 7.12,6.001 7.305,6.128C7.388,6.185 10.32,9.034 10.327,9.056C10.409,9.294 10.208,9.572 10.289,9.81C9.934,9.584 9.497,9.507 9.141,9.281C9.136,9.278 8.202,8.11 7.091,6.783C7.021,6.7 6.926,6.632 6.88,6.533C6.785,6.331 6.769,6.097 6.674,5.894Z"/>
    <path d="M3.898,12.794C4.234,12.887 4.589,12.9 4.925,12.993C5.422,13.13 5.341,13.406 7.397,13.752C8.026,13.857 8.043,13.82 8.069,13.861C8.203,14.073 8.526,14.254 8.471,14.499C8.415,14.744 8.081,14.861 7.832,14.901C7.607,14.937 7.394,14.772 7.175,14.706C4.532,13.918 4.201,13.08 3.898,12.794Z"/>
    <path d="M1.518,16.615C1.794,16.568 2.05,16.433 2.327,16.387C2.56,16.348 3.93,16.486 4.069,16.5C4.894,16.583 6.082,16.808 6.814,16.932C7.512,17.051 7.848,16.956 7.698,17.647C7.521,18.46 7.137,17.935 4.208,17.304C3.386,17.127 2.282,16.986 2.272,16.982C2.009,16.887 1.781,16.71 1.518,16.615Z"/>
    <path d="M3.3,25.018C3.416,24.958 3.416,24.763 3.532,24.703C3.667,24.633 7.146,24.002 7.461,23.945C7.868,23.871 7.729,24.156 8.053,24.412C7.832,24.533 7.805,24.883 7.584,25.004C7.551,25.022 5.924,25.054 4.281,25.191C4.059,25.21 3.835,25.287 3.616,25.249C3.487,25.226 3.428,25.041 3.3,25.018Z"/>
    <path d="M4.356,31.123C4.423,31.011 4.303,30.844 4.37,30.732C4.438,30.618 7.471,27.602 7.656,27.415C7.948,27.122 7.998,27.433 8.41,27.453C8.291,27.675 8.489,27.986 8.37,28.207C8.353,28.24 6.555,29.633 5.389,30.6C5.175,30.778 4.996,31.01 4.747,31.136C4.631,31.194 4.472,31.064 4.356,31.123Z"/>
    <path d="M6.858,34.689C6.895,34.564 6.833,34.423 6.871,34.298C6.877,34.276 7.624,33.549 7.836,32.989C7.973,32.624 8.005,32.282 8.959,31.274C9.013,31.217 9.044,31.115 9.122,31.104C9.371,31.069 9.626,31.178 9.875,31.142C9.817,31.387 9.895,31.651 9.837,31.895C9.835,31.906 9.053,32.477 8.758,32.931C8.558,33.238 8.554,33.568 7.592,34.411C7.576,34.424 7.26,34.698 7.249,34.7C7.122,34.731 6.984,34.658 6.858,34.689Z"/>
    <path d="M10.215,42.564C10.614,42.101 10.97,41.603 11.369,41.14C11.578,40.898 13.473,39.322 13.522,39.312C13.768,39.261 14.019,39.492 14.265,39.441C14.007,39.764 13.879,40.178 13.621,40.501C13.548,40.592 13.499,40.522 12.403,41.293C12.211,41.428 12.033,41.584 11.83,41.702C11.302,42.008 10.742,42.257 10.215,42.564Z"/>
    <path d="M11.838,46.387C14.031,44.327 13.937,44.212 14.865,42.915C15.193,42.458 15.304,42.322 15.737,42.682C16.228,43.09 15.98,43.217 15.567,43.702C14.822,44.576 14.383,45.151 12.422,46.64C12.345,46.698 12.279,46.85 12.191,46.812C12.022,46.739 12.007,46.46 11.838,46.387Z"/>
    <path d="M14.918,51.128C14.936,50.999 14.821,50.874 14.839,50.744C14.855,50.627 14.956,50.538 15.015,50.435C15.807,49.071 16.101,48.925 17.057,47.811C17.47,47.331 17.578,47.095 18.034,47.532C18.496,47.975 18.264,48.097 17.786,48.526C16.75,49.457 16.428,49.577 15.512,50.768C15.441,50.861 15.4,50.987 15.3,51.047C15.189,51.114 15.03,51.06 14.918,51.128Z"/>
    <path d="M22.733,52.67C22.264,51.587 22.263,51.59 21.87,50.475C21.818,50.327 21.68,50.184 21.712,50.03C21.764,49.784 22.047,49.628 22.098,49.382C22.277,49.709 22.642,49.909 22.82,50.236C22.834,50.261 22.897,50.931 23.15,52.041C23.185,52.192 23.342,52.365 23.256,52.494C23.154,52.648 22.834,52.517 22.733,52.67Z"/>
    <path d="M32.961,47.679C32.778,47.628 32.58,47.658 32.397,47.607C32.281,47.575 32.306,47.525 31.058,46.914C30.484,46.634 30.241,46.55 30.597,46.018C30.929,45.522 31.29,45.832 31.336,45.872C32.681,47.027 32.701,47.009 32.772,47.14C32.862,47.308 32.871,47.511 32.961,47.679Z"/>
    <path d="M36.259,41.497C36.129,41.489 36.02,41.636 35.89,41.628C35.677,41.615 34.972,41.051 33.716,41.088C33.025,41.108 32.673,41.147 32.667,41.144C32.449,41.018 32.134,40.861 32.134,40.61C32.135,39.963 32.389,40.051 33.032,40.106C34.634,40.241 34.893,40.417 35.705,40.885C35.846,40.966 36.018,41.009 36.127,41.13C36.215,41.226 36.172,41.401 36.259,41.497Z"/>
    <path d="M34.866,33.331C34.736,33.344 34.639,33.477 34.509,33.49C34.3,33.511 33.695,33.014 32.14,33.145C31.846,33.169 30.407,33.319 30.406,33.318C30.178,33.212 30.079,32.914 29.851,32.807C30.191,32.671 30.464,32.398 30.804,32.261C30.925,32.213 31.064,32.265 31.194,32.267C32.817,32.293 33.135,32.292 34.41,32.843C34.509,32.885 34.631,32.895 34.705,32.974C34.794,33.069 34.777,33.235 34.866,33.331Z"/>
    <path d="M31.172,24.139C31.146,24.267 31.269,24.396 31.243,24.524C31.243,24.526 30.959,24.985 30.917,25.052C29.908,26.627 29.488,26.772 27.586,27.015C27.444,27.033 27.291,27.124 27.161,27.066C26.931,26.963 26.823,26.672 26.593,26.569C26.923,26.421 27.184,26.145 27.514,25.997C27.747,25.892 28.917,26.264 29.818,25.377C30.187,25.014 30.784,24.213 30.788,24.211C30.898,24.141 31.062,24.208 31.172,24.139Z"/>
    <path d="M28.728,18.282C28.633,18.429 28.614,18.617 28.519,18.765C28.454,18.865 28.398,18.806 27.406,19.771C27.023,20.144 26.638,20.416 26.237,20.665C26.15,20.719 26.076,20.832 25.974,20.824C25.723,20.804 25.509,20.606 25.258,20.586C25.424,20.352 25.47,20.047 25.636,19.813C25.725,19.689 25.851,19.883 27.292,18.857C27.711,18.559 28.196,18.286 28.2,18.285C28.373,18.253 28.555,18.315 28.728,18.282Z"/>
    <path d="M22.175,2.536C22,3.068 21.88,3.618 21.705,4.151C21.628,4.384 20.319,6.892 20.292,6.912C20.092,7.065 19.758,6.935 19.559,7.088C19.695,6.655 19.668,6.182 19.804,5.75C19.806,5.745 20.368,4.952 20.841,4.206C20.923,4.076 20.99,3.935 21.086,3.815C21.436,3.377 21.826,2.973 22.175,2.536Z"/>
</svg>
