<?xml version="1.0" encoding="UTF-8" standalone="no"?>
<!DOCTYPE svg PUBLIC "-//W3C//DTD SVG 1.1//EN" "http://www.w3.org/Graphics/SVG/1.1/DTD/svg11.dtd">
<svg width="100%" height="100%" viewBox="0 0 70 41" version="1.1" xmlns="http://www.w3.org/2000/svg" xmlns:xlink="http://www.w3.org/1999/xlink" xml:space="preserve" xmlns:serif="http://www.serif.com/" style="fill-rule:evenodd;clip-rule:evenodd;stroke-linecap:round;stroke-linejoin:round;stroke-miterlimit:1.5;">
    <rect id="Mountains" x="0" y="0.479" width="70" height="40" style="fill:none;"/>
    <path d="M56.554,19.232C63.105,27.616 69,36.594 69,36.594L19.457,37.007C19.457,37.007 24.884,24.049 25.127,23.695C25.742,22.8 27.057,20.903 28.7,18.646L30.269,19.691L32.815,18.774L35.818,19.691L38.419,18.646L40.04,19.691L43.282,18.766L46.437,19.691L49.129,18.513L51.566,19.691L54.127,18.509L56.554,19.232Z" style="fill:rgb(125,117,108);stroke:black;stroke-width:0.91px;"/>
    <path d="M21.087,19.653C26.486,25.762 33.475,37.344 33.475,37.344L1,37.5C1,37.5 7.209,25.8 12.025,19.653L13.48,20.397L15.628,19.696L18.76,20.397L21.087,19.653Z" style="fill:rgb(125,117,108);stroke:black;stroke-width:0.91px;"/>
    <path d="M12.025,19.653C13.756,17.445 15.306,15.954 16.325,15.979C17.457,16.008 19.172,17.487 21.087,19.653L18.76,20.397L15.628,19.696L13.48,20.397L12.025,19.653Z" style="fill:rgb(245,244,243);stroke:black;stroke-width:0.91px;"/>
    <path d="M28.7,18.646C32.834,12.964 39.041,5.001 41.352,5C44.574,4.998 50.815,11.887 56.554,19.232L54.127,18.509L51.566,19.691L49.129,18.513L46.437,19.691L43.282,18.766L40.04,19.691L38.419,18.646L35.818,19.691L32.815,18.774L30.269,19.691L28.7,18.646Z" style="fill:rgb(243,242,241);stroke:black;stroke-width:0.91px;"/>
</svg>
