<?xml version="1.0" encoding="UTF-8" standalone="no"?><!DOCTYPE svg PUBLIC "-//W3C//DTD SVG 1.1//EN" "http://www.w3.org/Graphics/SVG/1.1/DTD/svg11.dtd"><svg width="100%" height="100%" viewBox="0 0 32 32" version="1.1" xmlns="http://www.w3.org/2000/svg" xmlns:xlink="http://www.w3.org/1999/xlink" xml:space="preserve" xmlns:serif="http://www.serif.com/" style="fill-rule:evenodd;clip-rule:evenodd;stroke-linejoin:round;stroke-miterlimit:2;"><rect id="Artboard1" x="0" y="0" width="32" height="32" style="fill:#fff;"/><path d="M28.096,29.77l-6.64,-12.206l0,-9.264l-2.343,0l0,9.553l5.992,11.304l-18.21,0l5.992,-11.304l0,-9.553l-2.343,0l0,9.264l-6.641,12.206l-0.941,1.73l26.075,0l-0.941,-1.73Z" style="fill:#86c3ec;fill-rule:nonzero;"/><path d="M16,0.5c-4.045,0 -7.849,1.575 -10.709,4.436c-2.861,2.86 -4.436,6.664 -4.436,10.709c0,3.757 1.385,7.361 3.901,10.147l0.352,0.391l1.316,-2.416l-0.158,-0.194c-1.818,-2.23 -2.82,-5.045 -2.82,-7.928c0,-3.353 1.306,-6.505 3.677,-8.877c2.371,-2.37 5.524,-3.676 8.877,-3.676c3.353,0 6.505,1.306 8.876,3.676c2.372,2.37 3.677,5.523 3.677,8.877c0,2.884 -1.001,5.699 -2.819,7.928l-0.158,0.194l1.315,2.416l0.352,-0.391c2.517,-2.786 3.902,-6.39 3.902,-10.147c0,-4.046 -1.575,-7.849 -4.436,-10.709c-2.86,-2.861 -6.664,-4.436 -10.709,-4.436" style="fill:#302e6a;fill-rule:nonzero;"/><path d="M15.944,13.115c-0.605,-0.062 -1.127,0.097 -1.589,0.449c-0.439,0.382 -0.7,0.861 -0.761,1.467c-0.06,0.579 0.1,1.101 0.453,1.563c0.381,0.438 0.86,0.7 1.466,0.761c0.579,0.059 1.101,-0.101 1.563,-0.453c0.438,-0.381 0.7,-0.86 0.759,-1.44c0.061,-0.606 -0.098,-1.127 -0.451,-1.589c-0.381,-0.439 -0.86,-0.7 -1.44,-0.758" style="fill:#556eb2;fill-rule:nonzero;"/><path d="M18.308,20.939c0.322,-0.262 0.523,-0.635 0.57,-1.09c0.046,-0.454 -0.077,-0.86 -0.339,-1.181c-0.259,-0.355 -0.632,-0.556 -1.086,-0.603c-0.454,-0.046 -0.86,0.077 -1.185,0.372c-0.321,0.262 -0.524,0.635 -0.57,1.089c-0.046,0.454 0.077,0.859 0.339,1.181c0.262,0.322 0.634,0.524 1.09,0.57c0.454,0.046 0.859,-0.076 1.181,-0.338" style="fill:#556eb2;fill-rule:nonzero;"/><path d="M16.097,23.936c0.276,-0.2 0.418,-0.47 0.452,-0.807c0.035,-0.339 -0.049,-0.631 -0.277,-0.911c-0.202,-0.248 -0.472,-0.389 -0.81,-0.424c-0.338,-0.034 -0.631,0.051 -0.907,0.25c-0.252,0.23 -0.393,0.5 -0.427,0.838c-0.034,0.338 0.05,0.631 0.252,0.879c0.228,0.279 0.498,0.42 0.835,0.455c0.339,0.034 0.632,-0.05 0.882,-0.28" style="fill:#556eb2;fill-rule:nonzero;"/><path d="M15.852,26.606c0.22,0.022 0.412,-0.033 0.576,-0.183c0.181,-0.131 0.273,-0.307 0.295,-0.528c0.023,-0.221 -0.033,-0.412 -0.181,-0.594c-0.133,-0.163 -0.309,-0.255 -0.529,-0.277c-0.222,-0.023 -0.412,0.032 -0.593,0.162c-0.164,0.151 -0.257,0.327 -0.279,0.548c-0.023,0.221 0.032,0.412 0.164,0.574c0.15,0.183 0.325,0.275 0.547,0.298" style="fill:#556eb2;fill-rule:nonzero;"/></svg>