<?xml version="1.0" encoding="UTF-8" standalone="no"?>
<!DOCTYPE svg PUBLIC "-//W3C//DTD SVG 1.1//EN" "http://www.w3.org/Graphics/SVG/1.1/DTD/svg11.dtd">
<svg width="100%" height="100%" viewBox="0 0 818 818" version="1.1" xmlns="http://www.w3.org/2000/svg" xmlns:xlink="http://www.w3.org/1999/xlink" xml:space="preserve" xmlns:serif="http://www.serif.com/" style="fill-rule:evenodd;clip-rule:evenodd;stroke-linejoin:round;stroke-miterlimit:2;">
    <g id="Artboard1" transform="matrix(1,0,0,1,148.601,125.65)">
        <rect x="-148.601" y="-125.65" width="817.899" height="817.899" style="fill:none;"/>
        <g transform="matrix(34.7222,0,0,34.7222,-156.318,-134.539)">
            <path d="M21,10C21,13.314 18.314,16 15,16C11.686,16 9,13.314 9,10C9,6.686 11.686,4 15,4C18.314,4 21,6.686 21,10ZM20.04,10C20.04,7.216 17.784,4.96 15,4.96C12.216,4.96 9.96,7.216 9.96,10C9.96,12.784 12.216,15.04 15,15.04C17.784,15.04 20.04,12.784 20.04,10Z"/>
        </g>
        <g transform="matrix(29.1667,0,0,29.1667,-72.9843,-78.9838)">
            <path d="M21,10C21,13.314 18.314,16 15,16C11.686,16 9,13.314 9,10C9,6.686 11.686,4 15,4C18.314,4 21,6.686 21,10Z" style="fill-opacity:0.2;fill-rule:nonzero;"/>
        </g>
        <g transform="matrix(34.7222,0,0,34.7222,-156.318,-134.539)">
            <path d="M3,4.767C3,4.564 3.081,4.369 3.225,4.225C3.369,4.081 3.564,4 3.767,4L6.233,4C6.436,4 6.631,4.081 6.775,4.225C6.919,4.369 7,4.564 7,4.767L7,19.233C7,19.436 6.919,19.631 6.775,19.775C6.631,19.919 6.436,20 6.233,20L3.767,20C3.564,20 3.369,19.919 3.225,19.775C3.081,19.631 3,19.436 3,19.233L3,4.767ZM3.968,4.96L3.968,19.021L6.058,19.021L6.087,4.96L3.968,4.96Z"/>
        </g>
        <g transform="matrix(13.2169,0,0,29.5967,-48.7912,-73.0327)">
            <path d="M2.288,3.741L7.855,3.741L7.779,20.237L2.288,20.237L2.288,3.741Z" style="fill-opacity:0.2;fill-rule:nonzero;"/>
        </g>
    </g>
</svg>
