<?xml version="1.0" encoding="UTF-8" standalone="no"?>
<!DOCTYPE svg PUBLIC "-//W3C//DTD SVG 1.1//EN" "http://www.w3.org/Graphics/SVG/1.1/DTD/svg11.dtd">
<svg width="100%" height="100%" viewBox="0 0 659 385" version="1.1" xmlns="http://www.w3.org/2000/svg" xmlns:xlink="http://www.w3.org/1999/xlink" xml:space="preserve" xmlns:serif="http://www.serif.com/" style="fill-rule:evenodd;clip-rule:evenodd;stroke-linecap:round;stroke-linejoin:round;stroke-miterlimit:1.5;">
    <g id="FIreAndIce" transform="matrix(1.02073,0,0,0.974054,-1.87352,16.3231)">
        <rect x="1.835" y="-16.758" width="644.718" height="394.957" style="fill:none;"/>
        <g transform="matrix(0.979692,0,0,1.02664,-3467.3,-561.879)">
            <path d="M4067.75,848.355C4167.56,845.249 4202.14,755.791 4185.86,695.387C4183.8,687.756 4176.53,672.857 4172.28,671.118C4168.03,669.378 4170.42,682.956 4160.19,688.944C4152.09,693.685 4141.28,689.688 4134.72,682.759C4114.66,661.601 4134.68,618.168 4120.07,586.141C4111.44,567.223 4098.61,550.771 4077.46,542.914C4069.27,539.874 4046.56,538.166 4045.56,540.45C4044.03,543.907 4066.03,553.784 4065.43,582.578C4064.67,619.449 4033.19,645.454 4012.63,672.543C4003.39,664.549 3998.09,653.618 3995.72,640.493C3994.18,631.93 3996.5,618.744 3993.78,617.489C3991.06,616.234 3983.93,625.771 3979.4,632.962C3923.65,721.533 3948.57,852.064 4067.75,848.355Z" style="fill:url(#_Radial1);stroke:rgb(8,6,5);stroke-width:3.33px;"/>
        </g>
        <g transform="matrix(0.721429,0,0,0.671064,-2413.06,-268.078)">
            <path d="M4067.75,848.355C4142.28,847.464 4162,758.63 4129.38,701.999C4066.07,592.101 4085.92,569.359 4093.66,534.1C4088.36,541.511 4051.66,560.627 4029.12,629.104C4025.21,640.994 4017.82,655.701 4007.75,656.784C3982.38,659.512 4003.26,616.48 3996.67,617.489C3990.09,618.498 3975.08,646.063 3968.26,662.837C3941.52,728.647 3966.25,849.568 4067.75,848.355Z" style="fill:url(#_Radial2);stroke:rgb(8,6,5);stroke-width:2.99px;"/>
        </g>
        <g transform="matrix(0.936824,0.300364,-0.28663,0.981715,466.463,-632.77)">
            <path d="M317.756,818.342C308.974,814.22 295.978,823.674 285.396,829.311C285.396,829.311 287.225,813.477 300.028,806.739C315.833,798.42 315.993,817.706 315.993,817.706" style="fill:rgb(65,64,63);"/>
            <path d="M316.832,817.034C317.27,817.184 317.7,817.361 318.119,817.568C318.547,817.768 318.731,818.278 318.53,818.705C318.33,819.133 317.82,819.317 317.393,819.116C314.524,817.833 311.216,818.136 307.7,819.224C300.664,821.402 292.854,826.777 286.041,830.522C285.591,830.761 285.045,830.732 284.624,830.445C284.203,830.158 283.976,829.66 284.034,829.154C284.034,829.154 284.773,822.292 288.924,815.564C291.242,811.808 294.629,808.116 299.45,805.64C305.808,802.41 309.858,803.266 312.433,805.499C314.153,806.99 315.236,809.151 315.88,811.274C316.597,813.644 316.784,815.94 316.832,817.034ZM315.064,816.581C314.854,814.388 314.06,809.561 311.068,807.123C308.934,805.384 305.663,805.081 300.606,807.837C296.295,810.162 293.348,813.592 291.285,817.006C289.072,820.668 287.895,824.345 287.302,826.745C293.698,823.265 300.741,818.966 307.112,817.211C309.923,816.436 312.609,816.149 315.064,816.581Z" style="fill:rgb(8,6,5);"/>
        </g>
        <g transform="matrix(0.747569,0,0,0.783391,-2021.68,-333.121)">
            <path d="M2948.08,821.455L2949.88,875.971L2985.91,894.584L2934.87,893.983L2930.07,821.455" style="fill:rgb(187,187,187);stroke:rgb(35,31,32);stroke-width:4.37px;"/>
        </g>
        <g transform="matrix(-0.747569,0,0,0.783391,2337.41,-333.121)">
            <path d="M2948.08,821.455L2949.88,875.971L2985.91,894.584L2934.87,893.983L2930.07,821.455" style="fill:rgb(187,187,187);stroke:rgb(35,31,32);stroke-width:4.37px;"/>
        </g>
        <g transform="matrix(0.68527,0,0,0.685494,-1842.12,-279.731)">
            <path d="M3060.27,576.915C3013.2,534.846 2824.94,534.846 2777.88,576.915C2730.81,618.985 2730.81,787.263 2777.88,829.332C2824.94,871.402 3013.2,871.402 3060.27,829.332C3107.34,787.263 3107.34,618.985 3060.27,576.915Z" style="fill:url(#_Linear3);stroke:rgb(35,31,32);stroke-width:4.87px;"/>
        </g>
        <g transform="matrix(0.979692,0,0,1.02664,-4182.76,-553.479)">
            <path d="M4776.58,797.886L4779.91,793.626C4785.07,786.439 4801.18,788.412 4802.44,795.155" style="fill:rgb(208,48,48);stroke:rgb(35,31,32);stroke-width:2.08px;"/>
        </g>
        <g transform="matrix(0.979692,0,0,1.02664,-4187.66,-550.399)">
            <g transform="matrix(3.2408,0,0,0.920929,-4835.42,156.051)">
                <path d="M2875.98,643.702C2871.89,664.15 2854.46,663.535 2850.48,648.113C2850.48,648.113 2854.12,698.093 2855.88,702.989C2857.68,708.012 2869.25,704.92 2871.02,700.701C2872.8,696.477 2875.98,643.702 2875.98,643.702Z" style="fill:rgb(64,64,64);"/>
                <clipPath id="_clip4">
                    <path d="M2875.98,643.702C2871.89,664.15 2854.46,663.535 2850.48,648.113C2850.48,648.113 2854.12,698.093 2855.88,702.989C2857.68,708.012 2869.25,704.92 2871.02,700.701C2872.8,696.477 2875.98,643.702 2875.98,643.702Z"/>
                </clipPath>
                <g clip-path="url(#_clip4)">
                    <g transform="matrix(-0.262,7.53696e-17,1.8141e-17,-0.259657,3633.11,861.56)">
                        <path d="M2982.27,761.413L2997,766.307L3004.43,849.55L2916.86,884.655L2869.8,852.263L2895.38,767.455C2926.47,733.951 2942.91,729.257 2982.27,761.413Z" style="fill:white;stroke:rgb(35,31,32);stroke-width:3.34px;"/>
                    </g>
                    <g transform="matrix(0.216889,0,0,0.655252,2228.41,204.468)">
                        <path d="M2896.77,762.128C2907.8,741.415 2926.27,751.061 2926.27,751.061C2926.27,751.061 2944.48,737.867 2957.15,756.909L2960.4,764.77L2903.68,774.217L2896.77,762.128" style="fill:rgb(208,48,48);stroke:rgb(35,31,32);stroke-width:3.18px;"/>
                    </g>
                </g>
                <path d="M2875.98,643.702C2871.89,664.15 2854.46,663.535 2850.48,648.113C2850.48,648.113 2854.12,698.093 2855.88,702.989C2857.68,708.012 2869.25,704.92 2871.02,700.701C2872.8,696.477 2875.98,643.702 2875.98,643.702Z" style="fill:none;stroke:rgb(35,31,32);stroke-width:1.4px;"/>
            </g>
            <g transform="matrix(1,0,0,1,12.5951,-5.20227)">
                <path d="M4393.97,754.059C4394.64,754.06 4395.18,754.601 4395.18,755.267C4395.18,755.933 4394.64,756.472 4393.97,756.471C4392.97,756.574 4391.96,757.162 4390.95,757.802C4390.62,758.008 4390.3,758.227 4389.98,758.446C4389.66,758.667 4389.33,758.882 4389.03,759.111C4388.38,759.599 4387.77,760.084 4387.32,760.612C4387.01,760.984 4386.72,761.312 4386.61,761.669C4386.47,762.319 4385.82,762.734 4385.17,762.595C4384.52,762.455 4384.11,761.813 4384.25,761.162C4384.39,759.929 4385.23,758.441 4386.49,757.083C4386.91,756.637 4387.38,756.211 4387.9,755.841C4388.58,755.354 4389.33,754.946 4390.11,754.653C4391.43,754.15 4392.77,753.925 4393.97,754.059Z" style="fill:rgb(35,31,32);"/>
            </g>
            <g transform="matrix(-0.985843,0.167672,0.167672,0.985843,8685.47,-734.781)">
                <path d="M4393.97,756.471C4394.64,756.472 4395.18,755.933 4395.18,755.267C4395.18,754.601 4394.64,754.06 4393.97,754.059C4392.77,753.925 4391.43,754.15 4390.11,754.653C4389.33,754.946 4388.58,755.354 4387.9,755.841C4387.38,756.211 4386.91,756.637 4386.49,757.083C4385.23,758.441 4384.39,759.929 4384.25,761.162C4384.11,761.813 4384.52,762.455 4385.17,762.595C4385.82,762.734 4386.47,762.319 4386.61,761.669C4386.72,761.312 4387.01,760.984 4387.32,760.612C4387.77,760.084 4388.38,759.599 4389.03,759.111C4389.33,758.882 4389.66,758.667 4389.98,758.445C4390.3,758.227 4390.62,758.008 4390.95,757.802C4391.96,757.162 4392.97,756.574 4393.97,756.471Z" style="fill:rgb(35,31,32);"/>
            </g>
        </g>
        <g transform="matrix(-0.598113,0.0105636,0.00363349,1.18076,1840.75,-600.465)">
            <path d="M2862.21,596.159C2860.31,596.266 2858.91,597.17 2859.09,598.178C2859.26,599.185 2860.95,599.916 2862.85,599.81C2875.18,599.295 2885.81,600.202 2894.64,603.753C2901.86,606.657 2908.04,611.272 2912.7,618.633C2913.26,619.598 2915.19,620.131 2917.02,619.822C2918.84,619.513 2919.87,618.48 2919.32,617.515C2914.84,608.931 2908.31,603.328 2900.06,599.979C2894.56,597.744 2888.28,596.511 2881.51,595.985C2875.49,595.518 2869.04,595.646 2862.21,596.159Z" style="fill:rgb(35,31,32);"/>
        </g>
        <g transform="matrix(0.595835,-0.0556695,0.115349,1.17456,-1586.35,-409.136)">
            <path d="M2862.62,599.818C2860.71,599.859 2859.12,599.07 2859.07,598.058C2859.02,597.045 2860.53,596.191 2862.44,596.151C2869.21,595.879 2875.56,595.896 2881.45,596.389C2888.27,596.961 2894.51,598.126 2899.9,600.14C2908.75,603.445 2915.4,608.982 2919.35,617.569C2919.85,618.542 2918.76,619.559 2916.92,619.838C2915.08,620.117 2913.17,619.553 2912.67,618.579C2908.54,611.319 2902.38,606.842 2894.76,604.022C2886.05,600.8 2875.28,599.733 2862.62,599.818Z" style="fill:rgb(35,31,32);"/>
        </g>
        <g transform="matrix(0.756703,0.357886,-0.341521,0.792963,-1317.08,-2567.66)">
            <path d="M2970.92,2022.3L2952.86,2011.87L2939.95,2015.45L2937.28,2005.82L2942.1,2004.48L2947.86,2002.88L2945.14,1992.74L2954.8,1990.15L2958.38,2003.51L2975.86,2013.61L2975.86,1992.73L2966.31,1983.34L2973.32,1976.21L2976.89,1979.71L2981.15,1983.9L2988.57,1976.48L2995.64,1983.55L2985.86,1993.33L2985.86,2013.67L3003.46,2003.51L3007.04,1990.15L3016.7,1992.74L3013.99,2002.88L3019.74,2004.48L3024.56,2005.82L3021.89,2015.45L3008.99,2011.87L2990.92,2022.3L3008.77,2032.61L3021.97,2029.07L3024.56,2038.73L3019.73,2040.02C3019.73,2040.02 3014.42,2041.44 3014.42,2041.44L3017.17,2052.07L3007.49,2054.57L3004.09,2041.45L2985.86,2030.93L2985.86,2051.51L2995.53,2061.18L2988.46,2068.25L2984.92,2064.72C2984.92,2064.72 2981.03,2060.83 2981.03,2060.83L2973.21,2068.52L2966.2,2061.39L2975.86,2051.89L2975.86,2031L2957.75,2041.45L2954.36,2054.57L2944.68,2052.07L2947.42,2041.44C2947.42,2041.44 2942.11,2040.02 2942.11,2040.02L2937.28,2038.73L2939.87,2029.07L2953.07,2032.61L2970.92,2022.3Z" style="fill:white;stroke:rgb(35,31,32);stroke-width:2.46px;stroke-linecap:butt;stroke-miterlimit:2;"/>
        </g>
        <g transform="matrix(0.75088,-0.061229,0.0596787,0.803689,-2320.33,-1228.83)">
            <path d="M2970.92,2022.3L2952.86,2011.87L2939.95,2015.45L2937.28,2005.82L2942.1,2004.48L2947.86,2002.88L2945.14,1992.74L2954.8,1990.15L2958.38,2003.51L2975.86,2013.61L2975.86,1992.73L2966.31,1983.34L2973.32,1976.21L2976.89,1979.71L2981.15,1983.9L2988.57,1976.48L2995.64,1983.55L2985.86,1993.33L2985.86,2013.67L3003.46,2003.51L3007.04,1990.15L3016.7,1992.74L3013.99,2002.88L3019.74,2004.48L3024.56,2005.82L3021.89,2015.45L3008.99,2011.87L2990.92,2022.3L3008.77,2032.61L3021.97,2029.07L3024.56,2038.73L3019.73,2040.02C3019.73,2040.02 3014.42,2041.44 3014.42,2041.44L3017.17,2052.07L3007.49,2054.57L3004.09,2041.45L2985.86,2030.93L2985.86,2051.51L2995.53,2061.18L2988.46,2068.25L2984.92,2064.72C2984.92,2064.72 2981.03,2060.83 2981.03,2060.83L2973.21,2068.52L2966.2,2061.39L2975.86,2051.89L2975.86,2031L2957.75,2041.45L2954.36,2054.57L2944.68,2052.07L2947.42,2041.44C2947.42,2041.44 2942.11,2040.02 2942.11,2040.02L2937.28,2038.73L2939.87,2029.07L2953.07,2032.61L2970.92,2022.3Z" style="fill:white;stroke:rgb(35,31,32);stroke-width:2.68px;stroke-linecap:butt;stroke-miterlimit:2;"/>
        </g>
        <g transform="matrix(0.509608,0.130718,-0.123911,0.530473,-1167.62,-1159.57)">
            <path d="M2970.92,2022.3L2952.86,2011.87L2939.95,2015.45L2937.28,2005.82L2942.1,2004.48L2947.86,2002.88L2945.14,1992.74L2954.8,1990.15L2958.38,2003.51L2975.86,2013.61L2975.86,1992.73L2966.31,1983.34L2973.32,1976.21L2976.89,1979.71L2981.15,1983.9L2988.57,1976.48L2995.64,1983.55L2985.86,1993.33L2985.86,2013.67L3003.46,2003.51L3007.04,1990.15L3016.7,1992.74L3013.99,2002.88L3019.74,2004.48L3024.56,2005.82L3021.89,2015.45L3008.99,2011.87L2990.92,2022.3L3008.77,2032.61L3021.97,2029.07L3024.56,2038.73L3019.73,2040.02C3019.73,2040.02 3014.42,2041.44 3014.42,2041.44L3017.17,2052.07L3007.49,2054.57L3004.09,2041.45L2985.86,2030.93L2985.86,2051.51L2995.53,2061.18L2988.46,2068.25L2984.92,2064.72C2984.92,2064.72 2981.03,2060.83 2981.03,2060.83L2973.21,2068.52L2966.2,2061.39L2975.86,2051.89L2975.86,2031L2957.75,2041.45L2954.36,2054.57L2944.68,2052.07L2947.42,2041.44C2947.42,2041.44 2942.11,2040.02 2942.11,2040.02L2937.28,2038.73L2939.87,2029.07L2953.07,2032.61L2970.92,2022.3Z" style="fill:white;stroke:rgb(35,31,32);stroke-width:3.9px;stroke-linecap:butt;stroke-miterlimit:2;"/>
        </g>
        <g transform="matrix(0.747569,0,0,0.783391,-2016.44,-329.204)">
            <path d="M2962.49,550.553C2975.93,547.25 2975.4,525.396 2958.89,518.131C2945.57,512.271 2921.3,513.093 2895.19,511.584C2873.3,510.321 2851.62,508.417 2839.3,510.926C2820.18,514.821 2810.96,539.646 2796.78,551.153C2783.48,561.949 2761.32,568.465 2754.22,579.973C2747.18,591.387 2744.13,621.4 2754.22,620.2C2764.32,618.999 2797.19,581.374 2814.79,572.768C2828.34,566.146 2845.33,572.725 2859.82,568.565C2875.73,563.997 2893.14,548.365 2910.26,545.363C2927.37,542.361 2953.47,552.77 2962.49,550.553Z" style="fill:white;stroke:rgb(35,31,32);stroke-width:4.37px;"/>
        </g>
        <g transform="matrix(0.747569,0,0,0.783391,-1667.08,-334.367)">
            <path d="M2948.08,821.455L2949.88,875.971C2974.38,870.156 2983.27,877.766 2984.6,894.584L2934.87,893.983L2930.07,821.455" style="fill:rgb(187,187,187);stroke:rgb(35,31,32);stroke-width:4.37px;"/>
        </g>
        <g transform="matrix(-0.747569,0,0,0.783391,2692.01,-334.367)">
            <path d="M2948.08,821.455L2949.88,875.971C2974.72,868.675 2984.86,876.847 2985.91,894.584L2934.87,893.983L2930.07,821.455" style="fill:rgb(187,187,187);stroke:rgb(35,31,32);stroke-width:4.37px;"/>
        </g>
        <g transform="matrix(0.664167,0,0,0.600664,-1775.17,-204.698)">
            <path d="M2877.94,613.626C2898.95,613.626 2916.01,631.76 2916.01,654.097C2916.01,664.605 2912.23,674.183 2906.05,681.381C2905.4,682.132 2904.03,683.554 2904.03,683.554C2904.03,683.554 2893.08,678.852 2878.39,679.276C2862.69,679.73 2854.22,685.739 2854.22,685.739C2854.22,685.739 2852.91,684.587 2852.28,683.977C2844.66,676.574 2839.87,665.925 2839.87,654.097C2839.87,631.76 2856.93,613.626 2877.94,613.626Z" style="fill:white;stroke:rgb(35,31,32);stroke-width:5.26px;"/>
        </g>
        <g transform="matrix(0.638817,0,0,0.600664,-1705.74,-205.62)">
            <ellipse cx="2899.25" cy="651.995" rx="16.763" ry="17.873" style="fill:rgb(35,31,32);stroke:rgb(35,31,32);stroke-width:5.38px;"/>
        </g>
        <g transform="matrix(0.283973,0,0,0.299427,-673.391,-12.0581)">
            <ellipse cx="2899.25" cy="651.995" rx="16.763" ry="17.873" style="fill:white;"/>
        </g>
        <g transform="matrix(0.142348,0,0,0.133147,-270.528,105.275)">
            <ellipse cx="2899.25" cy="651.995" rx="16.763" ry="17.873" style="fill:white;"/>
        </g>
        <g transform="matrix(-0.575252,-0.0270005,-0.0243969,0.57079,1864.65,-109.891)">
            <path d="M2877.94,613.626C2898.95,613.626 2916.01,631.76 2916.01,654.097C2916.01,666.118 2911.07,676.923 2903.23,684.338C2902.63,684.904 2901.38,685.976 2901.38,685.976C2901.38,685.976 2889.48,680.699 2877.19,680.553C2864.52,680.403 2851.83,683.539 2851.83,683.539C2851.83,683.539 2850.65,682.308 2850.08,681.662C2849.58,681.096 2849.1,680.514 2848.64,679.918C2843.17,672.909 2839.87,663.908 2839.87,654.097C2839.87,631.76 2856.93,613.626 2877.94,613.626Z" style="fill:white;stroke:rgb(35,31,32);stroke-width:5.82px;"/>
        </g>
        <g transform="matrix(-0.622554,0,0,0.561313,2004.6,-181.347)">
            <ellipse cx="2899.25" cy="651.995" rx="16.763" ry="17.873" style="fill:rgb(35,31,32);stroke:rgb(35,31,32);stroke-width:5.62px;"/>
        </g>
        <g transform="matrix(0.936824,0.300364,-0.28663,0.981715,466.463,-632.77)">
            <path d="M316.817,816.905C317.278,817.06 317.73,817.243 318.17,817.459C319.427,818.075 320.449,819.046 321.09,820.152C321.842,821.45 322.088,822.917 321.659,824.206C321.517,824.657 321.037,824.908 320.586,824.766C320.136,824.625 319.885,824.144 320.027,823.694C320.275,822.852 320.037,821.919 319.522,821.097C319.03,820.314 318.266,819.64 317.341,819.225C314.499,817.945 311.215,818.239 307.726,819.313C304.199,820.399 300.482,822.313 296.784,824.394C293.109,826.462 289.453,828.696 286.052,830.541C285.594,830.785 285.04,830.754 284.612,830.463C284.184,830.171 283.953,829.666 284.012,829.151C284.012,829.151 284.782,822.297 288.945,815.577C291.266,811.828 294.644,808.134 299.461,805.661C305.806,802.432 309.851,803.282 312.424,805.51C316.002,808.608 316.686,814.727 316.817,816.905ZM315.054,816.465C314.831,814.221 314.018,809.513 311.077,807.112C308.941,805.367 305.664,805.059 300.595,807.816C296.28,810.144 293.324,813.573 291.265,816.993C289.071,820.637 287.909,824.296 287.322,826.7C293.704,823.202 300.727,818.892 307.086,817.122C309.9,816.338 312.591,816.044 315.054,816.465Z" style="fill:rgb(8,6,5);"/>
        </g>
        <g transform="matrix(0.828832,0.26574,-0.279113,0.955971,519.678,-599.716)">
            <path d="M258.827,797.046C256.628,791.286 255.918,786.417 256.281,782.487C256.342,781.832 256.441,780.275 256.441,780.275C261.764,776.934 264.944,773.607 268.306,770.442C268.306,770.442 271.677,770.979 273.165,771.531C279.243,773.785 285.398,779.98 288.676,790.462C284.695,796.257 265.378,800.374 258.827,797.046Z" style="fill:white;stroke:black;stroke-width:3.58px;"/>
        </g>
        <g transform="matrix(0.979633,-0.0112587,0.0107439,1.02658,234.763,-589.289)">
            <path d="M277.972,786.958C278.872,784.772 283.733,783.483 284.317,783.81C285.018,784.203 285.645,784.808 286.159,785.571C287.057,786.904 287.61,788.718 287.61,790.715C287.61,794.805 285.291,798.126 282.434,798.126C279.577,798.126 277.258,794.805 277.258,790.715C277.258,789.344 277.518,788.06 277.972,786.958Z" style="fill:rgb(8,6,5);stroke:black;stroke-width:3.33px;"/>
        </g>
        <g transform="matrix(0.489816,-0.00562937,0.00537195,0.513288,375.929,-187.821)">
            <ellipse cx="282.434" cy="790.715" rx="5.176" ry="7.411" style="fill:white;"/>
        </g>
        <g transform="matrix(0.828832,0.26574,-0.279113,0.955971,480.437,-598.69)">
            <path d="M258.827,797.046C240.357,758.753 280.379,751.487 288.676,790.462C284.695,796.257 265.378,800.374 258.827,797.046Z" style="fill:white;stroke:black;stroke-width:3.58px;"/>
        </g>
        <g transform="matrix(0.979633,-0.0112587,0.0107439,1.02658,195.522,-588.262)">
            <ellipse cx="282.434" cy="790.715" rx="5.176" ry="7.411" style="fill:rgb(8,6,5);stroke:black;stroke-width:3.33px;"/>
        </g>
        <g transform="matrix(0.489816,-0.00562937,0.00537195,0.513288,336.688,-186.795)">
            <ellipse cx="282.434" cy="790.715" rx="5.176" ry="7.411" style="fill:white;"/>
        </g>
        <g transform="matrix(0.305923,0,0,0.299427,-683.874,-13.5723)">
            <ellipse cx="2899.25" cy="651.995" rx="16.763" ry="17.873" style="fill:white;"/>
        </g>
        <g transform="matrix(0.142348,0,0,0.133147,-216.762,103.761)">
            <ellipse cx="2899.25" cy="651.995" rx="16.763" ry="17.873" style="fill:white;"/>
        </g>
        <g transform="matrix(0.979692,0,0,1.02664,-4187.66,-550.399)">
            <path d="M4789.5,723.55C4789.77,723.946 4789.66,724.484 4789.27,724.751C4788.87,725.018 4788.34,724.913 4788.07,724.517C4785.83,721.512 4783.73,719.506 4781.74,718.24C4778.97,716.476 4776.47,716.382 4774.11,717.236C4772.24,717.915 4770.49,719.182 4768.78,720.67C4767.1,722.128 4765.46,723.789 4763.9,725.448C4761.33,728.177 4758.92,730.849 4756.75,732.474C4755.15,733.677 4753.64,734.332 4752.26,734.192C4751.79,734.166 4751.42,733.758 4751.45,733.282C4751.47,732.805 4751.88,732.439 4752.36,732.464C4753.35,732.47 4754.32,731.787 4755.4,730.823C4757.34,729.078 4759.39,726.288 4761.69,723.502C4763.55,721.25 4765.55,718.987 4767.72,717.229C4769.41,715.855 4771.22,714.793 4773.08,714.201C4775.76,713.351 4778.58,713.404 4781.48,714.985C4784.08,716.4 4786.78,719.08 4789.5,723.55Z"/>
        </g>
        <g transform="matrix(0.979692,0,0,1.02664,-4187.66,-550.399)">
            <path d="M4829.36,733.56C4829.83,733.642 4830.15,734.091 4830.06,734.561C4829.98,735.032 4829.53,735.346 4829.06,735.264C4826.28,734.938 4823.57,735.563 4820.87,736.58C4819.56,737.073 4818.26,737.67 4816.95,738.309C4815.65,738.941 4814.36,739.627 4813.06,740.302C4812.01,740.849 4810.95,741.393 4809.89,741.905C4807.23,743.181 4804.58,744.318 4801.98,745.049C4799.32,745.798 4796.71,746.112 4794.19,745.698C4793.72,745.648 4793.37,745.222 4793.42,744.747C4793.47,744.273 4793.9,743.928 4794.37,743.977C4796.74,744.089 4799.09,743.429 4801.48,742.459C4803.73,741.55 4805.97,740.305 4808.27,739.067C4809.79,738.251 4811.34,737.438 4812.9,736.69C4814.53,735.914 4816.17,735.215 4817.82,734.646C4821.69,733.308 4825.57,732.676 4829.36,733.56Z"/>
        </g>
    </g>
    <defs>
        <radialGradient id="_Radial1" cx="0" cy="0" r="1" gradientUnits="userSpaceOnUse" gradientTransform="matrix(104.385,22.0331,-22.0331,104.385,4063.62,738.004)"><stop offset="0" style="stop-color:rgb(196,134,0);stop-opacity:1"/><stop offset="1" style="stop-color:rgb(255,191,54);stop-opacity:1"/></radialGradient>
        <radialGradient id="_Radial2" cx="0" cy="0" r="1" gradientUnits="userSpaceOnUse" gradientTransform="matrix(57.741,64.0543,-56.858,65.0491,4051.04,756.594)"><stop offset="0" style="stop-color:rgb(210,185,0);stop-opacity:1"/><stop offset="1" style="stop-color:rgb(248,220,8);stop-opacity:1"/></radialGradient>
        <linearGradient id="_Linear3" x1="0" y1="0" x2="1" y2="0" gradientUnits="userSpaceOnUse" gradientTransform="matrix(226.773,17.2633,-16.4792,237.562,2823.2,719.496)"><stop offset="0" style="stop-color:rgb(79,188,210);stop-opacity:1"/><stop offset="1" style="stop-color:rgb(147,229,246);stop-opacity:1"/></linearGradient>
    </defs>
</svg>
