<?xml version="1.0" encoding="UTF-8" standalone="no"?>
<!DOCTYPE svg PUBLIC "-//W3C//DTD SVG 1.1//EN" "http://www.w3.org/Graphics/SVG/1.1/DTD/svg11.dtd">
<svg width="100%" height="100%" viewBox="0 0 1000 800" version="1.1" xmlns="http://www.w3.org/2000/svg" xmlns:xlink="http://www.w3.org/1999/xlink" xml:space="preserve" xmlns:serif="http://www.serif.com/" style="fill-rule:evenodd;clip-rule:evenodd;stroke-linecap:round;stroke-linejoin:round;stroke-miterlimit:1.5;">
    <g transform="matrix(1,0,0,1,3.01981e-14,-965.164)">
        <g id="Solid" transform="matrix(1.52582,0,0,2.1328,-15.3137,-59.8271)">
            <rect x="10.036" y="480.585" width="655.384" height="375.094" style="fill:none;"/>
            <g transform="matrix(0.997685,0,0,0.713752,-4051.36,-60.8185)">
                <g transform="matrix(2.06775,0.330152,-0.330152,2.06775,-4117.34,-2205.43)">
                    <path d="M4218.28,764.079L4222.53,777.634L4231.88,767.391L4230.2,781.572L4242.79,776.669L4235.51,788.669L4248.84,790.077L4237.4,797.518L4248.84,804.959L4235.51,806.367L4242.79,818.366L4230.2,813.463L4231.88,827.645L4222.53,817.402L4218.28,830.956L4214.02,817.402L4204.68,827.645L4206.36,813.463L4193.77,818.366L4201.05,806.367L4187.72,804.959L4199.16,797.518L4187.72,790.077L4201.05,788.669L4193.77,776.669L4206.36,781.572L4204.68,767.391L4214.02,777.634L4218.28,764.079Z" style="fill:url(#_Radial1);stroke:rgb(35,31,32);stroke-width:1.37px;"/>
                </g>
                <g transform="matrix(1.58276,0,0,1.62242,-2325.13,-461.934)">
                    <ellipse cx="4212.18" cy="800.198" rx="18.19" ry="18.419" style="fill:url(#_Radial2);stroke:rgb(8,6,5);stroke-width:1.79px;"/>
                </g>
            </g>
            <g transform="matrix(2.16979,5.14446e-16,5.70103e-16,0.749382,-292.548,296.094)">
                <path d="M150,721.409L427.886,721.409" style="fill:none;stroke:rgb(8,6,5);stroke-width:1.68px;"/>
            </g>
            <g transform="matrix(0.655384,0,0,0.468867,-391.555,-225.759)">
                <g transform="matrix(-1.41624,-3.16934,3.83239,-2.37712,-2581.43,16141.9)">
                    <path d="M2994.2,2003.29C2994.64,2003.32 2994.91,2003.61 2994.81,2003.95C2994.72,2004.29 2994.29,2004.54 2993.86,2004.52C2985.99,2004.06 2980.34,2004.03 2976.51,2004.35C2974.26,2004.53 2972.69,2004.82 2971.7,2005.26C2971.23,2005.47 2970.93,2005.69 2970.88,2005.99C2970.86,2006.15 2970.91,2006.35 2971.01,2006.58C2971.21,2007.07 2971.6,2007.65 2972.12,2008.29C2973.38,2009.84 2975.41,2011.7 2977.7,2013.48C2980.97,2016 2984.74,2018.36 2987.6,2019.31C2987.99,2019.43 2988.13,2019.79 2987.91,2020.11C2987.7,2020.43 2987.21,2020.58 2986.82,2020.46C2983.26,2019.35 2978.27,2016.25 2974.47,2013.15C2972.17,2011.27 2970.31,2009.38 2969.44,2007.96C2968.97,2007.18 2968.79,2006.5 2968.87,2006C2969.01,2005.2 2969.62,2004.49 2970.9,2003.93C2972.07,2003.42 2973.92,2003.04 2976.58,2002.85C2980.48,2002.57 2986.22,2002.69 2994.2,2003.29Z"/>
                </g>
                <g transform="matrix(4.32043,-0.918743,0.883262,4.49398,-13935.8,-4372.95)">
                    <path d="M3012.72,2009.31C3012.77,2008.98 3013.08,2008.75 3013.42,2008.8C3013.76,2008.85 3014,2009.16 3013.96,2009.49C3013.53,2012.64 3012.66,2017.61 3011.66,2022.9C3010.27,2030.29 3008.64,2038.3 3007.71,2042.87C3007.64,2043.4 3006.57,2051.87 3005.31,2061.43C3003.62,2074.36 3001.61,2089.28 3001.61,2089.28C3001.57,2089.61 3001.25,2089.84 3000.91,2089.8C3000.57,2089.75 3000.33,2089.45 3000.37,2089.12C3000.37,2089.12 3002.18,2074.16 3003.8,2061.22C3005.03,2051.34 3006.16,2042.64 3006.16,2042.64C3006.16,2042.62 3006.16,2042.6 3006.17,2042.58C3007.14,2038.03 3008.82,2030.02 3010.28,2022.64C3011.33,2017.38 3012.26,2012.44 3012.72,2009.31Z"/>
                </g>
                <g transform="matrix(3.53617,-2.16149,2.04623,4.55824,-13932.5,-801.998)">
                    <path d="M2998.49,2045.84C2998.67,2045.59 2999.08,2045.53 2999.4,2045.71C2999.73,2045.89 2999.85,2046.24 2999.67,2046.49C2999.03,2047.41 2996.42,2050.88 2993.01,2055.3C2990.95,2057.98 2988.6,2061.01 2986.23,2064.01C2984.84,2065.78 2983.43,2067.53 2982.08,2069.2C2977.27,2075.18 2973.12,2080.24 2972.25,2081.22C2972.04,2081.46 2971.63,2081.49 2971.32,2081.29C2971.01,2081.09 2970.92,2080.74 2971.13,2080.5C2971.98,2079.5 2975.97,2074.38 2980.68,2068.36C2982,2066.67 2983.38,2064.9 2984.77,2063.14C2987.15,2060.14 2989.55,2057.14 2991.66,2054.49C2995.12,2050.14 2997.84,2046.74 2998.49,2045.84Z"/>
                </g>
                <g transform="matrix(-1.10089,-3.31207,-3.10085,0.86328,10482.7,10239.7)">
                    <path d="M2947.44,2065.26C2947.44,2065.26 2950.34,2079.67 2951.84,2082.23C2952.67,2083.64 2956.69,2082.25 2956.46,2080.64C2956.07,2077.81 2949.44,2065.26 2949.44,2065.26"/>
                    <path d="M2955.48,2080.79C2955.48,2080.78 2955.48,2080.77 2955.49,2080.77C2955.53,2080.78 2955.52,2080.81 2955.49,2080.85C2955.49,2080.85 2955.49,2080.85 2955.49,2080.85C2955.49,2080.85 2955.49,2080.85 2955.49,2080.85C2955.43,2080.91 2955.29,2081 2955.22,2081.06C2954.95,2081.27 2954.59,2081.44 2954.23,2081.56C2953.8,2081.7 2953.35,2081.77 2952.98,2081.72C2952.86,2081.7 2952.74,2081.71 2952.69,2081.62C2952.24,2080.88 2951.69,2079.08 2951.1,2076.95C2949.7,2071.89 2948.22,2065.04 2948.22,2065.04C2948.12,2064.58 2947.7,2064.31 2947.28,2064.43C2946.85,2064.55 2946.58,2065.02 2946.67,2065.48C2946.67,2065.48 2947.96,2072.46 2949.27,2077.61C2949.88,2080 2950.51,2082.01 2950.99,2082.84C2951.25,2083.29 2951.67,2083.6 2952.2,2083.77C2952.9,2083.98 2953.84,2083.92 2954.72,2083.63C2955.65,2083.33 2956.49,2082.77 2956.95,2082.16C2957.36,2081.62 2957.53,2081.03 2957.44,2080.43C2957.3,2079.5 2956.55,2077.57 2955.53,2075.37C2953.38,2070.75 2950.13,2064.81 2950.13,2064.81C2949.92,2064.4 2949.44,2064.28 2949.06,2064.53C2948.68,2064.78 2948.54,2065.31 2948.75,2065.71C2948.75,2065.71 2951.8,2071.7 2953.83,2076.34C2954.66,2078.27 2955.34,2079.93 2955.48,2080.79ZM2955.48,2080.79C2955.48,2080.8 2955.48,2080.83 2955.49,2080.85C2955.48,2080.83 2955.48,2080.81 2955.48,2080.79Z"/>
                </g>
                <g transform="matrix(1.10089,-3.31207,3.10085,0.86328,-8773.79,10239.7)">
                    <path d="M2947.44,2065.26C2947.44,2065.26 2950.34,2079.67 2951.84,2082.23C2952.67,2083.64 2956.69,2082.25 2956.46,2080.64C2956.07,2077.81 2949.44,2065.26 2949.44,2065.26"/>
                    <path d="M2955.49,2080.85C2955.49,2080.85 2955.49,2080.85 2955.49,2080.85C2955.49,2080.85 2955.49,2080.85 2955.49,2080.85C2955.52,2080.81 2955.53,2080.78 2955.49,2080.77C2955.48,2080.77 2955.48,2080.78 2955.48,2080.79C2955.34,2079.93 2954.66,2078.27 2953.83,2076.34C2951.8,2071.7 2948.75,2065.71 2948.75,2065.71C2948.54,2065.31 2948.68,2064.78 2949.06,2064.53C2949.44,2064.28 2949.92,2064.4 2950.13,2064.81C2950.13,2064.81 2953.38,2070.75 2955.53,2075.37C2956.55,2077.57 2957.3,2079.5 2957.44,2080.43C2957.53,2081.03 2957.36,2081.62 2956.95,2082.16C2956.49,2082.77 2955.65,2083.33 2954.72,2083.63C2953.84,2083.92 2952.9,2083.98 2952.2,2083.77C2951.67,2083.6 2951.25,2083.29 2950.99,2082.84C2950.51,2082.01 2949.88,2080 2949.27,2077.61C2947.96,2072.46 2946.67,2065.48 2946.67,2065.48C2946.58,2065.02 2946.85,2064.55 2947.28,2064.43C2947.7,2064.31 2948.12,2064.58 2948.22,2065.04C2948.22,2065.04 2949.7,2071.89 2951.1,2076.95C2951.69,2079.08 2952.24,2080.88 2952.69,2081.62C2952.74,2081.71 2952.86,2081.7 2952.98,2081.72C2953.35,2081.77 2953.8,2081.7 2954.23,2081.56C2954.59,2081.44 2954.95,2081.27 2955.22,2081.06C2955.29,2081 2955.43,2080.91 2955.49,2080.85ZM2955.49,2080.85C2955.48,2080.83 2955.48,2080.8 2955.48,2080.79C2955.48,2080.81 2955.48,2080.83 2955.49,2080.85Z"/>
                </g>
                <g transform="matrix(3.86539,-0.821977,0.800079,4.07075,-12373.8,-3806.63)">
                    <ellipse cx="3011.01" cy="1988.4" rx="18.233" ry="17.532" style="fill:white;"/>
                    <path d="M3011,1970.21C3016.26,1970.18 3021.02,1972.23 3024.47,1975.53C3027.91,1978.83 3030.05,1983.38 3030.07,1988.42C3030.08,1993.46 3027.98,1998.03 3024.55,2001.35C3021.1,2004.7 3016.31,2006.77 3011.03,2006.78C3005.74,2006.77 3000.94,2004.69 2997.49,2001.34C2994.06,1998.02 2991.95,1993.44 2991.97,1988.39C2991.99,1983.37 2994.11,1978.82 2997.55,1975.53C3001,1972.22 3005.76,1970.19 3011,1970.21ZM3011.03,1971.54C3006.18,1971.56 3001.8,1973.47 2998.64,1976.55C2995.51,1979.6 2993.58,1983.8 2993.6,1988.42C2993.61,1993.02 2995.56,1997.18 2998.7,2000.2C3001.85,2003.23 3006.2,2005.1 3011,2005.1C3015.81,2005.1 3020.16,2003.22 3023.32,2000.19C3026.46,1997.16 3028.41,1993 3028.43,1988.39C3028.45,1983.78 3026.52,1979.59 3023.4,1976.55C3020.24,1973.47 3015.87,1971.56 3011.03,1971.54Z" style="fill:rgb(35,31,32);"/>
                </g>
                <g transform="matrix(3.39074,1.71245,2.76199,-3.37548,-15012.9,3441.3)">
                    <path d="M3054.79,1984.66C3054.86,1985.17 3054.61,1985.8 3054.19,1986.7C3053.28,1988.67 3051.51,1991.72 3049.36,1996.86C3048.36,1999.25 3047.28,2002.08 3046.15,2005.48C3046.03,2005.83 3046.25,2006.14 3046.64,2006.17C3047.03,2006.21 3047.45,2005.94 3047.57,2005.59C3051.5,1994.43 3054.88,1989.35 3056.11,1986.57C3056.6,1985.46 3056.76,1984.66 3056.63,1984C3056.51,1983.38 3056.12,1983.11 3055.61,1983.03C3055.17,1982.97 3054.53,1983.1 3053.74,1983.53C3053.01,1983.92 3052.06,1984.59 3050.96,1985.49C3047.3,1988.45 3041.68,1994.03 3035.59,1999.67C3035.28,1999.95 3035.24,2000.36 3035.51,2000.57C3035.77,2000.79 3036.24,2000.73 3036.55,2000.45C3041.67,1995.85 3046.49,1991.29 3050.07,1988.21C3051.8,1986.72 3053.23,1985.57 3054.26,1984.98C3054.43,1984.88 3054.64,1984.74 3054.79,1984.66ZM3054.81,1984.65C3054.91,1984.6 3054.98,1984.59 3054.96,1984.65C3054.95,1984.69 3054.87,1984.68 3054.81,1984.65ZM3054.78,1984.63C3054.74,1984.61 3054.73,1984.58 3054.76,1984.56C3054.78,1984.55 3054.77,1984.59 3054.78,1984.61C3054.78,1984.62 3054.78,1984.62 3054.78,1984.63Z"/>
                </g>
                <g transform="matrix(3.8952,-1.58118,0.769866,2.06445,-12610.5,2566.2)">
                    <path d="M3047.66,2005.62C3047.66,2005.62 3047.32,1997.28 3048.11,1992.94C3049.03,1987.9 3051.72,1988.8 3051.81,1990.37C3051.87,1991.37 3050.51,1992.93 3049.73,1995.85C3048.63,1999.98 3047.8,2006.44 3047.8,2006.44"/>
                    <path d="M3047.15,2006.37C3047.07,2006.17 3047.02,2005.94 3047.01,2005.68C3047.01,2005.68 3046.8,2001.74 3046.91,1997.8C3046.96,1995.86 3047.1,1993.92 3047.36,1992.41C3047.89,1989.4 3048.95,1988.09 3049.91,1987.69C3050.84,1987.3 3051.7,1987.83 3052.14,1988.55C3052.44,1989.04 3052.6,1989.64 3052.63,1990.25C3052.66,1990.73 3052.6,1991.28 3052.4,1991.88C3052.25,1992.32 3051.99,1992.86 3051.68,1993.48C3051.28,1994.27 3050.79,1995.25 3050.43,1996.55C3050.01,1998.04 3049.63,1999.85 3049.32,2001.52C3048.79,2004.33 3048.44,2006.77 3048.44,2006.77C3048.35,2007.43 3048,2007.83 3047.65,2007.64C3047.34,2007.49 3047.14,2006.94 3047.15,2006.37ZM3048.4,1998.03C3048.6,1997.02 3048.81,1996.03 3049.04,1995.15C3049.56,1993.11 3050.36,1991.69 3050.8,1990.68C3050.62,1990.68 3050.39,1990.73 3050.23,1990.8C3050.05,1990.89 3049.87,1991.03 3049.7,1991.26C3049.36,1991.7 3049.06,1992.41 3048.86,1993.48C3048.62,1994.74 3048.48,1996.38 3048.4,1998.03ZM3051.01,1990.71C3051.02,1990.87 3051.05,1991.01 3051.09,1990.92C3051.13,1990.82 3051.09,1990.75 3051.01,1990.71Z"/>
                </g>
                <g transform="matrix(-4.47834,0.293831,-0.0350732,2.08234,14648.5,-3200.76)">
                    <path d="M3047.8,2006.44C3047.8,2006.44 3047.1,1996.93 3047.95,1993.27C3049.14,1988.21 3051.72,1988.8 3051.81,1990.37C3051.87,1991.37 3050.51,1992.93 3049.73,1995.85C3048.63,1999.98 3047.8,2006.44 3047.8,2006.44"/>
                    <path d="M3047.19,2006.75C3047.23,2007.26 3047.4,2007.64 3047.64,2007.74C3047.72,2007.78 3047.81,2007.77 3047.9,2007.73C3048.14,2007.61 3048.33,2007.2 3048.39,2006.69C3048.39,2006.69 3048.74,2004.26 3049.26,2001.46C3049.57,1999.81 3049.94,1998.02 3050.35,1996.55C3050.71,1995.27 3051.19,1994.32 3051.58,1993.55C3051.9,1992.91 3052.16,1992.36 3052.31,1991.91C3052.54,1991.23 3052.61,1990.59 3052.58,1990.04C3052.55,1989.42 3052.39,1988.81 3052.09,1988.35C3051.69,1987.73 3050.92,1987.34 3050.05,1987.75C3049.08,1988.22 3047.98,1989.63 3047.29,1992.65C3046.97,1994.1 3046.83,1996.33 3046.83,1998.64C3046.84,2002.59 3047.19,2006.75 3047.19,2006.75ZM3048.22,1999.33C3048.23,1999.03 3048.23,1998.74 3048.24,1998.44C3048.27,1996.69 3048.35,1994.99 3048.62,1993.9C3048.88,1992.79 3049.24,1992.04 3049.61,1991.57C3050.02,1991.05 3050.45,1990.89 3050.79,1990.94C3050.79,1990.95 3050.8,1990.95 3050.81,1990.95C3050.66,1991.19 3050.48,1991.47 3050.36,1991.74C3049.93,1992.65 3049.47,1993.78 3049.11,1995.15C3048.79,1996.42 3048.48,1997.88 3048.22,1999.33ZM3051.03,1990.55C3051.02,1990.33 3051.02,1990.03 3051.09,1990.13C3051.15,1990.22 3051.12,1990.37 3051.03,1990.55Z"/>
                </g>
                <g transform="matrix(1.92884,-0.0931133,0.096192,1.99262,-7847.52,-2749.7)">
                    <path d="M4378.65,2484.02C4380.05,2484.02 4381.19,2485.86 4381.19,2488.14C4381.19,2490.42 4379.68,2491.49 4378.28,2491.49C4376.88,2491.49 4376.11,2490.42 4376.11,2488.14C4376.11,2485.86 4377.25,2484.02 4378.65,2484.02Z" style="fill:rgb(35,31,32);stroke:rgb(35,31,32);stroke-width:2.22px;"/>
                </g>
                <g transform="matrix(1.56327,-0.0754653,0.0446389,0.924695,-6115.06,-170.843)">
                    <ellipse cx="4378.65" cy="2488.14" rx="2.539" ry="4.125" style="fill:white;"/>
                </g>
                <g transform="matrix(1.85698,-0.0896439,0.0922639,1.91125,-7483.74,-2562.64)">
                    <path d="M4378.65,2484.02C4380.05,2484.02 4381.19,2485.86 4381.19,2488.14C4381.19,2490.42 4380.27,2491.85 4378.87,2491.85C4377.47,2491.85 4376.11,2490.42 4376.11,2488.14C4376.11,2485.86 4377.25,2484.02 4378.65,2484.02Z" style="fill:rgb(35,31,32);stroke:rgb(35,31,32);stroke-width:2.31px;"/>
                </g>
                <g transform="matrix(1.56327,-0.0754653,0.0446389,0.924695,-6075.94,-171.565)">
                    <ellipse cx="4378.65" cy="2488.14" rx="2.539" ry="4.125" style="fill:white;"/>
                </g>
                <g transform="matrix(2.09395,0,0,2.09395,-1212.85,465.356)">
                    <ellipse cx="988.729" cy="658.26" rx="3.631" ry="4.13" style="fill:none;stroke:black;stroke-width:2.08px;"/>
                </g>
            </g>
            <g transform="matrix(2.57893,0,0,1.84498,-10960.6,-527.941)">
                <path d="M4383.77,655.537C4376.65,653.334 4368.6,651.527 4361.91,646.221L4360.22,634.731L4356.93,632.909L4358.1,644.2L4342.1,632.909L4340.65,637.783L4346.22,640.911L4340.24,646.061L4343.74,649.563L4349.92,643.383C4359.77,650.846 4370.44,656.691 4382.5,659.863" style="fill:rgb(214,146,9);"/>
                <path d="M4383.89,655.143C4384.1,655.211 4384.23,655.442 4384.16,655.659C4384.09,655.876 4383.86,655.998 4383.64,655.931C4379.26,654.588 4374.53,653.394 4369.97,651.448C4367.07,650.21 4364.24,648.667 4361.61,646.595C4361.52,646.52 4361.45,646.411 4361.44,646.29L4359.76,635.053L4357.54,633.832L4358.63,644.145C4358.65,644.354 4358.55,644.556 4358.37,644.662C4358.19,644.767 4357.96,644.758 4357.79,644.637C4357.79,644.637 4342.41,633.806 4342.41,633.806L4341.31,637.518L4346.48,640.434C4346.64,640.521 4346.74,640.679 4346.76,640.856C4346.78,641.034 4346.71,641.209 4346.57,641.326L4341.03,646.091L4343.74,648.818L4349.57,643.024C4349.74,642.844 4350.03,642.825 4350.23,642.978C4355.13,646.709 4360.23,650.036 4365.61,652.83C4370.98,655.615 4376.62,657.872 4382.6,659.465C4382.82,659.522 4382.95,659.748 4382.9,659.968C4382.84,660.188 4382.61,660.319 4382.39,660.262C4376.34,658.686 4370.62,656.441 4365.19,653.654C4359.87,650.93 4354.82,647.688 4349.97,644.055L4344.12,649.936C4343.91,650.141 4343.58,650.141 4343.37,649.936L4339.86,646.44C4339.76,646.335 4339.7,646.19 4339.71,646.041C4339.71,645.892 4339.78,645.752 4339.89,645.655L4345.27,641.007L4340.38,638.265C4340.16,638.138 4340.05,637.874 4340.12,637.627L4341.57,632.752C4341.62,632.581 4341.75,632.445 4341.91,632.386C4342.08,632.328 4342.27,632.354 4342.41,632.457C4342.41,632.457 4357.45,643.086 4357.45,643.086L4356.42,632.962C4356.4,632.772 4356.49,632.587 4356.65,632.482C4356.8,632.376 4357.01,632.368 4357.18,632.461L4360.47,634.288C4360.61,634.365 4360.7,634.501 4360.72,634.658C4360.72,634.658 4362.35,645.965 4362.35,645.965C4364.86,647.937 4367.56,649.417 4370.32,650.615C4374.84,652.573 4379.54,653.784 4383.89,655.143Z" style="fill:rgb(35,31,32);"/>
            </g>
            <g transform="matrix(2.57893,0,0,1.84498,-10850.6,-568.705)">
                <path d="M4402.69,682.246C4407.83,682.3 4428.6,674.129 4428.6,674.129L4432.25,659.878L4435.1,660.354L4433.08,671.646C4436.75,669.234 4439.54,666.238 4442.09,663.078L4444.82,664.167C4440.74,669.228 4436.47,674.229 4430.47,678.695L4435.92,681.601L4433.74,683.961L4425.39,679.966L4402.69,687.775L4402.69,682.246Z" style="fill:rgb(214,146,9);"/>
                <path d="M4402.69,681.834C4404.22,681.846 4407.16,681.102 4410.51,680.073C4417.65,677.884 4426.64,674.377 4428.19,673.768L4431.75,659.749C4431.81,659.489 4432.07,659.323 4432.33,659.367L4435.19,659.838C4435.32,659.861 4435.45,659.938 4435.53,660.053C4435.61,660.167 4435.64,660.309 4435.62,660.446C4435.62,660.446 4433.84,670.461 4433.84,670.461C4435.18,669.49 4436.4,668.437 4437.54,667.328C4439.03,665.874 4440.38,664.323 4441.66,662.731C4441.82,662.542 4442.07,662.474 4442.3,662.565L4445.02,663.653C4445.19,663.718 4445.31,663.857 4445.35,664.027C4445.4,664.197 4445.36,664.378 4445.25,664.515C4443.13,667.145 4440.96,669.758 4438.52,672.288C4436.41,674.475 4434.1,676.599 4431.46,678.619L4436.16,681.143C4436.31,681.218 4436.4,681.355 4436.43,681.514C4436.46,681.673 4436.41,681.835 4436.3,681.953L4434.12,684.309C4433.97,684.474 4433.72,684.521 4433.52,684.424L4425.36,680.497L4402.83,688.18C4402.69,688.225 4402.55,688.204 4402.44,688.123C4402.32,688.043 4402.26,687.913 4402.26,687.775L4402.27,682.246C4402.27,682.136 4402.32,682.03 4402.4,681.953C4402.48,681.876 4402.58,681.833 4402.69,681.834ZM4403.1,682.648C4403.1,682.648 4403.11,687.174 4403.11,687.174L4425.23,679.501C4425.35,679.459 4425.48,679.467 4425.6,679.522L4433.62,683.337L4435.08,681.744L4430.22,679.165C4430.06,679.079 4429.95,678.917 4429.94,678.735C4429.93,678.553 4430.01,678.377 4430.15,678.268C4433.02,676.127 4435.49,673.862 4437.73,671.529C4439.96,669.205 4441.97,666.813 4443.92,664.403C4443.92,664.403 4442.27,663.743 4442.27,663.743C4441.03,665.257 4439.73,666.73 4438.31,668.117C4436.83,669.554 4435.21,670.898 4433.37,672.099C4433.19,672.218 4432.96,672.218 4432.78,672.099C4432.6,671.979 4432.5,671.764 4432.54,671.55L4434.49,660.782C4434.49,660.782 4432.63,660.467 4432.63,660.467L4429.07,674.25C4429.03,674.401 4428.92,674.524 4428.77,674.581C4428.77,674.581 4418.64,678.536 4410.77,680.906C4407.58,681.863 4404.76,682.557 4403.1,682.648Z" style="fill:rgb(35,31,32);"/>
            </g>
            <g transform="matrix(2.85402,0,0,1.84498,-12153.4,-477.61)">
                <path d="M4406.86,605.629C4440.82,605.635 4436.37,642.899 4431.45,648.165C4431.45,648.165 4433.09,649.648 4433.86,650.441C4441.04,657.797 4445.49,668.056 4445.49,679.396C4445.49,701.753 4428.18,712.903 4406.86,712.903C4385.53,712.903 4368.22,701.753 4368.22,679.396C4368.22,668.056 4372.67,657.797 4379.85,650.441C4380.57,649.698 4382.1,648.302 4382.1,648.302C4376.64,642.172 4373.6,605.624 4406.86,605.629Z" style="fill:white;stroke:rgb(35,31,32);stroke-width:1.68px;"/>
            </g>
            <g transform="matrix(2.21868,0,0,1.63059,-9388.1,-400.76)">
                <ellipse cx="4422.42" cy="619.633" rx="37.101" ry="35.465" style="fill:white;stroke:rgb(35,31,32);stroke-width:2.03px;"/>
            </g>
            <g transform="matrix(2.57893,0,0,1.84498,-11001,-606.414)">
                <path d="M4454.12,680.62L4461.78,691.663C4444.73,697.826 4423.79,696.002 4402.85,686.592L4406.35,681.246C4421.68,683.487 4439.38,685.998 4454.12,680.62Z" style="fill:rgb(215,26,1);stroke:rgb(35,31,32);stroke-width:1.77px;"/>
            </g>
            <g transform="matrix(2.57893,0,0,1.84498,-10960.6,-527.941)">
                <path d="M4403.82,643.539C4399.91,657.239 4401.07,670.072 4405.95,682.273L4413.21,680.082" style="fill:rgb(215,26,1);stroke:rgb(35,31,32);stroke-width:1.77px;"/>
            </g>
            <g transform="matrix(1.1142,1.66391,-2.32581,0.797109,-2909.62,-7219.42)">
                <path d="M4443.65,677.693L4448.61,695.428C4429.57,698.271 4421.15,695.881 4400.21,686.47L4405.99,677.495C4421.32,679.735 4429.61,682.279 4443.65,677.693Z" style="fill:rgb(215,26,1);stroke:rgb(35,31,32);stroke-width:1.77px;"/>
            </g>
            <g transform="matrix(2.57893,0,0,1.84498,-10960.6,-527.941)">
                <ellipse cx="4412" cy="695.204" rx="4.655" ry="4.957" style="fill:rgb(66,66,66);stroke:rgb(35,31,32);stroke-width:1.11px;"/>
            </g>
            <g transform="matrix(1.23161,0,0,0.881104,-5217.24,2.17002)">
                <g transform="matrix(0.679537,0,0,1.09579,1555.05,-92.3279)">
                    <ellipse cx="4412" cy="695.204" rx="4.655" ry="4.957" style="fill:rgb(35,31,32);stroke:rgb(35,31,32);stroke-width:2.55px;"/>
                </g>
                <g transform="matrix(3.08016,0,0,3.31571,-9021.65,-1337.08)">
                    <path d="M4413.21,610.539C4412.32,610.197 4409.63,610.088 4406.42,610.157C4406.37,610.158 4406.27,610.16 4406.27,610.16L4405.57,610.703L4405.18,610.192C4405.18,610.192 4405.12,610.194 4405.08,610.195C4398.82,610.414 4391.34,611.236 4391.17,612.287C4390.96,613.59 4401.04,617.343 4407.33,619.082C4407.4,619.101 4407.54,619.139 4407.54,619.139L4408.21,618.657L4408.66,619.366C4408.66,619.366 4409.05,619.528 4409.12,619.546C4410.51,619.876 4411.54,620.042 4412,619.97C4413.68,617.672 4414.01,614.483 4413.21,610.539Z" style="fill:rgb(255,191,54);stroke:rgb(35,31,32);stroke-width:0.73px;"/>
                </g>
                <g transform="matrix(3.08016,0,0,3.31571,-9022.21,-1318.02)">
                    <path d="M4408.34,609.302C4408.34,609.176 4408.46,609.079 4408.59,609.085C4408.73,609.092 4408.83,609.199 4408.83,609.325L4408.77,612.832C4408.76,613.025 4408.58,613.174 4408.38,613.165C4408.17,613.155 4408.01,612.991 4408.02,612.798L4408.34,609.302Z" style="fill:rgb(35,31,32);"/>
                </g>
                <g transform="matrix(-3.03746,-0.540936,0.361662,-2.70272,17717.2,4727.85)">
                    <path d="M4408.34,609.309C4408.34,609.156 4408.46,609.034 4408.6,609.036C4408.73,609.038 4408.83,609.164 4408.83,609.317L4408.8,612.475C4408.79,612.71 4408.61,612.898 4408.4,612.895C4408.19,612.891 4408.03,612.698 4408.05,612.463L4408.34,609.309Z" style="fill:rgb(35,31,32);"/>
                </g>
                <g transform="matrix(3.07552,0.117428,0.0332284,2.06089,-9045.6,-1072.69)">
                    <path d="M4408.34,609.304C4408.35,609.101 4408.47,608.941 4408.6,608.946C4408.74,608.951 4408.84,609.12 4408.83,609.323L4408.77,612.829C4408.75,613.141 4408.57,613.387 4408.36,613.379C4408.16,613.371 4408,613.112 4408.02,612.801L4408.34,609.304Z" style="fill:rgb(35,31,32);"/>
                </g>
            </g>
            <g transform="matrix(0.836925,0,0,0.965509,-3251.66,-74.3942)">
                <ellipse cx="4412" cy="695.204" rx="4.655" ry="4.957" style="fill:rgb(35,31,32);stroke:rgb(35,31,32);stroke-width:2.55px;"/>
            </g>
        </g>
    </g>
    <defs>
        <radialGradient id="_Radial1" cx="0" cy="0" r="1" gradientUnits="userSpaceOnUse" gradientTransform="matrix(23.4248,-2.10929,0.0748829,19.39,4218.28,797.518)"><stop offset="0" style="stop-color:rgb(255,249,237);stop-opacity:1"/><stop offset="1" style="stop-color:rgb(255,191,54);stop-opacity:1"/></radialGradient>
        <radialGradient id="_Radial2" cx="0" cy="0" r="1" gradientUnits="userSpaceOnUse" gradientTransform="matrix(11.2752,7.50851,-11.1028,7.62511,4212.18,800.198)"><stop offset="0" style="stop-color:rgb(255,248,193);stop-opacity:1"/><stop offset="1" style="stop-color:rgb(248,220,8);stop-opacity:1"/></radialGradient>
    </defs>
</svg>
